<?xml version="1.0" encoding="UTF-8"?>
<svg width="328px" height="67px" viewBox="0 0 328 67" version="1.1" xmlns="http://www.w3.org/2000/svg" xmlns:xlink="http://www.w3.org/1999/xlink">
    <!-- Generator: Sketch 43.1 (39012) - http://www.bohemiancoding.com/sketch -->
    <title>О компании</title>
    <desc>Created with Sketch.</desc>
    <defs></defs>
    <g id="Page-1" stroke="none" stroke-width="1" fill="none" fill-rule="evenodd">
        <g id="Главная" transform="translate(-348.000000, -2625.000000)" fill="#000000">
            <path d="M404.763672,2649.10547 C404.763672,2653.59768 404.014981,2658.13051 402.517578,2662.7041 C401.020175,2667.27769 398.920586,2671.56639 396.21875,2675.57031 C393.907541,2678.9883 391.295262,2681.92609 388.381836,2684.38379 C385.46841,2686.84148 382.384131,2688.6888 379.128906,2689.92578 C375.873682,2691.16277 372.520851,2691.78125 369.070312,2691.78125 C366.042954,2691.78125 363.235365,2691.24415 360.647461,2690.16992 C358.059557,2689.0957 355.846038,2687.55763 354.006836,2685.55566 C352.167634,2683.5537 350.759771,2681.12859 349.783203,2678.28027 C348.806636,2675.43195 348.318359,2672.3314 348.318359,2668.97852 C348.318359,2663.54229 349.311188,2658.2038 351.296875,2652.96289 C353.282562,2647.72198 355.951806,2643.05894 359.304688,2638.97363 C362.657569,2634.88833 366.474262,2631.65756 370.754883,2629.28125 C375.035503,2626.90494 379.405577,2625.7168 383.865234,2625.7168 C387.99937,2625.7168 391.645167,2626.69335 394.802734,2628.64648 C397.960302,2630.59962 400.409822,2633.35024 402.151367,2636.89844 C403.892912,2640.44663 404.763672,2644.5156 404.763672,2649.10547 Z M399.148438,2647.05469 C399.148438,2644.02733 398.774092,2641.30112 398.025391,2638.87598 C397.276689,2636.45083 396.202481,2634.40007 394.802734,2632.72363 C393.402988,2631.04719 391.710296,2629.7614 389.724609,2628.86621 C387.738922,2627.97102 385.444023,2627.52344 382.839844,2627.52344 C380.138007,2627.52344 377.460625,2628.11751 374.807617,2629.30566 C372.154609,2630.49382 369.6644,2632.23534 367.336914,2634.53027 C365.009428,2636.82521 362.917978,2639.61652 361.0625,2642.9043 C358.979156,2646.55015 357.270189,2650.92022 355.935547,2656.01465 C354.600905,2661.10907 353.933594,2665.82094 353.933594,2670.15039 C353.933594,2674.21942 354.592767,2677.75129 355.911133,2680.74609 C357.229499,2683.7409 359.125639,2686.05208 361.599609,2687.67969 C364.07358,2689.3073 366.921859,2690.12109 370.144531,2690.12109 C373.17189,2690.12109 376.17479,2689.35613 379.15332,2687.82617 C382.131851,2686.29622 384.874336,2684.13152 387.380859,2681.33203 C389.887382,2678.53254 392.003247,2675.27736 393.728516,2671.56641 C395.258471,2668.27863 396.544266,2664.33173 397.585938,2659.72559 C398.627609,2655.11944 399.148438,2650.89585 399.148438,2647.05469 Z M428.298828,2664.4375 L432.9375,2662.43555 L428.689453,2680.55078 C429.503259,2679.08593 430.357743,2677.66179 431.25293,2676.27832 C432.148116,2674.89485 433.059566,2673.59278 433.987305,2672.37207 C434.915044,2671.15136 435.826493,2670.02833 436.72168,2669.00293 C437.616866,2667.97753 438.47135,2667.0905 439.285156,2666.3418 C440.033858,2665.6582 440.709307,2665.08041 441.311523,2664.6084 C441.91374,2664.13639 442.532223,2663.74577 443.166992,2663.43652 C443.801761,2663.12728 444.485348,2662.89941 445.217773,2662.75293 C445.950199,2662.60644 446.820958,2662.50065 447.830078,2662.43555 L446.902344,2666.97656 C446.153642,2666.71614 445.518883,2666.56966 444.998047,2666.53711 C444.477211,2666.50456 444.021486,2666.48828 443.630859,2666.48828 C443.012367,2666.48828 442.320642,2666.65918 441.555664,2667.00098 C440.790686,2667.34278 440.009444,2667.83105 439.211914,2668.46582 C438.414384,2669.10059 437.633142,2669.84928 436.868164,2670.71191 C436.103186,2671.57455 435.395186,2672.54296 434.744141,2673.61719 C435.264977,2674.88673 435.859046,2676.36783 436.526367,2678.06055 C437.193688,2679.75326 437.893551,2681.36458 438.625977,2682.89453 C439.358402,2684.42449 440.082679,2685.71842 440.798828,2686.77637 C441.514978,2687.83432 442.182289,2688.36328 442.800781,2688.36328 C444.23308,2688.36328 445.89322,2687.37045 447.78125,2685.38477 L448.171875,2684.94531 L448.806641,2685.67773 C445.518864,2689.64911 443.12631,2691.63477 441.628906,2691.63477 C441.10807,2691.63477 440.603518,2691.53711 440.115234,2691.3418 C439.626951,2691.14648 439.187502,2690.80469 438.796875,2690.31641 C438.243487,2689.66536 437.722659,2688.85157 437.234375,2687.875 C436.746091,2686.89843 436.241539,2685.80795 435.720703,2684.60352 C435.199867,2683.39908 434.662763,2682.12143 434.109375,2680.77051 C433.555987,2679.41959 432.953779,2678.028 432.302734,2676.5957 C431.065749,2678.35352 429.902024,2680.35546 428.811523,2682.60156 C427.721023,2684.84767 426.899091,2687.50064 426.345703,2690.56055 L423.220703,2691.43945 L428.298828,2664.4375 Z M451.931641,2681.625 C451.931641,2678.6953 452.721021,2675.77378 454.299805,2672.86035 C455.878589,2669.94693 457.921211,2667.57879 460.427734,2665.75586 C462.934257,2663.93293 465.48957,2663.02148 468.09375,2663.02148 C470.828139,2663.02148 473.03352,2663.9248 474.709961,2665.73145 C476.386402,2667.53809 477.224609,2669.87368 477.224609,2672.73828 C477.224609,2675.8633 476.451505,2678.89061 474.905273,2681.82031 C473.359042,2684.75001 471.324557,2687.15071 468.801758,2689.02246 C466.278959,2690.89422 463.731784,2691.83008 461.160156,2691.83008 C458.393215,2691.83008 456.16342,2690.89422 454.470703,2689.02246 C452.777986,2687.15071 451.931641,2684.68491 451.931641,2681.625 Z M472.830078,2670.88281 C472.830078,2668.92968 472.34994,2667.31837 471.389648,2666.04883 C470.429357,2664.77929 469.200528,2664.14453 467.703125,2664.14453 C466.335931,2664.14453 465.025722,2664.58398 463.772461,2665.46289 C462.519199,2666.3418 461.37175,2667.6276 460.330078,2669.32031 C459.158197,2671.27345 458.189782,2673.55207 457.424805,2676.15625 C456.659827,2678.76043 456.277344,2681.0716 456.277344,2683.08984 C456.277344,2685.49871 456.749344,2687.35416 457.693359,2688.65625 C458.637375,2689.95834 459.988272,2690.60938 461.746094,2690.60938 C464.578139,2690.60938 467.068349,2688.63999 469.216797,2684.70117 C470.323573,2682.68293 471.202471,2680.42059 471.853516,2677.91406 C472.504561,2675.40754 472.830078,2673.06381 472.830078,2670.88281 Z M512.283203,2664.29102 L517.556641,2662.67969 L513.699219,2677.91406 C513.210935,2679.83465 512.87728,2681.34016 512.698242,2682.43066 C512.519205,2683.52116 512.429688,2684.32682 512.429688,2684.84766 C512.429688,2685.88933 512.608722,2686.72754 512.966797,2687.3623 C513.324872,2687.99707 513.796872,2688.31445 514.382812,2688.31445 C515.391932,2688.31445 517.003244,2687.11004 519.216797,2684.70117 L519.998047,2685.38477 L519.509766,2685.92188 C518.56575,2687.02865 517.760094,2687.94824 517.092773,2688.68066 C516.425452,2689.41309 515.863935,2689.97461 515.408203,2690.36523 C514.49674,2691.11394 513.682946,2691.48828 512.966797,2691.48828 C511.957677,2691.48828 511.103194,2690.98373 510.40332,2689.97461 C509.703447,2688.96549 509.353516,2687.6797 509.353516,2686.11719 C509.353516,2685.36849 509.459309,2684.30242 509.670898,2682.91895 C509.882488,2681.53547 510.159178,2679.96485 510.500977,2678.20703 C510.842775,2676.44921 511.208982,2674.57748 511.599609,2672.5918 C511.990236,2670.60611 512.364582,2668.63673 512.722656,2666.68359 L497.976562,2691 L496.462891,2691 L494.705078,2665.90234 C493.468093,2670.32945 492.296229,2674.12987 491.189453,2677.30371 C490.082677,2680.47755 489.000331,2683.07356 487.942383,2685.0918 C486.884435,2687.11004 485.850917,2688.59928 484.841797,2689.55957 C483.832677,2690.51986 482.823573,2691 481.814453,2691 C481.488931,2691 481.073896,2690.98372 480.569336,2690.95117 C480.064776,2690.91862 479.633465,2690.85352 479.275391,2690.75586 L480.642578,2685.82422 C480.968101,2686.08464 481.415687,2686.28809 481.985352,2686.43457 C482.555016,2686.58106 483.100258,2686.6543 483.621094,2686.6543 C484.239586,2686.6543 484.81738,2686.42643 485.354492,2685.9707 C485.891604,2685.51497 486.404294,2684.91276 486.892578,2684.16406 C487.380862,2683.41536 487.844724,2682.53646 488.28418,2681.52734 C488.723635,2680.51822 489.122394,2679.46029 489.480469,2678.35352 C490.326827,2675.74934 490.912759,2673.55209 491.238281,2671.76172 C491.563804,2669.97135 491.726562,2668.45769 491.726562,2667.2207 C491.726562,2666.86263 491.710287,2666.47201 491.677734,2666.04883 C491.645182,2665.62565 491.563803,2665.15365 491.433594,2664.63281 L498.171875,2662.63086 L499.490234,2685.9707 L512.283203,2664.29102 Z M523.171875,2691.48828 L528.347656,2664.4375 L532.986328,2662.43555 L528.787109,2680.35547 C531.488946,2674.65883 534.174466,2670.32944 536.84375,2667.36719 C539.513034,2664.40493 542.068347,2662.92383 544.509766,2662.92383 C545.714199,2662.92383 546.690751,2663.32259 547.439453,2664.12012 C548.188155,2664.91765 548.5625,2665.98372 548.5625,2667.31836 C548.5625,2668.06706 548.383465,2669.12499 548.025391,2670.49219 L547.537109,2672.54297 L546.072266,2678.5 L545.583984,2680.4043 C545.095701,2682.35743 544.851562,2683.85481 544.851562,2684.89648 C544.851562,2685.93816 545.030597,2686.77636 545.388672,2687.41113 C545.746747,2688.0459 546.218747,2688.36328 546.804688,2688.36328 C547.813807,2688.36328 549.425119,2687.15887 551.638672,2684.75 L552.419922,2685.43359 L551.931641,2685.9707 C550.076163,2688.1517 548.708989,2689.62467 547.830078,2690.38965 C546.951167,2691.15463 546.137374,2691.53711 545.388672,2691.53711 C544.379552,2691.53711 543.525069,2691.02442 542.825195,2689.99902 C542.125322,2688.97363 541.775391,2687.69597 541.775391,2686.16602 C541.775391,2685.12434 541.970701,2683.57814 542.361328,2681.52734 L544.265625,2671.17578 C544.526043,2669.54817 544.65625,2668.40886 544.65625,2667.75781 C544.65625,2667.07422 544.477215,2666.55339 544.119141,2666.19531 C543.761066,2665.83724 543.27279,2665.6582 542.654297,2665.6582 C540.408192,2665.6582 537.641292,2668.06703 534.353516,2672.88477 C532.758456,2675.19598 531.440109,2677.48274 530.398438,2679.74512 C529.356766,2682.0075 528.184902,2685.1406 526.882812,2689.14453 L526.443359,2690.46289 L523.171875,2691.48828 Z M582.644531,2662.14258 L578.054688,2680.01367 C577.566404,2681.96681 577.322266,2683.49674 577.322266,2684.60352 C577.322266,2685.58008 577.533852,2686.42643 577.957031,2687.14258 C578.38021,2687.85873 578.901039,2688.2168 579.519531,2688.2168 C580.463546,2688.2168 582.026031,2687.06121 584.207031,2684.75 L584.890625,2685.43359 L584.353516,2686.06836 C582.628247,2688.05405 581.301762,2689.44563 580.374023,2690.24316 C579.446284,2691.04069 578.640628,2691.43945 577.957031,2691.43945 C576.915359,2691.43945 576.012048,2690.89421 575.24707,2689.80371 C574.482093,2688.71321 574.099609,2687.45183 574.099609,2686.01953 C574.099609,2684.97786 574.49023,2682.61786 575.271484,2678.93945 L575.662109,2677.08398 C574.457676,2679.88348 572.846364,2682.569 570.828125,2685.14062 C567.442691,2689.43752 564.203792,2691.58594 561.111328,2691.58594 C559.25585,2691.58594 557.791021,2690.91863 556.716797,2689.58398 C555.642573,2688.24934 555.105469,2686.459 555.105469,2684.21289 C555.105469,2681.15298 555.976228,2677.94663 557.717773,2674.59375 C559.459319,2671.24087 561.62401,2668.48211 564.211914,2666.31738 C566.799818,2664.15266 569.314441,2663.07031 571.755859,2663.07031 C574.327487,2663.07031 576.248041,2664.01431 577.517578,2665.90234 L578.054688,2664.04688 L582.644531,2662.14258 Z M577.029297,2668.39258 C576.63867,2667.15559 575.979497,2666.18718 575.051758,2665.4873 C574.124019,2664.78743 573.057949,2664.4375 571.853516,2664.4375 C570.421217,2664.4375 568.90756,2665.09667 567.3125,2666.41504 C565.71744,2667.73341 564.252611,2669.56444 562.917969,2671.9082 C561.876297,2673.76368 561.005537,2675.81444 560.305664,2678.06055 C559.605791,2680.30665 559.255859,2682.1621 559.255859,2683.62695 C559.255859,2685.28712 559.573239,2686.58919 560.208008,2687.5332 C560.842777,2688.47722 561.746088,2688.94922 562.917969,2688.94922 C564.415372,2688.94922 565.977856,2688.24936 567.605469,2686.84961 C569.233081,2685.44986 570.844393,2683.44793 572.439453,2680.84375 C573.416021,2679.34635 574.180987,2677.84897 574.734375,2676.35156 C575.287763,2674.85416 575.906247,2672.77085 576.589844,2670.10156 L577.029297,2668.39258 Z M608.083984,2664.4375 L612.869141,2662.43555 L608.865234,2677.96289 C608.376951,2679.88347 608.043295,2681.38899 607.864258,2682.47949 C607.68522,2683.56999 607.595703,2684.37565 607.595703,2684.89648 C607.595703,2685.93816 607.774738,2686.77636 608.132812,2687.41113 C608.490887,2688.0459 608.962888,2688.36328 609.548828,2688.36328 C610.557948,2688.36328 612.16926,2687.15887 614.382812,2684.75 L615.164062,2685.43359 L614.675781,2685.9707 C613.731766,2687.07748 612.92611,2687.99707 612.258789,2688.72949 C611.591468,2689.46192 611.02995,2690.02344 610.574219,2690.41406 C609.662756,2691.16276 608.848962,2691.53711 608.132812,2691.53711 C607.123693,2691.53711 606.269209,2691.03256 605.569336,2690.02344 C604.869463,2689.01432 604.519531,2687.72852 604.519531,2686.16602 C604.519531,2685.35221 604.633462,2684.19662 604.861328,2682.69922 C605.089194,2681.20182 605.398436,2679.37892 605.789062,2677.23047 L594.460938,2677.23047 L591.384766,2690.46289 L588.113281,2691.48828 L593.289062,2664.4375 L597.927734,2662.43555 L594.851562,2675.57031 L606.130859,2675.57031 C606.42383,2673.97525 606.733071,2672.25815 607.058594,2670.41895 C607.384116,2668.57974 607.72591,2666.58595 608.083984,2664.4375 Z M627.810547,2662.43555 L623.074219,2681.33203 C622.65104,2683.02475 622.439453,2684.45703 622.439453,2685.62891 C622.439453,2686.76823 622.797522,2687.67968 623.513672,2688.36328 C624.229821,2689.04688 625.157546,2689.38867 626.296875,2689.38867 C629.063816,2689.38867 631.944646,2687.12632 634.939453,2682.60156 L635.134766,2682.30859 C635.19987,2681.98307 635.248698,2681.72266 635.28125,2681.52734 L638.357422,2664.4375 L643.142578,2662.43555 L638.845703,2678.5 C638.129554,2681.13673 637.771484,2683.2526 637.771484,2684.84766 C637.771484,2685.88933 637.950519,2686.73567 638.308594,2687.38672 C638.666668,2688.03776 639.138669,2688.36328 639.724609,2688.36328 C640.733729,2688.36328 642.345041,2687.15887 644.558594,2684.75 L645.339844,2685.43359 L644.851562,2685.9707 C642.996084,2688.1517 641.628911,2689.62467 640.75,2690.38965 C639.871089,2691.15463 639.057295,2691.53711 638.308594,2691.53711 C637.299474,2691.53711 636.44499,2691.02442 635.745117,2689.99902 C635.045244,2688.97363 634.695312,2687.69597 634.695312,2686.16602 C634.695312,2685.67773 634.711588,2685.22201 634.744141,2684.79883 C631.358707,2689.29104 628.005876,2691.53711 624.685547,2691.53711 C623.025382,2691.53711 621.698898,2691.05697 620.706055,2690.09668 C619.713211,2689.13639 619.216797,2687.85873 619.216797,2686.26367 C619.216797,2685.02669 619.395832,2683.51303 619.753906,2681.72266 L623.074219,2664.4375 L627.810547,2662.43555 Z M657.9375,2662.43555 L653.201172,2681.33203 C652.777993,2683.02475 652.566406,2684.45703 652.566406,2685.62891 C652.566406,2686.76823 652.924476,2687.67968 653.640625,2688.36328 C654.356774,2689.04688 655.2845,2689.38867 656.423828,2689.38867 C659.190769,2689.38867 662.0716,2687.12632 665.066406,2682.60156 L665.261719,2682.30859 C665.326823,2681.98307 665.375651,2681.72266 665.408203,2681.52734 L668.484375,2664.4375 L673.269531,2662.43555 L668.972656,2678.5 C668.256507,2681.13673 667.898438,2683.2526 667.898438,2684.84766 C667.898438,2685.88933 668.077472,2686.73567 668.435547,2687.38672 C668.793622,2688.03776 669.265622,2688.36328 669.851562,2688.36328 C670.860682,2688.36328 672.471994,2687.15887 674.685547,2684.75 L675.466797,2685.43359 L674.978516,2685.9707 C673.123038,2688.1517 671.755864,2689.62467 670.876953,2690.38965 C669.998042,2691.15463 669.184249,2691.53711 668.435547,2691.53711 C667.426427,2691.53711 666.571944,2691.02442 665.87207,2689.99902 C665.172197,2688.97363 664.822266,2687.69597 664.822266,2686.16602 C664.822266,2685.67773 664.838542,2685.22201 664.871094,2684.79883 C661.48566,2689.29104 658.132829,2691.53711 654.8125,2691.53711 C653.152335,2691.53711 651.825851,2691.05697 650.833008,2690.09668 C649.840164,2689.13639 649.34375,2687.85873 649.34375,2686.26367 C649.34375,2685.02669 649.522785,2683.51303 649.880859,2681.72266 L653.201172,2664.4375 L657.9375,2662.43555 Z" id="О-компании"></path>
        </g>
    </g>
</svg>