<?xml version="1.0" encoding="UTF-8"?>
<svg width="1590px" height="3px" viewBox="0 0 1590 3" version="1.1" xmlns="http://www.w3.org/2000/svg" xmlns:xlink="http://www.w3.org/1999/xlink">
    <!-- Generator: Sketch 43.1 (39012) - http://www.bohemiancoding.com/sketch -->
    <title>вк</title>
    <desc>Created with Sketch.</desc>
    <defs></defs>
    <g id="Page-1" stroke="none" stroke-width="1" fill="none" fill-rule="evenodd" stroke-linecap="square">
        <g id="вк">
            <path d="M549.5,1.5 L599.5,1.5" id="Line" stroke="#D0011B"></path>
            <path d="M600.5,1.5 L650.5,1.5" id="Line" stroke="#F6A623"></path>
            <path d="M651.5,1.5 L701.5,1.5" id="Line" stroke="#F8E81C"></path>
            <path d="M702.5,1.5 L752.5,1.5" id="Line" stroke="#8B572A"></path>
            <path d="M753.5,1.5 L803.5,1.5" id="Line" stroke="#7ED321"></path>
            <path d="M804.5,1.5 L854.5,1.5" id="Line" stroke="#417505"></path>
            <path d="M855.5,1.5 L905.5,1.5" id="Line" stroke="#BD0FE1"></path>
            <path d="M906.5,1.5 L956.5,1.5" id="Line" stroke="#9012FE"></path>
            <path d="M957.5,1.5 L1007.5,1.5" id="Line" stroke="#4990E2"></path>
            <path d="M1008.5,1.5 L1058.5,1.5" id="Line" stroke="#50E3C2"></path>
            <path d="M-11.5,1.5 L38.5,1.5" id="Line" stroke="#D0011B"></path>
            <path d="M39.5,1.5 L89.5,1.5" id="Line" stroke="#F6A623"></path>
            <path d="M90.5,1.5 L140.5,1.5" id="Line" stroke="#F8E81C"></path>
            <path d="M141.5,1.5 L191.5,1.5" id="Line" stroke="#8B572A"></path>
            <path d="M141.5,1.5 L191.5,1.5" id="Line" stroke="#8B572A"></path>
            <path d="M192.5,1.5 L242.5,1.5" id="Line" stroke="#7ED321"></path>
            <path d="M243.5,1.5 L293.5,1.5" id="Line" stroke="#417505"></path>
            <path d="M294.5,1.5 L344.5,1.5" id="Line" stroke="#BD0FE1"></path>
            <path d="M345.5,1.5 L395.5,1.5" id="Line" stroke="#9012FE"></path>
            <path d="M396.5,1.5 L446.5,1.5" id="Line" stroke="#4990E2"></path>
            <path d="M447.5,1.5 L497.5,1.5" id="Line" stroke="#50E3C2"></path>
            <path d="M498.5,1.5 L548.5,1.5" id="Line" stroke="#B8E986"></path>
            <path d="M1079.5,1.5 L1129.5,1.5" id="Line" stroke="#D0011B"></path>
            <path d="M1130.5,1.5 L1180.5,1.5" id="Line" stroke="#F6A623"></path>
            <path d="M1181.5,1.5 L1231.5,1.5" id="Line" stroke="#F8E81C"></path>
            <path d="M1232.5,1.5 L1282.5,1.5" id="Line" stroke="#8B572A"></path>
            <path d="M1283.5,1.5 L1333.5,1.5" id="Line" stroke="#7ED321"></path>
            <path d="M1334.5,1.5 L1384.5,1.5" id="Line" stroke="#417505"></path>
            <path d="M1385.5,1.5 L1435.5,1.5" id="Line" stroke="#BD0FE1"></path>
            <path d="M1436.5,1.5 L1486.5,1.5" id="Line" stroke="#9012FE"></path>
            <path d="M1487.5,1.5 L1537.5,1.5" id="Line" stroke="#4990E2"></path>
            <path d="M1538.5,1.5 L1588.5,1.5" id="Line" stroke="#50E3C2"></path>
            <path d="M518.5,1.5 L568.5,1.5" id="Line" stroke="#D0011B"></path>
            <path d="M569.5,1.5 L619.5,1.5" id="Line" stroke="#F6A623"></path>
            <path d="M620.5,1.5 L670.5,1.5" id="Line" stroke="#F8E81C"></path>
            <path d="M671.5,1.5 L721.5,1.5" id="Line" stroke="#8B572A"></path>
            <path d="M671.5,1.5 L721.5,1.5" id="Line" stroke="#8B572A"></path>
            <path d="M722.5,1.5 L772.5,1.5" id="Line" stroke="#7ED321"></path>
            <path d="M773.5,1.5 L823.5,1.5" id="Line" stroke="#417505"></path>
            <path d="M824.5,1.5 L874.5,1.5" id="Line" stroke="#BD0FE1"></path>
            <path d="M875.5,1.5 L925.5,1.5" id="Line" stroke="#9012FE"></path>
            <path d="M926.5,1.5 L976.5,1.5" id="Line" stroke="#4990E2"></path>
            <path d="M977.5,1.5 L1027.5,1.5" id="Line" stroke="#50E3C2"></path>
            <path d="M1028.5,1.5 L1078.5,1.5" id="Line" stroke="#B8E986"></path>
        </g>
    </g>
</svg>