<?xml version="1.0" encoding="UTF-8"?>
<svg width="116px" height="62px" viewBox="0 0 116 62" version="1.1" xmlns="http://www.w3.org/2000/svg" xmlns:xlink="http://www.w3.org/1999/xlink">
    <!-- Generator: Sketch 43.1 (39012) - http://www.bohemiancoding.com/sketch -->
    <title>Установленно шкафоф</title>
    <desc>Created with Sketch.</desc>
    <defs></defs>
    <g id="Page-1" stroke="none" stroke-width="1" fill="none" fill-rule="evenodd">
        <g id="Главная" transform="translate(-561.000000, -3488.000000)" fill="#000000">
            <path d="M561.51416,3508.26367 L562.012207,3507.13574 C562.969243,3507.47754 563.93603,3507.64844 564.912598,3507.64844 C565.752446,3507.64844 566.523922,3507.52149 567.227051,3507.26758 C567.930179,3507.01367 568.564939,3506.63526 569.131348,3506.13232 C569.697757,3505.62939 570.249509,3504.95313 570.786621,3504.10352 C571.519047,3502.95117 572.187985,3501.50099 572.793457,3499.75293 C572.949708,3499.29394 573.086425,3498.86914 573.203613,3498.47852 C573.320801,3498.08789 573.604002,3497.07716 574.053223,3495.44629 L574.17041,3495.03613 L573.965332,3495.43164 C573.535642,3496.29102 573.103518,3497.05029 572.668945,3497.70947 C572.234373,3498.36866 571.69971,3499.08398 571.064941,3499.85547 C570.605955,3500.39258 570.210451,3500.80517 569.878418,3501.09326 C569.546385,3501.38135 569.221681,3501.59863 568.904297,3501.74512 C568.586912,3501.8916 568.28174,3501.96484 567.98877,3501.96484 C567.26611,3501.96484 566.758302,3501.6084 566.465332,3500.89551 C566.338378,3500.54394 566.274902,3499.95313 566.274902,3499.12305 L566.274902,3498.47852 L566.538574,3490.97852 C566.54834,3490.87109 566.553223,3490.70996 566.553223,3490.49512 C566.553223,3489.32324 566.240726,3488.7373 565.615723,3488.7373 C565.234861,3488.7373 564.873537,3488.99609 564.531738,3489.51367 C564.18994,3490.03125 563.879884,3490.78564 563.601562,3491.77686 C563.323241,3492.76807 563.086427,3493.97167 562.891113,3495.3877 L562.847168,3495.75391 L561.719238,3495.03613 C561.816895,3494.21582 562.012206,3493.33936 562.305176,3492.40674 C562.598146,3491.47412 562.90576,3490.72949 563.228027,3490.17285 C563.960453,3488.91308 564.756343,3488.2832 565.615723,3488.2832 C566.338383,3488.2832 566.892576,3488.63232 567.27832,3489.33057 C567.664064,3490.02881 567.856934,3491.06152 567.856934,3492.42871 C567.856934,3492.80957 567.852051,3493.09766 567.842285,3493.29297 L567.651855,3498.22949 C567.651855,3498.42481 567.649414,3498.57861 567.644531,3498.69092 C567.639648,3498.80322 567.637207,3498.92773 567.637207,3499.06445 C567.637207,3500.28516 568.008297,3500.89551 568.750488,3500.89551 C569.102053,3500.89551 569.473143,3500.74658 569.86377,3500.44873 C570.254396,3500.15088 570.718259,3499.66993 571.255371,3499.00586 C571.919437,3498.18554 572.534665,3497.25293 573.101074,3496.20801 C573.667483,3495.16308 574.136229,3494.07667 574.507324,3492.94873 C574.87842,3491.8208 575.151855,3490.68555 575.327637,3489.54297 L576.953613,3488.81055 L576.865723,3489.25 C576.299314,3492.26759 575.576665,3495.0996 574.697754,3497.74609 C573.818843,3500.39259 572.939946,3502.37499 572.061035,3503.69336 C570.986811,3505.3047 569.724617,3506.49609 568.274414,3507.26758 C566.824211,3508.03907 565.112803,3508.4248 563.140137,3508.4248 C562.495602,3508.4248 561.953615,3508.37109 561.51416,3508.26367 Z M581.904785,3505.80273 C581.309079,3506.64258 580.730472,3507.25537 580.168945,3507.64111 C579.607419,3508.02686 578.984867,3508.21973 578.30127,3508.21973 C577.549313,3508.21973 576.936526,3507.95606 576.462891,3507.42871 C575.989255,3506.90136 575.752441,3506.21778 575.752441,3505.37793 C575.752441,3504.49902 575.981931,3503.60547 576.440918,3502.69727 C576.899905,3501.78906 577.488278,3501.03711 578.206055,3500.44141 C578.923832,3499.8457 579.614743,3499.54785 580.278809,3499.54785 C580.72803,3499.54785 581.089354,3499.67236 581.362793,3499.92139 C581.636232,3500.17041 581.772949,3500.50488 581.772949,3500.9248 C581.772949,3501.30567 581.628908,3501.66943 581.34082,3502.01611 C581.052733,3502.36279 580.742677,3502.53613 580.410645,3502.53613 C580.264159,3502.53613 580.132325,3502.47754 580.015137,3502.36035 C580.649906,3502.07715 580.967285,3501.54981 580.967285,3500.77832 C580.967285,3500.50488 580.896485,3500.29248 580.754883,3500.14111 C580.613281,3499.98975 580.425294,3499.91406 580.190918,3499.91406 C579.829588,3499.91406 579.465822,3500.06055 579.099609,3500.35352 C578.733397,3500.64649 578.389162,3501.0542 578.066895,3501.57666 C577.744627,3502.09912 577.493165,3502.65576 577.3125,3503.24658 C577.131835,3503.83741 577.041504,3504.43554 577.041504,3505.04102 C577.041504,3505.76368 577.212401,3506.34961 577.554199,3506.79883 C577.895998,3507.24805 578.345212,3507.47266 578.901855,3507.47266 C579.380373,3507.47266 579.844236,3507.32129 580.293457,3507.01855 C580.742678,3506.71582 581.211423,3506.25196 581.699707,3505.62695 L581.904785,3505.80273 Z M588.818848,3507.83887 L587.852051,3508.14648 L589.009277,3502.18457 L589.111816,3501.67188 C589.17041,3501.38867 589.199707,3501.1543 589.199707,3500.96875 C589.199707,3500.53906 589.02881,3500.32422 588.687012,3500.32422 C588.364744,3500.32422 587.974123,3500.5415 587.515137,3500.97607 C587.05615,3501.41065 586.572756,3502.03808 586.064941,3502.8584 C585.732908,3503.38574 585.447267,3503.89355 585.208008,3504.38184 C584.968749,3504.87012 584.749024,3505.39013 584.548828,3505.94189 C584.348632,3506.49366 584.155763,3507.12597 583.970215,3507.83887 L583.062012,3508.14648 L584.570801,3500.03125 L585.977051,3499.43066 L584.702637,3504.74805 C585.356937,3503.23437 586.106441,3501.9917 586.951172,3501.02002 C587.795903,3500.04833 588.555172,3499.5625 589.229004,3499.5625 C589.961429,3499.5625 590.327637,3499.97753 590.327637,3500.80762 C590.327637,3501.09082 590.254395,3501.59375 590.10791,3502.31641 L589.624512,3504.49902 C590.571782,3502.68261 591.372555,3501.40088 592.026855,3500.65381 C592.681156,3499.90673 593.330563,3499.5332 593.975098,3499.5332 C594.336428,3499.5332 594.619628,3499.64062 594.824707,3499.85547 C595.029786,3500.07031 595.132324,3500.37793 595.132324,3500.77832 C595.132324,3501.10059 595.034669,3501.65722 594.839355,3502.44824 L594.385254,3504.25 L594.23877,3504.82129 C594.10205,3505.42676 594.033691,3505.87598 594.033691,3506.16895 C594.033691,3506.48145 594.087402,3506.73291 594.194824,3506.92334 C594.302247,3507.11377 594.438964,3507.20898 594.60498,3507.20898 C594.917482,3507.20898 595.405758,3506.84766 596.069824,3506.125 L596.289551,3506.33008 L596.157715,3506.49121 C595.601071,3507.14551 595.188478,3507.5874 594.919922,3507.81689 C594.651366,3508.04639 594.404786,3508.16113 594.180176,3508.16113 C593.87744,3508.16113 593.621095,3508.00733 593.411133,3507.69971 C593.201171,3507.39209 593.096191,3507.00879 593.096191,3506.5498 C593.096191,3506.2666 593.159667,3505.80274 593.286621,3505.1582 L593.828613,3502.12598 L593.916504,3501.59863 C593.975098,3501.30566 594.004395,3501.07129 594.004395,3500.89551 C594.004395,3500.71973 593.950684,3500.57813 593.843262,3500.4707 C593.735839,3500.36328 593.589356,3500.30957 593.403809,3500.30957 C593.188964,3500.30957 592.95215,3500.3999 592.693359,3500.58057 C592.434569,3500.76123 592.158693,3501.03711 591.865723,3501.4082 C591.572752,3501.7793 591.245607,3502.26758 590.884277,3502.87305 C590.395994,3503.70313 590.00049,3504.47705 589.697754,3505.19482 C589.395018,3505.9126 589.102052,3506.79394 588.818848,3507.83887 Z M605.371582,3499.34277 L603.994629,3504.7041 C603.848144,3505.29004 603.774902,3505.74902 603.774902,3506.08105 C603.774902,3506.37402 603.838378,3506.62793 603.965332,3506.84277 C604.092286,3507.05762 604.248534,3507.16504 604.434082,3507.16504 C604.717287,3507.16504 605.186032,3506.81836 605.840332,3506.125 L606.04541,3506.33008 L605.884277,3506.52051 C605.366697,3507.11621 604.968751,3507.53369 604.69043,3507.77295 C604.412108,3508.01221 604.170411,3508.13184 603.965332,3508.13184 C603.65283,3508.13184 603.381837,3507.96826 603.152344,3507.64111 C602.92285,3507.31396 602.808105,3506.93555 602.808105,3506.50586 C602.808105,3506.19336 602.925292,3505.48536 603.159668,3504.38184 L603.276855,3503.8252 C602.915526,3504.66504 602.432132,3505.4707 601.82666,3506.24219 C600.81103,3507.53126 599.83936,3508.17578 598.911621,3508.17578 C598.354978,3508.17578 597.915529,3507.97559 597.593262,3507.5752 C597.270994,3507.1748 597.109863,3506.6377 597.109863,3505.96387 C597.109863,3505.04589 597.371091,3504.08399 597.893555,3503.07812 C598.416018,3502.07226 599.065426,3501.24463 599.841797,3500.59521 C600.618168,3499.9458 601.372555,3499.62109 602.10498,3499.62109 C602.876469,3499.62109 603.452635,3499.90429 603.833496,3500.4707 L603.994629,3499.91406 L605.371582,3499.34277 Z M603.687012,3501.21777 C603.569824,3500.84668 603.372072,3500.55615 603.09375,3500.34619 C602.815428,3500.13623 602.495607,3500.03125 602.134277,3500.03125 C601.704588,3500.03125 601.250491,3500.229 600.771973,3500.62451 C600.293455,3501.02002 599.854006,3501.56933 599.453613,3502.27246 C599.141112,3502.8291 598.879884,3503.44433 598.669922,3504.11816 C598.45996,3504.792 598.35498,3505.34863 598.35498,3505.78809 C598.35498,3506.28614 598.450194,3506.67676 598.640625,3506.95996 C598.831056,3507.24317 599.102049,3507.38477 599.453613,3507.38477 C599.902834,3507.38477 600.37158,3507.17481 600.859863,3506.75488 C601.348147,3506.33496 601.831541,3505.73438 602.310059,3504.95312 C602.603029,3504.5039 602.832519,3504.05469 602.998535,3503.60547 C603.164552,3503.15625 603.350097,3502.53125 603.555176,3501.73047 L603.687012,3501.21777 Z M613.003418,3500.03125 L614.438965,3499.43066 L613.237793,3504.08887 C613.091308,3504.66504 612.991211,3505.1167 612.9375,3505.44385 C612.883789,3505.771 612.856934,3506.01269 612.856934,3506.16895 C612.856934,3506.48145 612.910644,3506.73291 613.018066,3506.92334 C613.125489,3507.11377 613.267089,3507.20898 613.442871,3507.20898 C613.745607,3507.20898 614.229001,3506.84766 614.893066,3506.125 L615.127441,3506.33008 L614.980957,3506.49121 C614.697752,3506.82324 614.456056,3507.09912 614.255859,3507.31885 C614.055663,3507.53858 613.887208,3507.70703 613.750488,3507.82422 C613.477049,3508.04883 613.232911,3508.16113 613.018066,3508.16113 C612.715331,3508.16113 612.458985,3508.00977 612.249023,3507.70703 C612.039061,3507.4043 611.934082,3507.01856 611.934082,3506.5498 C611.934082,3506.30566 611.968261,3505.95899 612.036621,3505.50977 C612.104981,3505.06054 612.197753,3504.51368 612.314941,3503.86914 L608.916504,3503.86914 L607.993652,3507.83887 L607.012207,3508.14648 L608.564941,3500.03125 L609.956543,3499.43066 L609.033691,3503.37109 L612.41748,3503.37109 C612.505372,3502.89258 612.598144,3502.37744 612.695801,3501.82568 C612.793458,3501.27392 612.895996,3500.67578 613.003418,3500.03125 Z M615.947754,3505.1875 C615.947754,3504.30859 616.184568,3503.43213 616.658203,3502.55811 C617.131838,3501.68408 617.744625,3500.97364 618.496582,3500.42676 C619.248539,3499.87988 620.015133,3499.60645 620.796387,3499.60645 C621.616703,3499.60645 622.278318,3499.87744 622.78125,3500.41943 C623.284182,3500.96143 623.535645,3501.66211 623.535645,3502.52148 C623.535645,3503.45899 623.303713,3504.36718 622.839844,3505.24609 C622.375974,3506.125 621.765629,3506.84521 621.008789,3507.40674 C620.251949,3507.96826 619.487797,3508.24902 618.716309,3508.24902 C617.886226,3508.24902 617.217288,3507.96826 616.709473,3507.40674 C616.201658,3506.84521 615.947754,3506.10547 615.947754,3505.1875 Z M622.217285,3501.96484 C622.217285,3501.3789 622.073244,3500.89551 621.785156,3500.51465 C621.497069,3500.13379 621.12842,3499.94336 620.679199,3499.94336 C620.269041,3499.94336 619.875978,3500.07519 619.5,3500.33887 C619.124022,3500.60254 618.779787,3500.98828 618.467285,3501.49609 C618.115721,3502.08203 617.825196,3502.76562 617.595703,3503.54688 C617.36621,3504.32813 617.251465,3505.02148 617.251465,3505.62695 C617.251465,3506.34961 617.393065,3506.90625 617.67627,3507.29688 C617.959474,3507.6875 618.364743,3507.88281 618.89209,3507.88281 C619.741703,3507.88281 620.488766,3507.292 621.133301,3506.11035 C621.465334,3505.50488 621.729003,3504.82618 621.924316,3504.07422 C622.11963,3503.32226 622.217285,3502.61914 622.217285,3501.96484 Z M626.831543,3503.62012 C627.51514,3502.30175 628.232906,3501.32032 628.984863,3500.67578 C629.73682,3500.03125 630.474117,3499.70898 631.196777,3499.70898 C631.519045,3499.70898 631.787597,3499.75781 632.002441,3499.85547 C632.217286,3499.95313 632.390624,3500.08984 632.522461,3500.26562 C632.654298,3500.44141 632.74707,3500.65137 632.800781,3500.89551 C632.854492,3501.13965 632.881348,3501.41308 632.881348,3501.71582 C632.881348,3502.12598 632.822754,3502.57275 632.705566,3503.05615 C632.588378,3503.53955 632.422364,3504.02295 632.20752,3504.50635 C631.992675,3504.98975 631.733888,3505.45605 631.431152,3505.90527 C631.128416,3506.35449 630.791506,3506.75244 630.42041,3507.09912 C630.049315,3507.4458 629.646487,3507.72412 629.211914,3507.93408 C628.777342,3508.14404 628.325686,3508.24902 627.856934,3508.24902 C627.681151,3508.24902 627.471193,3508.22217 627.227051,3508.16846 C626.982909,3508.11475 626.750978,3507.98535 626.53125,3507.78027 C626.311522,3507.57519 626.125977,3507.26758 625.974609,3506.85742 C625.823241,3506.44726 625.747559,3505.88086 625.747559,3505.1582 C625.747559,3504.54297 625.791503,3503.88379 625.879395,3503.18066 C625.967286,3502.47754 626.113769,3501.667 626.318848,3500.74902 C626.191894,3500.76855 626.02588,3500.78564 625.820801,3500.80029 C625.615722,3500.81494 625.415528,3500.82227 625.220215,3500.82227 L625.278809,3500.42676 C625.464356,3500.42676 625.666991,3500.41699 625.886719,3500.39746 C626.106446,3500.37793 626.28955,3500.34375 626.436035,3500.29492 C626.768068,3498.94726 627.180662,3497.64844 627.673828,3496.39844 C628.166995,3495.14843 628.713864,3494.04004 629.314453,3493.07324 C629.915042,3492.10644 630.552243,3491.33252 631.226074,3490.75146 C631.899906,3490.17041 632.57861,3489.87988 633.262207,3489.87988 C633.545412,3489.87988 633.787108,3489.93115 633.987305,3490.03369 C634.187501,3490.13623 634.348632,3490.27051 634.470703,3490.43652 C634.592774,3490.60254 634.683105,3490.79541 634.741699,3491.01514 C634.800293,3491.23486 634.82959,3491.46191 634.82959,3491.69629 C634.82959,3492.2334 634.729493,3492.78515 634.529297,3493.35156 C634.329101,3493.91797 634.050783,3494.47949 633.694336,3495.03613 C633.337889,3495.59278 632.922854,3496.13476 632.449219,3496.66211 C631.975584,3497.18946 631.465335,3497.68994 630.918457,3498.16357 C630.371579,3498.63721 629.802737,3499.07178 629.211914,3499.46729 C628.621091,3499.86279 628.037601,3500.20215 627.461426,3500.48535 C627.402832,3500.70996 627.344239,3500.9541 627.285645,3501.21777 C627.22705,3501.48145 627.168457,3501.75244 627.109863,3502.03076 C627.051269,3502.30908 626.997559,3502.58496 626.94873,3502.8584 C626.899902,3503.13184 626.86084,3503.38574 626.831543,3503.62012 Z M626.831543,3506.08105 C626.831543,3506.27637 626.84375,3506.479 626.868164,3506.68896 C626.892578,3506.89893 626.941406,3507.0918 627.014648,3507.26758 C627.087891,3507.44336 627.190429,3507.58984 627.322266,3507.70703 C627.454102,3507.82422 627.622558,3507.88281 627.827637,3507.88281 C628.179201,3507.88281 628.516112,3507.77783 628.838379,3507.56787 C629.160646,3507.35791 629.460936,3507.07959 629.739258,3506.73291 C630.01758,3506.38623 630.269042,3505.99072 630.493652,3505.54639 C630.718263,3505.10205 630.911132,3504.64551 631.072266,3504.17676 C631.233399,3503.70801 631.35791,3503.24903 631.445801,3502.7998 C631.533692,3502.35058 631.577637,3501.9502 631.577637,3501.59863 C631.577637,3501.12988 631.504395,3500.79297 631.35791,3500.58789 C631.211425,3500.38281 630.977052,3500.28027 630.654785,3500.28027 C630.43994,3500.28027 630.195802,3500.35596 629.922363,3500.50732 C629.648924,3500.65869 629.370607,3500.86621 629.087402,3501.12988 C628.804198,3501.39356 628.52588,3501.70849 628.252441,3502.07471 C627.979003,3502.44092 627.737306,3502.83887 627.527344,3503.26855 C627.317382,3503.69824 627.148926,3504.15234 627.021973,3504.63086 C626.895019,3505.10938 626.831543,3505.59277 626.831543,3506.08105 Z M627.593262,3499.9873 C628.472172,3499.51855 629.290035,3498.95459 630.046875,3498.29541 C630.803715,3497.63623 631.460446,3496.93067 632.01709,3496.17871 C632.573733,3495.42675 633.008299,3494.65772 633.320801,3493.87158 C633.633302,3493.08545 633.789551,3492.33594 633.789551,3491.62305 C633.789551,3491.14453 633.726075,3490.80029 633.599121,3490.59033 C633.472167,3490.38037 633.24756,3490.27539 632.925293,3490.27539 C632.632323,3490.27539 632.339357,3490.38525 632.046387,3490.60498 C631.753417,3490.82471 631.465333,3491.12012 631.182129,3491.49121 C630.898924,3491.86231 630.623048,3492.29199 630.354492,3492.78027 C630.085936,3493.26856 629.829591,3493.78369 629.585449,3494.32568 C629.341307,3494.86768 629.114259,3495.41699 628.904297,3495.97363 C628.694335,3496.53028 628.503907,3497.06006 628.333008,3497.56299 C628.162109,3498.06592 628.013184,3498.52734 627.88623,3498.94727 C627.759277,3499.36719 627.661621,3499.71387 627.593262,3499.9873 Z M642.095215,3499.63574 C641.938964,3500.17285 641.765626,3500.75146 641.575195,3501.37158 C641.384765,3501.9917 641.196778,3502.6582 641.01123,3503.37109 C640.825683,3504.08399 640.674317,3504.67236 640.557129,3505.13623 C640.439941,3505.6001 640.381348,3505.94433 640.381348,3506.16895 C640.381348,3506.48145 640.435058,3506.73291 640.54248,3506.92334 C640.649903,3507.11377 640.791503,3507.20898 640.967285,3507.20898 C641.270021,3507.20898 641.753415,3506.84766 642.41748,3506.125 L642.651855,3506.33008 L642.505371,3506.49121 C642.222167,3506.82324 641.98047,3507.09912 641.780273,3507.31885 C641.580077,3507.53858 641.411622,3507.70703 641.274902,3507.82422 C641.001463,3508.04883 640.757325,3508.16113 640.54248,3508.16113 C640.239745,3508.16113 639.983399,3508.00977 639.773438,3507.70703 C639.563476,3507.4043 639.458496,3507.01856 639.458496,3506.5498 C639.458496,3506.2373 639.517089,3505.77344 639.634277,3505.1582 L640.630371,3500.17773 L639.70752,3500.36816 C639.512206,3500.40723 639.336427,3500.49268 639.180176,3500.62451 C639.023925,3500.75635 638.853028,3500.98096 638.66748,3501.29834 C638.481933,3501.61572 638.269532,3502.05273 638.030273,3502.60938 C637.791014,3503.16602 637.490724,3503.88378 637.129395,3504.7627 C637.002441,3505.06543 636.848634,3505.40478 636.667969,3505.78076 C636.487304,3506.15674 636.279786,3506.5083 636.04541,3506.83545 C635.811034,3507.1626 635.554689,3507.43848 635.276367,3507.66309 C634.998045,3507.8877 634.707521,3508 634.404785,3508 C634.307128,3508 634.199708,3507.99512 634.08252,3507.98535 C633.965331,3507.97559 633.853028,3507.95605 633.745605,3507.92676 L634.155762,3506.35938 C634.351075,3506.52539 634.590331,3506.6084 634.873535,3506.6084 C635.176271,3506.6084 635.481444,3506.4668 635.789062,3506.18359 C636.096681,3505.90039 636.392088,3505.43653 636.675293,3504.79199 C636.841309,3504.4209 637.007323,3504.01563 637.17334,3503.57617 C637.339356,3503.13672 637.490722,3502.7168 637.627441,3502.31641 C637.764161,3501.91601 637.874023,3501.55713 637.957031,3501.23975 C638.040039,3500.92236 638.086426,3500.69531 638.096191,3500.55859 L636.528809,3500.67578 L636.851074,3500.19238 L642.095215,3499.63574 Z M649.463379,3505.72949 L649.727051,3505.94922 C649.121579,3506.75 648.530765,3507.32861 647.95459,3507.68506 C647.378415,3508.04151 646.758304,3508.21973 646.094238,3508.21973 C645.303219,3508.21973 644.668459,3507.95606 644.189941,3507.42871 C643.711423,3506.90136 643.472168,3506.20313 643.472168,3505.33398 C643.472168,3504.45507 643.704099,3503.56397 644.167969,3502.66064 C644.631838,3501.75732 645.212887,3501.01026 645.911133,3500.41943 C646.609378,3499.82861 647.30029,3499.5332 647.983887,3499.5332 C648.384279,3499.5332 648.713866,3499.65039 648.972656,3499.88477 C649.231447,3500.11914 649.36084,3500.42187 649.36084,3500.79297 C649.36084,3501.54493 648.950688,3502.29687 648.130371,3503.04883 C647.310054,3503.80079 646.191902,3504.44043 644.775879,3504.96777 C644.766113,3505.0459 644.76123,3505.13379 644.76123,3505.23145 C644.76123,3505.90528 644.946775,3506.45459 645.317871,3506.87939 C645.688967,3507.3042 646.167478,3507.5166 646.753418,3507.5166 C647.212405,3507.5166 647.656736,3507.37256 648.086426,3507.08447 C648.516115,3506.79639 648.975095,3506.34473 649.463379,3505.72949 Z M644.775879,3504.61621 C645.830572,3504.14746 646.64111,3503.625 647.20752,3503.04883 C647.588381,3502.6582 647.895995,3502.23828 648.130371,3501.78906 C648.364747,3501.33984 648.481934,3500.93457 648.481934,3500.57324 C648.481934,3500.11426 648.271975,3499.88477 647.852051,3499.88477 C647.217282,3499.88477 646.575199,3500.38525 645.925781,3501.38623 C645.276364,3502.38721 644.893067,3503.46386 644.775879,3504.61621 Z M656.875488,3500.03125 L658.311035,3499.43066 L657.109863,3504.08887 C656.963378,3504.66504 656.863282,3505.1167 656.80957,3505.44385 C656.755859,3505.771 656.729004,3506.01269 656.729004,3506.16895 C656.729004,3506.48145 656.782714,3506.73291 656.890137,3506.92334 C656.997559,3507.11377 657.139159,3507.20898 657.314941,3507.20898 C657.617677,3507.20898 658.101071,3506.84766 658.765137,3506.125 L658.999512,3506.33008 L658.853027,3506.49121 C658.569823,3506.82324 658.328126,3507.09912 658.12793,3507.31885 C657.927733,3507.53858 657.759278,3507.70703 657.622559,3507.82422 C657.34912,3508.04883 657.104982,3508.16113 656.890137,3508.16113 C656.587401,3508.16113 656.331056,3508.00977 656.121094,3507.70703 C655.911132,3507.4043 655.806152,3507.01856 655.806152,3506.5498 C655.806152,3506.30566 655.840332,3505.95899 655.908691,3505.50977 C655.977051,3505.06054 656.069824,3504.51368 656.187012,3503.86914 L652.788574,3503.86914 L651.865723,3507.83887 L650.884277,3508.14648 L652.437012,3500.03125 L653.828613,3499.43066 L652.905762,3503.37109 L656.289551,3503.37109 C656.377442,3502.89258 656.470214,3502.37744 656.567871,3501.82568 C656.665528,3501.27392 656.768066,3500.67578 656.875488,3500.03125 Z M665.95752,3500.03125 L667.393066,3499.43066 L666.191895,3504.08887 C666.045409,3504.66504 665.945313,3505.1167 665.891602,3505.44385 C665.83789,3505.771 665.811035,3506.01269 665.811035,3506.16895 C665.811035,3506.48145 665.864746,3506.73291 665.972168,3506.92334 C666.07959,3507.11377 666.221191,3507.20898 666.396973,3507.20898 C666.699709,3507.20898 667.183102,3506.84766 667.847168,3506.125 L668.081543,3506.33008 L667.935059,3506.49121 C667.651854,3506.82324 667.410157,3507.09912 667.209961,3507.31885 C667.009765,3507.53858 666.841309,3507.70703 666.70459,3507.82422 C666.431151,3508.04883 666.187013,3508.16113 665.972168,3508.16113 C665.669432,3508.16113 665.413087,3508.00977 665.203125,3507.70703 C664.993163,3507.4043 664.888184,3507.01856 664.888184,3506.5498 C664.888184,3506.30566 664.922363,3505.95899 664.990723,3505.50977 C665.059082,3505.06054 665.151855,3504.51368 665.269043,3503.86914 L661.870605,3503.86914 L660.947754,3507.83887 L659.966309,3508.14648 L661.519043,3500.03125 L662.910645,3499.43066 L661.987793,3503.37109 L665.371582,3503.37109 C665.459473,3502.89258 665.552246,3502.37744 665.649902,3501.82568 C665.747559,3501.27392 665.850097,3500.67578 665.95752,3500.03125 Z M668.901855,3505.1875 C668.901855,3504.30859 669.13867,3503.43213 669.612305,3502.55811 C670.08594,3501.68408 670.698727,3500.97364 671.450684,3500.42676 C672.20264,3499.87988 672.969234,3499.60645 673.750488,3499.60645 C674.570805,3499.60645 675.232419,3499.87744 675.735352,3500.41943 C676.238284,3500.96143 676.489746,3501.66211 676.489746,3502.52148 C676.489746,3503.45899 676.257815,3504.36718 675.793945,3505.24609 C675.330076,3506.125 674.71973,3506.84521 673.962891,3507.40674 C673.206051,3507.96826 672.441898,3508.24902 671.67041,3508.24902 C670.840328,3508.24902 670.171389,3507.96826 669.663574,3507.40674 C669.155759,3506.84521 668.901855,3506.10547 668.901855,3505.1875 Z M675.171387,3501.96484 C675.171387,3501.3789 675.027345,3500.89551 674.739258,3500.51465 C674.45117,3500.13379 674.082522,3499.94336 673.633301,3499.94336 C673.223142,3499.94336 672.83008,3500.07519 672.454102,3500.33887 C672.078123,3500.60254 671.733888,3500.98828 671.421387,3501.49609 C671.069822,3502.08203 670.779298,3502.76562 670.549805,3503.54688 C670.320311,3504.32813 670.205566,3505.02148 670.205566,3505.62695 C670.205566,3506.34961 670.347167,3506.90625 670.630371,3507.29688 C670.913576,3507.6875 671.318845,3507.88281 671.846191,3507.88281 C672.695805,3507.88281 673.442868,3507.292 674.087402,3506.11035 C674.419435,3505.50488 674.683104,3504.82618 674.878418,3504.07422 C675.073731,3503.32226 675.171387,3502.61914 675.171387,3501.96484 Z M592.319824,3544.16113 C591.812009,3544.16113 591.411623,3544.00977 591.118652,3543.70703 C590.825682,3543.4043 590.679199,3543.01856 590.679199,3542.5498 L590.679199,3542.3374 C590.679199,3542.27393 590.684082,3542.20801 590.693848,3542.13965 C590.293455,3542.75489 589.849124,3543.23584 589.36084,3543.58252 C588.872556,3543.9292 588.369631,3544.12207 587.852051,3544.16113 C587.354001,3544.16113 586.956056,3544.01709 586.658203,3543.729 C586.36035,3543.44092 586.211426,3543.05762 586.211426,3542.5791 C586.211426,3542.2373 586.265136,3541.78321 586.372559,3541.2168 L587.368652,3536.03125 L588.789551,3535.43066 L587.368652,3541.09961 C587.241699,3541.59766 587.178223,3542.02734 587.178223,3542.38867 C587.178223,3542.56445 587.207519,3542.7207 587.266113,3542.85742 C587.324707,3542.99414 587.402832,3543.11133 587.500488,3543.20898 C587.598145,3543.30664 587.700683,3543.38232 587.808105,3543.43604 C587.915528,3543.48975 588.022949,3543.5166 588.130371,3543.5166 C588.530764,3543.5166 588.972654,3543.3457 589.456055,3543.00391 C589.939456,3542.66211 590.391111,3542.125 590.811035,3541.39258 L591.807129,3536.03125 L593.242676,3535.43066 L591.953613,3540.25 C591.738768,3541.02149 591.631348,3541.65625 591.631348,3542.1543 C591.631348,3542.42774 591.663086,3542.65234 591.726562,3542.82812 C591.790039,3543.00391 591.868164,3543.14307 591.960938,3543.24561 C592.053711,3543.34815 592.156249,3543.41895 592.268555,3543.45801 C592.38086,3543.49707 592.490722,3543.5166 592.598145,3543.5166 C592.998537,3543.5166 593.44531,3543.3457 593.938477,3543.00391 C594.431643,3542.66211 594.888181,3542.125 595.308105,3541.39258 L596.274902,3536.03125 L597.710449,3535.43066 L596.421387,3540.25 C596.206542,3541.02149 596.099121,3541.65625 596.099121,3542.1543 C596.099121,3542.4668 596.152831,3542.7207 596.260254,3542.91602 C596.367676,3543.11133 596.509276,3543.20898 596.685059,3543.20898 C596.987794,3543.20898 597.471188,3542.84766 598.135254,3542.125 L598.369629,3542.33008 L598.223145,3542.49121 C597.93994,3542.82324 597.698243,3543.09912 597.498047,3543.31885 C597.297851,3543.53858 597.129395,3543.70703 596.992676,3543.82422 C596.719237,3544.04883 596.475099,3544.16113 596.260254,3544.16113 C595.957518,3544.16113 595.701173,3544.00977 595.491211,3543.70703 C595.281249,3543.4043 595.17627,3543.01856 595.17627,3542.5498 L595.17627,3542.3374 C595.17627,3542.27393 595.181152,3542.20801 595.190918,3542.13965 C594.761228,3542.73535 594.30469,3543.21142 593.821289,3543.56787 C593.337888,3543.92432 592.837405,3544.12207 592.319824,3544.16113 Z M600.830566,3536.03125 L602.222168,3535.43066 L600.947754,3540.86523 C601.191896,3540.42578 601.448241,3539.99854 601.716797,3539.5835 C601.985353,3539.16845 602.258788,3538.77783 602.537109,3538.41162 C602.815431,3538.04541 603.088866,3537.7085 603.357422,3537.40088 C603.625978,3537.09326 603.882323,3536.82715 604.126465,3536.60254 C604.351075,3536.39746 604.55371,3536.22412 604.734375,3536.08252 C604.91504,3535.94092 605.100585,3535.82373 605.291016,3535.73096 C605.481446,3535.63818 605.686522,3535.56982 605.90625,3535.52588 C606.125978,3535.48193 606.387206,3535.4502 606.689941,3535.43066 L606.411621,3536.79297 C606.187011,3536.71484 605.996583,3536.6709 605.840332,3536.66113 C605.684081,3536.65137 605.547364,3536.64648 605.430176,3536.64648 C605.244628,3536.64648 605.037111,3536.69775 604.807617,3536.80029 C604.578124,3536.90283 604.343751,3537.04932 604.104492,3537.23975 C603.865233,3537.43018 603.630861,3537.65478 603.401367,3537.91357 C603.171874,3538.17236 602.959474,3538.46289 602.76416,3538.78516 C602.920411,3539.16602 603.098632,3539.61035 603.298828,3540.11816 C603.499024,3540.62598 603.708983,3541.10937 603.928711,3541.56836 C604.148439,3542.02735 604.365722,3542.41553 604.580566,3542.73291 C604.795411,3543.05029 604.995605,3543.20898 605.181152,3543.20898 C605.610842,3543.20898 606.108884,3542.91114 606.675293,3542.31543 L606.79248,3542.18359 L606.98291,3542.40332 C605.996577,3543.59473 605.278811,3544.19043 604.82959,3544.19043 C604.673339,3544.19043 604.521973,3544.16113 604.375488,3544.10254 C604.229003,3544.04395 604.097169,3543.94141 603.97998,3543.79492 C603.813964,3543.59961 603.657716,3543.35547 603.51123,3543.0625 C603.364745,3542.76953 603.21338,3542.44238 603.057129,3542.08105 C602.900878,3541.71972 602.739747,3541.33643 602.57373,3540.93115 C602.407714,3540.52588 602.227052,3540.1084 602.031738,3539.67871 C601.660643,3540.20606 601.311525,3540.80664 600.984375,3541.48047 C600.657225,3542.1543 600.410645,3542.95019 600.244629,3543.86816 L599.307129,3544.13184 L600.830566,3536.03125 Z M616.182129,3535.34277 L614.805176,3540.7041 C614.658691,3541.29004 614.585449,3541.74902 614.585449,3542.08105 C614.585449,3542.37402 614.648925,3542.62793 614.775879,3542.84277 C614.902833,3543.05762 615.059081,3543.16504 615.244629,3543.16504 C615.527833,3543.16504 615.996579,3542.81836 616.650879,3542.125 L616.855957,3542.33008 L616.694824,3542.52051 C616.177244,3543.11621 615.779298,3543.53369 615.500977,3543.77295 C615.222655,3544.01221 614.980958,3544.13184 614.775879,3544.13184 C614.463377,3544.13184 614.192384,3543.96826 613.962891,3543.64111 C613.733397,3543.31396 613.618652,3542.93555 613.618652,3542.50586 C613.618652,3542.19336 613.735839,3541.48536 613.970215,3540.38184 L614.087402,3539.8252 C613.726072,3540.66504 613.242679,3541.4707 612.637207,3542.24219 C611.621577,3543.53126 610.649907,3544.17578 609.722168,3544.17578 C609.165525,3544.17578 608.726076,3543.97559 608.403809,3543.5752 C608.081541,3543.1748 607.92041,3542.6377 607.92041,3541.96387 C607.92041,3541.04589 608.181638,3540.08399 608.704102,3539.07812 C609.226565,3538.07226 609.875973,3537.24463 610.652344,3536.59521 C611.428715,3535.9458 612.183102,3535.62109 612.915527,3535.62109 C613.687016,3535.62109 614.263182,3535.90429 614.644043,3536.4707 L614.805176,3535.91406 L616.182129,3535.34277 Z M614.497559,3537.21777 C614.380371,3536.84668 614.182619,3536.55615 613.904297,3536.34619 C613.625975,3536.13623 613.306154,3536.03125 612.944824,3536.03125 C612.515135,3536.03125 612.061038,3536.229 611.58252,3536.62451 C611.104002,3537.02002 610.664553,3537.56933 610.26416,3538.27246 C609.951659,3538.8291 609.690431,3539.44433 609.480469,3540.11816 C609.270507,3540.792 609.165527,3541.34863 609.165527,3541.78809 C609.165527,3542.28614 609.260741,3542.67676 609.451172,3542.95996 C609.641603,3543.24317 609.912596,3543.38477 610.26416,3543.38477 C610.713381,3543.38477 611.182126,3543.17481 611.67041,3542.75488 C612.158694,3542.33496 612.642087,3541.73438 613.120605,3540.95312 C613.413576,3540.5039 613.643066,3540.05469 613.809082,3539.60547 C613.975098,3539.15625 614.160644,3538.53125 614.365723,3537.73047 L614.497559,3537.21777 Z M623.477051,3538.18457 C623.447754,3537.39355 623.306154,3536.81494 623.052246,3536.44873 C622.798339,3536.08252 622.451662,3535.89941 622.012207,3535.89941 C621.660643,3535.89941 621.33838,3535.99219 621.04541,3536.17773 C620.75244,3536.36328 620.491212,3536.60986 620.261719,3536.91748 C620.032225,3537.2251 619.832032,3537.5791 619.661133,3537.97949 C619.490234,3538.37988 619.348633,3538.79492 619.236328,3539.22461 C619.124023,3539.6543 619.038575,3540.08398 618.97998,3540.51367 C618.921386,3540.94336 618.89209,3541.33887 618.89209,3541.7002 C618.89209,3542.40332 619.023924,3542.91113 619.287598,3543.22363 C619.551271,3543.53613 619.863768,3543.69238 620.225098,3543.69238 C620.508302,3543.69238 620.771971,3543.62158 621.016113,3543.47998 C621.260255,3543.33838 621.482421,3543.15772 621.682617,3542.93799 C621.882814,3542.71826 622.061034,3542.46924 622.217285,3542.19092 C622.373536,3541.9126 622.507812,3541.63672 622.620117,3541.36328 C622.732422,3541.08984 622.825195,3540.82861 622.898438,3540.57959 C622.97168,3540.33057 623.027832,3540.12793 623.066895,3539.97168 L623.477051,3538.18457 Z M623.535645,3542.33008 C623.564942,3542.64258 623.630859,3542.89892 623.733398,3543.09912 C623.835938,3543.29932 623.965331,3543.46289 624.121582,3543.58984 C624.277833,3543.7168 624.451171,3543.80469 624.641602,3543.85352 C624.832032,3543.90234 625.029784,3543.92676 625.234863,3543.92676 C625.664553,3543.92676 626.062498,3543.77539 626.428711,3543.47266 C626.794924,3543.16992 627.109862,3542.75244 627.373535,3542.22021 C627.637208,3541.68799 627.844726,3541.06543 627.996094,3540.35254 C628.147462,3539.63964 628.223145,3538.87305 628.223145,3538.05273 C628.223145,3537.38867 628.098634,3536.90283 627.849609,3536.59521 C627.600585,3536.2876 627.31006,3536.13379 626.978027,3536.13379 C626.645994,3536.13379 626.350587,3536.20947 626.091797,3536.36084 C625.833007,3536.51221 625.598634,3536.70996 625.388672,3536.9541 C625.17871,3537.19824 624.995606,3537.47656 624.839355,3537.78906 C624.683105,3538.10156 624.546387,3538.4165 624.429199,3538.73389 C624.312011,3539.05127 624.214356,3539.36133 624.13623,3539.66406 C624.058105,3539.9668 623.994629,3540.22558 623.945801,3540.44043 L623.535645,3542.33008 Z M625.688965,3526.93457 L627.227051,3526.1875 L624.546387,3537.67188 C624.731935,3537.3789 624.919921,3537.10059 625.110352,3536.83691 C625.300782,3536.57324 625.5083,3536.34619 625.73291,3536.15576 C625.957521,3535.96533 626.216307,3535.81397 626.509277,3535.70166 C626.802248,3535.58935 627.144041,3535.5332 627.534668,3535.5332 C628.120608,3535.5332 628.584471,3535.7456 628.92627,3536.17041 C629.268068,3536.59522 629.438965,3537.18847 629.438965,3537.9502 C629.438965,3538.73145 629.336427,3539.50293 629.131348,3540.26465 C628.926269,3541.02637 628.635744,3541.70508 628.259766,3542.30078 C627.883787,3542.89649 627.432132,3543.37744 626.904785,3543.74365 C626.377439,3544.10987 625.79639,3544.29297 625.161621,3544.29297 C624.399899,3544.29297 623.774905,3544.09278 623.286621,3543.69238 L621.777832,3549.81543 L620.986816,3549.81543 L622.524902,3542.49121 C622.397949,3542.67676 622.239259,3542.87451 622.048828,3543.08447 C621.858397,3543.29443 621.636232,3543.48975 621.382324,3543.67041 C621.128417,3543.85108 620.847658,3544 620.540039,3544.11719 C620.23242,3544.23438 619.902834,3544.29297 619.55127,3544.29297 C618.975095,3544.29297 618.518556,3544.0708 618.181641,3543.62646 C617.844725,3543.18213 617.67627,3542.50586 617.67627,3541.59766 C617.67627,3540.80664 617.776366,3540.04737 617.976562,3539.31982 C618.176759,3538.59228 618.459959,3537.94776 618.826172,3537.38623 C619.192385,3536.8247 619.634275,3536.37549 620.151855,3536.03857 C620.669436,3535.70166 621.245602,3535.5332 621.880371,3535.5332 C622.37842,3535.5332 622.798338,3535.64551 623.140137,3535.87012 C623.481935,3536.09473 623.726073,3536.42676 623.872559,3536.86621 L625.688965,3526.93457 Z M630.640137,3541.1875 C630.640137,3540.30859 630.876951,3539.43213 631.350586,3538.55811 C631.824221,3537.68408 632.437008,3536.97364 633.188965,3536.42676 C633.940922,3535.87988 634.707516,3535.60645 635.48877,3535.60645 C636.309086,3535.60645 636.970701,3535.87744 637.473633,3536.41943 C637.976565,3536.96143 638.228027,3537.66211 638.228027,3538.52148 C638.228027,3539.45899 637.996096,3540.36718 637.532227,3541.24609 C637.068357,3542.125 636.458012,3542.84521 635.701172,3543.40674 C634.944332,3543.96826 634.18018,3544.24902 633.408691,3544.24902 C632.578609,3544.24902 631.909671,3543.96826 631.401855,3543.40674 C630.89404,3542.84521 630.640137,3542.10547 630.640137,3541.1875 Z M636.909668,3537.96484 C636.909668,3537.3789 636.765626,3536.89551 636.477539,3536.51465 C636.189452,3536.13379 635.820803,3535.94336 635.371582,3535.94336 C634.961424,3535.94336 634.568361,3536.07519 634.192383,3536.33887 C633.816404,3536.60254 633.47217,3536.98828 633.159668,3537.49609 C632.808104,3538.08203 632.517579,3538.76562 632.288086,3539.54688 C632.058593,3540.32813 631.943848,3541.02148 631.943848,3541.62695 C631.943848,3542.34961 632.085448,3542.90625 632.368652,3543.29688 C632.651857,3543.6875 633.057126,3543.88281 633.584473,3543.88281 C634.434086,3543.88281 635.181149,3543.292 635.825684,3542.11035 C636.157717,3541.50488 636.421386,3540.82618 636.616699,3540.07422 C636.812013,3539.32226 636.909668,3538.61914 636.909668,3537.96484 Z M645.22998,3538.18457 C645.200683,3537.39355 645.059083,3536.81494 644.805176,3536.44873 C644.551268,3536.08252 644.204592,3535.89941 643.765137,3535.89941 C643.413572,3535.89941 643.09131,3535.99219 642.79834,3536.17773 C642.50537,3536.36328 642.244142,3536.60986 642.014648,3536.91748 C641.785155,3537.2251 641.584962,3537.5791 641.414062,3537.97949 C641.243163,3538.37988 641.101563,3538.79492 640.989258,3539.22461 C640.876953,3539.6543 640.791504,3540.08398 640.73291,3540.51367 C640.674316,3540.94336 640.64502,3541.33887 640.64502,3541.7002 C640.64502,3542.40332 640.776854,3542.91113 641.040527,3543.22363 C641.304201,3543.53613 641.616697,3543.69238 641.978027,3543.69238 C642.261232,3543.69238 642.524901,3543.62158 642.769043,3543.47998 C643.013185,3543.33838 643.235351,3543.15772 643.435547,3542.93799 C643.635743,3542.71826 643.813964,3542.46924 643.970215,3542.19092 C644.126466,3541.9126 644.260742,3541.63672 644.373047,3541.36328 C644.485352,3541.08984 644.578125,3540.82861 644.651367,3540.57959 C644.72461,3540.33057 644.780762,3540.12793 644.819824,3539.97168 L645.22998,3538.18457 Z M645.288574,3542.33008 C645.317871,3542.64258 645.383789,3542.89892 645.486328,3543.09912 C645.588868,3543.29932 645.718261,3543.46289 645.874512,3543.58984 C646.030763,3543.7168 646.204101,3543.80469 646.394531,3543.85352 C646.584962,3543.90234 646.782714,3543.92676 646.987793,3543.92676 C647.417483,3543.92676 647.815428,3543.77539 648.181641,3543.47266 C648.547853,3543.16992 648.862792,3542.75244 649.126465,3542.22021 C649.390138,3541.68799 649.597655,3541.06543 649.749023,3540.35254 C649.900391,3539.63964 649.976074,3538.87305 649.976074,3538.05273 C649.976074,3537.38867 649.851564,3536.90283 649.602539,3536.59521 C649.353514,3536.2876 649.06299,3536.13379 648.730957,3536.13379 C648.398924,3536.13379 648.103517,3536.20947 647.844727,3536.36084 C647.585936,3536.51221 647.351564,3536.70996 647.141602,3536.9541 C646.93164,3537.19824 646.748536,3537.47656 646.592285,3537.78906 C646.436034,3538.10156 646.299317,3538.4165 646.182129,3538.73389 C646.064941,3539.05127 645.967286,3539.36133 645.88916,3539.66406 C645.811035,3539.9668 645.747559,3540.22558 645.69873,3540.44043 L645.288574,3542.33008 Z M647.441895,3526.93457 L648.97998,3526.1875 L646.299316,3537.67188 C646.484864,3537.3789 646.672851,3537.10059 646.863281,3536.83691 C647.053712,3536.57324 647.261229,3536.34619 647.48584,3536.15576 C647.71045,3535.96533 647.969237,3535.81397 648.262207,3535.70166 C648.555177,3535.58935 648.896971,3535.5332 649.287598,3535.5332 C649.873538,3535.5332 650.337401,3535.7456 650.679199,3536.17041 C651.020998,3536.59522 651.191895,3537.18847 651.191895,3537.9502 C651.191895,3538.73145 651.089356,3539.50293 650.884277,3540.26465 C650.679198,3541.02637 650.388674,3541.70508 650.012695,3542.30078 C649.636717,3542.89649 649.185061,3543.37744 648.657715,3543.74365 C648.130368,3544.10987 647.54932,3544.29297 646.914551,3544.29297 C646.152828,3544.29297 645.527834,3544.09278 645.039551,3543.69238 L643.530762,3549.81543 L642.739746,3549.81543 L644.277832,3542.49121 C644.150878,3542.67676 643.992188,3542.87451 643.801758,3543.08447 C643.611327,3543.29443 643.389161,3543.48975 643.135254,3543.67041 C642.881346,3543.85108 642.600587,3544 642.292969,3544.11719 C641.98535,3544.23438 641.655763,3544.29297 641.304199,3544.29297 C640.728024,3544.29297 640.271486,3544.0708 639.93457,3543.62646 C639.597655,3543.18213 639.429199,3542.50586 639.429199,3541.59766 C639.429199,3540.80664 639.529296,3540.04737 639.729492,3539.31982 C639.929689,3538.59228 640.212889,3537.94776 640.579102,3537.38623 C640.945314,3536.8247 641.387204,3536.37549 641.904785,3536.03857 C642.422366,3535.70166 642.998532,3535.5332 643.633301,3535.5332 C644.13135,3535.5332 644.551268,3535.64551 644.893066,3535.87012 C645.234865,3536.09473 645.479003,3536.42676 645.625488,3536.86621 L647.441895,3526.93457 Z" id="Установленно-шкафоф"></path>
        </g>
    </g>
</svg>