<?xml version="1.0" encoding="UTF-8"?>
<svg width="88px" height="33px" viewBox="0 0 88 33" version="1.1" xmlns="http://www.w3.org/2000/svg" xmlns:xlink="http://www.w3.org/1999/xlink">
    <!-- Generator: Sketch 43.1 (39012) - http://www.bohemiancoding.com/sketch -->
    <title>логотип</title>
    <desc>Created with Sketch.</desc>
    <defs></defs>
    <g id="Page-1" stroke="none" stroke-width="1" fill="none" fill-rule="evenodd">
        <g id="логотип">
            <path d="M31.5162687,23.0415336 L30.2371777,23.0415336 L33.2883426,9.10652688 C33.4126993,8.55269692 33.4748767,8.14179698 33.4748767,7.87381475 C33.4748767,7.57010154 33.4015962,7.32892115 33.255033,7.15026632 C33.1084697,6.9716115 32.9063931,6.88228542 32.6487971,6.88228542 C31.8582439,6.88228542 30.9211415,7.76661354 29.8374618,9.53529631 C29.411096,10.2231174 28.9558685,11.0449173 28.4717657,12.0007206 C27.9876628,12.9565239 27.5546416,13.8609504 27.1726889,14.7140272 C26.7907362,15.567104 26.404348,16.5072609 26.0135127,17.5345261 C25.6226774,18.5617914 25.2762604,19.5577771 24.9742513,20.5225131 L24.2680865,22.7869517 L24.1881433,23.0415336 L23.0556148,23.0415336 L23.135558,22.7735527 C23.721811,20.7368877 24.3835563,17.9007849 25.1208138,14.2651592 C25.4050577,12.8984497 25.6537673,11.6121543 25.8669502,10.4062342 C26.1600767,8.78940806 26.3066377,7.66389955 26.3066377,7.02967492 C26.3066377,6.69916349 26.2711078,6.4021543 26.2000468,6.13863843 C26.1289858,5.87512256 26.0290579,5.67637205 25.9002599,5.54238093 C25.7714619,5.40838981 25.618239,5.34139526 25.4405865,5.34139526 C24.7210943,5.34139526 24.1170851,6.23465599 23.628541,8.02120424 C23.2465883,9.38791365 22.9934374,10.6250798 22.8690807,11.7327397 L21.8298193,11.0091913 C22.0074717,9.89259859 22.2828288,8.86311561 22.6558989,7.9207114 C23.028969,6.9783072 23.4508871,6.2458334 23.921666,5.72326804 C24.3924449,5.20070267 24.867658,4.93942391 25.3473195,4.93942391 C25.9158072,4.93942391 26.3621522,5.24759886 26.6863679,5.86395801 C27.0105835,6.48031716 27.1726889,7.33338115 27.1726889,8.42317559 C27.1726889,9.31644971 27.0883053,10.2990365 26.9195355,11.3709655 C26.8040614,12.1034502 26.6797066,12.8314577 26.5464673,13.5550098 L25.8669502,16.8511748 L25.986865,16.5563958 C26.759653,14.6626547 27.49912,13.0235213 28.2052884,11.6389464 C28.9114567,10.2543715 29.5709814,9.13332925 30.1838822,8.27578609 C31.2853272,6.76615282 32.3068132,6.0113475 33.248371,6.0113475 C33.6836194,6.0113475 34.0411396,6.16543498 34.3209421,6.47361455 C34.6007447,6.78179413 34.7406438,7.1815283 34.7406438,7.67282907 C34.7406438,8.09266791 34.6651427,8.64648956 34.5141381,9.33431064 L31.5162687,23.0415336 Z M33.8212972,28.3609544 L36.3395076,15.7524531 L37.6185985,15.2030923 L36.7392235,19.0486182 C37.3965374,17.7176397 38.0160909,16.7596176 38.5979026,16.1745231 C39.1797142,15.5894285 39.8170327,15.2968856 40.5098771,15.2968856 C41.0428343,15.2968856 41.4647525,15.493403 41.7756442,15.8864436 C42.0865359,16.2794842 42.2419795,16.819907 42.2419795,17.507728 C42.2419795,18.2044818 42.1020803,18.9190904 41.8222777,19.6515752 C41.5424752,20.38406 41.1494251,21.0495392 40.6431157,21.6480329 C39.7282058,22.7556928 38.7200435,23.3095145 37.6185985,23.3095145 C36.9257541,23.3095145 36.3572749,23.126396 35.9131439,22.7601536 L34.5407859,28.3609544 L33.8212972,28.3609544 Z M36.1130019,21.8758167 C36.4860719,22.6083015 37.0101387,22.9745383 37.6852179,22.9745383 C38.6623061,22.9745383 39.5150249,22.17507 40.2433998,20.5761093 C40.8385354,19.2897946 41.1360987,18.2089491 41.1360987,17.3335404 C41.1360987,16.8601052 41.0472738,16.4938683 40.8696214,16.2348188 C40.691969,15.9757693 40.4388181,15.8462465 40.1101612,15.8462465 C39.5772039,15.8462465 39.0176072,16.1990844 38.4313543,16.904771 C37.8717492,17.6015248 37.3965361,18.3786617 37.0057008,19.2362048 C36.8546962,19.575649 36.714797,19.9374196 36.585999,20.3215275 C36.457201,20.7056353 36.3350668,21.0986701 36.2195928,21.5006434 L36.1130019,21.8758167 Z M50.8625197,15.122698 L49.6100764,20.0267485 C49.4768371,20.5627129 49.4102185,20.9825455 49.4102185,21.2862587 C49.4102185,21.5542409 49.4679546,21.7864887 49.5834287,21.983009 C49.6989028,22.1795293 49.8410226,22.277788 50.0097924,22.277788 C50.2673884,22.277788 50.6937477,21.9606805 51.2888833,21.3264558 L51.4754174,21.5140425 L51.3288549,21.68823 C50.858076,22.2331273 50.4961147,22.6149962 50.24296,22.8338484 C49.9898053,23.0527005 49.7699637,23.162125 49.5834287,23.162125 C49.2991848,23.162125 49.0526958,23.0125038 48.8439542,22.713257 C48.6352126,22.4140101 48.5308434,22.0678716 48.5308434,21.674831 C48.5308434,21.3889833 48.6374333,20.7413692 48.8506162,19.7319695 L48.9572071,19.2228058 C48.6285501,19.9910215 48.188867,20.7279616 47.6381445,21.4336482 C46.714352,22.61277 45.8305445,23.2023221 44.9866955,23.2023221 C44.4803861,23.2023221 44.0806742,23.0192037 43.7875477,22.6529613 C43.4944212,22.2867189 43.3478602,21.7954255 43.3478602,21.1790663 C43.3478602,20.3393887 43.5854667,19.4595268 44.0606869,18.5394545 C44.5359071,17.6193821 45.1265925,16.8623437 45.8327609,16.2683164 C46.5389292,15.6742891 47.2251014,15.3772799 47.8912979,15.3772799 C48.593025,15.3772799 49.1170917,15.6363255 49.4635139,16.1544245 L49.6100764,15.6452608 L50.8625197,15.122698 Z M49.3302753,16.8377758 C49.2236838,16.4983316 49.0438135,16.2325865 48.7906588,16.0405326 C48.5375041,15.8484787 48.2466026,15.7524531 47.9179457,15.7524531 C47.5271103,15.7524531 47.1140747,15.9333384 46.6788263,16.2951145 C46.2435779,16.6568905 45.8438659,17.1593496 45.4796785,17.802507 C45.1954346,18.3116733 44.9578281,18.8744275 44.7668517,19.4907867 C44.5758754,20.1071458 44.4803887,20.6163044 44.4803887,21.0182778 C44.4803887,21.4738476 44.5669929,21.8311519 44.740204,22.0902014 C44.9134151,22.3492509 45.1599041,22.4787737 45.4796785,22.4787737 C45.888279,22.4787737 46.3146384,22.2867226 46.7587695,21.9026148 C47.2029005,21.5185069 47.6425836,20.9691515 48.077832,20.2545322 C48.3443106,19.8436261 48.5530491,19.4327262 48.7040536,19.0218201 C48.8550582,18.610914 49.0238255,18.0392271 49.2103605,17.3067424 L49.3302753,16.8377758 Z M55.1661278,11.1163836 C55.4681369,11.518357 55.8167746,11.8153662 56.2120512,12.0074201 C56.6073278,12.199474 56.9737304,12.2954996 57.31127,12.2954996 C57.4889224,12.2954996 57.6754546,12.2843338 57.8708723,12.262002 C58.06629,12.2396701 58.2617047,12.1816081 58.4571223,12.0878144 C58.65254,11.9940206 58.8412928,11.8555652 59.0233866,11.672444 C59.2054803,11.4893228 59.3764682,11.2414429 59.5363553,10.928797 L59.7761849,11.0627874 C59.5896499,11.491559 59.3631464,11.844397 59.0966678,12.121312 C58.8301892,12.398227 58.5548321,12.6148427 58.2705882,12.7711657 C57.9863444,12.9274886 57.7043254,13.0369131 57.4245228,13.0994423 C57.1447203,13.1619714 56.9071138,13.1932356 56.7116961,13.1932356 C56.5784568,13.1932356 56.4163514,13.1753704 56.2253751,13.1396394 C56.0343987,13.1039084 55.838984,13.0503128 55.639125,12.9788509 C55.4392661,12.9073889 55.246072,12.8158297 55.0595369,12.7041704 C54.8730019,12.5925112 54.7175584,12.4562889 54.5932017,12.2954996 L55.1661278,11.1163836 Z M54.9262983,15.2030923 L53.6338834,20.3885227 C53.5184094,20.8530252 53.4606732,21.2460599 53.4606732,21.5676386 C53.4606732,21.8802846 53.5583806,22.1303976 53.7537982,22.3179851 C53.9492159,22.5055727 54.2023668,22.5993651 54.5132585,22.5993651 C55.2682812,22.5993651 56.0543814,21.9785489 56.8715825,20.7368978 L56.9248779,20.6565036 C56.9426432,20.5671762 56.9559669,20.4957153 56.9648495,20.4421189 L57.804253,15.7524531 L59.1099917,15.2030923 L57.9374916,19.6113781 C57.742074,20.3349301 57.6443666,20.9155496 57.6443666,21.3532539 C57.6443666,21.6391016 57.6932203,21.8713494 57.7909291,22.0500043 C57.8886379,22.2286591 58.017434,22.3179851 58.1773212,22.3179851 C58.4526824,22.3179851 58.8923655,21.9874787 59.4963838,21.3264558 L59.7095656,21.5140425 L59.5763269,21.6614319 C59.0700176,22.2599256 58.6969531,22.6641261 58.4571223,22.8740455 C58.2172916,23.0839649 57.9952294,23.1889231 57.7909291,23.1889231 C57.5155679,23.1889231 57.2824026,23.0482345 57.0914262,22.7668532 C56.9004499,22.4854718 56.8049632,22.134867 56.8049632,21.7150281 C56.8049632,21.581037 56.8094044,21.4559805 56.818287,21.3398549 C55.8944945,22.5725732 54.9795983,23.1889231 54.073571,23.1889231 C53.6205573,23.1889231 53.258596,23.0571671 52.987676,22.7936512 C52.7167561,22.5301354 52.5812982,22.1795305 52.5812982,21.7418262 C52.5812982,21.402382 52.6301518,20.9870158 52.7278607,20.495715 L53.6338834,15.7524531 L54.9262983,15.2030923 Z M66.0384011,21.0316768 C65.4965613,21.7998926 64.9702739,22.3604137 64.4595232,22.713257 C63.9487725,23.0661003 63.382514,23.2425192 62.7607305,23.2425192 C62.0767687,23.2425192 61.5193926,23.0013388 61.0885855,22.5189708 C60.6577784,22.0366028 60.4423781,21.4113203 60.4423781,20.6431045 C60.4423781,19.8391578 60.6511166,19.0218243 61.0685997,18.1910793 C61.4860829,17.3603344 62.0212528,16.6725236 62.6741254,16.1276264 C63.326998,15.5827292 63.955434,15.3102847 64.5594522,15.3102847 C64.9680527,15.3102847 65.2967048,15.4241754 65.5454182,15.6519603 C65.7941315,15.8797452 65.9184864,16.185687 65.9184864,16.5697949 C65.9184864,16.9181718 65.7874697,17.2509114 65.5254324,17.5680237 C65.263395,17.885136 64.9813761,18.0436898 64.679367,18.0436898 C64.5461277,18.0436898 64.4262141,17.9900942 64.3196226,17.8829013 C64.896993,17.6238518 65.1856738,17.141491 65.1856738,16.4358044 C65.1856738,16.1856877 65.1212758,15.9914035 64.9924778,15.852946 C64.8636798,15.7144885 64.6926919,15.6452608 64.479509,15.6452608 C64.150852,15.6452608 63.8199794,15.7792499 63.4868811,16.0472321 C63.1537828,16.3152144 62.8406752,16.6881507 62.5475487,17.1660524 C62.2544222,17.643954 62.0256981,18.1531127 61.8613697,18.6935435 C61.6970412,19.2339743 61.6148782,19.7810965 61.6148782,20.3349265 C61.6148782,20.9959494 61.7703217,21.5319058 62.0812134,21.9428119 C62.3921052,22.353718 62.8006996,22.559168 63.3070089,22.559168 C63.7422574,22.559168 64.1641755,22.4207125 64.5727761,22.1437976 C64.9813766,21.8668826 65.407736,21.4425837 65.851867,20.8708883 L66.0384011,21.0316768 Z" id="Прайс" fill="#000000"></path>
            <rect id="Rectangle-4" stroke="#000000" x="0.5" y="0.5" width="86.8650227" height="31.9294927"></rect>
        </g>
    </g>
</svg>