<?xml version="1.0" encoding="UTF-8"?>
<svg width="82px" height="43px" viewBox="0 0 82 43" version="1.1" xmlns="http://www.w3.org/2000/svg" xmlns:xlink="http://www.w3.org/1999/xlink">
    <!-- Generator: Sketch 43.1 (39012) - http://www.bohemiancoding.com/sketch -->
    <title>Прайс</title>
    <desc>Created with Sketch.</desc>
    <defs></defs>
    <g id="Page-1" stroke="none" stroke-width="1" fill="none" fill-rule="evenodd">
        <g id="Главная" transform="translate(-878.000000, -543.000000)" fill="#000000">
            <path d="M896.091797,576 L893.748047,576 L899.338867,550.609375 C899.566733,549.600255 899.680664,548.851565 899.680664,548.363281 C899.680664,547.809893 899.546388,547.370444 899.277832,547.044922 C899.009276,546.719399 898.639,546.556641 898.166992,546.556641 C896.718417,546.556641 895.001312,548.167953 893.015625,551.390625 C892.234371,552.643886 891.400232,554.141267 890.513184,555.882812 C889.626135,557.624358 888.832686,559.27229 888.132812,560.82666 C887.432939,562.38103 886.724938,564.094066 886.008789,565.96582 C885.29264,567.837574 884.65788,569.652335 884.104492,571.410156 L882.810547,575.536133 L882.664062,576 L880.588867,576 L880.735352,575.511719 C881.809576,571.800763 883.022129,566.633171 884.373047,560.008789 C884.893883,557.518542 885.349607,555.174816 885.740234,552.977539 C886.277346,550.031561 886.545898,547.9808 886.545898,546.825195 C886.545898,546.222979 886.480795,545.681806 886.350586,545.20166 C886.220377,544.721515 886.037273,544.359376 885.80127,544.115234 C885.565266,543.871093 885.284507,543.749023 884.958984,543.749023 C883.640618,543.749023 882.533859,545.376611 881.638672,548.631836 C880.938799,551.122083 880.474936,553.376292 880.24707,555.394531 L878.342773,554.076172 C878.668296,552.041656 879.172848,550.165861 879.856445,548.44873 C880.540042,546.731599 881.313147,545.396977 882.175781,544.444824 C883.038416,543.492671 883.909175,543.016602 884.788086,543.016602 C885.829758,543.016602 886.647621,543.578119 887.241699,544.701172 C887.835778,545.824224 888.132812,547.378571 888.132812,549.364258 C888.132812,550.99187 887.978192,552.782217 887.668945,554.735352 C887.457356,556.069994 887.229493,557.396478 886.985352,558.714844 L885.740234,564.720703 L885.959961,564.183594 C887.375984,560.733056 888.730951,557.746432 890.024902,555.223633 C891.318854,552.700834 892.527338,550.658211 893.650391,549.095703 C895.66863,546.345038 897.540356,544.969727 899.265625,544.969727 C900.063155,544.969727 900.718259,545.250485 901.230957,545.812012 C901.743655,546.373538 902,547.101884 902,547.99707 C902,548.762048 901.861655,549.771153 901.584961,551.024414 L896.091797,576 Z M900.31543,585.692383 L904.929688,562.71875 L907.273438,561.717773 L905.662109,568.724609 C906.866542,566.299467 908.001785,564.553879 909.067871,563.487793 C910.133957,562.421707 911.301751,561.888672 912.571289,561.888672 C913.547856,561.888672 914.320961,562.246741 914.890625,562.962891 C915.460289,563.67904 915.745117,564.663731 915.745117,565.916992 C915.745117,567.18653 915.488772,568.4886 914.976074,569.823242 C914.463376,571.157884 913.743169,572.370437 912.81543,573.460938 C911.138989,575.479177 909.291677,576.488281 907.273438,576.488281 C906.0039,576.488281 904.962244,576.154626 904.148438,575.487305 L901.633789,585.692383 L900.31543,585.692383 Z M904.514648,573.875977 C905.198246,575.210619 906.158522,575.87793 907.395508,575.87793 C909.185881,575.87793 910.748366,574.421239 912.083008,571.507812 C913.173508,569.164051 913.71875,567.194669 913.71875,565.599609 C913.71875,564.736975 913.555991,564.069664 913.230469,563.597656 C912.904946,563.125649 912.441084,562.889648 911.838867,562.889648 C910.8623,562.889648 909.836919,563.532546 908.762695,564.818359 C907.7373,566.087897 906.86654,567.503898 906.150391,569.066406 C905.873697,569.684899 905.617351,570.344072 905.381348,571.043945 C905.145344,571.743819 904.921551,572.459957 904.709961,573.192383 L904.514648,573.875977 Z M931.541016,561.571289 L929.246094,570.506836 C929.001952,571.483403 928.879883,572.24837 928.879883,572.801758 C928.879883,573.290042 928.985676,573.713214 929.197266,574.071289 C929.408855,574.429364 929.669269,574.608398 929.978516,574.608398 C930.450523,574.608398 931.231765,574.030605 932.322266,572.875 L932.664062,573.216797 L932.395508,573.53418 C931.532873,574.527023 930.869631,575.222817 930.405762,575.621582 C929.941892,576.020347 929.539064,576.219727 929.197266,576.219727 C928.67643,576.219727 928.224774,575.947106 927.842285,575.401855 C927.459796,574.856605 927.268555,574.225915 927.268555,573.509766 C927.268555,572.98893 927.463865,571.808928 927.854492,569.969727 L928.049805,569.041992 C927.447588,570.441739 926.641932,571.784499 925.632812,573.070312 C923.940096,575.218761 922.320646,576.292969 920.774414,576.292969 C919.846675,576.292969 919.11426,575.959313 918.577148,575.291992 C918.040036,574.624671 917.771484,573.729498 917.771484,572.606445 C917.771484,571.07649 918.206864,569.473316 919.077637,567.796875 C919.948409,566.120434 921.030755,564.741054 922.324707,563.658691 C923.618659,562.576329 924.87597,562.035156 926.09668,562.035156 C927.382493,562.035156 928.34277,562.507157 928.977539,563.451172 L929.246094,562.523438 L931.541016,561.571289 Z M928.733398,564.696289 C928.538085,564.077796 928.208498,563.593589 927.744629,563.243652 C927.280759,562.893716 926.747724,562.71875 926.145508,562.71875 C925.429358,562.71875 924.67253,563.048337 923.875,563.70752 C923.07747,564.366703 922.345055,565.282221 921.677734,566.454102 C921.156898,567.381841 920.721519,568.407221 920.371582,569.530273 C920.021645,570.653326 919.84668,571.581051 919.84668,572.313477 C919.84668,573.143559 920.00537,573.794594 920.322754,574.266602 C920.640138,574.738609 921.091794,574.974609 921.677734,574.974609 C922.426436,574.974609 923.207678,574.624678 924.021484,573.924805 C924.835291,573.224931 925.640947,572.223965 926.438477,570.921875 C926.92676,570.173173 927.309243,569.424483 927.585938,568.675781 C927.862632,567.92708 928.171873,566.885423 928.513672,565.550781 L928.733398,564.696289 Z M939.426758,554.271484 C939.980146,555.00391 940.618974,555.545083 941.343262,555.89502 C942.067549,556.244956 942.738929,556.419922 943.357422,556.419922 C943.682944,556.419922 944.024738,556.399577 944.382812,556.358887 C944.740887,556.318196 945.098957,556.212403 945.457031,556.041504 C945.815106,555.870605 946.160968,555.618328 946.494629,555.284668 C946.828289,554.951007 947.1416,554.499352 947.43457,553.929688 L947.874023,554.173828 C947.532225,554.955082 947.11719,555.597979 946.628906,556.102539 C946.140623,556.607099 945.63607,557.001789 945.115234,557.286621 C944.594398,557.571453 944.077639,557.770833 943.564941,557.884766 C943.052244,557.998698 942.616864,558.055664 942.258789,558.055664 C942.014647,558.055664 941.717612,558.023112 941.367676,557.958008 C941.017739,557.892903 940.65967,557.795248 940.293457,557.665039 C939.927244,557.53483 939.573244,557.368002 939.231445,557.164551 C938.889647,556.961099 938.604819,556.712892 938.376953,556.419922 L939.426758,554.271484 Z M938.987305,561.717773 L936.619141,571.166016 C936.407551,572.012374 936.301758,572.728513 936.301758,573.314453 C936.301758,573.884117 936.480792,574.339842 936.838867,574.681641 C937.196942,575.023439 937.660804,575.194336 938.230469,575.194336 C939.613939,575.194336 941.054354,574.063162 942.551758,571.800781 L942.649414,571.654297 C942.681966,571.491536 942.70638,571.361329 942.722656,571.263672 L944.260742,562.71875 L946.65332,561.717773 L944.504883,569.75 C944.146808,571.068366 943.967773,572.126298 943.967773,572.923828 C943.967773,573.444664 944.057291,573.867837 944.236328,574.193359 C944.415365,574.518882 944.651366,574.681641 944.944336,574.681641 C945.448896,574.681641 946.254552,574.079433 947.361328,572.875 L947.751953,573.216797 L947.507812,573.485352 C946.580073,574.575852 945.896487,575.312335 945.457031,575.694824 C945.017576,576.077313 944.610679,576.268555 944.236328,576.268555 C943.731768,576.268555 943.304526,576.01221 942.95459,575.499512 C942.604653,574.986814 942.429688,574.347986 942.429688,573.583008 C942.429688,573.338866 942.437825,573.111004 942.454102,572.899414 C940.761385,575.145519 939.084969,576.268555 937.424805,576.268555 C936.594722,576.268555 935.93148,576.028485 935.435059,575.54834 C934.938637,575.068194 934.69043,574.429366 934.69043,573.631836 C934.69043,573.013343 934.779947,572.256515 934.958984,571.361328 L936.619141,562.71875 L938.987305,561.717773 Z M959.348633,572.337891 C958.355789,573.737637 957.391443,574.758949 956.455566,575.401855 C955.519689,576.044762 954.482102,576.366211 953.342773,576.366211 C952.089512,576.366211 951.068201,575.926762 950.278809,575.047852 C949.489417,574.168941 949.094727,573.029629 949.094727,571.629883 C949.094727,570.165032 949.47721,568.675789 950.242188,567.162109 C951.007165,565.64843 951.987787,564.395187 953.184082,563.402344 C954.380377,562.4095 955.531896,561.913086 956.638672,561.913086 C957.387374,561.913086 957.989581,562.120603 958.445312,562.535645 C958.901044,562.950686 959.128906,563.508135 959.128906,564.208008 C959.128906,564.842777 958.888837,565.449053 958.408691,566.026855 C957.928546,566.604658 957.411787,566.893555 956.858398,566.893555 C956.614257,566.893555 956.394532,566.795899 956.199219,566.600586 C957.257167,566.128578 957.786133,565.249681 957.786133,563.963867 C957.786133,563.508136 957.668133,563.154135 957.432129,562.901855 C957.196125,562.649576 956.882814,562.523438 956.492188,562.523438 C955.889971,562.523438 955.283694,562.767576 954.67334,563.255859 C954.062985,563.744143 953.48926,564.423661 952.952148,565.294434 C952.415036,566.165206 951.995932,567.092931 951.694824,568.077637 C951.393716,569.062342 951.243164,570.05924 951.243164,571.068359 C951.243164,572.272792 951.527992,573.249345 952.097656,573.998047 C952.667321,574.746749 953.416011,575.121094 954.34375,575.121094 C955.14128,575.121094 955.914384,574.868818 956.663086,574.364258 C957.411788,573.859698 958.19303,573.086594 959.006836,572.044922 L959.348633,572.337891 Z" id="Прайс"></path>
        </g>
    </g>
</svg>