<svg xmlns="http://www.w3.org/2000/svg" xmlns:xlink="http://www.w3.org/1999/xlink" viewBox="0 0 544.76 158.06"><defs><style>.cls-1,.cls-10,.cls-11,.cls-12,.cls-13,.cls-14,.cls-15,.cls-16{fill:none;}.cls-2{clip-path:url(#clip-path);}.cls-3,.cls-4,.cls-5{fill:#020608;}.cls-4{font-size:100px;}.cls-4,.cls-5{font-family:SavoyeLetPlain, Savoye LET;}.cls-5{font-size:50px;}.cls-6{clip-path:url(#clip-path-2);}.cls-7{clip-path:url(#clip-path-4);}.cls-8{clip-path:url(#clip-path-6);}.cls-9{fill:#4b4b4b;}.cls-10{stroke:#ebe150;}.cls-10,.cls-11,.cls-12,.cls-13,.cls-14,.cls-15,.cls-16{stroke-linecap:square;stroke-miterlimit:10;}.cls-11{stroke:#a44e48;}.cls-12{stroke:#7b593d;}.cls-13{stroke:#8b61a4;}.cls-14{stroke:#678bc8;}.cls-15{stroke:#8dc6b3;}.cls-16{stroke:#bfd88d;}</style><clipPath id="clip-path" transform="translate(-36 -5.94)"><rect class="cls-1" width="612" height="196"/></clipPath><clipPath id="clip-path-2" transform="translate(-36 -5.94)"><rect class="cls-1" x="401.02" y="107" width="27.33" height="29.33"/></clipPath><clipPath id="clip-path-4" transform="translate(-36 -5.94)"><rect class="cls-1" x="414.69" y="121.67" width="27.33" height="29.33"/></clipPath><clipPath id="clip-path-6" transform="translate(-36 -5.94)"><rect class="cls-1" x="416.97" y="124.11" width="9.11" height="9.78"/></clipPath></defs><title>Ресурс 1</title><g id="Слой_2" data-name="Слой 2"><g id="Слой_1-2" data-name="Слой 1"><g class="cls-2"><path class="cls-3" d="M98.79,89H94.1l10.3-49.27.34-1.71a16,16,0,0,0,.35-2.49A2.4,2.4,0,0,0,104.6,34a1.66,1.66,0,0,0-1.37-.62A4.8,4.8,0,0,0,100.15,35a35.75,35.75,0,0,0-4.29,5.57,113.23,113.23,0,0,0-8.74,16.55Q83.4,65.52,80.79,73.4A151.48,151.48,0,0,0,76.52,89h-4L83.8,36a20.28,20.28,0,0,0,.53-3.9,3.16,3.16,0,0,0-.24-1.22,1.9,1.9,0,0,0-.66-.88,1.58,1.58,0,0,0-1-.3q-2.3,0-5.62,4.47A91.11,91.11,0,0,0,69,48q-2.15,4.26-4.15,8.89t-3.56,8.64q-1.57,4-3.52,9.77-2.84,8.4-4.1,13.67h-4.1l.14-.68L51.81,80c.75-3.19,1.4-6,2-8.5Q57.63,54,59.43,42.91A83.46,83.46,0,0,0,61,30.36,9.09,9.09,0,0,0,60.09,26a2.61,2.61,0,0,0-2.37-1.54q-3.7,0-6.59,9.86a93.14,93.14,0,0,0-2.78,13.38L44.69,45.3a50.86,50.86,0,0,1,2.75-11.38,25.59,25.59,0,0,1,4.59-8q2.67-3,5.4-2.95c2.08,0,3.72,1.1,4.91,3.32a19.44,19.44,0,0,1,1.78,9.08,77.9,77.9,0,0,1-.88,11Q63,48.14,61.68,55.5l-2,10.65.3-.93a204.43,204.43,0,0,1,10.2-22.56A64.52,64.52,0,0,1,78,30.48c2.39-2.75,4.57-4.13,6.52-4.13a3.87,3.87,0,0,1,3.08,1.44,5.53,5.53,0,0,1,1.22,3.69,34.51,34.51,0,0,1-.93,6.64L82.23,65.17c.43-1.2,1.4-3.51,2.93-6.93q6.69-14.85,11.43-21.41t8.74-6.57a4,4,0,0,1,3.2,1.39,5.46,5.46,0,0,1,1.19,3.69,28.19,28.19,0,0,1-.83,5.61ZM130,81.43l.88.73A23.07,23.07,0,0,1,125,88a11.54,11.54,0,0,1-6.2,1.78,8.2,8.2,0,0,1-6.35-2.63,10,10,0,0,1-2.39-7,19.47,19.47,0,0,1,2.32-8.91,24,24,0,0,1,5.81-7.47,10.77,10.77,0,0,1,6.91-2.95A4.74,4.74,0,0,1,128.4,62a3.9,3.9,0,0,1,1.29,3q0,3.75-4.1,7.52a34.11,34.11,0,0,1-11.18,6.39,6,6,0,0,0,0,.88,8.05,8.05,0,0,0,1.85,5.49A6.07,6.07,0,0,0,121,87.39,7.86,7.86,0,0,0,125.44,86,21.62,21.62,0,0,0,130,81.43Zm-15.62-3.71a26.24,26.24,0,0,0,8.1-5.22,18.11,18.11,0,0,0,3.08-4.2,9,9,0,0,0,1.17-4.06c0-1.53-.7-2.29-2.1-2.29q-3.18,0-6.42,5A24.07,24.07,0,0,0,114.41,77.72Zm7.91-27.44a2.41,2.41,0,0,1,1.19.29,2.17,2.17,0,0,1,.81.81,2.41,2.41,0,0,1,.29,1.19,2.32,2.32,0,0,1-2.29,2.3,2.15,2.15,0,0,1-1.56-.68,2.35,2.35,0,0,1-.05-3.28A2.19,2.19,0,0,1,122.32,50.28Zm7.66,0a2.31,2.31,0,0,1,1.15.29,2.25,2.25,0,0,1,.81.81,2.41,2.41,0,0,1,.29,1.19,2.25,2.25,0,0,1-.68,1.62,2.19,2.19,0,0,1-1.57.68,2.32,2.32,0,0,1-2.29-2.3A2.16,2.16,0,0,1,130,50.28Zm4.79,39.21,5.18-27,4.63-2-4.19,17.92q4.05-8.55,8.05-13t7.67-4.45a3.84,3.84,0,0,1,2.93,1.2,4.48,4.48,0,0,1,1.12,3.2,13.46,13.46,0,0,1-.54,3.17l-.48,2.05-1.47,6-.49,1.9a20.12,20.12,0,0,0-.73,4.5,5.05,5.05,0,0,0,.54,2.51,1.59,1.59,0,0,0,1.41,1q1.51,0,4.84-3.61l.78.68-.49.54a46.85,46.85,0,0,1-4.1,4.42A3.9,3.9,0,0,1,157,89.54,3.08,3.08,0,0,1,154.42,88a6.64,6.64,0,0,1-1-3.83,27.24,27.24,0,0,1,.59-4.64l1.9-10.35a25.56,25.56,0,0,0,.39-3.42,2.08,2.08,0,0,0-.53-1.56,2,2,0,0,0-1.47-.54q-3.36,0-8.3,7.22A46.37,46.37,0,0,0,142,77.75a87.6,87.6,0,0,0-3.52,9.39L138,88.46Zm58.64-28.37q-.78,2.68-1.73,5.79c-.64,2.06-1.26,4.28-1.88,6.66s-1.12,4.34-1.52,5.88a15.7,15.7,0,0,0-.58,3.45,5.05,5.05,0,0,0,.54,2.51,1.58,1.58,0,0,0,1.41,1q1.51,0,4.84-3.61l.78.68-.49.54c-.95,1.11-1.75,2-2.42,2.76a21.84,21.84,0,0,1-1.68,1.68,4.08,4.08,0,0,1-2.44,1.13A3.08,3.08,0,0,1,185.67,88a6.6,6.6,0,0,1-1-3.85,27.24,27.24,0,0,1,.59-4.64l3.32-16.6-3.08.63a3.92,3.92,0,0,0-1.76.86,8.4,8.4,0,0,0-1.7,2.24A42.14,42.14,0,0,0,179.86,71q-1.2,2.79-3,7.18c-.42,1-.94,2.14-1.54,3.39a23.07,23.07,0,0,1-2.07,3.52,14.24,14.24,0,0,1-2.57,2.76,4.55,4.55,0,0,1-2.9,1.12c-.33,0-.69,0-1.08,0a6.71,6.71,0,0,1-1.12-.19L167,83.53a3.52,3.52,0,0,0,2.39.83,4.56,4.56,0,0,0,3-1.41,14.06,14.06,0,0,0,3-4.64c.55-1.24,1.1-2.59,1.66-4.06s1.05-2.86,1.51-4.2.82-2.53,1.1-3.58a15,15,0,0,0,.46-2.27l-5.22.39L175.93,63ZM213.53,70a9.24,9.24,0,0,1,2,.19,3.59,3.59,0,0,1,1.52.73,3.28,3.28,0,0,1,.95,1.49,7.84,7.84,0,0,1,.32,2.42,11.7,11.7,0,0,1-1.25,5,19.64,19.64,0,0,1-3.2,4.77,18.17,18.17,0,0,1-4.37,3.54,9.49,9.49,0,0,1-4.71,1.39,5.48,5.48,0,0,1-4-1.44,5.11,5.11,0,0,1-1.49-3.84,25.53,25.53,0,0,1,.54-4.54l3.32-17.28,4.59-2-4.4,17.09a21.09,21.09,0,0,1,5.28-5.77A8.82,8.82,0,0,1,213.53,70ZM202.89,80.6a15.08,15.08,0,0,0-.35,3,4.09,4.09,0,0,0,1.08,2.88,3.89,3.89,0,0,0,3,1.17,5.31,5.31,0,0,0,2.63-.78,8.72,8.72,0,0,0,2.52-2.27,12.78,12.78,0,0,0,1.9-3.71,15.63,15.63,0,0,0,.76-5.1,6.15,6.15,0,0,0-.51-2.76,2,2,0,0,0-1.93-1,5.59,5.59,0,0,0-2.13.48,9.13,9.13,0,0,0-2.34,1.54,16.73,16.73,0,0,0-2.39,2.66,23,23,0,0,0-2.27,3.86Zm25.73-20.16-4.3,16.06a25.38,25.38,0,0,0-1.07,6.35,5.35,5.35,0,0,0,.53,2.54,1.6,1.6,0,0,0,1.42,1q1.52,0,4.83-3.61l.79.68-.49.54a48.26,48.26,0,0,1-4.1,4.42,3.92,3.92,0,0,1-2.45,1.15A3.06,3.06,0,0,1,221.22,88a6.64,6.64,0,0,1-1.05-3.83,28.84,28.84,0,0,1,.59-4.64l3.07-17.09Zm24.85,21,.88.73A23.07,23.07,0,0,1,248.44,88a11.54,11.54,0,0,1-6.2,1.78,8.16,8.16,0,0,1-6.34-2.63,10,10,0,0,1-2.4-7,19.47,19.47,0,0,1,2.32-8.91,24,24,0,0,1,5.81-7.47,10.77,10.77,0,0,1,6.91-2.95,4.74,4.74,0,0,1,3.3,1.17,3.9,3.9,0,0,1,1.29,3q0,3.75-4.1,7.52a34,34,0,0,1-11.18,6.39,7.75,7.75,0,0,0,0,.88,8.05,8.05,0,0,0,1.85,5.49,6.07,6.07,0,0,0,4.79,2.13A7.86,7.86,0,0,0,248.88,86,21.16,21.16,0,0,0,253.47,81.43Zm-15.62-3.71A26.12,26.12,0,0,0,246,72.5,18.11,18.11,0,0,0,249,68.3a9,9,0,0,0,1.17-4.06c0-1.53-.7-2.29-2.1-2.29q-3.16,0-6.42,5A24.07,24.07,0,0,0,237.85,77.72Z" transform="translate(-36 -5.94)"/><text class="cls-4" transform="translate(223.04 83.06)"> </text><path class="cls-3" d="M319.19,25.67l5.33-2.49q-.74,4.63-2,10.62t-3,12.33q-1.71,6.34-3.18,10.59-1.6,4.94-3.44,9.31a62,62,0,0,1-3.73,7.56A43.75,43.75,0,0,1,305,79.45a34.73,34.73,0,0,1-4.74,4.67q-8.7,7.17-22.07,7.17a17.53,17.53,0,0,1-5.13-.58l1.47-3.61a37.85,37.85,0,0,0,10.35,1.61q10.89,0,18.7-11.48a44.33,44.33,0,0,0,4.08-7.66,112.93,112.93,0,0,0,4.07-12.16q1.08-3.72,2.13-7.74t1.95-7.81c.6-2.53,1.22-5.26,1.86-8.21s1.08-5.2,1.34-6.76Zm35.31-.29-35.75,39a54.35,54.35,0,0,0,4.35,8,69.42,69.42,0,0,0,5.79,7.77,52.1,52.1,0,0,0,6.51,6.37l-3.46,3.27a71.61,71.61,0,0,1-17-23.63l34.32-40.77Zm-2.34,49a32.46,32.46,0,0,1,7.17-9.81q3.76-3.23,7.38-3.23a6.55,6.55,0,0,1,2.68.49,4.4,4.4,0,0,1,1.74,1.37,5.36,5.36,0,0,1,.92,2.1,12.62,12.62,0,0,1,.27,2.73,19.05,19.05,0,0,1-.58,4.47,28.78,28.78,0,0,1-1.66,4.83A30.54,30.54,0,0,1,367.49,82a23,23,0,0,1-3.37,4,16.41,16.41,0,0,1-4,2.78,10.26,10.26,0,0,1-4.52,1,10,10,0,0,1-2.1-.27,5,5,0,0,1-2.31-1.29,7.78,7.78,0,0,1-1.86-3.08,16.74,16.74,0,0,1-.76-5.66,53.83,53.83,0,0,1,.44-6.59c.3-2.35.78-5,1.47-8.11-.43.07-1,.12-1.66.17s-1.35.07-2,.07l.19-1.31c.62,0,1.29,0,2-.1a8.68,8.68,0,0,0,1.83-.34,100.85,100.85,0,0,1,4.12-13,69.87,69.87,0,0,1,5.47-11.09,33.6,33.6,0,0,1,6.37-7.74,10.45,10.45,0,0,1,6.79-2.9,5.28,5.28,0,0,1,2.42.51,4.45,4.45,0,0,1,1.61,1.35,5.49,5.49,0,0,1,.9,1.92,8.63,8.63,0,0,1,.3,2.27,16.71,16.71,0,0,1-1,5.52A27.46,27.46,0,0,1,375,45.79a42.68,42.68,0,0,1-4.15,5.42,58.8,58.8,0,0,1-5.1,5,57.5,57.5,0,0,1-5.69,4.35A50,50,0,0,1,354.26,64c-.2.75-.39,1.56-.59,2.44s-.39,1.78-.59,2.71-.37,1.85-.53,2.76S352.25,73.62,352.16,74.4Zm0,8.2a17.8,17.8,0,0,0,.12,2,6.92,6.92,0,0,0,.49,1.93,3.93,3.93,0,0,0,1,1.46,2.45,2.45,0,0,0,1.69.59,6.1,6.1,0,0,0,3.37-1,13.18,13.18,0,0,0,3-2.78,22.7,22.7,0,0,0,2.51-4,36.43,36.43,0,0,0,1.93-4.56,35.85,35.85,0,0,0,1.25-4.59,21.45,21.45,0,0,0,.44-4,5.94,5.94,0,0,0-.74-3.37,2.68,2.68,0,0,0-2.34-1,5.18,5.18,0,0,0-2.44.75,14.45,14.45,0,0,0-2.78,2.08,23.12,23.12,0,0,0-2.79,3.15,25.07,25.07,0,0,0-2.41,4,24.37,24.37,0,0,0-1.69,4.54A18.89,18.89,0,0,0,352.16,82.6Zm2.54-20.31a43.72,43.72,0,0,0,8.17-5.64,44.21,44.21,0,0,0,6.57-7,34.39,34.39,0,0,0,4.35-7.69,20.32,20.32,0,0,0,1.56-7.5,6.88,6.88,0,0,0-.64-3.44,2.4,2.4,0,0,0-2.24-1,4.83,4.83,0,0,0-2.93,1.1A14.74,14.74,0,0,0,366.66,34a33.31,33.31,0,0,0-2.76,4.3c-.9,1.63-1.75,3.34-2.56,5.15s-1.57,3.64-2.27,5.49-1.34,3.62-1.91,5.3-1.07,3.21-1.49,4.61S354.92,61.38,354.7,62.29Zm49.16-2.15L399.27,78a20.25,20.25,0,0,0-.73,4.59,4.82,4.82,0,0,0,.64,2.54,1.82,1.82,0,0,0,1.56,1.08q1.41,0,4.69-3.47l.68.68-.54.64a42.85,42.85,0,0,1-4,4.17,4,4,0,0,1-2.41,1.2,3.28,3.28,0,0,1-2.71-1.64A6.38,6.38,0,0,1,395.32,84a46.56,46.56,0,0,1,1.17-7.08l.39-1.86a36.34,36.34,0,0,1-4.83,8.06q-5.08,6.45-9.72,6.45a5.34,5.34,0,0,1-4.4-2,8.32,8.32,0,0,1-1.61-5.37,20.82,20.82,0,0,1,2.62-9.62,26.49,26.49,0,0,1,6.49-8.27q3.88-3.25,7.54-3.25a6.48,6.48,0,0,1,5.77,2.83l.53-1.85Zm-5.61,6.25a5.65,5.65,0,0,0-2-2.9,5.17,5.17,0,0,0-3.2-1.05,7.3,7.3,0,0,0-4.54,2,19.39,19.39,0,0,0-4.39,5.49,31.18,31.18,0,0,0-2.62,6.15,19.54,19.54,0,0,0-1,5.57,6.86,6.86,0,0,0,1,3.9A3.05,3.05,0,0,0,384.14,87a7.33,7.33,0,0,0,4.68-2.1,25.32,25.32,0,0,0,4.84-6A22.42,22.42,0,0,0,396,74.35c.56-1.5,1.17-3.58,1.86-6.25Zm17.87,23.39a5.71,5.71,0,0,1-4.66-2.12,8.41,8.41,0,0,1-1.74-5.5,25,25,0,0,1,1.22-7.71,23.61,23.61,0,0,1,3.37-6.69,18,18,0,0,1,5-4.71,11.56,11.56,0,0,1,6.2-1.78,7.75,7.75,0,0,1,5.76,2c.1-.56.18-1.25.25-2.08s.12-1.68.17-2.56.08-1.73.1-2.54,0-1.48,0-2q0-1.12-.12-2.79a25.8,25.8,0,0,0-.51-3.49,23.67,23.67,0,0,0-1.1-3.64A12.32,12.32,0,0,0,428.25,41a9.13,9.13,0,0,0-2.83-2.35,8.44,8.44,0,0,0-4-.9,11.46,11.46,0,0,0-1.44.12,11.66,11.66,0,0,0-2,.47,14.36,14.36,0,0,0-2.27,1,14.62,14.62,0,0,0-2.36,1.54l-.59-.93A11.87,11.87,0,0,1,415.29,38a18.41,18.41,0,0,1,2.88-1.29A16.21,16.21,0,0,1,421,36a14,14,0,0,1,2.27-.22,11.74,11.74,0,0,1,6.27,1.49,10.41,10.41,0,0,1,3.76,3.95,16.73,16.73,0,0,1,1.81,5.62,44.19,44.19,0,0,1,.46,6.47,50.92,50.92,0,0,1-.78,8.86,58,58,0,0,1-2.15,8.47,50.81,50.81,0,0,1-3.22,7.57,33.94,33.94,0,0,1-4,6.08,19.5,19.5,0,0,1-4.54,4A9,9,0,0,1,416.12,89.78Zm14.31-23.73a4.62,4.62,0,0,0-2-2.51,5.61,5.61,0,0,0-3.12-.91,6.54,6.54,0,0,0-3.32.88,11,11,0,0,0-2.79,2.37A16.84,16.84,0,0,0,417,69.35a29.5,29.5,0,0,0-2.69,8.49,27.55,27.55,0,0,0-.34,4.23,7.16,7.16,0,0,0,1,4.07,3.57,3.57,0,0,0,3.22,1.54,5.14,5.14,0,0,0,3.1-1.15,13.71,13.71,0,0,0,2.88-3,30.83,30.83,0,0,0,2.49-4.23,43.49,43.49,0,0,0,2-4.76A38.84,38.84,0,0,0,430,69.88,19.16,19.16,0,0,0,430.43,66.05Zm2.77,42.33,9.23-45.94,4.69-2-3.22,14q3.62-7.28,6.81-10.47a9.72,9.72,0,0,1,7-3.2,5.58,5.58,0,0,1,4.63,2.15,9.23,9.23,0,0,1,1.71,5.9,21.65,21.65,0,0,1-1.54,7.82,24.7,24.7,0,0,1-4.32,7.27q-5,6.06-11.08,6.06a9.51,9.51,0,0,1-6.25-2l-5,20.41Zm8.4-23.63q2.06,4,5.76,4,5.37,0,9.38-8.74Q460,73,460,68.2a7,7,0,0,0-1-4,3.17,3.17,0,0,0-2.78-1.42q-2.92,0-6.15,3.86a40.39,40.39,0,0,0-5.23,8.49q-.83,1.86-1.53,4c-.48,1.4-.92,2.83-1.35,4.29Zm54-24.61L491.06,78a20.25,20.25,0,0,0-.73,4.59,4.91,4.91,0,0,0,.63,2.54,1.84,1.84,0,0,0,1.57,1.08q1.41,0,4.68-3.47l.69.68-.54.64a44.11,44.11,0,0,1-4,4.17,4,4,0,0,1-2.42,1.2,3.3,3.3,0,0,1-2.71-1.64A6.44,6.44,0,0,1,487.11,84a46.56,46.56,0,0,1,1.17-7.08l.39-1.86a36.73,36.73,0,0,1-4.83,8.06q-5.08,6.45-9.72,6.45a5.34,5.34,0,0,1-4.4-2,8.32,8.32,0,0,1-1.61-5.37,20.93,20.93,0,0,1,2.61-9.62,26.66,26.66,0,0,1,6.5-8.27q3.88-3.25,7.54-3.25a6.46,6.46,0,0,1,5.76,2.83l.54-1.85ZM490,66.39a5.65,5.65,0,0,0-2-2.9,5.19,5.19,0,0,0-3.2-1.05,7.28,7.28,0,0,0-4.54,2,19.22,19.22,0,0,0-4.39,5.49,31.18,31.18,0,0,0-2.62,6.15,19.54,19.54,0,0,0-1.05,5.57,6.86,6.86,0,0,0,1,3.9A3.05,3.05,0,0,0,475.93,87a7.35,7.35,0,0,0,4.68-2.1,25.32,25.32,0,0,0,4.84-6,22.42,22.42,0,0,0,2.29-4.49q.83-2.25,1.86-6.25Zm30.27,22.07-3.22,1,3.85-19.87.35-1.71a12.49,12.49,0,0,0,.29-2.35c0-1.43-.57-2.15-1.71-2.15s-2.38.73-3.91,2.18a31.68,31.68,0,0,0-4.83,6.27,54.87,54.87,0,0,0-2.86,5.08,52.73,52.73,0,0,0-2.19,5.2q-1,2.76-1.93,6.32l-3,1,5-27,4.69-2-4.25,17.72a47.72,47.72,0,0,1,7.49-12.43q4.23-4.86,7.6-4.85,3.66,0,3.66,4.15a29.7,29.7,0,0,1-.73,5L523,77.33q4.72-9.08,8-12.82t6.5-3.73a3.75,3.75,0,0,1,2.83,1.07,4.31,4.31,0,0,1,1,3.08,27.46,27.46,0,0,1-1,5.56l-1.52,6-.48,1.9a22.56,22.56,0,0,0-.69,4.5,5.05,5.05,0,0,0,.54,2.51,1.56,1.56,0,0,0,1.37,1q1.56,0,4.88-3.61l.73.68-.44.54a43.79,43.79,0,0,1-4.12,4.42,4,4,0,0,1-2.47,1.15A3.06,3.06,0,0,1,535.62,88a6.64,6.64,0,0,1-1-3.83,27.6,27.6,0,0,1,.63-4.64L537,69.42l.29-1.76a12.28,12.28,0,0,0,.3-2.34,1.91,1.91,0,0,0-.54-1.42,2,2,0,0,0-1.47-.53,4.24,4.24,0,0,0-2.36.9A13.24,13.24,0,0,0,530.47,67a45.72,45.72,0,0,0-3.28,4.88,67.79,67.79,0,0,0-4,7.74A69.62,69.62,0,0,0,520.31,88.46ZM563.47,70a9.24,9.24,0,0,1,2,.19,3.59,3.59,0,0,1,1.52.73,3.28,3.28,0,0,1,1,1.49,7.84,7.84,0,0,1,.32,2.42,11.7,11.7,0,0,1-1.25,5,19.64,19.64,0,0,1-3.2,4.77,18.17,18.17,0,0,1-4.37,3.54,9.49,9.49,0,0,1-4.71,1.39,5.48,5.48,0,0,1-4-1.44,5.11,5.11,0,0,1-1.49-3.84,25.53,25.53,0,0,1,.54-4.54l3.32-17.28,4.59-2-4.4,17.09a21.09,21.09,0,0,1,5.28-5.77A8.82,8.82,0,0,1,563.47,70ZM552.83,80.6a15.08,15.08,0,0,0-.35,3,4.09,4.09,0,0,0,1.08,2.88,3.89,3.89,0,0,0,3,1.17,5.31,5.31,0,0,0,2.63-.78,8.72,8.72,0,0,0,2.52-2.27,12.78,12.78,0,0,0,1.9-3.71,15.63,15.63,0,0,0,.76-5.1,6.15,6.15,0,0,0-.51-2.76,2,2,0,0,0-1.93-1,5.59,5.59,0,0,0-2.13.48,9.13,9.13,0,0,0-2.34,1.54,16.73,16.73,0,0,0-2.39,2.66,23,23,0,0,0-2.27,3.86Zm25.73-20.16-4.3,16.06a25.85,25.85,0,0,0-1.07,6.35,5.35,5.35,0,0,0,.53,2.54,1.6,1.6,0,0,0,1.42,1q1.51,0,4.83-3.61l.79.68-.49.54a48.26,48.26,0,0,1-4.1,4.42,3.92,3.92,0,0,1-2.45,1.15A3.06,3.06,0,0,1,571.16,88a6.64,6.64,0,0,1-1-3.83,28.84,28.84,0,0,1,.59-4.64l3.07-17.09Z" transform="translate(-36 -5.94)"/><path class="cls-3" d="M70,118.56c.12-.54.24-1.1.37-1.68s.25-1.14.37-1.66.2-1,.28-1.37a5.71,5.71,0,0,0,.11-.81c0-.4-.18-.61-.54-.61s-1,.47-1.59,1.4-1.69,2.83-3.22,5.71c-.86,1.63-1.76,3.36-2.7,5.21s-1.94,3.68-3,5.51a56.94,56.94,0,0,1-3.51,5.24,27.14,27.14,0,0,1-4.16,4.44,20,20,0,0,1-5,3.07,15,15,0,0,1-6,1.16l-.68,0-.73-.09.78-1.86a18,18,0,0,0,1.95.15,16.38,16.38,0,0,0,3.15-.29,13.88,13.88,0,0,0,5.48-2.46,22.4,22.4,0,0,0,2.6-2.25,18,18,0,0,0,1.64-1.9c.55-.72,1.1-1.49,1.65-2.32s1.07-1.67,1.6-2.55,1-1.73,1.48-2.57.91-1.64,1.31-2.41.75-1.45,1.06-2l2.3-4.42a49.59,49.59,0,0,1,4.17-7,4,4,0,0,1,2.91-1.85,1.48,1.48,0,0,1,1.13.45,1.6,1.6,0,0,1,.43,1.16,5.46,5.46,0,0,1-.07.84c0,.32-.12.69-.2,1.11L67.15,143H64.88Zm3,19.75a9.24,9.24,0,0,1,1.18-4.38,10.5,10.5,0,0,1,3.07-3.55A6.46,6.46,0,0,1,81.06,129a4.28,4.28,0,0,1,3.31,1.36,4.93,4.93,0,0,1,1.26,3.5,9.64,9.64,0,0,1-1.16,4.54,10.51,10.51,0,0,1-3,3.6,6.39,6.39,0,0,1-3.83,1.41A4.29,4.29,0,0,1,74.25,142,5.28,5.28,0,0,1,73,138.31Zm10.45-5.37a3.91,3.91,0,0,0-.72-2.42,2.23,2.23,0,0,0-1.84-1,3.38,3.38,0,0,0-2,.66,6.32,6.32,0,0,0-1.72,1.93,14.49,14.49,0,0,0-1.45,3.42,12.24,12.24,0,0,0-.58,3.46,4.71,4.71,0,0,0,.71,2.79,2.35,2.35,0,0,0,2,1c1.41,0,2.66-1,3.73-3a14.24,14.24,0,0,0,1.32-3.39A13.91,13.91,0,0,0,83.43,132.94Zm7.84,10.45a2.83,2.83,0,0,1-2.33-1.06,4.19,4.19,0,0,1-.87-2.75,12.36,12.36,0,0,1,.61-3.86,12,12,0,0,1,1.68-3.34A9.08,9.08,0,0,1,92.88,130a5.81,5.81,0,0,1,3.1-.89,3.86,3.86,0,0,1,2.88,1,10.08,10.08,0,0,0,.12-1c0-.41.06-.84.09-1.28s0-.86.05-1.27,0-.74,0-1,0-.84-.06-1.39a12.78,12.78,0,0,0-.26-1.75,11.16,11.16,0,0,0-.55-1.82,6.13,6.13,0,0,0-.92-1.62,4.61,4.61,0,0,0-1.42-1.17,4.22,4.22,0,0,0-2-.45,6,6,0,0,0-.72.06,5.08,5.08,0,0,0-1,.23,7.07,7.07,0,0,0-2.32,1.24l-.3-.46a6.2,6.2,0,0,1,1.27-.93,11.42,11.42,0,0,1,1.44-.65,8.12,8.12,0,0,1,1.41-.36,7.48,7.48,0,0,1,1.13-.11,6,6,0,0,1,3.14.74,5.25,5.25,0,0,1,1.88,2,8.21,8.21,0,0,1,.9,2.81,21.45,21.45,0,0,1,.24,3.23,25.43,25.43,0,0,1-.4,4.43,28.28,28.28,0,0,1-1.07,4.24,25.87,25.87,0,0,1-1.61,3.78,16.21,16.21,0,0,1-2,3,9.57,9.57,0,0,1-2.27,2A4.42,4.42,0,0,1,91.27,143.39Zm7.15-11.86a2.31,2.31,0,0,0-1-1.26,2.9,2.9,0,0,0-1.57-.45,3.2,3.2,0,0,0-1.66.44,5.27,5.27,0,0,0-1.39,1.18,8.31,8.31,0,0,0-1.12,1.73,14.42,14.42,0,0,0-.83,2.07,14.71,14.71,0,0,0-.52,2.18,14.48,14.48,0,0,0-.17,2.11,3.55,3.55,0,0,0,.52,2,1.8,1.8,0,0,0,1.61.77,2.58,2.58,0,0,0,1.55-.57,7,7,0,0,0,1.44-1.52,14.13,14.13,0,0,0,1.24-2.11,18.13,18.13,0,0,0,1-2.38,19.48,19.48,0,0,0,.65-2.32A9.91,9.91,0,0,0,98.42,131.53ZM111.92,143l1.34-6.91h-.66c-.81,0-1.61,0-2.39,0a13.24,13.24,0,0,1-.49,1.51,12.1,12.1,0,0,1-1,2.14,9.77,9.77,0,0,1-1.44,1.84,6.49,6.49,0,0,1-1.78,1.28,4.63,4.63,0,0,1-2.07.48,2.64,2.64,0,0,1-1.86-.59,1.83,1.83,0,0,1-.64-1.37,1.65,1.65,0,0,1,.48-1.18,2,2,0,0,1,1.5-.5,7.38,7.38,0,0,0-.29.73,2.88,2.88,0,0,0-.12.88,1.35,1.35,0,0,0,.38,1,1.42,1.42,0,0,0,1,.37,2.85,2.85,0,0,0,1.75-.68,6.44,6.44,0,0,0,1.57-1.84,10.56,10.56,0,0,0,1.15-2.76q.17-.63.27-1.29l-1,0,.32-.53.78-.05a11.51,11.51,0,0,0,.1-1.57,7.16,7.16,0,0,0-.46-2.89,1.84,1.84,0,0,0-1.86-1,2.68,2.68,0,0,0-1.12.25,6,6,0,0,0-2,1.51,11,11,0,0,0-.71.85l-.34-.29a10.27,10.27,0,0,1,1-1.31,8.41,8.41,0,0,1,1.24-1.15,6,6,0,0,1,1.47-.8,4.67,4.67,0,0,1,1.71-.31,2.51,2.51,0,0,1,2.24,1.08,6.09,6.09,0,0,1,.72,3.34,10,10,0,0,1-.25,2.08l0,.12,1.71-.07,1.31-.05,1.15-5.89,2.08-.83-1.47,6.67h1.2l1.73,0q.12-.39.27-.75a14.51,14.51,0,0,1,1-2.13,10.65,10.65,0,0,1,1.36-1.82,6.78,6.78,0,0,1,1.59-1.28,3.67,3.67,0,0,1,1.81-.49,2.57,2.57,0,0,1,1.81.63,2.16,2.16,0,0,1,.68,1.67,2.54,2.54,0,0,1-.18.91,3.37,3.37,0,0,1-.49.87,2.63,2.63,0,0,1-.72.65,1.66,1.66,0,0,1-.88.25.91.91,0,0,1-.66-.29A2.63,2.63,0,0,0,125.3,131a1.48,1.48,0,0,0-.36-1.06,1.21,1.21,0,0,0-.94-.38,2.54,2.54,0,0,0-1.73.81,7.57,7.57,0,0,0-1.51,2.11,14.35,14.35,0,0,0-1.08,3v0l.81,0-.64.83a2,2,0,0,1-.36,0,15.72,15.72,0,0,0-.2,2.47,3.86,3.86,0,0,0,.74,2.46,2.52,2.52,0,0,0,2.12.93,3.63,3.63,0,0,0,1.79-.45,4.92,4.92,0,0,0,1.65-1.75l.34.3a7.91,7.91,0,0,1-2,2.28,4.27,4.27,0,0,1-2.58.87,3.51,3.51,0,0,1-2.92-1.19,5.58,5.58,0,0,1-.94-3.5,9.91,9.91,0,0,1,.22-1.91l.15-.58-1.56-.05-1.3,0-1.46,6.68Zm21.36-14.28-2.37,9.45a9.08,9.08,0,0,0-.31,2.14,1.79,1.79,0,0,0,.53,1.37,1.94,1.94,0,0,0,1.39.51q2.08,0,4.33-3.39l.09-.15c0-.16.06-.29.08-.39l1.53-8.54,2.4-1-2.15,8a12.78,12.78,0,0,0-.54,3.17,2.6,2.6,0,0,0,.27,1.27.8.8,0,0,0,.71.49c.5,0,1.31-.6,2.42-1.8l.39.34-.25.27a23,23,0,0,1-2.05,2.2,1.92,1.92,0,0,1-1.22.58,1.54,1.54,0,0,1-1.28-.77,3.32,3.32,0,0,1-.53-1.92c0-.24,0-.47,0-.68q-2.53,3.38-5,3.37a2.75,2.75,0,0,1-2-.72,2.54,2.54,0,0,1-.75-1.92,11.87,11.87,0,0,1,.27-2.27l1.66-8.64Zm15.07,0L146,138.17a9.16,9.16,0,0,0-.32,2.14,1.8,1.8,0,0,0,.54,1.37,1.94,1.94,0,0,0,1.39.51q2.07,0,4.32-3.39l.1-.15c0-.16.06-.29.07-.39l1.54-8.54,2.39-1-2.15,8a13.16,13.16,0,0,0-.53,3.17,2.6,2.6,0,0,0,.27,1.27.78.78,0,0,0,.7.49c.51,0,1.31-.6,2.42-1.8l.39.34-.24.27a23,23,0,0,1-2.05,2.2,1.92,1.92,0,0,1-1.22.58,1.54,1.54,0,0,1-1.29-.77,3.32,3.32,0,0,1-.52-1.92c0-.24,0-.47,0-.68q-2.53,3.38-5,3.37a2.75,2.75,0,0,1-2-.72,2.57,2.57,0,0,1-.74-1.92,11.87,11.87,0,0,1,.27-2.27l1.66-8.64Z" transform="translate(-36 -5.94)"/><text class="cls-5" transform="translate(123.11 137.06)"> </text><path class="cls-3" d="M167.36,143.24,170,129.72l2.32-1-2.1,9a27.43,27.43,0,0,1,4-6.5q2-2.22,3.83-2.22a1.92,1.92,0,0,1,1.47.6,2.26,2.26,0,0,1,.56,1.6,6.84,6.84,0,0,1-.27,1.59l-.24,1-.74,3-.24.95a10.44,10.44,0,0,0-.37,2.25,2.56,2.56,0,0,0,.27,1.26.81.81,0,0,0,.71.47c.5,0,1.31-.6,2.42-1.8l.39.34-.25.27a21.7,21.7,0,0,1-2.05,2.2,1.9,1.9,0,0,1-1.22.58,1.54,1.54,0,0,1-1.28-.77,3.32,3.32,0,0,1-.52-1.92,13.11,13.11,0,0,1,.29-2.32l.95-5.17a13.23,13.23,0,0,0,.2-1.71,1.06,1.06,0,0,0-.27-.78,1,1,0,0,0-.73-.27c-1.13,0-2.51,1.2-4.16,3.61a23.81,23.81,0,0,0-2,3.43,45.07,45.07,0,0,0-1.76,4.7l-.22.66Zm14.29,9.45,4.61-23,2.34-1-1.61,7a20.45,20.45,0,0,1,3.41-5.23,4.84,4.84,0,0,1,3.5-1.6,2.82,2.82,0,0,1,2.32,1.07,4.64,4.64,0,0,1,.86,3,10.86,10.86,0,0,1-.77,3.9,12.75,12.75,0,0,1-2.16,3.64q-2.52,3-5.55,3a4.78,4.78,0,0,1-3.12-1L183,152.69Zm4.19-11.81a3.18,3.18,0,0,0,2.89,2q2.69,0,4.68-4.37a14.73,14.73,0,0,0,1.64-5.91,3.46,3.46,0,0,0-.49-2,1.6,1.6,0,0,0-1.39-.71c-1,0-2,.64-3.08,1.93a20.17,20.17,0,0,0-2.61,4.25c-.28.62-.53,1.27-.77,2s-.46,1.42-.67,2.15Zm13.26-2.57a9.24,9.24,0,0,1,1.18-4.38,10.4,10.4,0,0,1,3.07-3.55,6.46,6.46,0,0,1,3.83-1.37,4.28,4.28,0,0,1,3.31,1.36,4.93,4.93,0,0,1,1.26,3.5,9.64,9.64,0,0,1-1.16,4.54,10.51,10.51,0,0,1-3.05,3.6,6.39,6.39,0,0,1-3.83,1.41,4.29,4.29,0,0,1-3.34-1.41A5.28,5.28,0,0,1,199.1,138.31Zm10.45-5.37a3.91,3.91,0,0,0-.72-2.42,2.23,2.23,0,0,0-1.84-1,3.38,3.38,0,0,0-2,.66,6.32,6.32,0,0,0-1.72,1.93,14.49,14.49,0,0,0-1.45,3.42,12.24,12.24,0,0,0-.58,3.46,4.71,4.71,0,0,0,.71,2.79,2.35,2.35,0,0,0,2,1c1.41,0,2.66-1,3.73-3a14.24,14.24,0,0,0,1.32-3.39A13.91,13.91,0,0,0,209.55,132.94Zm17.55-18.38,2.57-1.25-4.47,19.14c.31-.49.62-.95.94-1.39a6,6,0,0,1,1-1.13,4.35,4.35,0,0,1,1.29-.76,4.72,4.72,0,0,1,1.71-.28A2.81,2.81,0,0,1,232.5,130a4.63,4.63,0,0,1,.85,3,14.81,14.81,0,0,1-.51,3.85,12.15,12.15,0,0,1-1.45,3.4,8.26,8.26,0,0,1-2.26,2.4,5,5,0,0,1-2.9.92,4.81,4.81,0,0,1-3.13-1l-2.51,10.2h-1.32l2.56-12.2a9.7,9.7,0,0,1-.79,1,7.07,7.07,0,0,1-1.11,1,6.54,6.54,0,0,1-1.41.75,4.68,4.68,0,0,1-1.64.29,2.71,2.71,0,0,1-2.29-1.11,5.59,5.59,0,0,1-.84-3.38,14.4,14.4,0,0,1,.5-3.8,11.24,11.24,0,0,1,1.42-3.22,7.42,7.42,0,0,1,2.21-2.25,5.16,5.16,0,0,1,2.88-.84,3.78,3.78,0,0,1,2.1.56,3.09,3.09,0,0,1,1.22,1.66Zm-3.68,18.75a5.6,5.6,0,0,0-.71-2.9,2,2,0,0,0-1.73-.91,2.91,2.91,0,0,0-1.61.46,4.79,4.79,0,0,0-1.31,1.24,8.33,8.33,0,0,0-1,1.77,14,14,0,0,0-.71,2.07,18.17,18.17,0,0,0-.43,2.15,16.13,16.13,0,0,0-.14,2,3.93,3.93,0,0,0,.66,2.54,2,2,0,0,0,1.56.78,2.57,2.57,0,0,0,1.32-.36,4.67,4.67,0,0,0,1.11-.9,6.84,6.84,0,0,0,.89-1.25,13.26,13.26,0,0,0,.67-1.37,13,13,0,0,0,.46-1.31c.13-.42.22-.75.28-1Zm.1,6.91a3.19,3.19,0,0,0,.33,1.28,2.52,2.52,0,0,0,.64.82,2.39,2.39,0,0,0,.87.44,4.07,4.07,0,0,0,1,.12,3,3,0,0,0,2-.76,6.2,6.2,0,0,0,1.57-2.09,12.89,12.89,0,0,0,1-3.11,18.56,18.56,0,0,0,.38-3.83,3.87,3.87,0,0,0-.62-2.43,1.85,1.85,0,0,0-1.46-.77,2.87,2.87,0,0,0-1.47.38,4.42,4.42,0,0,0-1.18,1,6.55,6.55,0,0,0-.91,1.39,14.32,14.32,0,0,0-.68,1.57,15.27,15.27,0,0,0-.49,1.55c-.13.51-.24.94-.32,1.3Zm21.82-1,.44.36a11.56,11.56,0,0,1-2.95,2.9,5.84,5.84,0,0,1-3.1.89,4.09,4.09,0,0,1-3.18-1.32,5,5,0,0,1-1.19-3.49,9.63,9.63,0,0,1,1.16-4.46,12,12,0,0,1,2.9-3.73,5.37,5.37,0,0,1,3.46-1.48,2.35,2.35,0,0,1,1.64.58,2,2,0,0,1,.65,1.52,5.26,5.26,0,0,1-2,3.76,17.06,17.06,0,0,1-5.59,3.2,2.85,2.85,0,0,0,0,.44,4,4,0,0,0,.93,2.74,3,3,0,0,0,2.39,1.06,4,4,0,0,0,2.23-.72A10.84,10.84,0,0,0,245.34,139.22Zm-7.81-1.86a13,13,0,0,0,4.05-2.61,8.72,8.72,0,0,0,1.54-2.1,4.51,4.51,0,0,0,.59-2c0-.76-.35-1.15-1.05-1.15-1.06,0-2.13.84-3.21,2.51A11.85,11.85,0,0,0,237.53,137.36Zm20.19,2a12.3,12.3,0,0,1-2.89,3.06,5.43,5.43,0,0,1-3.12,1,3.92,3.92,0,0,1-3.06-1.32,4.92,4.92,0,0,1-1.18-3.42,10,10,0,0,1,1.14-4.47,11.77,11.77,0,0,1,2.95-3.76,5.49,5.49,0,0,1,3.45-1.49,2.57,2.57,0,0,1,1.81.63,2.16,2.16,0,0,1,.68,1.67,2.83,2.83,0,0,1-.72,1.82,2.05,2.05,0,0,1-1.55.86.91.91,0,0,1-.66-.29,2.63,2.63,0,0,0,1.59-2.64,1.48,1.48,0,0,0-.36-1.06,1.23,1.23,0,0,0-.94-.38,2.93,2.93,0,0,0-1.82.74,7.74,7.74,0,0,0-1.72,2,12.27,12.27,0,0,0-1.25,2.79,9.87,9.87,0,0,0-.46,3,4.72,4.72,0,0,0,.86,2.93,2.68,2.68,0,0,0,2.24,1.12,4,4,0,0,0,2.32-.76,10.58,10.58,0,0,0,2.35-2.32Zm11.94,0a12.3,12.3,0,0,1-2.89,3.06,5.43,5.43,0,0,1-3.12,1,3.92,3.92,0,0,1-3.06-1.32,4.92,4.92,0,0,1-1.18-3.42,10,10,0,0,1,1.14-4.47,11.77,11.77,0,0,1,2.95-3.76,5.49,5.49,0,0,1,3.45-1.49,2.57,2.57,0,0,1,1.81.63,2.16,2.16,0,0,1,.68,1.67,2.83,2.83,0,0,1-.72,1.82,2.05,2.05,0,0,1-1.55.86.91.91,0,0,1-.66-.29A2.63,2.63,0,0,0,268.1,131a1.48,1.48,0,0,0-.36-1.06,1.23,1.23,0,0,0-.94-.38,2.93,2.93,0,0,0-1.82.74,7.74,7.74,0,0,0-1.72,2,12.27,12.27,0,0,0-1.25,2.79,9.87,9.87,0,0,0-.46,3,4.72,4.72,0,0,0,.86,2.93,2.68,2.68,0,0,0,2.24,1.12,4,4,0,0,0,2.32-.76,10.58,10.58,0,0,0,2.35-2.32Zm6.64-10.62-2.37,9.45a9.08,9.08,0,0,0-.31,2.14,1.83,1.83,0,0,0,.53,1.37,2,2,0,0,0,1.39.51q2.08,0,4.33-3.39l.09-.15c0-.16.06-.29.08-.39l1.54-8.54,2.39-1-2.15,8a12.78,12.78,0,0,0-.54,3.17,2.6,2.6,0,0,0,.27,1.27.8.8,0,0,0,.71.49c.5,0,1.31-.6,2.42-1.8l.39.34-.25.27a23,23,0,0,1-2.05,2.2,1.9,1.9,0,0,1-1.22.58,1.54,1.54,0,0,1-1.28-.77,3.32,3.32,0,0,1-.53-1.92c0-.24,0-.47,0-.68q-2.53,3.38-5,3.37a2.75,2.75,0,0,1-2-.72,2.54,2.54,0,0,1-.75-1.92,11.87,11.87,0,0,1,.27-2.27l1.66-8.64Zm10.11,9.59a9.24,9.24,0,0,1,1.18-4.38,10.5,10.5,0,0,1,3.07-3.55,6.46,6.46,0,0,1,3.83-1.37,4.28,4.28,0,0,1,3.31,1.36,4.93,4.93,0,0,1,1.26,3.5,9.64,9.64,0,0,1-1.16,4.54,10.51,10.51,0,0,1-3,3.6,6.39,6.39,0,0,1-3.83,1.41,4.29,4.29,0,0,1-3.34-1.41A5.28,5.28,0,0,1,286.41,138.31Zm10.45-5.37a3.91,3.91,0,0,0-.72-2.42,2.23,2.23,0,0,0-1.84-1,3.38,3.38,0,0,0-2,.66,6.32,6.32,0,0,0-1.72,1.93,14.49,14.49,0,0,0-1.45,3.42,12.24,12.24,0,0,0-.58,3.46,4.71,4.71,0,0,0,.71,2.79,2.35,2.35,0,0,0,2,1c1.41,0,2.66-1,3.73-3a14.24,14.24,0,0,0,1.32-3.39A13.91,13.91,0,0,0,296.86,132.94Zm14.43-3.22,2.39-1-2,7.76c-.24,1-.41,1.71-.5,2.26a8.17,8.17,0,0,0-.13,1.21,2.68,2.68,0,0,0,.26,1.26.81.81,0,0,0,.71.47c.51,0,1.31-.6,2.42-1.8l.39.34-.24.27c-.48.55-.88,1-1.21,1.37s-.62.65-.84.85a2.08,2.08,0,0,1-1.23.56,1.53,1.53,0,0,1-1.28-.76,3.3,3.3,0,0,1-.52-1.93,11.55,11.55,0,0,1,.17-1.73c.11-.75.27-1.66.46-2.73h-5.66l-1.54,6.61-1.64.51,2.59-13.52,2.32-1-1.54,6.57h5.64c.15-.8.3-1.66.47-2.58S311.11,130.79,311.29,129.72ZM330,128.57l-2.29,8.94a10.36,10.36,0,0,0-.37,2.29,2.47,2.47,0,0,0,.32,1.27.91.91,0,0,0,.78.54c.47,0,1.26-.58,2.35-1.73l.34.34-.27.31a21.64,21.64,0,0,1-2,2.09,2,2,0,0,1-1.21.6,1.63,1.63,0,0,1-1.35-.82,3.14,3.14,0,0,1-.58-1.89,23.55,23.55,0,0,1,.59-3.54l.19-.93a18.07,18.07,0,0,1-2.41,4q-2.55,3.23-4.86,3.22a2.67,2.67,0,0,1-2.2-1,4.14,4.14,0,0,1-.8-2.68,10.42,10.42,0,0,1,1.3-4.81,13.15,13.15,0,0,1,3.25-4.14,6,6,0,0,1,3.77-1.62,3.23,3.23,0,0,1,2.88,1.41l.27-.93Zm-2.8,3.13a2.89,2.89,0,0,0-1-1.46,2.6,2.6,0,0,0-1.6-.52,3.64,3.64,0,0,0-2.27,1,9.82,9.82,0,0,0-2.2,2.74,16.2,16.2,0,0,0-1.3,3.08,9.77,9.77,0,0,0-.53,2.78,3.49,3.49,0,0,0,.48,2,1.52,1.52,0,0,0,1.35.7,3.7,3.7,0,0,0,2.35-1.05,12.63,12.63,0,0,0,2.41-3,11.62,11.62,0,0,0,1.15-2.24,31.6,31.6,0,0,0,.93-3.13Zm18.65-2.64c-.26.89-.55,1.86-.87,2.89s-.63,2.15-.94,3.34-.56,2.16-.75,2.94A7.59,7.59,0,0,0,343,140a2.56,2.56,0,0,0,.27,1.26.81.81,0,0,0,.71.47c.5,0,1.31-.6,2.42-1.8l.39.34-.25.27c-.47.55-.87,1-1.21,1.37a9.71,9.71,0,0,1-.84.85,2,2,0,0,1-1.22.56,1.53,1.53,0,0,1-1.28-.76,3.31,3.31,0,0,1-.53-1.93,13.35,13.35,0,0,1,.3-2.32l1.66-8.3-1.54.32a2,2,0,0,0-.88.43,4.4,4.4,0,0,0-.85,1.12A20.61,20.61,0,0,0,339,134c-.39.92-.89,2.12-1.5,3.58-.21.51-.46,1.07-.77,1.7a11.76,11.76,0,0,1-1,1.76,7.12,7.12,0,0,1-1.29,1.38A2.28,2.28,0,0,1,333,143l-.53,0a3.39,3.39,0,0,1-.57-.1l.69-2.61a1.79,1.79,0,0,0,1.19.41,2.29,2.29,0,0,0,1.53-.71,7.08,7.08,0,0,0,1.48-2.32c.27-.62.55-1.29.83-2s.53-1.44.75-2.1.41-1.27.55-1.8a6.29,6.29,0,0,0,.23-1.13l-2.61.19.54-.8Zm10.06,4.42a4.34,4.34,0,0,1,1,.1,1.73,1.73,0,0,1,.76.36,1.59,1.59,0,0,1,.47.75,3.73,3.73,0,0,1,.16,1.21,5.91,5.91,0,0,1-.62,2.52,9.84,9.84,0,0,1-1.6,2.38,8.78,8.78,0,0,1-2.19,1.77,4.64,4.64,0,0,1-2.35.7,2.75,2.75,0,0,1-2-.72,2.54,2.54,0,0,1-.75-1.92,12.82,12.82,0,0,1,.27-2.27l1.66-8.64,2.3-1-2.2,8.54a10.44,10.44,0,0,1,2.64-2.88A4.41,4.41,0,0,1,355.87,133.48Zm-5.32,5.32a7.12,7.12,0,0,0-.17,1.51,2,2,0,0,0,.53,1.44,1.94,1.94,0,0,0,1.52.59,2.63,2.63,0,0,0,1.31-.39,4.19,4.19,0,0,0,1.26-1.14A6.29,6.29,0,0,0,356,139a7.68,7.68,0,0,0,.38-2.55,3.07,3.07,0,0,0-.25-1.38,1,1,0,0,0-1-.5,2.77,2.77,0,0,0-1.06.24,4.7,4.7,0,0,0-1.17.77,8.4,8.4,0,0,0-1.2,1.33,11.17,11.17,0,0,0-1.13,1.93Zm20.18-9.08,2.4-1-2,7.76c-.25,1-.42,1.71-.51,2.26a9.83,9.83,0,0,0-.13,1.21,2.56,2.56,0,0,0,.27,1.26.8.8,0,0,0,.71.47c.5,0,1.31-.6,2.41-1.8l.39.34-.24.27c-.47.55-.87,1-1.21,1.37a9.71,9.71,0,0,1-.84.85,2.06,2.06,0,0,1-1.22.56,1.51,1.51,0,0,1-1.28-.76,3.31,3.31,0,0,1-.53-1.93,13.08,13.08,0,0,1,.17-1.73c.12-.75.27-1.66.47-2.73h-5.67l-1.53,6.61-1.64.51,2.59-13.52,2.32-1-1.54,6.57h5.64c.14-.8.3-1.66.46-2.58S370.56,130.79,370.73,129.72Zm4.91,8.59a9.12,9.12,0,0,1,1.18-4.38,10.4,10.4,0,0,1,3.07-3.55,6.46,6.46,0,0,1,3.83-1.37,4.28,4.28,0,0,1,3.31,1.36,4.93,4.93,0,0,1,1.26,3.5,9.64,9.64,0,0,1-1.16,4.54,10.51,10.51,0,0,1-3.05,3.6,6.39,6.39,0,0,1-3.83,1.41,4.29,4.29,0,0,1-3.34-1.41A5.28,5.28,0,0,1,375.64,138.31Zm10.45-5.37a3.91,3.91,0,0,0-.72-2.42,2.23,2.23,0,0,0-1.84-1,3.38,3.38,0,0,0-2,.66,6.32,6.32,0,0,0-1.72,1.93,14.49,14.49,0,0,0-1.45,3.42,12.24,12.24,0,0,0-.58,3.46,4.71,4.71,0,0,0,.71,2.79,2.35,2.35,0,0,0,2,1c1.41,0,2.66-1,3.73-3a14.24,14.24,0,0,0,1.32-3.39A13.91,13.91,0,0,0,386.09,132.94Z" transform="translate(-36 -5.94)"/></g><g class="cls-6"><g class="cls-2"><rect class="cls-3" x="360.02" y="96.06" width="37.33" height="39.33"/></g></g><g class="cls-7"><g class="cls-2"><rect class="cls-3" x="373.69" y="110.72" width="37.33" height="39.33"/></g></g><g class="cls-8"><g class="cls-2"><rect class="cls-9" x="375.97" y="113.17" width="19.11" height="19.78"/></g></g><g class="cls-2"><line class="cls-10" x1="204.5" y1="157.56" x2="254.5" y2="157.56"/><line class="cls-11" x1="0.5" y1="157.56" x2="50.5" y2="157.56"/><line class="cls-12" x1="51.5" y1="157.56" x2="101.5" y2="157.56"/><line class="cls-13" x1="102.5" y1="157.56" x2="152.5" y2="157.56"/><line class="cls-14" x1="255.5" y1="157.56" x2="305.5" y2="157.56"/><line class="cls-15" x1="153.5" y1="157.56" x2="203.5" y2="157.56"/><line class="cls-16" x1="306.5" y1="157.56" x2="356.5" y2="157.56"/></g></g></g></svg>