<?xml version="1.0" encoding="UTF-8"?>
<svg width="332px" height="91px" viewBox="0 0 332 91" version="1.1" xmlns="http://www.w3.org/2000/svg" xmlns:xlink="http://www.w3.org/1999/xlink" style="background: #FFFFFF;">
    <!-- Generator: Sketch 43.1 (39012) - http://www.bohemiancoding.com/sketch -->
    <title>логотип</title>
    <desc>Created with Sketch.</desc>
    <defs></defs>
    <g id="Page-1" stroke="none" stroke-width="1" fill="none" fill-rule="evenodd">
        <g id="логотип">
            <path d="M81.4453125,2.19726562 L45.703125,41.2109375 C46.7773491,43.7174604 48.2259023,46.3785667 50.0488281,49.1943359 C51.8717539,52.0101052 53.8004456,54.59797 55.8349609,56.9580078 C57.8694763,59.3180457 60.0423062,61.4420479 62.3535156,63.3300781 L58.8867187,66.6015625 C51.9205381,60.318979 46.2565322,52.4414536 41.8945312,42.96875 L76.2207031,2.19726562 L81.4453125,2.19726562 Z M46.1425781,2.49023438 L51.4648437,0 C50.9765601,3.09246338 50.3011111,6.63246704 49.4384766,10.6201172 C48.575842,14.6077673 47.5748755,18.7174268 46.4355469,22.9492188 C45.2962183,27.1810107 44.2382861,30.7128765 43.2617187,33.5449219 C42.1874946,36.8326987 41.0400452,39.9332537 39.8193359,42.8466797 C38.5986267,45.7601057 37.353522,48.2828669 36.0839844,50.4150391 C34.8144468,52.5472112 33.4309971,54.5003167 31.9335937,56.2744141 C30.4361904,58.0485115 28.8574302,59.6028579 27.1972656,60.9375 C21.4029658,65.7226802 14.0462686,68.1152344 5.12695312,68.1152344 C2.91340039,68.1152344 1.20443311,67.9199238 0,67.5292969 L1.46484375,63.9160156 C5.20835205,64.9902397 8.65883838,65.5273438 11.8164062,65.5273438 C19.0755571,65.5273438 25.3092188,61.7025122 30.5175781,54.0527344 C32.0149814,51.8391816 33.3740173,49.2838687 34.5947266,46.3867188 C35.8154358,43.4895688 37.1744717,39.436875 38.671875,34.2285156 C39.3880244,31.7545449 40.0960251,29.1748181 40.7958984,26.4892578 C41.4957717,23.8036975 42.1468069,21.1995569 42.7490234,18.6767578 C43.35124,16.1539587 43.9697234,13.4196111 44.6044922,10.4736328 C45.239261,7.52765454 45.6868477,5.27344531 45.9472656,3.7109375 L46.1425781,2.49023438 Z M72.1191406,56.4453125 C72.1191406,53.5156104 72.9085208,50.5940901 74.4873047,47.6806641 C76.0660886,44.767238 78.1087114,42.3990977 80.6152344,40.5761719 C83.1217573,38.7532461 85.6770703,37.8417969 88.28125,37.8417969 C91.0156387,37.8417969 93.2210203,38.7451082 94.8974609,40.5517578 C96.5739016,42.3584075 97.4121094,44.6939961 97.4121094,47.5585938 C97.4121094,50.6836094 96.6390051,53.7109229 95.0927734,56.640625 C93.5465417,59.5703271 91.5120569,61.9710193 88.9892578,63.8427734 C86.4664587,65.7145276 83.9192837,66.6503906 81.3476562,66.6503906 C78.5807153,66.6503906 76.3509199,65.7145276 74.6582031,63.8427734 C72.9654863,61.9710193 72.1191406,59.5052236 72.1191406,56.4453125 Z M93.0175781,45.703125 C93.0175781,43.7499902 92.5374397,42.1386782 91.5771484,40.8691406 C90.6168572,39.599603 89.3880283,38.9648438 87.890625,38.9648438 C86.5234307,38.9648438 85.2132224,39.4042925 83.9599609,40.2832031 C82.7066995,41.1621138 81.55925,42.4479082 80.5175781,44.140625 C79.3456973,46.0937598 78.3772825,48.3723828 77.6123047,50.9765625 C76.8473269,53.5807422 76.4648437,55.891917 76.4648437,57.9101562 C76.4648437,60.3190225 76.9368442,62.1744727 77.8808594,63.4765625 C78.8248745,64.7786523 80.1757725,65.4296875 81.9335937,65.4296875 C84.7656392,65.4296875 87.2558486,63.4603062 89.4042969,59.5214844 C90.5110732,57.5032451 91.3899707,55.2408979 92.0410156,52.734375 C92.6920605,50.2278521 93.0175781,47.8841255 93.0175781,45.703125 Z M121.875,39.2578125 L126.660156,37.2558594 L122.65625,52.7832031 C122.167966,54.7037856 121.834311,56.2093044 121.655273,57.2998047 C121.476236,58.3903049 121.386719,59.1959609 121.386719,59.7167969 C121.386719,60.7584688 121.565753,61.5966765 121.923828,62.2314453 C122.281903,62.8662141 122.753903,63.1835938 123.339844,63.1835938 C124.348963,63.1835938 125.960275,61.9791787 128.173828,59.5703125 L128.955078,60.2539062 L128.466797,60.7910156 C127.522782,61.897792 126.717126,62.8173792 126.049805,63.5498047 C125.382484,64.2822302 124.820966,64.843748 124.365234,65.234375 C123.453771,65.9830767 122.639978,66.3574219 121.923828,66.3574219 C120.914708,66.3574219 120.060225,65.8528696 119.360352,64.84375 C118.660478,63.8346304 118.310547,62.5488359 118.310547,60.9863281 C118.310547,60.172522 118.424478,59.0169346 118.652344,57.5195312 C118.880209,56.0221279 119.189451,54.1992295 119.580078,52.0507812 L108.251953,52.0507812 L105.175781,65.2832031 L101.904297,66.3085938 L107.080078,39.2578125 L111.71875,37.2558594 L108.642578,50.390625 L119.921875,50.390625 C120.214845,48.7955649 120.524087,47.0784597 120.849609,45.2392578 C121.175132,43.4000559 121.516925,41.4062607 121.875,39.2578125 Z M151.367187,65.2832031 L148.144531,66.3085938 L152.001953,46.4355469 L152.34375,44.7265625 C152.539063,43.7825474 152.636719,43.0013052 152.636719,42.3828125 C152.636719,40.9505137 152.067063,40.234375 150.927734,40.234375 C149.85351,40.234375 148.55144,40.9586516 147.021484,42.4072266 C145.491529,43.8558015 143.880217,45.947252 142.1875,48.6816406 C141.080724,50.4394619 140.128585,52.1321533 139.331055,53.7597656 C138.533525,55.3873779 137.80111,57.120759 137.133789,58.9599609 C136.466468,60.7991628 135.823571,62.9068892 135.205078,65.2832031 L132.177734,66.3085938 L137.207031,39.2578125 L141.894531,37.2558594 L137.646484,54.9804688 C139.827485,49.9348706 142.325832,45.7926594 145.141602,42.5537109 C147.957371,39.3147625 150.48827,37.6953125 152.734375,37.6953125 C155.175793,37.6953125 156.396484,39.0787622 156.396484,41.8457031 C156.396484,42.7897183 156.152346,44.4661338 155.664062,46.875 L154.052734,54.1503906 C157.210302,48.0956729 159.879546,43.8232546 162.060547,41.3330078 C164.241547,38.842761 166.406239,37.5976562 168.554687,37.5976562 C169.759121,37.5976562 170.703122,37.9557256 171.386719,38.671875 C172.070316,39.3880244 172.412109,40.4134048 172.412109,41.7480469 C172.412109,42.822271 172.086592,44.6777212 171.435547,47.3144531 L169.921875,53.3203125 L169.433594,55.2246094 C168.977862,57.2428486 168.75,58.7402295 168.75,59.7167969 C168.75,60.7584688 168.929035,61.5966765 169.287109,62.2314453 C169.645184,62.8662141 170.100909,63.1835938 170.654297,63.1835938 C171.695969,63.1835938 173.323557,61.9791787 175.537109,59.5703125 L176.269531,60.2539062 L175.830078,60.7910156 C173.9746,62.9720161 172.599288,64.4449832 171.704102,65.2099609 C170.808915,65.9749387 169.986983,66.3574219 169.238281,66.3574219 C168.229162,66.3574219 167.374678,65.8447317 166.674805,64.8193359 C165.974931,63.7939402 165.625,62.5162837 165.625,60.9863281 C165.625,60.042313 165.836586,58.4961045 166.259766,56.3476562 L168.066406,46.2402344 L168.359375,44.4824219 C168.554688,43.5058545 168.652344,42.7246123 168.652344,42.1386719 C168.652344,41.5527314 168.473309,41.080731 168.115234,40.7226562 C167.75716,40.3645815 167.268883,40.1855469 166.650391,40.1855469 C165.934241,40.1855469 165.144861,40.4866506 164.282227,41.0888672 C163.419592,41.6910837 162.500005,42.6106709 161.523437,43.8476562 C160.54687,45.0846416 159.456386,46.7122295 158.251953,48.7304688 C156.624341,51.4974097 155.305995,54.0771365 154.296875,56.4697266 C153.287755,58.8623167 152.311203,61.8001128 151.367187,65.2832031 Z M206.542969,36.9628906 L201.953125,54.8339844 C201.464841,56.7871191 201.220703,58.3170518 201.220703,59.4238281 C201.220703,60.4003955 201.43229,61.2467412 201.855469,61.9628906 C202.278648,62.67904 202.799476,63.0371094 203.417969,63.0371094 C204.361984,63.0371094 205.924468,61.881522 208.105469,59.5703125 L208.789062,60.2539062 L208.251953,60.8886719 C206.526684,62.8743589 205.2002,64.2659465 204.272461,65.0634766 C203.344722,65.8610066 202.539066,66.2597656 201.855469,66.2597656 C200.813797,66.2597656 199.910486,65.7145237 199.145508,64.6240234 C198.38053,63.5335232 197.998047,62.2721426 197.998047,60.8398438 C197.998047,59.7981719 198.388668,57.4381694 199.169922,53.7597656 L199.560547,51.9042969 C198.356114,54.70379 196.744802,57.3893101 194.726562,59.9609375 C191.341129,64.257834 188.102229,66.40625 185.009766,66.40625 C183.154288,66.40625 181.689458,65.738939 180.615234,64.4042969 C179.54101,63.0696548 179.003906,61.2793081 179.003906,59.0332031 C179.003906,55.973292 179.874666,52.7669438 181.616211,49.4140625 C183.357756,46.0611812 185.522448,43.3024197 188.110352,41.1376953 C190.698255,38.9729709 193.212878,37.890625 195.654297,37.890625 C198.225924,37.890625 200.146478,38.834626 201.416016,40.7226562 L201.953125,38.8671875 L206.542969,36.9628906 Z M200.927734,43.2128906 C200.537107,41.9759053 199.877934,41.0074905 198.950195,40.3076172 C198.022456,39.6077439 196.956386,39.2578125 195.751953,39.2578125 C194.319654,39.2578125 192.805998,39.9169856 191.210937,41.2353516 C189.615877,42.5537175 188.151048,44.3847539 186.816406,46.7285156 C185.774734,48.5839937 184.903975,50.6347544 184.204102,52.8808594 C183.504228,55.1269644 183.154297,56.9824146 183.154297,58.4472656 C183.154297,60.1074302 183.471677,61.4095005 184.106445,62.3535156 C184.741214,63.2975308 185.644525,63.7695312 186.816406,63.7695312 C188.31381,63.7695312 189.876294,63.0696685 191.503906,61.6699219 C193.131519,60.2701753 194.742831,58.2682422 196.337891,55.6640625 C197.314458,54.1666592 198.079424,52.6692783 198.632812,51.171875 C199.186201,49.6744717 199.804684,47.5911592 200.488281,44.921875 L200.927734,43.2128906 Z M217.041016,39.2578125 L221.679687,37.2558594 L217.431641,55.3710938 C218.245447,53.9062427 219.09993,52.4821033 219.995117,51.0986328 C220.890304,49.7151624 221.801753,48.413092 222.729492,47.1923828 C223.657231,45.9716736 224.56868,44.8486379 225.463867,43.8232422 C226.359054,42.7978464 227.213538,41.910811 228.027344,41.1621094 C228.776045,40.4785122 229.451494,39.9007185 230.053711,39.4287109 C230.655927,38.9567034 231.274411,38.5660823 231.90918,38.2568359 C232.543948,37.9475896 233.227535,37.7197273 233.959961,37.5732422 C234.692386,37.4267571 235.563146,37.3209639 236.572266,37.2558594 L235.644531,41.796875 C234.89583,41.536457 234.26107,41.3899741 233.740234,41.3574219 C233.219398,41.3248696 232.763674,41.3085938 232.373047,41.3085938 C231.754554,41.3085938 231.062829,41.4794905 230.297852,41.8212891 C229.532874,42.1630876 228.751632,42.651364 227.954102,43.2861328 C227.156572,43.9209016 226.375329,44.669592 225.610352,45.5322266 C224.845374,46.3948611 224.137373,47.3632759 223.486328,48.4375 C224.007164,49.7070376 224.601234,51.1881426 225.268555,52.8808594 C225.935876,54.5735762 226.635739,56.1848882 227.368164,57.7148438 C228.10059,59.2447993 228.824866,60.5387317 229.541016,61.5966797 C230.257165,62.6546277 230.924476,63.1835938 231.542969,63.1835938 C232.975268,63.1835938 234.635407,62.1907651 236.523437,60.2050781 L236.914062,59.765625 L237.548828,60.4980469 C234.261051,64.4694209 231.868497,66.4550781 230.371094,66.4550781 C229.850258,66.4550781 229.345706,66.3574229 228.857422,66.1621094 C228.369138,65.9667959 227.929689,65.6250024 227.539062,65.1367188 C226.985674,64.4856738 226.464846,63.6718799 225.976562,62.6953125 C225.488279,61.7187451 224.983727,60.6282612 224.462891,59.4238281 C223.942055,58.219395 223.404951,56.9417385 222.851562,55.5908203 C222.298174,54.2399021 221.695967,52.8483145 221.044922,51.4160156 C219.807937,53.1738369 218.644211,55.17577 217.553711,57.421875 C216.463211,59.66798 215.641279,62.3209482 215.087891,65.3808594 L211.962891,66.2597656 L217.041016,39.2578125 Z M260.351562,65.2832031 L257.128906,66.3085938 L260.986328,46.4355469 L261.328125,44.7265625 C261.523438,43.7825474 261.621094,43.0013052 261.621094,42.3828125 C261.621094,40.9505137 261.051438,40.234375 259.912109,40.234375 C258.837885,40.234375 257.535815,40.9586516 256.005859,42.4072266 C254.475904,43.8558015 252.864592,45.947252 251.171875,48.6816406 C250.065099,50.4394619 249.11296,52.1321533 248.31543,53.7597656 C247.5179,55.3873779 246.785485,57.120759 246.118164,58.9599609 C245.450843,60.7991628 244.807946,62.9068892 244.189453,65.2832031 L241.162109,66.3085938 L246.191406,39.2578125 L250.878906,37.2558594 L246.630859,54.9804688 C248.81186,49.9348706 251.310207,45.7926594 254.125977,42.5537109 C256.941746,39.3147625 259.472645,37.6953125 261.71875,37.6953125 C264.160168,37.6953125 265.380859,39.0787622 265.380859,41.8457031 C265.380859,42.7897183 265.136721,44.4661338 264.648437,46.875 L263.037109,54.1503906 C266.194677,48.0956729 268.863921,43.8232546 271.044922,41.3330078 C273.225922,38.842761 275.390614,37.5976562 277.539062,37.5976562 C278.743496,37.5976562 279.687497,37.9557256 280.371094,38.671875 C281.054691,39.3880244 281.396484,40.4134048 281.396484,41.7480469 C281.396484,42.822271 281.070967,44.6777212 280.419922,47.3144531 L278.90625,53.3203125 L278.417969,55.2246094 C277.962237,57.2428486 277.734375,58.7402295 277.734375,59.7167969 C277.734375,60.7584688 277.91341,61.5966765 278.271484,62.2314453 C278.629559,62.8662141 279.085284,63.1835938 279.638672,63.1835938 C280.680344,63.1835938 282.307932,61.9791787 284.521484,59.5703125 L285.253906,60.2539062 L284.814453,60.7910156 C282.958975,62.9720161 281.583663,64.4449832 280.688477,65.2099609 C279.79329,65.9749387 278.971358,66.3574219 278.222656,66.3574219 C277.213537,66.3574219 276.359053,65.8447317 275.65918,64.8193359 C274.959306,63.7939402 274.609375,62.5162837 274.609375,60.9863281 C274.609375,60.042313 274.820961,58.4961045 275.244141,56.3476562 L277.050781,46.2402344 L277.34375,44.4824219 C277.539063,43.5058545 277.636719,42.7246123 277.636719,42.1386719 C277.636719,41.5527314 277.457684,41.080731 277.099609,40.7226562 C276.741535,40.3645815 276.253258,40.1855469 275.634766,40.1855469 C274.918616,40.1855469 274.129236,40.4866506 273.266602,41.0888672 C272.403967,41.6910837 271.48438,42.6106709 270.507812,43.8476562 C269.531245,45.0846416 268.440761,46.7122295 267.236328,48.7304688 C265.608716,51.4974097 264.29037,54.0771365 263.28125,56.4697266 C262.27213,58.8623167 261.295578,61.8001128 260.351562,65.2832031 Z M318.603516,37.2558594 L314.306641,53.3203125 C313.590491,55.9570444 313.232422,58.0729087 313.232422,59.6679688 C313.232422,60.7096406 313.411457,61.5559863 313.769531,62.2070312 C314.127606,62.8580762 314.599606,63.1835938 315.185547,63.1835938 C316.194667,63.1835938 317.805979,61.9791787 320.019531,59.5703125 L320.800781,60.2539062 L320.3125,60.7910156 C318.457022,62.9720161 317.089848,64.4449832 316.210937,65.2099609 C315.332027,65.9749387 314.518233,66.3574219 313.769531,66.3574219 C312.760412,66.3574219 311.905928,65.8447317 311.206055,64.8193359 C310.506181,63.7939402 310.15625,62.5162837 310.15625,60.9863281 C310.15625,60.0097607 310.351561,58.4635522 310.742187,56.3476562 L313.818359,39.2578125 L318.603516,37.2558594 Z M303.515625,46.7773438 C304.264327,46.7773438 304.931638,46.8424473 305.517578,46.9726562 C306.103519,47.1028652 306.608071,47.3470034 307.03125,47.7050781 C307.454429,48.0631528 307.771809,48.5595671 307.983398,49.1943359 C308.194988,49.8291047 308.300781,50.6347607 308.300781,51.6113281 C308.300781,53.2389404 307.885746,54.9234939 307.055664,56.6650391 C306.225582,58.4065842 305.159512,59.9934824 303.857422,61.4257812 C302.555332,62.8580801 301.098641,64.0380813 299.487305,64.9658203 C297.875969,65.8935593 296.305346,66.3574219 294.775391,66.3574219 C293.115226,66.3574219 291.788742,65.8772834 290.795898,64.9169922 C289.803055,63.9567009 289.306641,62.6790444 289.306641,61.0839844 C289.306641,59.9446558 289.485675,58.430999 289.84375,56.5429688 L293.164062,39.2578125 L297.753906,37.2558594 L293.359375,54.3457031 C295.117196,51.7089712 296.874991,49.7884175 298.632812,48.5839844 C300.390634,47.3795513 302.018222,46.7773438 303.515625,46.7773438 Z M292.529297,60.4492188 C292.529297,61.5885474 292.887366,62.5488242 293.603516,63.3300781 C294.319665,64.111332 295.32877,64.5019531 296.630859,64.5019531 C297.477218,64.5019531 298.356115,64.2415391 299.267578,63.7207031 C300.179041,63.1998672 301.017249,62.4430388 301.782227,61.4501953 C302.547204,60.4573518 303.181964,59.220385 303.686523,57.7392578 C304.191083,56.2581306 304.443359,54.5573013 304.443359,52.6367188 C304.443359,51.4648379 304.272463,50.5452507 303.930664,49.8779297 C303.588865,49.2106086 302.945968,48.8769531 302.001953,48.8769531 C301.350908,48.8769531 300.642907,49.0397119 299.87793,49.3652344 C299.112952,49.6907568 298.33171,50.203447 297.53418,50.9033203 C296.73665,51.6031936 295.939132,52.490229 295.141602,53.5644531 C294.344072,54.6386772 293.587243,55.9244717 292.871094,57.421875 C292.643228,58.5286514 292.529297,59.5377559 292.529297,60.4492188 Z" id="Контакты" fill="#000000"></path>
            <path d="M3,81 L320.5,81" id="Line" stroke="#000000" stroke-width="6" stroke-linecap="square"></path>
        </g>
    </g>
</svg>