<?xml version="1.0" encoding="UTF-8"?>
<svg width="65px" height="65px" viewBox="0 0 65 65" version="1.1" xmlns="http://www.w3.org/2000/svg" xmlns:xlink="http://www.w3.org/1999/xlink">
    <!-- Generator: Sketch 43.1 (39012) - http://www.bohemiancoding.com/sketch -->
    <title>noun_1396904_cc</title>
    <desc>Created with Sketch.</desc>
    <defs></defs>
    <g id="Page-1" stroke="none" stroke-width="1" fill="none" fill-rule="evenodd">
        <g id="контакты" transform="translate(-664.000000, -725.000000)" fill-rule="nonzero" fill="#231F20">
            <g id="noun_1396904_cc" transform="translate(664.000000, 725.000000)">
                <path d="M44.1893238,25.2552083 C51.3405731,25.2552083 55.590844,18.2135417 55.590844,11.4427083 C55.590844,4.46875 51.0707147,0 44.1893238,0 C37.3079329,0 32.7878036,4.46875 32.7878036,11.4427083 C32.7878036,18.2135417 37.0380744,25.2552083 44.1893238,25.2552083 Z M44.1893238,2.70833333 C49.6539577,2.70833333 52.8922593,5.95833333 52.8922593,11.4427083 C52.8922593,16.9270833 49.6539577,22.546875 44.1893238,22.546875 C38.7246898,22.546875 35.4863883,16.9270833 35.4863883,11.4427083 C35.4863883,5.95833333 38.7246898,2.70833333 44.1893238,2.70833333 Z" id="Shape"></path>
                <path d="M64.9684257,31.6875 C64.9684257,25.9322917 60.6506902,21.1927083 54.9836624,20.71875 L54.174087,20.6510417 L53.7018347,21.328125 C51.4080377,24.8489583 48.0348069,26.8125 44.1218592,26.8125 C40.2089114,26.8125 36.8356806,24.8489583 34.5418836,21.328125 L34.0696313,20.6510417 L33.2600559,20.71875 C27.5930281,21.2604167 23.2752927,26 23.2752927,31.6875 L23.2752927,31.8229167 L0,31.8229167 L0,65 L53.297047,65 L53.297047,43.5364583 L64.9684257,43.5364583 L64.9684257,31.6875 Z M50.5984623,62.2916667 L2.69858466,62.2916667 L2.69858466,34.53125 L50.5984623,34.53125 L50.5984623,62.2916667 Z M62.269841,40.828125 L53.297047,40.828125 L53.297047,31.8229167 L26.1088066,31.8229167 L26.1088066,31.6875 C26.1088066,27.625 28.9423205,24.2395833 32.8552682,23.4947917 C35.6213175,27.3541667 39.6691945,29.5208333 44.1893238,29.5208333 C48.7094531,29.5208333 52.7573301,27.421875 55.5233793,23.4947917 C59.4363271,24.2395833 62.269841,27.625 62.269841,31.6875 L62.269841,40.828125 Z" id="Shape"></path>
                <polygon id="Shape" points="19.5647388 38.59375 6.74646165 38.59375 6.74646165 51.4583333 19.5647388 51.4583333"></polygon>
                <rect id="Rectangle-path" x="6.61153241" y="55.3854167" width="38.4548314" height="2.70833333"></rect>
                <rect id="Rectangle-path" x="23.1403634" y="48.6145833" width="21.9260003" height="2.70833333"></rect>
                <path d="M4.38520007,21.8020833 L7.01632011,22.34375 L7.82589551,18.5520833 L12.0087017,18.5520833 L11.3340556,21.8020833 L13.9651756,22.34375 L14.774751,18.5520833 L18.5527695,18.5520833 L18.5527695,15.84375 L15.3144679,15.84375 L16.191508,11.578125 L19.9695265,11.578125 L19.9695265,8.86979167 L16.7312249,8.86979167 L17.405871,5.61979167 L14.8422156,5.078125 L14.0326402,8.86979167 L9.849834,8.86979167 L10.5244802,5.61979167 L7.89336013,5.078125 L7.08378473,8.86979167 L3.30576621,8.86979167 L3.30576621,11.578125 L6.5440678,11.578125 L5.66702778,15.84375 L1.88900926,15.84375 L1.88900926,18.5520833 L5.12731085,18.5520833 L4.38520007,21.8020833 Z M9.24265246,11.578125 L13.4929233,11.578125 L12.6158833,15.84375 L8.43307706,15.84375 L9.24265246,11.578125 Z" id="Shape"></path>
            </g>
        </g>
    </g>
</svg>