<?xml version="1.0" encoding="UTF-8"?>
<svg width="215px" height="35px" viewBox="0 0 215 35" version="1.1" xmlns="http://www.w3.org/2000/svg" xmlns:xlink="http://www.w3.org/1999/xlink">
    <!-- Generator: Sketch 43.1 (39012) - http://www.bohemiancoding.com/sketch -->
    <title>Тёплые Квадраты</title>
    <desc>Created with Sketch.</desc>
    <defs></defs>
    <g id="Page-1" stroke="none" stroke-width="1" fill="none" fill-rule="evenodd">
        <g id="контакты" transform="translate(-282.000000, -834.000000)" fill="#000000">
            <path d="M303.714844,861 L301.839844,861 L305.960938,841.292969 L306.097656,840.609375 C306.188803,840.127602 306.234375,839.795574 306.234375,839.613281 C306.234375,839.365884 306.169271,839.160808 306.039062,838.998047 C305.908854,838.835286 305.726564,838.753906 305.492188,838.753906 C305.127602,838.753906 304.71745,838.975258 304.261719,839.417969 C303.805987,839.860679 303.233076,840.602859 302.542969,841.644531 C301.475255,843.233081 300.309902,845.44009 299.046875,848.265625 C298.057287,850.492199 297.214196,852.656891 296.517578,854.759766 C295.82096,856.862641 295.251304,858.942698 294.808594,861 L293.1875,861 L297.71875,839.789062 C297.86198,839.124997 297.933594,838.604169 297.933594,838.226562 C297.933594,838.057291 297.901042,837.894532 297.835938,837.738281 C297.770833,837.58203 297.682943,837.464844 297.572266,837.386719 C297.461588,837.308593 297.334636,837.269531 297.191406,837.269531 C296.579424,837.269531 295.830734,837.865228 294.945312,839.056641 C294.059891,840.248053 293.011725,842.100248 291.800781,844.613281 C291.227862,845.746099 290.674482,846.930983 290.140625,848.167969 C289.606768,849.404954 289.131512,850.557286 288.714844,851.625 C288.298175,852.692714 287.82943,853.994784 287.308594,855.53125 C286.553382,857.770845 286.006512,859.593743 285.667969,861 L284.027344,861 L284.085938,860.726562 L284.925781,857.386719 C285.225262,856.110671 285.485676,854.97787 285.707031,853.988281 C286.735682,849.3268 287.490883,845.518244 287.972656,842.5625 C288.376304,840.24478 288.578125,838.57162 288.578125,837.542969 C288.578125,836.787757 288.464194,836.20508 288.236328,835.794922 C288.008462,835.384764 287.69271,835.179688 287.289062,835.179688 C286.299474,835.179688 285.420577,836.494779 284.652344,839.125 C284.170571,840.778654 283.79948,842.56249 283.539062,844.476562 L282.074219,843.519531 C282.295574,841.839835 282.663409,840.322923 283.177734,838.96875 C283.69206,837.614577 284.304033,836.543624 285.013672,835.755859 C285.723311,834.968095 286.442705,834.574219 287.171875,834.574219 C288.005213,834.574219 288.659503,835.016923 289.134766,835.902344 C289.610028,836.787765 289.847656,837.99869 289.847656,839.535156 C289.847656,840.824225 289.73047,842.289054 289.496094,843.929688 C289.430989,844.411461 289.222658,845.635407 288.871094,847.601562 L288.089844,851.859375 L288.207031,851.488281 C289.144536,848.936185 290.505199,845.928403 292.289062,842.464844 C293.40886,840.316396 294.447261,838.692063 295.404297,837.591797 C296.361333,836.491531 297.230465,835.941406 298.011719,835.941406 C298.506513,835.941406 298.916665,836.133462 299.242188,836.517578 C299.56771,836.901695 299.730469,837.393226 299.730469,837.992188 C299.730469,838.60417 299.606772,839.489578 299.359375,840.648438 L297.09375,851.46875 C297.263022,850.986977 297.653643,850.062507 298.265625,848.695312 C300.049488,844.736959 301.57291,841.88217 302.835938,840.130859 C304.098965,838.379549 305.264318,837.503906 306.332031,837.503906 C306.865888,837.503906 307.292316,837.689451 307.611328,838.060547 C307.93034,838.431642 308.089844,838.923174 308.089844,839.535156 C308.089844,840.02995 307.979168,840.778641 307.757812,841.78125 L303.714844,861 Z M316.214844,857.972656 L316.566406,858.265625 C315.759111,859.333339 314.971358,860.104815 314.203125,860.580078 C313.434892,861.055341 312.608077,861.292969 311.722656,861.292969 C310.667963,861.292969 309.821618,860.94141 309.183594,860.238281 C308.54557,859.535153 308.226562,858.604172 308.226562,857.445312 C308.226562,856.273432 308.535804,855.085292 309.154297,853.880859 C309.77279,852.676426 310.547521,851.680342 311.478516,850.892578 C312.40951,850.104814 313.330725,849.710938 314.242188,849.710938 C314.776044,849.710938 315.215493,849.867186 315.560547,850.179688 C315.905601,850.492189 316.078125,850.895831 316.078125,851.390625 C316.078125,852.393234 315.531255,853.395828 314.4375,854.398438 C313.343745,855.401047 311.852874,856.253903 309.964844,856.957031 C309.951823,857.061198 309.945312,857.178385 309.945312,857.308594 C309.945312,858.207036 310.192706,858.93945 310.6875,859.505859 C311.182294,860.072268 311.820309,860.355469 312.601562,860.355469 C313.213545,860.355469 313.805987,860.163413 314.378906,859.779297 C314.951826,859.39518 315.563799,858.792973 316.214844,857.972656 Z M309.964844,856.488281 C311.371101,855.863278 312.451819,855.166671 313.207031,854.398438 C313.714846,853.877602 314.124998,853.317711 314.4375,852.71875 C314.750002,852.119789 314.90625,851.579429 314.90625,851.097656 C314.90625,850.485674 314.626305,850.179688 314.066406,850.179688 C313.220048,850.179688 312.363937,850.846999 311.498047,852.181641 C310.632157,853.516283 310.121095,854.951815 309.964844,856.488281 Z M313.128906,845.511719 C313.311199,845.511719 313.470702,845.550781 313.607422,845.628906 C313.744141,845.707032 313.851562,845.814452 313.929688,845.951172 C314.007813,846.087891 314.046875,846.247395 314.046875,846.429688 C314.046875,846.677085 313.95573,846.891926 313.773438,847.074219 C313.591145,847.256511 313.376303,847.347656 313.128906,847.347656 C312.89453,847.347656 312.686199,847.256511 312.503906,847.074219 C312.321614,846.891926 312.230469,846.677085 312.230469,846.429688 C312.230469,846.156249 312.315103,845.934897 312.484375,845.765625 C312.653647,845.596353 312.868488,845.511719 313.128906,845.511719 Z M316.195312,845.511719 C316.364584,845.511719 316.517577,845.550781 316.654297,845.628906 C316.791016,845.707032 316.898437,845.814452 316.976562,845.951172 C317.054688,846.087891 317.09375,846.247395 317.09375,846.429688 C317.09375,846.677085 317.002605,846.891926 316.820312,847.074219 C316.63802,847.256511 316.429689,847.347656 316.195312,847.347656 C315.947915,847.347656 315.733074,847.256511 315.550781,847.074219 C315.368489,846.891926 315.277344,846.677085 315.277344,846.429688 C315.277344,846.156249 315.361978,845.934897 315.53125,845.765625 C315.700522,845.596353 315.921874,845.511719 316.195312,845.511719 Z M318.109375,861.195312 L320.179688,850.375 L322.035156,849.574219 L320.355469,856.742188 C321.436203,854.46353 322.510411,852.731777 323.578125,851.546875 C324.645839,850.361973 325.667964,849.769531 326.644531,849.769531 C327.126304,849.769531 327.516926,849.929035 327.816406,850.248047 C328.115887,850.567059 328.265625,850.993487 328.265625,851.527344 C328.265625,851.826824 328.194011,852.249997 328.050781,852.796875 L327.855469,853.617188 L327.269531,856 L327.074219,856.761719 C326.878905,857.542973 326.78125,858.141925 326.78125,858.558594 C326.78125,858.975262 326.852864,859.310546 326.996094,859.564453 C327.139324,859.818361 327.328124,859.945312 327.5625,859.945312 C327.966148,859.945312 328.610673,859.463546 329.496094,858.5 L329.808594,858.773438 L329.613281,858.988281 C328.87109,859.860681 328.324221,860.449868 327.972656,860.755859 C327.621092,861.06185 327.295574,861.214844 326.996094,861.214844 C326.592446,861.214844 326.250652,861.009768 325.970703,860.599609 C325.690754,860.189451 325.550781,859.678388 325.550781,859.066406 C325.550781,858.649738 325.628905,858.031254 325.785156,857.210938 L326.546875,853.070312 C326.651042,852.419268 326.703125,851.963543 326.703125,851.703125 C326.703125,851.429686 326.631511,851.221355 326.488281,851.078125 C326.345051,850.934895 326.149741,850.863281 325.902344,850.863281 C325.003902,850.863281 323.897142,851.826813 322.582031,853.753906 C321.944007,854.67839 321.416669,855.593094 321,856.498047 C320.583331,857.402999 320.114586,858.656242 319.59375,860.257812 L319.417969,860.785156 L318.109375,861.195312 Z M341.566406,849.847656 C341.358072,850.563806 341.126954,851.335282 340.873047,852.162109 C340.619139,852.988936 340.368491,853.877599 340.121094,854.828125 C339.873697,855.778651 339.671876,856.563148 339.515625,857.181641 C339.359374,857.800133 339.28125,858.259113 339.28125,858.558594 C339.28125,858.975262 339.352864,859.310546 339.496094,859.564453 C339.639324,859.818361 339.828124,859.945312 340.0625,859.945312 C340.466148,859.945312 341.110673,859.463546 341.996094,858.5 L342.308594,858.773438 L342.113281,858.988281 C341.735675,859.430992 341.413413,859.798827 341.146484,860.091797 C340.879556,860.384767 340.654949,860.609374 340.472656,860.765625 C340.108071,861.065106 339.782554,861.214844 339.496094,861.214844 C339.092446,861.214844 338.750652,861.013023 338.470703,860.609375 C338.190754,860.205727 338.050781,859.691409 338.050781,859.066406 C338.050781,858.649738 338.128905,858.031254 338.285156,857.210938 L339.613281,850.570312 L338.382812,850.824219 C338.122395,850.876302 337.888022,850.990233 337.679688,851.166016 C337.471353,851.341798 337.243491,851.641274 336.996094,852.064453 C336.748697,852.487632 336.465496,853.070309 336.146484,853.8125 C335.827472,854.554691 335.427086,855.511713 334.945312,856.683594 C334.776041,857.087242 334.570965,857.539711 334.330078,858.041016 C334.089192,858.54232 333.812502,859.011066 333.5,859.447266 C333.187498,859.883466 332.845705,860.251301 332.474609,860.550781 C332.103514,860.850262 331.716148,861 331.3125,861 C331.182291,861 331.039063,860.99349 330.882812,860.980469 C330.726562,860.967448 330.576824,860.941406 330.433594,860.902344 L330.980469,858.8125 C331.240887,859.033855 331.559894,859.144531 331.9375,859.144531 C332.341148,859.144531 332.748045,858.955731 333.158203,858.578125 C333.568361,858.200519 333.962238,857.582036 334.339844,856.722656 C334.561199,856.227862 334.782551,855.687503 335.003906,855.101562 C335.225262,854.515622 335.427082,853.955732 335.609375,853.421875 C335.791668,852.888018 335.93815,852.409507 336.048828,851.986328 C336.159506,851.563149 336.221354,851.260418 336.234375,851.078125 L334.144531,851.234375 L334.574219,850.589844 L341.566406,849.847656 Z M355.648438,849.574219 L353.929688,856 C353.643228,857.054693 353.5,857.901038 353.5,858.539062 C353.5,858.955731 353.571614,859.29427 353.714844,859.554688 C353.858074,859.815105 354.046874,859.945312 354.28125,859.945312 C354.684898,859.945312 355.329423,859.463546 356.214844,858.5 L356.527344,858.773438 L356.332031,858.988281 C355.58984,859.860681 355.042971,860.449868 354.691406,860.755859 C354.339842,861.06185 354.014324,861.214844 353.714844,861.214844 C353.311196,861.214844 352.969402,861.009768 352.689453,860.599609 C352.409504,860.189451 352.269531,859.678388 352.269531,859.066406 C352.269531,858.675779 352.347655,858.057296 352.503906,857.210938 L353.734375,850.375 L355.648438,849.574219 Z M349.613281,853.382812 C349.912762,853.382812 350.179686,853.408854 350.414062,853.460938 C350.648439,853.513021 350.85026,853.610676 351.019531,853.753906 C351.188803,853.897136 351.315755,854.095702 351.400391,854.349609 C351.485026,854.603517 351.527344,854.925779 351.527344,855.316406 C351.527344,855.967451 351.36133,856.641273 351.029297,857.337891 C350.697264,858.034509 350.270836,858.669268 349.75,859.242188 C349.229164,859.815107 348.646488,860.287108 348.001953,860.658203 C347.357419,861.029299 346.72917,861.214844 346.117188,861.214844 C345.453122,861.214844 344.922528,861.022788 344.525391,860.638672 C344.128253,860.254555 343.929688,859.743493 343.929688,859.105469 C343.929688,858.649737 344.001301,858.044275 344.144531,857.289062 L345.472656,850.375 L347.308594,849.574219 L345.550781,856.410156 C346.25391,855.355463 346.957028,854.587242 347.660156,854.105469 C348.363285,853.623696 349.01432,853.382812 349.613281,853.382812 Z M345.21875,858.851562 C345.21875,859.307294 345.361978,859.691405 345.648438,860.003906 C345.934897,860.316408 346.338539,860.472656 346.859375,860.472656 C347.197918,860.472656 347.549477,860.368491 347.914062,860.160156 C348.278648,859.951822 348.613931,859.649091 348.919922,859.251953 C349.225913,858.854816 349.479817,858.360029 349.681641,857.767578 C349.883465,857.175127 349.984375,856.494796 349.984375,855.726562 C349.984375,855.25781 349.916016,854.889975 349.779297,854.623047 C349.642577,854.356118 349.385419,854.222656 349.007812,854.222656 C348.747395,854.222656 348.464194,854.28776 348.158203,854.417969 C347.852212,854.548178 347.539715,854.753254 347.220703,855.033203 C346.901691,855.313152 346.582684,855.667967 346.263672,856.097656 C345.94466,856.527346 345.641929,857.041664 345.355469,857.640625 C345.264322,858.083336 345.21875,858.486977 345.21875,858.851562 Z M365.589844,857.972656 L365.941406,858.265625 C365.134111,859.333339 364.346358,860.104815 363.578125,860.580078 C362.809892,861.055341 361.983077,861.292969 361.097656,861.292969 C360.042963,861.292969 359.196618,860.94141 358.558594,860.238281 C357.92057,859.535153 357.601562,858.604172 357.601562,857.445312 C357.601562,856.273432 357.910804,855.085292 358.529297,853.880859 C359.14779,852.676426 359.922521,851.680342 360.853516,850.892578 C361.78451,850.104814 362.705725,849.710938 363.617188,849.710938 C364.151044,849.710938 364.590493,849.867186 364.935547,850.179688 C365.280601,850.492189 365.453125,850.895831 365.453125,851.390625 C365.453125,852.393234 364.906255,853.395828 363.8125,854.398438 C362.718745,855.401047 361.227874,856.253903 359.339844,856.957031 C359.326823,857.061198 359.320312,857.178385 359.320312,857.308594 C359.320312,858.207036 359.567706,858.93945 360.0625,859.505859 C360.557294,860.072268 361.195309,860.355469 361.976562,860.355469 C362.588545,860.355469 363.180987,860.163413 363.753906,859.779297 C364.326826,859.39518 364.938799,858.792973 365.589844,857.972656 Z M359.339844,856.488281 C360.746101,855.863278 361.826819,855.166671 362.582031,854.398438 C363.089846,853.877602 363.499998,853.317711 363.8125,852.71875 C364.125002,852.119789 364.28125,851.579429 364.28125,851.097656 C364.28125,850.485674 364.001305,850.179688 363.441406,850.179688 C362.595048,850.179688 361.738937,850.846999 360.873047,852.181641 C360.007157,853.516283 359.496095,854.951815 359.339844,856.488281 Z M406,835.550781 L391.703125,851.15625 C392.132815,852.158859 392.712236,853.223302 393.441406,854.349609 C394.170577,855.475917 394.942053,856.511063 395.755859,857.455078 C396.569666,858.399093 397.438797,859.248694 398.363281,860.003906 L396.976562,861.3125 C394.19009,858.799467 391.924488,855.648456 390.179688,851.859375 L403.910156,835.550781 L406,835.550781 Z M391.878906,835.667969 L394.007812,834.671875 C393.812499,835.90886 393.542319,837.324862 393.197266,838.919922 C392.852212,840.514982 392.451825,842.158846 391.996094,843.851562 C391.540362,845.544279 391.117189,846.957026 390.726562,848.089844 C390.296873,849.404954 389.837893,850.645176 389.349609,851.810547 C388.861326,852.975917 388.363284,853.985022 387.855469,854.837891 C387.347654,855.690759 386.794274,856.472002 386.195312,857.181641 C385.596351,857.89128 384.964847,858.513018 384.300781,859.046875 C381.983061,860.960947 379.040382,861.917969 375.472656,861.917969 C374.587235,861.917969 373.903648,861.839845 373.421875,861.683594 L374.007812,860.238281 C375.505216,860.667971 376.88541,860.882812 378.148438,860.882812 C381.052098,860.882812 383.545563,859.35288 385.628906,856.292969 C386.227868,855.407548 386.771482,854.385422 387.259766,853.226562 C387.748049,852.067703 388.291664,850.446625 388.890625,848.363281 C389.177085,847.373693 389.460285,846.341802 389.740234,845.267578 C390.020184,844.193354 390.280598,843.151698 390.521484,842.142578 C390.762371,841.133458 391.009764,840.039719 391.263672,838.861328 C391.517579,837.682937 391.696614,836.781253 391.800781,836.15625 L391.878906,835.667969 Z M405.0625,855.160156 C405.973963,853.402335 406.930985,852.093754 407.933594,851.234375 C408.936203,850.374996 409.919266,849.945312 410.882812,849.945312 C411.312502,849.945312 411.670571,850.010416 411.957031,850.140625 C412.243491,850.270834 412.474608,850.453124 412.650391,850.6875 C412.826173,850.921876 412.949869,851.201821 413.021484,851.527344 C413.093099,851.852866 413.128906,852.217446 413.128906,852.621094 C413.128906,853.167971 413.050782,853.763669 412.894531,854.408203 C412.73828,855.052738 412.516929,855.697262 412.230469,856.341797 C411.944009,856.986331 411.59896,857.60807 411.195312,858.207031 C410.791665,858.805993 410.34245,859.336586 409.847656,859.798828 C409.352862,860.26107 408.815758,860.63216 408.236328,860.912109 C407.656898,861.192059 407.054691,861.332031 406.429688,861.332031 C406.195311,861.332031 405.915366,861.296224 405.589844,861.224609 C405.264321,861.152994 404.95508,860.98047 404.662109,860.707031 C404.369139,860.433592 404.121746,860.02344 403.919922,859.476562 C403.718098,858.929685 403.617188,858.174484 403.617188,857.210938 C403.617188,856.390621 403.675781,855.511723 403.792969,854.574219 C403.910157,853.636714 404.105467,852.555996 404.378906,851.332031 C404.209635,851.358073 403.988283,851.380859 403.714844,851.400391 C403.441405,851.419922 403.17448,851.429688 402.914062,851.429688 L402.992188,850.902344 C403.239585,850.902344 403.509764,850.889323 403.802734,850.863281 C404.095705,850.837239 404.339843,850.791667 404.535156,850.726562 C404.977867,848.929679 405.527992,847.197925 406.185547,845.53125 C406.843102,843.864575 407.572262,842.386725 408.373047,841.097656 C409.173832,839.808587 410.023433,838.776697 410.921875,838.001953 C411.820317,837.22721 412.725256,836.839844 413.636719,836.839844 C414.014325,836.839844 414.336587,836.908202 414.603516,837.044922 C414.870444,837.181641 415.085286,837.360676 415.248047,837.582031 C415.410808,837.803387 415.53125,838.060545 415.609375,838.353516 C415.6875,838.646486 415.726562,838.949217 415.726562,839.261719 C415.726562,839.977868 415.5931,840.713538 415.326172,841.46875 C415.059243,842.223962 414.688153,842.972653 414.212891,843.714844 C413.737628,844.457035 413.184248,845.179684 412.552734,845.882812 C411.921221,846.585941 411.240889,847.253252 410.511719,847.884766 C409.782548,848.516279 409.024092,849.0957 408.236328,849.623047 C407.448564,850.150393 406.670577,850.602863 405.902344,850.980469 C405.824218,851.279949 405.746094,851.605467 405.667969,851.957031 C405.589843,852.308596 405.511719,852.66992 405.433594,853.041016 C405.355468,853.412111 405.283854,853.779946 405.21875,854.144531 C405.153646,854.509116 405.101563,854.847655 405.0625,855.160156 Z M405.0625,858.441406 C405.0625,858.701824 405.078776,858.972004 405.111328,859.251953 C405.14388,859.531902 405.208984,859.789061 405.306641,860.023438 C405.404297,860.257814 405.541015,860.453124 405.716797,860.609375 C405.892579,860.765626 406.117186,860.84375 406.390625,860.84375 C406.859377,860.84375 407.308592,860.703777 407.738281,860.423828 C408.167971,860.143879 408.568358,859.772789 408.939453,859.310547 C409.310549,858.848305 409.645832,858.320967 409.945312,857.728516 C410.244793,857.136065 410.501952,856.527347 410.716797,855.902344 C410.931642,855.277341 411.097656,854.665368 411.214844,854.066406 C411.332032,853.467445 411.390625,852.933596 411.390625,852.464844 C411.390625,851.839841 411.29297,851.390626 411.097656,851.117188 C410.902343,850.843749 410.589846,850.707031 410.160156,850.707031 C409.873696,850.707031 409.548179,850.807942 409.183594,851.009766 C408.819009,851.21159 408.447919,851.488279 408.070312,851.839844 C407.692706,852.191408 407.321616,852.611326 406.957031,853.099609 C406.592446,853.587893 406.270184,854.118487 405.990234,854.691406 C405.710285,855.264326 405.485678,855.869788 405.316406,856.507812 C405.147135,857.145837 405.0625,857.790361 405.0625,858.441406 Z M406.078125,850.316406 C407.250006,849.691403 408.34049,848.939458 409.349609,848.060547 C410.358729,847.181636 411.234371,846.24089 411.976562,845.238281 C412.718754,844.235672 413.298175,843.210292 413.714844,842.162109 C414.131512,841.113927 414.339844,840.114588 414.339844,839.164062 C414.339844,838.526038 414.255209,838.067059 414.085938,837.787109 C413.916666,837.50716 413.61719,837.367188 413.1875,837.367188 C412.796873,837.367188 412.406252,837.51367 412.015625,837.806641 C411.624998,838.099611 411.240887,838.493487 410.863281,838.988281 C410.485675,839.483075 410.11784,840.055986 409.759766,840.707031 C409.401691,841.358076 409.059897,842.044918 408.734375,842.767578 C408.408853,843.490238 408.106121,844.222653 407.826172,844.964844 C407.546223,845.707035 407.292319,846.413408 407.064453,847.083984 C406.836587,847.754561 406.638022,848.369789 406.46875,848.929688 C406.299478,849.489586 406.169271,849.951821 406.078125,850.316406 Z M425.746094,849.457031 L423.910156,856.605469 C423.714843,857.386723 423.617188,857.998696 423.617188,858.441406 C423.617188,858.832033 423.701822,859.170571 423.871094,859.457031 C424.040365,859.743491 424.248697,859.886719 424.496094,859.886719 C424.8737,859.886719 425.498694,859.424484 426.371094,858.5 L426.644531,858.773438 L426.429688,859.027344 C425.73958,859.821619 425.208986,860.378254 424.837891,860.697266 C424.466795,861.016278 424.144533,861.175781 423.871094,861.175781 C423.454425,861.175781 423.0931,860.957684 422.787109,860.521484 C422.481118,860.085284 422.328125,859.580732 422.328125,859.007812 C422.328125,858.591144 422.484373,857.647143 422.796875,856.175781 L422.953125,855.433594 C422.471352,856.553391 421.826827,857.627599 421.019531,858.65625 C419.665358,860.375009 418.369798,861.234375 417.132812,861.234375 C416.390621,861.234375 415.80469,860.967451 415.375,860.433594 C414.94531,859.899737 414.730469,859.183598 414.730469,858.285156 C414.730469,857.061192 415.078773,855.778653 415.775391,854.4375 C416.472009,853.096347 417.337885,851.992843 418.373047,851.126953 C419.408208,850.261063 420.414058,849.828125 421.390625,849.828125 C422.419276,849.828125 423.187497,850.205725 423.695312,850.960938 L423.910156,850.21875 L425.746094,849.457031 Z M423.5,851.957031 C423.343749,851.462237 423.08008,851.074871 422.708984,850.794922 C422.337889,850.514973 421.911461,850.375 421.429688,850.375 C420.856768,850.375 420.251305,850.638669 419.613281,851.166016 C418.975257,851.693362 418.389326,852.425777 417.855469,853.363281 C417.4388,854.105472 417.090496,854.925777 416.810547,855.824219 C416.530598,856.722661 416.390625,857.464841 416.390625,858.050781 C416.390625,858.714847 416.517577,859.235675 416.771484,859.613281 C417.025392,859.990887 417.386716,860.179688 417.855469,860.179688 C418.45443,860.179688 419.079424,859.899742 419.730469,859.339844 C420.381514,858.779945 421.026038,857.979172 421.664062,856.9375 C422.054689,856.338539 422.360676,855.739586 422.582031,855.140625 C422.803387,854.541664 423.05078,853.708339 423.324219,852.640625 L423.5,851.957031 Z M430.648438,861.3125 C429.867184,861.3125 429.245445,861.0293 428.783203,860.462891 C428.320961,859.896482 428.089844,859.164067 428.089844,858.265625 C428.089844,857.210932 428.252603,856.182297 428.578125,855.179688 C428.903647,854.177078 429.352862,853.28516 429.925781,852.503906 C430.498701,851.722652 431.169267,851.094403 431.9375,850.619141 C432.705733,850.143878 433.532548,849.90625 434.417969,849.90625 C435.407557,849.90625 436.175779,850.179685 436.722656,850.726562 C436.761719,850.505207 436.794271,850.228517 436.820312,849.896484 C436.846354,849.564451 436.869141,849.222658 436.888672,848.871094 C436.908203,848.519529 436.921224,848.180991 436.927734,847.855469 C436.934245,847.529946 436.9375,847.263022 436.9375,847.054688 C436.9375,846.755207 436.921224,846.384117 436.888672,845.941406 C436.85612,845.498696 436.787761,845.033206 436.683594,844.544922 C436.579427,844.056638 436.432944,843.571617 436.244141,843.089844 C436.055338,842.608071 435.807944,842.175132 435.501953,841.791016 C435.195962,841.406899 434.818362,841.094402 434.369141,840.853516 C433.91992,840.612629 433.382816,840.492188 432.757812,840.492188 C432.614583,840.492188 432.422527,840.508463 432.181641,840.541016 C431.940754,840.573568 431.677085,840.635416 431.390625,840.726562 C431.104165,840.817709 430.801434,840.944661 430.482422,841.107422 C430.16341,841.270183 429.847658,841.475259 429.535156,841.722656 L429.300781,841.351562 C429.600262,841.065103 429.9388,840.817709 430.316406,840.609375 C430.694012,840.401041 431.078123,840.228516 431.46875,840.091797 C431.859377,839.955077 432.233722,839.857422 432.591797,839.798828 C432.949872,839.740234 433.252603,839.710938 433.5,839.710938 C434.528651,839.710938 435.365231,839.909503 436.009766,840.306641 C436.6543,840.703778 437.155597,841.231117 437.513672,841.888672 C437.871747,842.546227 438.11263,843.294918 438.236328,844.134766 C438.360027,844.974614 438.421875,845.837235 438.421875,846.722656 C438.421875,847.907558 438.317709,849.089187 438.109375,850.267578 C437.901041,851.445969 437.614585,852.575515 437.25,853.65625 C436.885415,854.736985 436.455732,855.746089 435.960938,856.683594 C435.466143,857.621098 434.929039,858.431637 434.349609,859.115234 C433.770179,859.798832 433.164717,860.335936 432.533203,860.726562 C431.90169,861.117189 431.273441,861.3125 430.648438,861.3125 Z M436.371094,851.820312 C436.227864,851.390623 435.96745,851.05534 435.589844,850.814453 C435.212238,850.573567 434.795575,850.453125 434.339844,850.453125 C433.858071,850.453125 433.415367,850.570311 433.011719,850.804688 C432.608071,851.039064 432.236981,851.354816 431.898438,851.751953 C431.559894,852.149091 431.260418,852.611325 431,853.138672 C430.739582,853.666018 430.51823,854.216143 430.335938,854.789062 C430.153645,855.361982 430.016928,855.944658 429.925781,856.537109 C429.834635,857.12956 429.789062,857.692706 429.789062,858.226562 C429.789062,858.903649 429.92578,859.447264 430.199219,859.857422 C430.472658,860.26758 430.902341,860.472656 431.488281,860.472656 C431.90495,860.472656 432.318357,860.319663 432.728516,860.013672 C433.138674,859.707681 433.522785,859.304039 433.880859,858.802734 C434.238934,858.30143 434.570962,857.738284 434.876953,857.113281 C435.182944,856.488278 435.446613,855.853519 435.667969,855.208984 C435.889324,854.56445 436.061848,853.945967 436.185547,853.353516 C436.309245,852.761065 436.371094,852.250002 436.371094,851.820312 Z M437.484375,868.753906 L441.175781,850.375 L443.050781,849.574219 L441.761719,855.179688 C442.725265,853.239574 443.633459,851.843103 444.486328,850.990234 C445.339197,850.137366 446.273432,849.710938 447.289062,849.710938 C448.070316,849.710938 448.6888,849.997393 449.144531,850.570312 C449.600263,851.143232 449.828125,851.930985 449.828125,852.933594 C449.828125,853.949224 449.623049,854.99088 449.212891,856.058594 C448.802732,857.126307 448.226566,858.09635 447.484375,858.96875 C446.143222,860.583341 444.665373,861.390625 443.050781,861.390625 C442.035151,861.390625 441.201826,861.123701 440.550781,860.589844 L438.539062,868.753906 L437.484375,868.753906 Z M440.84375,859.300781 C441.390628,860.368495 442.158849,860.902344 443.148438,860.902344 C444.580736,860.902344 445.830724,859.736991 446.898438,857.40625 C447.770838,855.531241 448.207031,853.955736 448.207031,852.679688 C448.207031,851.98958 448.076824,851.455731 447.816406,851.078125 C447.555988,850.700519 447.184898,850.511719 446.703125,850.511719 C445.921871,850.511719 445.101567,851.026037 444.242188,852.054688 C443.421871,853.070318 442.725263,854.203119 442.152344,855.453125 C441.930988,855.947919 441.725912,856.475258 441.537109,857.035156 C441.348306,857.595055 441.169272,858.167966 441,858.753906 L440.84375,859.300781 Z M462.464844,849.457031 L460.628906,856.605469 C460.433593,857.386723 460.335938,857.998696 460.335938,858.441406 C460.335938,858.832033 460.420572,859.170571 460.589844,859.457031 C460.759115,859.743491 460.967447,859.886719 461.214844,859.886719 C461.59245,859.886719 462.217444,859.424484 463.089844,858.5 L463.363281,858.773438 L463.148438,859.027344 C462.45833,859.821619 461.927736,860.378254 461.556641,860.697266 C461.185545,861.016278 460.863283,861.175781 460.589844,861.175781 C460.173175,861.175781 459.81185,860.957684 459.505859,860.521484 C459.199868,860.085284 459.046875,859.580732 459.046875,859.007812 C459.046875,858.591144 459.203123,857.647143 459.515625,856.175781 L459.671875,855.433594 C459.190102,856.553391 458.545577,857.627599 457.738281,858.65625 C456.384108,860.375009 455.088548,861.234375 453.851562,861.234375 C453.109371,861.234375 452.52344,860.967451 452.09375,860.433594 C451.66406,859.899737 451.449219,859.183598 451.449219,858.285156 C451.449219,857.061192 451.797523,855.778653 452.494141,854.4375 C453.190759,853.096347 454.056635,851.992843 455.091797,851.126953 C456.126958,850.261063 457.132808,849.828125 458.109375,849.828125 C459.138026,849.828125 459.906247,850.205725 460.414062,850.960938 L460.628906,850.21875 L462.464844,849.457031 Z M460.21875,851.957031 C460.062499,851.462237 459.79883,851.074871 459.427734,850.794922 C459.056639,850.514973 458.630211,850.375 458.148438,850.375 C457.575518,850.375 456.970055,850.638669 456.332031,851.166016 C455.694007,851.693362 455.108076,852.425777 454.574219,853.363281 C454.15755,854.105472 453.809246,854.925777 453.529297,855.824219 C453.249348,856.722661 453.109375,857.464841 453.109375,858.050781 C453.109375,858.714847 453.236327,859.235675 453.490234,859.613281 C453.744142,859.990887 454.105466,860.179688 454.574219,860.179688 C455.17318,860.179688 455.798174,859.899742 456.449219,859.339844 C457.100264,858.779945 457.744788,857.979172 458.382812,856.9375 C458.773439,856.338539 459.079426,855.739586 459.300781,855.140625 C459.522137,854.541664 459.76953,853.708339 460.042969,852.640625 L460.21875,851.957031 Z M472.328125,860.785156 L471.039062,861.195312 L472.582031,853.246094 L472.71875,852.5625 C472.796875,852.184894 472.835938,851.872397 472.835938,851.625 C472.835938,851.05208 472.608075,850.765625 472.152344,850.765625 C471.722654,850.765625 471.201826,851.055336 470.589844,851.634766 C469.977862,852.214196 469.333337,853.050776 468.65625,854.144531 C468.213539,854.84766 467.832684,855.524736 467.513672,856.175781 C467.19466,856.826826 466.901694,857.520179 466.634766,858.255859 C466.367837,858.99154 466.110678,859.834631 465.863281,860.785156 L464.652344,861.195312 L466.664062,850.375 L468.539062,849.574219 L466.839844,856.664062 C467.712244,854.645823 468.711583,852.988939 469.837891,851.693359 C470.964198,850.39778 471.976558,849.75 472.875,849.75 C473.851567,849.75 474.339844,850.30338 474.339844,851.410156 C474.339844,851.787762 474.242188,852.458329 474.046875,853.421875 L473.402344,856.332031 C474.665371,853.910144 475.733069,852.201177 476.605469,851.205078 C477.477869,850.208979 478.343746,849.710938 479.203125,849.710938 C479.684898,849.710938 480.062499,849.854165 480.335938,850.140625 C480.609376,850.427085 480.746094,850.837237 480.746094,851.371094 C480.746094,851.800783 480.615887,852.542963 480.355469,853.597656 L479.75,856 L479.554688,856.761719 C479.372395,857.569014 479.28125,858.167967 479.28125,858.558594 C479.28125,858.975262 479.352864,859.310546 479.496094,859.564453 C479.639324,859.818361 479.821613,859.945312 480.042969,859.945312 C480.459637,859.945312 481.110673,859.463546 481.996094,858.5 L482.289062,858.773438 L482.113281,858.988281 C481.37109,859.860681 480.820965,860.449868 480.462891,860.755859 C480.104816,861.06185 479.776043,861.214844 479.476562,861.214844 C479.072915,861.214844 478.731121,861.009768 478.451172,860.599609 C478.171223,860.189451 478.03125,859.678388 478.03125,859.066406 C478.03125,858.6888 478.115885,858.070317 478.285156,857.210938 L479.007812,853.167969 L479.125,852.464844 C479.203125,852.074217 479.242188,851.76172 479.242188,851.527344 C479.242188,851.292968 479.170574,851.104167 479.027344,850.960938 C478.884114,850.817708 478.688803,850.746094 478.441406,850.746094 C478.154946,850.746094 477.839194,850.866535 477.494141,851.107422 C477.149087,851.348308 476.781252,851.716143 476.390625,852.210938 C475.999998,852.705732 475.563804,853.356767 475.082031,854.164062 C474.430986,855.270839 473.903648,856.30273 473.5,857.259766 C473.096352,858.216802 472.705731,859.39192 472.328125,860.785156 Z M495.628906,849.574219 L493.910156,856 C493.623696,857.054693 493.480469,857.901038 493.480469,858.539062 C493.480469,858.955731 493.552083,859.29427 493.695312,859.554688 C493.838542,859.815105 494.027343,859.945312 494.261719,859.945312 C494.665367,859.945312 495.309891,859.463546 496.195312,858.5 L496.507812,858.773438 L496.3125,858.988281 C495.570309,859.860681 495.023439,860.449868 494.671875,860.755859 C494.320311,861.06185 493.994793,861.214844 493.695312,861.214844 C493.291665,861.214844 492.949871,861.009768 492.669922,860.599609 C492.389973,860.189451 492.25,859.678388 492.25,859.066406 C492.25,858.675779 492.328124,858.057296 492.484375,857.210938 L493.714844,850.375 L495.628906,849.574219 Z M489.59375,853.382812 C489.893231,853.382812 490.160155,853.408854 490.394531,853.460938 C490.628907,853.513021 490.830728,853.610676 491,853.753906 C491.169272,853.897136 491.296224,854.095702 491.380859,854.349609 C491.465495,854.603517 491.507812,854.925779 491.507812,855.316406 C491.507812,855.967451 491.341799,856.641273 491.009766,857.337891 C490.677733,858.034509 490.251305,858.669268 489.730469,859.242188 C489.209633,859.815107 488.626956,860.287108 487.982422,860.658203 C487.337887,861.029299 486.709638,861.214844 486.097656,861.214844 C485.43359,861.214844 484.902997,861.022788 484.505859,860.638672 C484.108722,860.254555 483.910156,859.743493 483.910156,859.105469 C483.910156,858.649737 483.98177,858.044275 484.125,857.289062 L485.453125,850.375 L487.289062,849.574219 L485.53125,856.410156 C486.234379,855.355463 486.937496,854.587242 487.640625,854.105469 C488.343754,853.623696 488.994789,853.382812 489.59375,853.382812 Z M485.199219,858.851562 C485.199219,859.307294 485.342446,859.691405 485.628906,860.003906 C485.915366,860.316408 486.319008,860.472656 486.839844,860.472656 C487.178387,860.472656 487.529946,860.368491 487.894531,860.160156 C488.259116,859.951822 488.5944,859.649091 488.900391,859.251953 C489.206382,858.854816 489.460285,858.360029 489.662109,857.767578 C489.863933,857.175127 489.964844,856.494796 489.964844,855.726562 C489.964844,855.25781 489.896485,854.889975 489.759766,854.623047 C489.623046,854.356118 489.365887,854.222656 488.988281,854.222656 C488.727863,854.222656 488.444663,854.28776 488.138672,854.417969 C487.832681,854.548178 487.520184,854.753254 487.201172,855.033203 C486.88216,855.313152 486.563153,855.667967 486.244141,856.097656 C485.925129,856.527346 485.622397,857.041664 485.335938,857.640625 C485.244791,858.083336 485.199219,858.486977 485.199219,858.851562 Z" id="Тёплые-Квадраты"></path>
        </g>
    </g>
</svg>