<?xml version="1.0" encoding="UTF-8"?>
<svg width="377px" height="39px" viewBox="0 0 377 39" version="1.1" xmlns="http://www.w3.org/2000/svg" xmlns:xlink="http://www.w3.org/1999/xlink">
    <!-- Generator: Sketch 43.1 (39012) - http://www.bohemiancoding.com/sketch -->
    <title>Приемущества при выб</title>
    <desc>Created with Sketch.</desc>
    <defs></defs>
    <g id="Page-1" stroke="none" stroke-width="1" fill="none" fill-rule="evenodd">
        <g id="услуги" transform="translate(-43.000000, -704.000000)" fill="#000000">
            <path d="M59.1826172,734 L57.0732422,734 L62.1049805,711.148438 C62.3100596,710.24023 62.4125977,709.566408 62.4125977,709.126953 C62.4125977,708.628904 62.2917493,708.2334 62.0500488,707.94043 C61.8083484,707.647459 61.4750998,707.500977 61.050293,707.500977 C59.7465755,707.500977 58.2011808,708.951157 56.4140625,711.851562 C55.710934,712.979498 54.9602091,714.327141 54.1618652,715.894531 C53.3635214,717.461922 52.6494172,718.945061 52.0195312,720.343994 C51.3896453,721.742927 50.7524446,723.28466 50.1079102,724.969238 C49.4633757,726.653817 48.8920923,728.287101 48.394043,729.869141 L47.2294922,733.58252 L47.0976562,734 L45.2299805,734 L45.3618164,733.560547 C46.3286181,730.220686 47.4199158,725.569854 48.6357422,719.60791 C49.1044945,717.366688 49.5146467,715.257334 49.8662109,713.279785 C50.3496118,710.628405 50.5913086,708.78272 50.5913086,707.742676 C50.5913086,707.200681 50.5327154,706.713625 50.4155273,706.281494 C50.2983393,705.849363 50.133546,705.523439 49.9211426,705.303711 C49.7087392,705.083983 49.4560562,704.974121 49.1630859,704.974121 C47.9765566,704.974121 46.9804728,706.43895 46.1748047,709.368652 C45.5449187,711.609874 45.1274424,713.638663 44.9223633,715.455078 L43.2084961,714.268555 C43.5014663,712.437491 43.9555633,710.749275 44.5708008,709.203857 C45.1860382,707.65844 45.8818321,706.45728 46.6582031,705.600342 C47.4345742,704.743404 48.2182578,704.314941 49.0092773,704.314941 C49.946782,704.314941 50.6828587,704.820307 51.2175293,705.831055 C51.7521999,706.841802 52.0195312,708.240714 52.0195312,710.027832 C52.0195312,711.492683 51.8803725,713.103995 51.6020508,714.861816 C51.4116201,716.062994 51.2065441,717.25683 50.9868164,718.443359 L49.8662109,723.848633 L50.0639648,723.365234 C51.3383853,720.25975 52.5578555,717.571789 53.7224121,715.30127 C54.8869687,713.03075 55.9746043,711.19239 56.9853516,709.786133 C58.8017669,707.310534 60.4863204,706.072754 62.0390625,706.072754 C62.7568395,706.072754 63.3464332,706.325437 63.8078613,706.830811 C64.2692894,707.336184 64.5,707.991695 64.5,708.797363 C64.5,709.485843 64.3754895,710.394037 64.1264648,711.521973 L59.1826172,734 Z M62.9838867,742.723145 L67.1367188,722.046875 L69.2460938,721.145996 L67.7958984,727.452148 C68.8798882,725.26952 69.9016065,723.698491 70.861084,722.739014 C71.8205614,721.779536 72.8715763,721.299805 74.0141602,721.299805 C74.8930708,721.299805 75.5888646,721.622067 76.1015625,722.266602 C76.6142604,722.911136 76.8706055,723.797358 76.8706055,724.925293 C76.8706055,726.067877 76.6398949,727.23974 76.1784668,728.440918 C75.7170387,729.642096 75.0688518,730.733394 74.2338867,731.714844 C72.7250901,733.531259 71.0625091,734.439453 69.2460938,734.439453 C68.1035099,734.439453 67.1660193,734.139163 66.4335938,733.538574 L64.1704102,742.723145 L62.9838867,742.723145 Z M66.7631836,732.088379 C67.378421,733.289557 68.2426702,733.890137 69.355957,733.890137 C70.9672932,733.890137 72.3735292,732.579115 73.574707,729.957031 C74.5561573,727.847646 75.046875,726.075202 75.046875,724.639648 C75.046875,723.863277 74.9003921,723.262697 74.6074219,722.837891 C74.3144517,722.413084 73.8969754,722.200684 73.3549805,722.200684 C72.4760698,722.200684 71.5532275,722.779291 70.5864258,723.936523 C69.6635696,725.079107 68.879886,726.353509 68.2353516,727.759766 C67.9863269,728.316409 67.7556163,728.909665 67.5432129,729.539551 C67.3308095,730.169437 67.1293955,730.813962 66.9389648,731.473145 L66.7631836,732.088379 Z M83.1547852,721.145996 L81.0234375,729.649414 C80.8330069,730.411137 80.737793,731.055661 80.737793,731.583008 C80.737793,732.095706 80.8989242,732.505858 81.2211914,732.813477 C81.5434586,733.121095 81.9609349,733.274902 82.4736328,733.274902 C83.7187562,733.274902 85.01513,732.256846 86.362793,730.220703 L86.4506836,730.088867 C86.4799806,729.942382 86.5019531,729.825196 86.5166016,729.737305 L87.9008789,722.046875 L90.0541992,721.145996 L88.1206055,728.375 C87.7983382,729.561529 87.637207,730.513668 87.637207,731.231445 C87.637207,731.700198 87.7177726,732.081053 87.8789062,732.374023 C88.0400399,732.666994 88.2524401,732.813477 88.5161133,732.813477 C88.9702171,732.813477 89.6953075,732.27149 90.6914062,731.1875 L91.0429688,731.495117 L90.8232422,731.736816 C89.9882771,732.718267 89.3730489,733.381102 88.9775391,733.725342 C88.5820293,734.069582 88.215822,734.241699 87.8789062,734.241699 C87.4248024,734.241699 87.0402848,734.010989 86.7253418,733.549561 C86.4103988,733.088132 86.2529297,732.513187 86.2529297,731.824707 C86.2529297,731.604979 86.2602538,731.399903 86.2749023,731.209473 C84.7514572,733.230967 83.2426833,734.241699 81.7485352,734.241699 C81.0014611,734.241699 80.4045432,734.025637 79.9577637,733.593506 C79.5109841,733.161375 79.2875977,732.586429 79.2875977,731.868652 C79.2875977,731.312009 79.3681633,730.630863 79.5292969,729.825195 L81.0234375,722.046875 L83.1547852,721.145996 Z M101.238281,730.594238 L101.633789,730.923828 C100.725581,732.125006 99.8393598,732.992917 98.9750977,733.527588 C98.1108355,734.062259 97.180669,734.32959 96.1845703,734.32959 C94.9980409,734.32959 94.045902,733.934086 93.328125,733.143066 C92.610348,732.352047 92.2514648,731.304694 92.2514648,730.000977 C92.2514648,728.682611 92.5993618,727.345954 93.295166,725.990967 C93.9909703,724.63598 94.8625436,723.515385 95.9099121,722.62915 C96.9572806,721.742915 97.9936472,721.299805 99.019043,721.299805 C99.6196319,721.299805 100.114012,721.475584 100.502197,721.827148 C100.890383,722.178713 101.084473,722.63281 101.084473,723.189453 C101.084473,724.317388 100.469244,725.445307 99.2387695,726.573242 C98.0082946,727.701178 96.3310653,728.660641 94.2070312,729.45166 C94.1923827,729.568848 94.1850586,729.700683 94.1850586,729.847168 C94.1850586,730.857915 94.4633761,731.681882 95.0200195,732.319092 C95.5766629,732.956302 96.2944292,733.274902 97.1733398,733.274902 C97.8618198,733.274902 98.5283171,733.05884 99.1728516,732.626709 C99.817386,732.194578 100.505856,731.517094 101.238281,730.594238 Z M94.2070312,728.924316 C95.7890704,728.221188 97.0048786,727.437504 97.8544922,726.573242 C98.4257841,725.987302 98.8872053,725.357425 99.2387695,724.683594 C99.5903338,724.009762 99.7661133,723.401858 99.7661133,722.859863 C99.7661133,722.171383 99.451175,721.827148 98.8212891,721.827148 C97.8691359,721.827148 96.9060107,722.577873 95.9318848,724.079346 C94.9577588,725.580818 94.3828134,727.195792 94.2070312,728.924316 Z M117.124512,721.980957 L119.497559,721.255859 L117.761719,728.111328 C117.541991,728.97559 117.391846,729.653074 117.311279,730.143799 C117.230712,730.634524 117.19043,730.997069 117.19043,731.231445 C117.19043,731.700198 117.270995,732.077391 117.432129,732.363037 C117.593263,732.648683 117.805663,732.791504 118.069336,732.791504 C118.52344,732.791504 119.24853,732.249517 120.244629,731.165527 L120.596191,731.473145 L120.376465,731.714844 C119.951658,732.212893 119.589113,732.626707 119.288818,732.956299 C118.988524,733.28589 118.735841,733.538573 118.530762,733.714355 C118.120603,734.051271 117.754396,734.219727 117.432129,734.219727 C116.978025,734.219727 116.593507,733.992678 116.278564,733.538574 C115.963621,733.08447 115.806152,732.505863 115.806152,731.802734 C115.806152,731.465819 115.853759,730.986087 115.948975,730.363525 C116.04419,729.740964 116.1687,729.034184 116.32251,728.243164 C116.476319,727.452144 116.641112,726.609868 116.816895,725.716309 C116.992677,724.822749 117.161132,723.936528 117.322266,723.057617 L110.686523,734 L110.005371,734 L109.214355,722.706055 C108.657712,724.698252 108.130374,726.40844 107.632324,727.83667 C107.134275,729.2649 106.647219,730.433101 106.171143,731.341309 C105.695066,732.249516 105.229983,732.919676 104.775879,733.351807 C104.321775,733.783938 103.867678,734 103.413574,734 C103.267089,734 103.080323,733.992676 102.853271,733.978027 C102.62622,733.963379 102.43213,733.934082 102.270996,733.890137 L102.88623,731.670898 C103.032716,731.788087 103.23413,731.879638 103.490479,731.945557 C103.746827,732.011475 103.992186,732.044434 104.226562,732.044434 C104.504884,732.044434 104.764891,731.941896 105.006592,731.736816 C105.248292,731.531737 105.479003,731.260744 105.69873,730.923828 C105.918458,730.586912 106.127196,730.191409 106.324951,729.737305 C106.522706,729.283201 106.702148,728.807131 106.863281,728.309082 C107.244143,727.137201 107.507812,726.148442 107.654297,725.342773 C107.800782,724.537105 107.874023,723.85596 107.874023,723.299316 C107.874023,723.138183 107.866699,722.962403 107.852051,722.771973 C107.837402,722.581542 107.800782,722.369142 107.742188,722.134766 L110.774414,721.233887 L111.367676,731.736816 L117.124512,721.980957 Z M119.849121,741.800293 L120.925781,740.350098 C121.775395,741.258305 122.734858,741.712402 123.804199,741.712402 C124.932135,741.712402 125.840329,741.265629 126.528809,740.37207 C127.217289,739.478511 127.781248,738.013682 128.220703,735.977539 L129.231445,731.429199 C127.620109,733.318857 126.162604,734.263672 124.858887,734.263672 C124.097164,734.263672 123.500246,734.029299 123.068115,733.560547 C122.635984,733.091795 122.419922,732.461918 122.419922,731.670898 C122.419922,731.143552 122.485839,730.564945 122.617676,729.935059 L124.111816,722.046875 L126.243164,721.145996 L124.111816,730.000977 C123.936034,730.718754 123.848145,731.253416 123.848145,731.60498 C123.848145,732.10303 123.99829,732.50952 124.298584,732.824463 C124.598878,733.139406 124.998044,733.296875 125.496094,733.296875 C126.038089,733.296875 126.635007,733.05884 127.286865,732.582764 C127.938724,732.106687 128.667476,731.392583 129.473145,730.44043 L131.362793,722.046875 L133.428223,721.145996 L130.220215,734.065918 C129.839354,735.61866 129.476808,736.834468 129.132568,737.713379 C128.788328,738.59229 128.389162,739.324704 127.935059,739.910645 C126.499505,741.756357 124.749034,742.679199 122.683594,742.679199 C121.482416,742.679199 120.537601,742.386233 119.849121,741.800293 Z M150.369141,731.209473 C150.369141,731.678225 150.449706,732.059081 150.61084,732.352051 C150.771973,732.645021 150.984374,732.791504 151.248047,732.791504 C151.482423,732.791504 151.797361,732.670656 152.192871,732.428955 C152.588381,732.187255 152.998533,731.766116 153.42334,731.165527 L153.906738,731.670898 C153.701659,732.44727 153.492921,733.274898 153.280518,734.153809 C153.068114,735.032719 152.841066,735.922603 152.599365,736.823486 C152.357665,737.72437 152.097658,738.617915 151.819336,739.50415 C151.541014,740.390385 151.226076,741.229 150.874512,742.02002 L149.028809,742.02002 C149.365724,741.434079 149.724607,740.734623 150.105469,739.921631 C150.48633,739.108639 150.867186,738.248051 151.248047,737.339844 C151.628908,736.431636 151.991453,735.512456 152.335693,734.582275 C152.679933,733.652095 152.983885,732.784184 153.247559,731.978516 C152.764158,732.608402 152.288088,733.139402 151.819336,733.571533 C151.350584,734.003664 150.947756,734.219727 150.61084,734.219727 C150.156736,734.219727 149.772218,733.992678 149.457275,733.538574 C149.142332,733.08447 148.984863,732.505863 148.984863,731.802734 L148.984863,731.484131 C148.984863,731.388916 148.992187,731.29004 149.006836,731.1875 C148.362301,732.081059 147.677494,732.798825 146.952393,733.34082 C146.227291,733.882815 145.476566,734.183105 144.700195,734.241699 C143.938473,734.241699 143.337893,734.014651 142.898438,733.560547 C142.458982,733.106443 142.239258,732.527836 142.239258,731.824707 L142.239258,731.506104 C142.239258,731.410888 142.246582,731.312012 142.26123,731.209473 C141.660642,732.132329 140.994144,732.853757 140.261719,733.373779 C139.529293,733.893801 138.774906,734.183105 137.998535,734.241699 C137.251461,734.241699 136.654543,734.025637 136.207764,733.593506 C135.760984,733.161375 135.537598,732.586429 135.537598,731.868652 C135.537598,731.355954 135.618163,730.674809 135.779297,729.825195 L137.273438,722.046875 L139.404785,721.145996 L137.273438,729.649414 C137.083007,730.396488 136.987793,731.041013 136.987793,731.583008 C136.987793,731.846681 137.031738,732.081054 137.119629,732.286133 C137.20752,732.491212 137.324706,732.666991 137.471191,732.813477 C137.617677,732.959962 137.771484,733.073486 137.932617,733.154053 C138.093751,733.23462 138.254882,733.274902 138.416016,733.274902 C139.016605,733.274902 139.67944,733.018557 140.404541,732.505859 C141.129642,731.993161 141.807126,731.187505 142.437012,730.088867 L143.931152,722.046875 L146.084473,721.145996 L144.150879,728.375 C143.828612,729.532232 143.66748,730.484371 143.66748,731.231445 C143.66748,731.641604 143.715087,731.978514 143.810303,732.242188 C143.905518,732.505861 144.022704,732.714599 144.161865,732.868408 C144.301026,733.022218 144.454833,733.128418 144.623291,733.187012 C144.791749,733.245606 144.956542,733.274902 145.117676,733.274902 C145.718265,733.274902 146.388424,733.018557 147.128174,732.505859 C147.867924,731.993161 148.552731,731.187505 149.182617,730.088867 L150.632812,722.046875 L152.786133,721.145996 L150.852539,728.375 C150.720702,728.858401 150.607178,729.363767 150.511963,729.891113 C150.416748,730.41846 150.369141,730.857908 150.369141,731.209473 Z M164.893066,730.594238 L165.288574,730.923828 C164.380367,732.125006 163.494145,732.992917 162.629883,733.527588 C161.765621,734.062259 160.835454,734.32959 159.839355,734.32959 C158.652826,734.32959 157.700687,733.934086 156.98291,733.143066 C156.265133,732.352047 155.90625,731.304694 155.90625,730.000977 C155.90625,728.682611 156.254147,727.345954 156.949951,725.990967 C157.645755,724.63598 158.517329,723.515385 159.564697,722.62915 C160.612066,721.742915 161.648432,721.299805 162.673828,721.299805 C163.274417,721.299805 163.768797,721.475584 164.156982,721.827148 C164.545168,722.178713 164.739258,722.63281 164.739258,723.189453 C164.739258,724.317388 164.12403,725.445307 162.893555,726.573242 C161.66308,727.701178 159.98585,728.660641 157.861816,729.45166 C157.847168,729.568848 157.839844,729.700683 157.839844,729.847168 C157.839844,730.857915 158.118161,731.681882 158.674805,732.319092 C159.231448,732.956302 159.949214,733.274902 160.828125,733.274902 C161.516605,733.274902 162.183102,733.05884 162.827637,732.626709 C163.472171,732.194578 164.160641,731.517094 164.893066,730.594238 Z M157.861816,728.924316 C159.443856,728.221188 160.659664,727.437504 161.509277,726.573242 C162.080569,725.987302 162.54199,725.357425 162.893555,724.683594 C163.245119,724.009762 163.420898,723.401858 163.420898,722.859863 C163.420898,722.171383 163.10596,721.827148 162.476074,721.827148 C161.523921,721.827148 160.560796,722.577873 159.58667,724.079346 C158.612544,725.580818 158.037599,727.195792 157.861816,728.924316 Z M176.033203,730.704102 C175.139644,731.963873 174.271733,732.883054 173.429443,733.46167 C172.587154,734.040286 171.653325,734.32959 170.62793,734.32959 C169.499994,734.32959 168.580814,733.934086 167.870361,733.143066 C167.159909,732.352047 166.804688,731.326666 166.804688,730.066895 C166.804688,728.748529 167.148922,727.40821 167.837402,726.045898 C168.525882,724.683587 169.408442,723.555669 170.485107,722.662109 C171.561773,721.76855 172.59814,721.321777 173.594238,721.321777 C174.26807,721.321777 174.810057,721.508543 175.220215,721.88208 C175.630373,722.255617 175.835449,722.757321 175.835449,723.387207 C175.835449,723.958499 175.619387,724.504148 175.187256,725.02417 C174.755125,725.544192 174.290042,725.804199 173.791992,725.804199 C173.572265,725.804199 173.374513,725.716309 173.19873,725.540527 C174.150884,725.115721 174.626953,724.324713 174.626953,723.16748 C174.626953,722.757322 174.520753,722.438722 174.30835,722.21167 C174.095946,721.984618 173.813967,721.871094 173.462402,721.871094 C172.920407,721.871094 172.374759,722.090818 171.825439,722.530273 C171.27612,722.969729 170.759768,723.581295 170.276367,724.36499 C169.792966,725.148686 169.415773,725.983638 169.144775,726.869873 C168.873778,727.756108 168.738281,728.653316 168.738281,729.561523 C168.738281,730.645513 168.994626,731.524411 169.507324,732.198242 C170.020022,732.872074 170.693843,733.208984 171.528809,733.208984 C172.246586,733.208984 172.942379,732.981936 173.616211,732.527832 C174.290042,732.073728 174.99316,731.377934 175.725586,730.44043 L176.033203,730.704102 Z M186.404297,733.758301 L184.954102,734.219727 L186.689941,725.276855 L186.84375,724.507812 C186.931641,724.083006 186.975586,723.731447 186.975586,723.453125 C186.975586,722.808591 186.719241,722.486328 186.206543,722.486328 C185.723142,722.486328 185.13721,722.812253 184.44873,723.464111 C183.76025,724.11597 183.03516,725.057123 182.273438,726.287598 C181.775388,727.078617 181.346926,727.840328 180.988037,728.572754 C180.629149,729.305179 180.299562,730.085201 179.999268,730.912842 C179.698973,731.740483 179.409669,732.688959 179.131348,733.758301 L177.769043,734.219727 L180.032227,722.046875 L182.141602,721.145996 L180.22998,729.12207 C181.211431,726.851551 182.335687,724.987556 183.602783,723.530029 C184.869879,722.072502 186.008784,721.34375 187.019531,721.34375 C188.11817,721.34375 188.66748,721.966302 188.66748,723.211426 C188.66748,723.636233 188.557618,724.39062 188.337891,725.474609 L187.612793,728.748535 C189.033699,726.023912 190.234858,724.101324 191.216309,722.980713 C192.197759,721.860102 193.17187,721.299805 194.138672,721.299805 C194.680667,721.299805 195.105467,721.460936 195.413086,721.783203 C195.720705,722.10547 195.874512,722.566892 195.874512,723.16748 C195.874512,723.650881 195.728029,724.485834 195.435059,725.672363 L194.753906,728.375 L194.53418,729.231934 C194.329101,730.140141 194.226562,730.813963 194.226562,731.253418 C194.226562,731.72217 194.307128,732.099364 194.468262,732.38501 C194.629395,732.670656 194.834471,732.813477 195.083496,732.813477 C195.552248,732.813477 196.284663,732.27149 197.280762,731.1875 L197.610352,731.495117 L197.412598,731.736816 C196.577633,732.718267 195.958742,733.381102 195.555908,733.725342 C195.153074,734.069582 194.783205,734.241699 194.446289,734.241699 C193.992185,734.241699 193.607668,734.010989 193.292725,733.549561 C192.977782,733.088132 192.820312,732.513187 192.820312,731.824707 C192.820312,731.3999 192.915526,730.704106 193.105957,729.737305 L193.918945,725.188965 L194.050781,724.397949 C194.138672,723.958494 194.182617,723.606935 194.182617,723.343262 C194.182617,723.079589 194.102052,722.867188 193.940918,722.706055 C193.779784,722.544921 193.56006,722.464355 193.281738,722.464355 C192.959471,722.464355 192.60425,722.599852 192.216064,722.87085 C191.827879,723.141847 191.414065,723.555661 190.974609,724.112305 C190.535154,724.668948 190.044436,725.401363 189.502441,726.30957 C188.770016,727.554694 188.17676,728.715571 187.722656,729.792236 C187.268552,730.868902 186.829104,732.19091 186.404297,733.758301 Z M201.98291,727.430176 C203.008306,725.452627 204.084955,723.980474 205.212891,723.013672 C206.340826,722.04687 207.446772,721.563477 208.530762,721.563477 C209.014163,721.563477 209.416991,721.636718 209.739258,721.783203 C210.061525,721.929688 210.321532,722.134764 210.519287,722.398438 C210.717042,722.662111 210.856201,722.977049 210.936768,723.343262 C211.017334,723.709474 211.057617,724.119627 211.057617,724.57373 C211.057617,725.188968 210.969727,725.859127 210.793945,726.584229 C210.618163,727.30933 210.369142,728.03442 210.046875,728.759521 C209.724608,729.484623 209.336428,730.184079 208.882324,730.85791 C208.42822,731.531742 207.922854,732.12866 207.366211,732.648682 C206.809568,733.168704 206.205326,733.58618 205.553467,733.901123 C204.901608,734.216066 204.224125,734.373535 203.520996,734.373535 C203.257323,734.373535 202.942385,734.333252 202.576172,734.252686 C202.209959,734.172119 201.862062,733.978029 201.532471,733.67041 C201.202879,733.362791 200.924562,732.90137 200.69751,732.286133 C200.470458,731.670895 200.356934,730.821294 200.356934,729.737305 C200.356934,728.814449 200.422851,727.825689 200.554688,726.770996 C200.686524,725.716303 200.906248,724.500495 201.213867,723.123535 C201.023437,723.152832 200.774416,723.178467 200.466797,723.200439 C200.159178,723.222412 199.858888,723.233398 199.565918,723.233398 L199.653809,722.640137 C199.93213,722.640137 200.236082,722.625488 200.565674,722.596191 C200.895265,722.566894 201.169921,722.515625 201.389648,722.442383 C201.887698,720.420888 202.506588,718.472666 203.246338,716.597656 C203.986088,714.722647 204.806392,713.060066 205.707275,711.609863 C206.608159,710.159661 207.56396,708.998784 208.574707,708.127197 C209.585454,707.255611 210.60351,706.819824 211.628906,706.819824 C212.053713,706.819824 212.416258,706.896728 212.716553,707.050537 C213.016847,707.204346 213.258544,707.40576 213.44165,707.654785 C213.624757,707.90381 213.760253,708.193114 213.848145,708.522705 C213.936036,708.852297 213.97998,709.192869 213.97998,709.544434 C213.97998,710.350102 213.829835,711.17773 213.529541,712.027344 C213.229247,712.876957 212.81177,713.719234 212.2771,714.554199 C211.742429,715.389164 211.119877,716.202144 210.409424,716.993164 C209.698971,717.784184 208.933598,718.534909 208.113281,719.245361 C207.292965,719.955814 206.439702,720.607663 205.553467,721.200928 C204.667232,721.794192 203.791997,722.303221 202.927734,722.728027 C202.839843,723.064943 202.751954,723.43115 202.664062,723.82666 C202.576171,724.22217 202.488282,724.62866 202.400391,725.046143 C202.3125,725.463625 202.231934,725.877439 202.158691,726.287598 C202.085449,726.697756 202.026856,727.078612 201.98291,727.430176 Z M201.98291,731.121582 C201.98291,731.414552 202.001221,731.718504 202.037842,732.033447 C202.074463,732.34839 202.147705,732.637694 202.257568,732.901367 C202.367432,733.16504 202.521239,733.384765 202.718994,733.560547 C202.916749,733.736329 203.169432,733.824219 203.477051,733.824219 C204.004397,733.824219 204.509763,733.66675 204.993164,733.351807 C205.476565,733.036864 205.927,732.619387 206.344482,732.099365 C206.761965,731.579343 207.139158,730.986087 207.476074,730.31958 C207.81299,729.653073 208.102294,728.968265 208.343994,728.265137 C208.585695,727.562008 208.77246,726.873539 208.904297,726.199707 C209.036133,725.525876 209.102051,724.925296 209.102051,724.397949 C209.102051,723.694821 208.992189,723.189455 208.772461,722.881836 C208.552733,722.574217 208.201174,722.42041 207.717773,722.42041 C207.395506,722.42041 207.029299,722.533934 206.619141,722.760986 C206.208982,722.988038 205.791506,723.299314 205.366699,723.694824 C204.941892,724.090334 204.524416,724.562741 204.114258,725.112061 C203.7041,725.66138 203.341554,726.258298 203.026611,726.902832 C202.711668,727.547367 202.458985,728.228512 202.268555,728.946289 C202.078124,729.664066 201.98291,730.389156 201.98291,731.121582 Z M203.125488,721.980957 C204.443854,721.277829 205.670649,720.43189 206.805908,719.443115 C207.941168,718.454341 208.926265,717.396002 209.76123,716.268066 C210.596196,715.140131 211.248045,713.986578 211.716797,712.807373 C212.185549,711.628168 212.419922,710.503912 212.419922,709.43457 C212.419922,708.716793 212.324708,708.200441 212.134277,707.885498 C211.943847,707.570555 211.606936,707.413086 211.123535,707.413086 C210.68408,707.413086 210.244631,707.577879 209.805176,707.907471 C209.36572,708.237062 208.933596,708.680173 208.508789,709.236816 C208.083982,709.79346 207.670168,710.437985 207.267334,711.17041 C206.8645,711.902836 206.479982,712.675533 206.11377,713.488525 C205.747557,714.301518 205.406984,715.125484 205.092041,715.960449 C204.777098,716.795414 204.491456,717.590084 204.235107,718.344482 C203.978758,719.098881 203.755372,719.791012 203.564941,720.420898 C203.374511,721.050784 203.228028,721.570799 203.125488,721.980957 Z M225.251953,721.01416 L223.186523,729.056152 C222.966796,729.935063 222.856934,730.623533 222.856934,731.121582 C222.856934,731.561037 222.952147,731.941893 223.142578,732.26416 C223.333009,732.586427 223.567381,732.747559 223.845703,732.747559 C224.27051,732.747559 224.973628,732.227544 225.955078,731.1875 L226.262695,731.495117 L226.020996,731.780762 C225.244625,732.674321 224.647707,733.300535 224.230225,733.659424 C223.812742,734.018312 223.450197,734.197754 223.142578,734.197754 C222.673826,734.197754 222.267336,733.952395 221.923096,733.46167 C221.578856,732.970945 221.406738,732.403324 221.406738,731.758789 C221.406738,731.290037 221.582518,730.228036 221.934082,728.572754 L222.109863,727.737793 C221.567868,728.997565 220.842778,730.206049 219.93457,731.363281 C218.411125,733.296885 216.95362,734.263672 215.562012,734.263672 C214.727047,734.263672 214.067874,733.963382 213.584473,733.362793 C213.101072,732.762204 212.859375,731.956548 212.859375,730.945801 C212.859375,729.568841 213.251217,728.125984 214.034912,726.617188 C214.818607,725.108391 215.792719,723.866948 216.957275,722.892822 C218.121832,721.918696 219.253412,721.431641 220.352051,721.431641 C221.509283,721.431641 222.373532,721.856441 222.944824,722.706055 L223.186523,721.871094 L225.251953,721.01416 Z M222.725098,723.82666 C222.549316,723.270017 222.252688,722.83423 221.835205,722.519287 C221.417723,722.204344 220.937991,722.046875 220.395996,722.046875 C219.751462,722.046875 219.070316,722.343503 218.352539,722.936768 C217.634762,723.530032 216.975589,724.353999 216.375,725.408691 C215.906248,726.243657 215.514406,727.166499 215.199463,728.177246 C214.88452,729.187993 214.727051,730.022946 214.727051,730.682129 C214.727051,731.429203 214.869872,732.015135 215.155518,732.439941 C215.441164,732.864748 215.847654,733.077148 216.375,733.077148 C217.048831,733.077148 217.751949,732.76221 218.484375,732.132324 C219.216801,731.502438 219.941891,730.601568 220.659668,729.429688 C221.099123,728.755856 221.443358,728.082035 221.692383,727.408203 C221.941407,726.734372 222.219725,725.796881 222.527344,724.595703 L222.725098,723.82666 Z M235.513184,734.219727 L237.842285,722.046875 L239.929688,721.145996 L238.040039,729.209961 C239.255865,726.646472 240.464349,724.698249 241.665527,723.365234 C242.866705,722.03222 244.016596,721.365723 245.115234,721.365723 C245.657229,721.365723 246.096678,721.545164 246.433594,721.904053 C246.770509,722.262941 246.938965,722.742673 246.938965,723.343262 C246.938965,723.680177 246.858399,724.156247 246.697266,724.771484 L246.477539,725.694336 L245.818359,728.375 L245.598633,729.231934 C245.378905,730.110844 245.269043,730.784666 245.269043,731.253418 C245.269043,731.72217 245.349609,732.099364 245.510742,732.38501 C245.671876,732.670656 245.884276,732.813477 246.147949,732.813477 C246.602053,732.813477 247.327143,732.27149 248.323242,731.1875 L248.674805,731.495117 L248.455078,731.736816 C247.620113,732.718267 247.004885,733.381102 246.609375,733.725342 C246.213865,734.069582 245.847658,734.241699 245.510742,734.241699 C245.056638,734.241699 244.672121,734.010989 244.357178,733.549561 C244.042235,733.088132 243.884766,732.513187 243.884766,731.824707 C243.884766,731.355955 243.972655,730.660161 244.148438,729.737305 L245.005371,725.079102 C245.122559,724.346676 245.181152,723.833986 245.181152,723.541016 C245.181152,723.233397 245.100587,722.999024 244.939453,722.837891 C244.77832,722.676757 244.558595,722.596191 244.280273,722.596191 C243.269526,722.596191 242.024421,723.680165 240.544922,725.848145 C239.827145,726.888189 239.233889,727.917231 238.765137,728.935303 C238.296384,729.953374 237.769046,731.363272 237.183105,733.165039 L236.985352,733.758301 L235.513184,734.219727 Z M248.367188,742.723145 L252.52002,722.046875 L254.629395,721.145996 L253.179199,727.452148 C254.263189,725.26952 255.284907,723.698491 256.244385,722.739014 C257.203862,721.779536 258.254877,721.299805 259.397461,721.299805 C260.276372,721.299805 260.972165,721.622067 261.484863,722.266602 C261.997561,722.911136 262.253906,723.797358 262.253906,724.925293 C262.253906,726.067877 262.023196,727.23974 261.561768,728.440918 C261.100339,729.642096 260.452153,730.733394 259.617188,731.714844 C258.108391,733.531259 256.44581,734.439453 254.629395,734.439453 C253.486811,734.439453 252.54932,734.139163 251.816895,733.538574 L249.553711,742.723145 L248.367188,742.723145 Z M252.146484,732.088379 C252.761722,733.289557 253.625971,733.890137 254.739258,733.890137 C256.350594,733.890137 257.75683,732.579115 258.958008,729.957031 C259.939458,727.847646 260.430176,726.075202 260.430176,724.639648 C260.430176,723.863277 260.283693,723.262697 259.990723,722.837891 C259.697752,722.413084 259.280276,722.200684 258.738281,722.200684 C257.859371,722.200684 256.936528,722.779291 255.969727,723.936523 C255.04687,725.079107 254.263187,726.353509 253.618652,727.759766 C253.369628,728.316409 253.138917,728.909665 252.926514,729.539551 C252.71411,730.169437 252.512696,730.813962 252.322266,731.473145 L252.146484,732.088379 Z M268.538086,721.145996 L266.406738,729.649414 C266.216308,730.411137 266.121094,731.055661 266.121094,731.583008 C266.121094,732.095706 266.282225,732.505858 266.604492,732.813477 C266.926759,733.121095 267.344236,733.274902 267.856934,733.274902 C269.102057,733.274902 270.398431,732.256846 271.746094,730.220703 L271.833984,730.088867 C271.863281,729.942382 271.885254,729.825196 271.899902,729.737305 L273.28418,722.046875 L275.4375,721.145996 L273.503906,728.375 C273.181639,729.561529 273.020508,730.513668 273.020508,731.231445 C273.020508,731.700198 273.101073,732.081053 273.262207,732.374023 C273.423341,732.666994 273.635741,732.813477 273.899414,732.813477 C274.353518,732.813477 275.078608,732.27149 276.074707,731.1875 L276.42627,731.495117 L276.206543,731.736816 C275.371578,732.718267 274.75635,733.381102 274.36084,733.725342 C273.96533,734.069582 273.599123,734.241699 273.262207,734.241699 C272.808103,734.241699 272.423586,734.010989 272.108643,733.549561 C271.7937,733.088132 271.63623,732.513187 271.63623,731.824707 C271.63623,731.604979 271.643555,731.399903 271.658203,731.209473 C270.134758,733.230967 268.625984,734.241699 267.131836,734.241699 C266.384762,734.241699 265.787844,734.025637 265.341064,733.593506 C264.894285,733.161375 264.670898,732.586429 264.670898,731.868652 C264.670898,731.312009 264.751464,730.630863 264.912598,729.825195 L266.406738,722.046875 L268.538086,721.145996 Z M288.577148,727.430176 C289.602544,725.452627 290.679194,723.980474 291.807129,723.013672 C292.935064,722.04687 294.04101,721.563477 295.125,721.563477 C295.608401,721.563477 296.011229,721.636718 296.333496,721.783203 C296.655763,721.929688 296.91577,722.134764 297.113525,722.398438 C297.31128,722.662111 297.450439,722.977049 297.531006,723.343262 C297.611573,723.709474 297.651855,724.119627 297.651855,724.57373 C297.651855,725.188968 297.563966,725.859127 297.388184,726.584229 C297.212401,727.30933 296.963381,728.03442 296.641113,728.759521 C296.318846,729.484623 295.930666,730.184079 295.476562,730.85791 C295.022459,731.531742 294.517093,732.12866 293.960449,732.648682 C293.403806,733.168704 292.799564,733.58618 292.147705,733.901123 C291.495846,734.216066 290.818363,734.373535 290.115234,734.373535 C289.851561,734.373535 289.536623,734.333252 289.17041,734.252686 C288.804197,734.172119 288.4563,733.978029 288.126709,733.67041 C287.797117,733.362791 287.5188,732.90137 287.291748,732.286133 C287.064696,731.670895 286.951172,730.821294 286.951172,729.737305 C286.951172,728.814449 287.017089,727.825689 287.148926,726.770996 C287.280762,725.716303 287.500487,724.500495 287.808105,723.123535 C287.617675,723.152832 287.368654,723.178467 287.061035,723.200439 C286.753416,723.222412 286.453126,723.233398 286.160156,723.233398 L286.248047,722.640137 C286.526369,722.640137 286.830321,722.625488 287.159912,722.596191 C287.489504,722.566894 287.764159,722.515625 287.983887,722.442383 C288.481936,720.420888 289.100826,718.472666 289.840576,716.597656 C290.580326,714.722647 291.40063,713.060066 292.301514,711.609863 C293.202397,710.159661 294.158198,708.998784 295.168945,708.127197 C296.179693,707.255611 297.197749,706.819824 298.223145,706.819824 C298.647951,706.819824 299.010497,706.896728 299.310791,707.050537 C299.611085,707.204346 299.852782,707.40576 300.035889,707.654785 C300.218995,707.90381 300.354492,708.193114 300.442383,708.522705 C300.530274,708.852297 300.574219,709.192869 300.574219,709.544434 C300.574219,710.350102 300.424074,711.17773 300.123779,712.027344 C299.823485,712.876957 299.406009,713.719234 298.871338,714.554199 C298.336667,715.389164 297.714115,716.202144 297.003662,716.993164 C296.293209,717.784184 295.527836,718.534909 294.70752,719.245361 C293.887203,719.955814 293.03394,720.607663 292.147705,721.200928 C291.26147,721.794192 290.386235,722.303221 289.521973,722.728027 C289.434082,723.064943 289.346192,723.43115 289.258301,723.82666 C289.17041,724.22217 289.08252,724.62866 288.994629,725.046143 C288.906738,725.463625 288.826172,725.877439 288.75293,726.287598 C288.679687,726.697756 288.621094,727.078612 288.577148,727.430176 Z M288.577148,731.121582 C288.577148,731.414552 288.595459,731.718504 288.63208,732.033447 C288.668701,732.34839 288.741943,732.637694 288.851807,732.901367 C288.96167,733.16504 289.115478,733.384765 289.313232,733.560547 C289.510987,733.736329 289.76367,733.824219 290.071289,733.824219 C290.598635,733.824219 291.104001,733.66675 291.587402,733.351807 C292.070803,733.036864 292.521238,732.619387 292.938721,732.099365 C293.356203,731.579343 293.733397,730.986087 294.070312,730.31958 C294.407228,729.653073 294.696532,728.968265 294.938232,728.265137 C295.179933,727.562008 295.366699,726.873539 295.498535,726.199707 C295.630372,725.525876 295.696289,724.925296 295.696289,724.397949 C295.696289,723.694821 295.586427,723.189455 295.366699,722.881836 C295.146972,722.574217 294.795413,722.42041 294.312012,722.42041 C293.989744,722.42041 293.623537,722.533934 293.213379,722.760986 C292.803221,722.988038 292.385744,723.299314 291.960938,723.694824 C291.536131,724.090334 291.118654,724.562741 290.708496,725.112061 C290.298338,725.66138 289.935793,726.258298 289.62085,726.902832 C289.305907,727.547367 289.053224,728.228512 288.862793,728.946289 C288.672362,729.664066 288.577148,730.389156 288.577148,731.121582 Z M289.719727,721.980957 C291.038093,721.277829 292.264887,720.43189 293.400146,719.443115 C294.535406,718.454341 295.520504,717.396002 296.355469,716.268066 C297.190434,715.140131 297.842283,713.986578 298.311035,712.807373 C298.779787,711.628168 299.01416,710.503912 299.01416,709.43457 C299.01416,708.716793 298.918946,708.200441 298.728516,707.885498 C298.538085,707.570555 298.201174,707.413086 297.717773,707.413086 C297.278318,707.413086 296.838869,707.577879 296.399414,707.907471 C295.959959,708.237062 295.527834,708.680173 295.103027,709.236816 C294.678221,709.79346 294.264406,710.437985 293.861572,711.17041 C293.458738,711.902836 293.074221,712.675533 292.708008,713.488525 C292.341795,714.301518 292.001222,715.125484 291.686279,715.960449 C291.371336,716.795414 291.085695,717.590084 290.829346,718.344482 C290.572997,719.098881 290.34961,719.791012 290.15918,720.420898 C289.968749,721.050784 289.822266,721.570799 289.719727,721.980957 Z M313.230469,721.145996 L311.296875,728.375 C310.974608,729.561529 310.813477,730.513668 310.813477,731.231445 C310.813477,731.700198 310.894042,732.081053 311.055176,732.374023 C311.216309,732.666994 311.42871,732.813477 311.692383,732.813477 C312.146487,732.813477 312.871577,732.27149 313.867676,731.1875 L314.219238,731.495117 L313.999512,731.736816 C313.164547,732.718267 312.549318,733.381102 312.153809,733.725342 C311.758299,734.069582 311.392092,734.241699 311.055176,734.241699 C310.601072,734.241699 310.216554,734.010989 309.901611,733.549561 C309.586668,733.088132 309.429199,732.513187 309.429199,731.824707 C309.429199,731.385252 309.517089,730.689458 309.692871,729.737305 L311.077148,722.046875 L313.230469,721.145996 Z M306.440918,725.430664 C306.777834,725.430664 307.078124,725.459961 307.341797,725.518555 C307.60547,725.577149 307.832519,725.687011 308.022949,725.848145 C308.21338,726.009278 308.356201,726.232665 308.451416,726.518311 C308.546631,726.803957 308.594238,727.166502 308.594238,727.605957 C308.594238,728.338383 308.407473,729.096432 308.033936,729.880127 C307.660399,730.663822 307.180667,731.377926 306.594727,732.022461 C306.008786,732.666995 305.353275,733.197996 304.628174,733.615479 C303.903073,734.032961 303.196293,734.241699 302.507812,734.241699 C301.760738,734.241699 301.163821,734.025637 300.717041,733.593506 C300.270261,733.161375 300.046875,732.586429 300.046875,731.868652 C300.046875,731.355954 300.127441,730.674809 300.288574,729.825195 L301.782715,722.046875 L303.848145,721.145996 L301.870605,728.836426 C302.661625,727.649896 303.452633,726.785647 304.243652,726.243652 C305.034672,725.701657 305.767086,725.430664 306.440918,725.430664 Z M301.49707,731.583008 C301.49707,732.095706 301.658202,732.52783 301.980469,732.879395 C302.302736,733.230959 302.756833,733.406738 303.342773,733.406738 C303.723635,733.406738 304.119139,733.289552 304.529297,733.055176 C304.939455,732.8208 305.316649,732.480227 305.660889,732.033447 C306.005129,731.586668 306.29077,731.030033 306.517822,730.363525 C306.744874,729.697018 306.858398,728.931645 306.858398,728.067383 C306.858398,727.540036 306.781495,727.126222 306.627686,726.825928 C306.473876,726.525633 306.184572,726.375488 305.759766,726.375488 C305.466795,726.375488 305.148195,726.44873 304.803955,726.595215 C304.459715,726.7417 304.108156,726.972411 303.749268,727.287354 C303.390379,727.602296 303.031496,728.001462 302.672607,728.484863 C302.313719,728.968264 301.973146,729.546872 301.650879,730.220703 C301.548339,730.718752 301.49707,731.17285 301.49707,731.583008 Z M315.603516,730.616211 C315.603516,729.502924 315.797605,728.396978 316.185791,727.29834 C316.573977,726.199702 317.097653,725.214604 317.756836,724.343018 C318.416019,723.471431 319.17773,722.764651 320.041992,722.222656 C320.906254,721.680661 321.807124,721.409668 322.744629,721.409668 C323.066896,721.409668 323.341552,721.43164 323.568604,721.475586 C323.795655,721.519531 324.026366,721.607421 324.260742,721.739258 C324.041015,721.285154 323.751711,720.838381 323.392822,720.398926 C323.033934,719.95947 322.65674,719.51636 322.26123,719.06958 C321.865721,718.622801 321.462893,718.176028 321.052734,717.729248 C320.642576,717.282468 320.276369,716.832034 319.954102,716.37793 C319.631834,715.923826 319.368165,715.466067 319.163086,715.004639 C318.958007,714.543211 318.855469,714.078127 318.855469,713.609375 C318.855469,713.272459 318.914062,712.9209 319.03125,712.554688 C319.148438,712.188475 319.368162,711.818605 319.69043,711.445068 C320.012697,711.071531 320.455808,710.705324 321.019775,710.346436 C321.583743,709.987547 322.312496,709.646974 323.206055,709.324707 C323.982426,709.046385 324.736813,708.764406 325.469238,708.47876 C326.201664,708.193114 326.886471,707.907472 327.523682,707.621826 C328.160892,707.33618 328.735837,707.046876 329.248535,706.753906 C329.761233,706.460936 330.186033,706.16797 330.522949,705.875 L330.632812,707.544922 C330.413085,707.823244 330.116457,708.090575 329.74292,708.346924 C329.369383,708.603273 328.944582,708.84497 328.468506,709.072021 C327.992429,709.299073 327.483401,709.515136 326.941406,709.720215 C326.399411,709.925294 325.857425,710.115722 325.31543,710.291504 C324.304682,710.613771 323.466068,710.928709 322.799561,711.236328 C322.133053,711.543947 321.602053,711.862547 321.206543,712.192139 C320.811033,712.52173 320.532716,712.873289 320.371582,713.246826 C320.210448,713.620363 320.129883,714.034177 320.129883,714.488281 C320.129883,714.971682 320.228759,715.411131 320.426514,715.806641 C320.624269,716.20215 320.887938,716.59033 321.217529,716.971191 C321.547121,717.352053 321.935301,717.743894 322.38208,718.146729 C322.82886,718.549563 323.301267,718.999998 323.799316,719.498047 C324.165529,719.86426 324.509764,720.223143 324.832031,720.574707 C325.154298,720.926271 325.432616,721.299803 325.666992,721.695312 C325.901368,722.090822 326.088134,722.522947 326.227295,722.991699 C326.366456,723.460452 326.436035,724.002438 326.436035,724.617676 C326.436035,725.057131 326.366456,725.606442 326.227295,726.265625 C326.088134,726.924808 325.879396,727.613278 325.601074,728.331055 C325.322753,729.048832 324.971194,729.77026 324.546387,730.495361 C324.12158,731.220463 323.623538,731.868649 323.052246,732.439941 C322.480954,733.011233 321.836429,733.476317 321.118652,733.835205 C320.400875,734.194094 319.609868,734.373535 318.745605,734.373535 C317.808101,734.373535 317.050052,734.084231 316.471436,733.505615 C315.892819,732.926999 315.603516,731.963874 315.603516,730.616211 Z M324.700195,724.332031 C324.700195,723.409175 324.553712,722.775636 324.260742,722.431396 C323.967772,722.087156 323.586916,721.915039 323.118164,721.915039 C322.415036,721.915039 321.730228,722.142088 321.063721,722.596191 C320.397213,723.050295 319.803958,723.665523 319.283936,724.441895 C318.763913,725.218266 318.346437,726.122798 318.031494,727.155518 C317.716551,728.188238 317.559082,729.283197 317.559082,730.44043 C317.559082,731.055667 317.614013,731.568357 317.723877,731.978516 C317.833741,732.388674 317.983886,732.71826 318.174316,732.967285 C318.364747,733.21631 318.584471,733.395751 318.833496,733.505615 C319.082521,733.615479 319.353514,733.67041 319.646484,733.67041 C320.173831,733.67041 320.664549,733.505617 321.118652,733.176025 C321.572756,732.846434 321.98657,732.414309 322.360107,731.879639 C322.733644,731.344968 323.066893,730.740726 323.359863,730.066895 C323.652833,729.393063 323.898192,728.711918 324.095947,728.023438 C324.293702,727.334957 324.443847,726.66846 324.546387,726.023926 C324.648926,725.379391 324.700195,724.815432 324.700195,724.332031 Z M327.88623,729.78125 C327.88623,728.462884 328.241452,727.1482 328.951904,725.837158 C329.662357,724.526116 330.581537,723.460453 331.709473,722.640137 C332.837408,721.81982 333.987299,721.409668 335.15918,721.409668 C336.389655,721.409668 337.382076,721.816158 338.136475,722.62915 C338.890873,723.442143 339.268066,724.493158 339.268066,725.782227 C339.268066,727.188484 338.920169,728.550775 338.224365,729.869141 C337.528561,731.187507 336.613043,732.267818 335.477783,733.110107 C334.342524,733.952397 333.196295,734.373535 332.039062,734.373535 C330.793939,734.373535 329.790531,733.952397 329.028809,733.110107 C328.267086,732.267818 327.88623,731.15821 327.88623,729.78125 Z M337.290527,724.947266 C337.290527,724.068355 337.074465,723.343265 336.642334,722.771973 C336.210203,722.200681 335.65723,721.915039 334.983398,721.915039 C334.368161,721.915039 333.778567,722.112791 333.2146,722.508301 C332.650632,722.903811 332.13428,723.482418 331.665527,724.244141 C331.138181,725.123051 330.702394,726.148432 330.358154,727.320312 C330.013914,728.492193 329.841797,729.532222 329.841797,730.44043 C329.841797,731.524419 330.054197,732.359372 330.479004,732.945312 C330.903811,733.531253 331.511715,733.824219 332.302734,733.824219 C333.577155,733.824219 334.697749,732.937997 335.664551,731.165527 C336.1626,730.25732 336.558104,729.239263 336.851074,728.111328 C337.144044,726.983393 337.290527,725.928716 337.290527,724.947266 Z M339.553711,742.723145 L343.706543,722.046875 L345.815918,721.145996 L344.365723,727.452148 C345.449712,725.26952 346.471431,723.698491 347.430908,722.739014 C348.390386,721.779536 349.441401,721.299805 350.583984,721.299805 C351.462895,721.299805 352.158689,721.622067 352.671387,722.266602 C353.184085,722.911136 353.44043,723.797358 353.44043,724.925293 C353.44043,726.067877 353.209719,727.23974 352.748291,728.440918 C352.286863,729.642096 351.638676,730.733394 350.803711,731.714844 C349.294914,733.531259 347.632333,734.439453 345.815918,734.439453 C344.673334,734.439453 343.735844,734.139163 343.003418,733.538574 L340.740234,742.723145 L339.553711,742.723145 Z M343.333008,732.088379 C343.948245,733.289557 344.812494,733.890137 345.925781,733.890137 C347.537117,733.890137 348.943353,732.579115 350.144531,729.957031 C351.125981,727.847646 351.616699,726.075202 351.616699,724.639648 C351.616699,723.863277 351.470216,723.262697 351.177246,722.837891 C350.884276,722.413084 350.4668,722.200684 349.924805,722.200684 C349.045894,722.200684 348.123052,722.779291 347.15625,723.936523 C346.233394,725.079107 345.44971,726.353509 344.805176,727.759766 C344.556151,728.316409 344.325441,728.909665 344.113037,729.539551 C343.900634,730.169437 343.69922,730.813962 343.508789,731.473145 L343.333008,732.088379 Z M364.250977,730.594238 L364.646484,730.923828 C363.738277,732.125006 362.852055,732.992917 361.987793,733.527588 C361.123531,734.062259 360.193364,734.32959 359.197266,734.32959 C358.010736,734.32959 357.058597,733.934086 356.34082,733.143066 C355.623043,732.352047 355.26416,731.304694 355.26416,730.000977 C355.26416,728.682611 355.612057,727.345954 356.307861,725.990967 C357.003666,724.63598 357.875239,723.515385 358.922607,722.62915 C359.969976,721.742915 361.006343,721.299805 362.031738,721.299805 C362.632327,721.299805 363.126707,721.475584 363.514893,721.827148 C363.903078,722.178713 364.097168,722.63281 364.097168,723.189453 C364.097168,724.317388 363.48194,725.445307 362.251465,726.573242 C361.02099,727.701178 359.343761,728.660641 357.219727,729.45166 C357.205078,729.568848 357.197754,729.700683 357.197754,729.847168 C357.197754,730.857915 357.476071,731.681882 358.032715,732.319092 C358.589358,732.956302 359.307125,733.274902 360.186035,733.274902 C360.874515,733.274902 361.541012,733.05884 362.185547,732.626709 C362.830081,732.194578 363.518551,731.517094 364.250977,730.594238 Z M357.219727,728.924316 C358.801766,728.221188 360.017574,727.437504 360.867188,726.573242 C361.438479,725.987302 361.899901,725.357425 362.251465,724.683594 C362.603029,724.009762 362.778809,723.401858 362.778809,722.859863 C362.778809,722.171383 362.46387,721.827148 361.833984,721.827148 C360.881831,721.827148 359.918706,722.577873 358.94458,724.079346 C357.970454,725.580818 357.395509,727.195792 357.219727,728.924316 Z M383.169434,722.046875 L385.322754,721.145996 L383.520996,728.133301 C383.301268,728.997563 383.151123,729.675046 383.070557,730.165771 C382.98999,730.656497 382.949707,731.019042 382.949707,731.253418 C382.949707,731.72217 383.030273,732.099364 383.191406,732.38501 C383.35254,732.670656 383.56494,732.813477 383.828613,732.813477 C384.282717,732.813477 385.007808,732.27149 386.003906,731.1875 L386.355469,731.495117 L386.135742,731.736816 C385.710935,732.234866 385.34839,732.64868 385.048096,732.978271 C384.747801,733.307863 384.495118,733.560546 384.290039,733.736328 C383.879881,734.073244 383.513673,734.241699 383.191406,734.241699 C382.737302,734.241699 382.352785,734.014651 382.037842,733.560547 C381.722899,733.106443 381.56543,732.527836 381.56543,731.824707 C381.56543,731.458494 381.616699,730.93848 381.719238,730.264648 C381.821778,729.590817 381.960937,728.770513 382.136719,727.803711 L377.039062,727.803711 L375.654785,733.758301 L374.182617,734.219727 L376.511719,722.046875 L378.599121,721.145996 L377.214844,727.056641 L382.290527,727.056641 C382.422364,726.338864 382.561523,725.566166 382.708008,724.738525 C382.854493,723.910885 383.0083,723.013677 383.169434,722.046875 Z M399.978516,721.01416 L397.913086,729.056152 C397.693358,729.935063 397.583496,730.623533 397.583496,731.121582 C397.583496,731.561037 397.67871,731.941893 397.869141,732.26416 C398.059571,732.586427 398.293944,732.747559 398.572266,732.747559 C398.997072,732.747559 399.70019,732.227544 400.681641,731.1875 L400.989258,731.495117 L400.747559,731.780762 C399.971188,732.674321 399.37427,733.300535 398.956787,733.659424 C398.539305,734.018312 398.176759,734.197754 397.869141,734.197754 C397.400388,734.197754 396.993898,733.952395 396.649658,733.46167 C396.305418,732.970945 396.133301,732.403324 396.133301,731.758789 C396.133301,731.290037 396.30908,730.228036 396.660645,728.572754 L396.836426,727.737793 C396.294431,728.997565 395.56934,730.206049 394.661133,731.363281 C393.137688,733.296885 391.680183,734.263672 390.288574,734.263672 C389.453609,734.263672 388.794436,733.963382 388.311035,733.362793 C387.827634,732.762204 387.585938,731.956548 387.585938,730.945801 C387.585938,729.568841 387.977779,728.125984 388.761475,726.617188 C389.54517,725.108391 390.519281,723.866948 391.683838,722.892822 C392.848394,721.918696 393.979975,721.431641 395.078613,721.431641 C396.235846,721.431641 397.100095,721.856441 397.671387,722.706055 L397.913086,721.871094 L399.978516,721.01416 Z M397.45166,723.82666 C397.275878,723.270017 396.97925,722.83423 396.561768,722.519287 C396.144285,722.204344 395.664553,722.046875 395.122559,722.046875 C394.478024,722.046875 393.796879,722.343503 393.079102,722.936768 C392.361325,723.530032 391.702151,724.353999 391.101562,725.408691 C390.63281,726.243657 390.240968,727.166499 389.926025,728.177246 C389.611082,729.187993 389.453613,730.022946 389.453613,730.682129 C389.453613,731.429203 389.596434,732.015135 389.88208,732.439941 C390.167726,732.864748 390.574216,733.077148 391.101562,733.077148 C391.775394,733.077148 392.478512,732.76221 393.210938,732.132324 C393.943363,731.502438 394.668453,730.601568 395.38623,729.429688 C395.825686,728.755856 396.169921,728.082035 396.418945,727.408203 C396.66797,726.734372 396.946288,725.796881 397.253906,724.595703 L397.45166,723.82666 Z M411.448242,730.704102 C410.554683,731.963873 409.686772,732.883054 408.844482,733.46167 C408.002193,734.040286 407.068365,734.32959 406.042969,734.32959 C404.915033,734.32959 403.995853,733.934086 403.2854,733.143066 C402.574948,732.352047 402.219727,731.326666 402.219727,730.066895 C402.219727,728.748529 402.563961,727.40821 403.252441,726.045898 C403.940921,724.683587 404.823481,723.555669 405.900146,722.662109 C406.976812,721.76855 408.013179,721.321777 409.009277,721.321777 C409.683109,721.321777 410.225096,721.508543 410.635254,721.88208 C411.045412,722.255617 411.250488,722.757321 411.250488,723.387207 C411.250488,723.958499 411.034426,724.504148 410.602295,725.02417 C410.170164,725.544192 409.705081,725.804199 409.207031,725.804199 C408.987304,725.804199 408.789552,725.716309 408.61377,725.540527 C409.565923,725.115721 410.041992,724.324713 410.041992,723.16748 C410.041992,722.757322 409.935792,722.438722 409.723389,722.21167 C409.510985,721.984618 409.229006,721.871094 408.877441,721.871094 C408.335447,721.871094 407.789798,722.090818 407.240479,722.530273 C406.691159,722.969729 406.174807,723.581295 405.691406,724.36499 C405.208005,725.148686 404.830812,725.983638 404.559814,726.869873 C404.288817,727.756108 404.15332,728.653316 404.15332,729.561523 C404.15332,730.645513 404.409665,731.524411 404.922363,732.198242 C405.435061,732.872074 406.108883,733.208984 406.943848,733.208984 C407.661625,733.208984 408.357419,732.981936 409.03125,732.527832 C409.705081,732.073728 410.408199,731.377934 411.140625,730.44043 L411.448242,730.704102 Z M419.841797,723.101562 C419.841797,723.687503 419.655031,724.189207 419.281494,724.606689 C418.907957,725.024172 418.464846,725.23291 417.952148,725.23291 C417.512693,725.23291 417.146486,725.093751 416.853516,724.81543 C416.560545,724.537108 416.414062,724.163577 416.414062,723.694824 C416.414062,723.284666 416.501952,722.918459 416.677734,722.596191 C416.853517,722.273924 417.084227,722.013917 417.369873,721.816162 C417.655519,721.618407 417.966795,721.519531 418.303711,721.519531 C418.772463,721.519531 419.145995,721.666014 419.424316,721.958984 C419.702638,722.251955 419.841797,722.63281 419.841797,723.101562 Z M417.996094,732.110352 C417.996094,732.696292 417.809328,733.197996 417.435791,733.615479 C417.062254,734.032961 416.619143,734.241699 416.106445,734.241699 C415.08105,734.241699 414.568359,733.729009 414.568359,732.703613 C414.568359,732.293455 414.656249,731.927248 414.832031,731.60498 C415.007813,731.282713 415.238524,731.022706 415.52417,730.824951 C415.809816,730.627196 416.121092,730.52832 416.458008,730.52832 C416.92676,730.52832 417.300292,730.674803 417.578613,730.967773 C417.856935,731.260744 417.996094,731.641599 417.996094,732.110352 Z" id="Приемущества-при-выб"></path>
        </g>
    </g>
</svg>