<?xml version="1.0" encoding="UTF-8"?>
<svg width="112px" height="33px" viewBox="0 0 112 33" version="1.1" xmlns="http://www.w3.org/2000/svg" xmlns:xlink="http://www.w3.org/1999/xlink">
    <!-- Generator: Sketch 43.1 (39012) - http://www.bohemiancoding.com/sketch -->
    <title>логотип</title>
    <desc>Created with Sketch.</desc>
    <defs></defs>
    <g id="Page-1" stroke="none" stroke-width="1" fill="none" fill-rule="evenodd">
        <g id="логотип">
            <path d="M34.7732003,25.8487128 L33.1466415,25.8487128 L36.7216823,9.55503118 L36.8402856,8.98983905 C36.9193548,8.59151118 36.9588888,8.31699204 36.9588888,8.16627339 C36.9588888,7.96172664 36.9024117,7.7921707 36.7894556,7.65760047 C36.6764996,7.52303025 36.5183635,7.45574614 36.3150426,7.45574614 C35.9987657,7.45574614 35.6429595,7.6387589 35.2476134,8.00478992 C34.8522672,8.37082094 34.3552681,8.98445197 33.756601,9.84570142 C32.8303615,11.1591068 31.8194201,12.9838517 30.7237465,15.3199909 C29.8652806,17.1609116 29.1339012,18.9506687 28.5295863,20.6893161 C27.9252715,22.4279634 27.4310962,24.1477451 27.0470457,25.8487128 L25.64075,25.8487128 L29.5716006,8.3116085 C29.6958523,7.76256198 29.7579771,7.33194371 29.7579771,7.01974079 C29.7579771,6.87978775 29.7297386,6.74521954 29.6732605,6.61603213 C29.6167825,6.48684471 29.5405383,6.3899556 29.4445257,6.32536189 C29.3485131,6.26076818 29.2383826,6.22847181 29.1141309,6.22847181 C28.5832375,6.22847181 27.93375,6.72099145 27.1656489,7.70604551 C26.3975479,8.69109957 25.4882654,10.2224858 24.4377742,12.3002501 C23.9407676,13.2368589 23.4607116,14.2165154 22.9975918,15.2392491 C22.5344721,16.2619829 22.1221887,17.2147258 21.7607293,18.0975065 C21.39927,18.9802871 20.9926344,20.0568328 20.5408102,21.3271757 C19.8856651,23.1788621 19.4112569,24.686026 19.1175712,25.8487128 L17.6943322,25.8487128 L17.7451621,25.6226359 L18.473725,22.8612687 C18.7335239,21.8062381 18.9594325,20.8696434 19.1514578,20.0514564 C20.0438106,16.1973651 20.6989458,13.048469 21.1168831,10.6046737 C21.4670469,8.68839367 21.6421261,7.30503249 21.6421261,6.45454866 C21.6421261,5.83014281 21.543291,5.34838862 21.345618,5.00927165 C21.1479449,4.67015468 20.8740306,4.50059874 20.5238669,4.50059874 C19.6654009,4.50059874 18.9029591,5.58790986 18.2365185,7.76256472 C17.8185811,9.12979823 17.4966612,10.6046658 17.2707491,12.1872117 L16,11.3959427 C16.1920253,10.0071779 16.5111213,8.75300224 16.9572977,7.63337795 C17.403474,6.51375367 17.9343595,5.62829486 18.5499699,4.97697496 C19.1655803,4.32565506 19.7896531,4 20.4222069,4 C21.1451256,4 21.7127212,4.36602553 22.1250108,5.09808756 C22.5373003,5.83014959 22.743442,6.83133706 22.743442,8.10168 C22.743442,9.16747619 22.6417831,10.3785901 22.4384622,11.735058 C22.3819842,12.1333858 22.2012572,13.1453387 21.8962759,14.7709471 L21.2185431,18.2912866 L21.320203,17.984468 C22.1334865,15.8744069 23.3138594,13.3875864 24.8613572,10.523932 C25.8327792,8.74760498 26.7335901,7.40461426 27.563817,6.49491953 C28.3940439,5.5852248 29.1480142,5.13038425 29.8257504,5.13038425 C30.2549834,5.13038425 30.6107896,5.28917474 30.8931797,5.60676047 C31.1755698,5.92434621 31.3167627,6.3307422 31.3167627,6.82596063 C31.3167627,7.33194468 31.2094561,8.06399573 30.9948396,9.02213575 L29.0294143,17.9683197 C29.1762572,17.5699918 29.5151202,16.8056444 30.0460136,15.6752545 C31.5935114,12.4025066 32.9150773,10.0421802 34.0107509,8.59420457 C35.1064245,7.14622893 36.1173659,6.42225197 37.0436054,6.42225197 C37.5067252,6.42225197 37.8766507,6.57565973 38.153393,6.88247984 C38.4301353,7.18929996 38.5685044,7.59569595 38.5685044,8.10168 C38.5685044,8.51077349 38.4724932,9.12978725 38.2804679,9.95873984 L34.7732003,25.8487128 Z M66.2538919,4.80741732 L53.8513805,17.7099461 C54.2241354,18.5388987 54.7267823,19.4189748 55.3593361,20.3502008 C55.9918899,21.2814268 56.6611445,22.1372806 57.3671197,22.9177879 C58.073095,23.6982952 58.8270652,24.4007412 59.6290531,25.0251471 L58.4260773,26.1070863 C56.008818,24.029322 54.0434124,21.4240815 52.5298014,18.2912866 L64.4409565,4.80741732 L66.2538919,4.80741732 Z M54.0038704,4.9043074 L55.8506924,4.08074173 C55.6812584,5.10347545 55.4468781,6.27421887 55.1475446,7.59300709 C54.8482111,8.91179531 54.5008765,10.2709342 54.1055303,11.6704646 C53.7101842,13.0699949 53.3430825,14.238047 53.0042144,15.1746557 C52.6314595,16.2619832 52.2332954,17.2873929 51.8097102,18.2509157 C51.3861251,19.2144386 50.9540747,20.0487615 50.5135461,20.7539094 C50.0730176,21.4590574 49.5929616,22.1049848 49.0733638,22.691711 C48.553766,23.2784372 48.0059374,23.7924878 47.4298616,24.2338781 C45.419244,25.816424 42.8664758,26.607685 39.7714802,26.607685 C39.0033791,26.607685 38.4103688,26.5430923 37.9924315,26.4139049 L38.5007311,25.2189272 C39.7997256,25.5741926 40.9970417,25.7518227 42.0927153,25.7518227 C44.611635,25.7518227 46.7747108,24.4868815 48.5820075,21.9569613 C49.1016053,21.2248992 49.5731897,20.3798109 49.9967748,19.4216709 C50.42036,18.4635309 50.8919444,17.1232315 51.4115422,15.4007326 C51.6600455,14.5825456 51.9057212,13.7293832 52.1485767,12.8412197 C52.3914321,11.9530562 52.6173408,11.0918197 52.8263095,10.2574843 C53.0352782,9.42314885 53.2498915,8.51885049 53.4701557,7.54456205 C53.69042,6.57027361 53.8457323,5.82476573 53.9360971,5.30801606 L54.0038704,4.9043074 Z" id="ТК" fill="#000000"></path>
            <rect id="Rectangle-2" fill="#000000" x="10" y="20" width="1.73499613" height="1.65359068"></rect>
            <rect id="Rectangle-2" fill="#000000" opacity="0.5" x="66" y="12" width="10.4099768" height="9.92154406"></rect>
            <rect id="Rectangle-2" fill="#000000" opacity="0.5" x="71" y="17" width="10.4099768" height="9.92154406"></rect>
            <rect id="Rectangle-2" fill="#000000" opacity="0.5" x="88" y="17" width="8.67498066" height="8.26795339"></rect>
            <rect id="Rectangle-2" fill="#000000" opacity="0.5" x="84" y="5" width="8.67498066" height="8.26795339"></rect>
            <rect id="Rectangle-2" fill="#000000" opacity="0.5" x="94" y="8" width="8.67498066" height="8.26795339"></rect>
            <rect id="Rectangle-2" fill="#000000" opacity="0.5" x="94" y="1" width="4.33749033" height="4.13397669"></rect>
            <rect id="Rectangle-2" fill="#000000" opacity="0.5" x="97" y="0" width="4.33749033" height="4.13397669"></rect>
            <rect id="Rectangle-2" fill="#000000" opacity="0.5" x="97" y="9" width="4.33749033" height="4.13397669"></rect>
            <rect id="Rectangle-2" fill="#000000" opacity="0.5" x="88" y="9" width="4.33749033" height="4.13397669"></rect>
            <rect id="Rectangle-2" fill="#000000" opacity="0.5" x="88" y="17" width="4.33749033" height="4.13397669"></rect>
            <rect id="Rectangle-2" fill="#000000" opacity="0.5" x="77" y="10" width="4.33749033" height="4.13397669"></rect>
            <path d="M25.0613259,28.5 L31.1939144,28.5" id="Line" stroke="#F8E81C" stroke-linecap="square"></path>
            <path d="M0.0613258851,28.5 L6.1939144,28.5" id="Line" stroke="#D0011B" stroke-linecap="square"></path>
            <path d="M6.06132589,28.5 L12.1939144,28.5" id="Line" stroke="#8B572A" stroke-linecap="square"></path>
            <path d="M12.0613259,28.5 L18.1939144,28.5" id="Line" stroke="#BD0FE1" stroke-linecap="square"></path>
            <path d="M31.0613259,28.5 L37.1939144,28.5" id="Line" stroke="#4990E2" stroke-linecap="square"></path>
            <path d="M18.0613259,28.5 L24.1939144,28.5" id="Line" stroke="#50E3C2" stroke-linecap="square"></path>
            <path d="M37.0613259,28.5 L43.1939144,28.5" id="Line" stroke="#B8E986" stroke-linecap="square"></path>
            <path d="M68.0613259,28.5 L74.1939144,28.5" id="Line" stroke="#F8E81C" stroke-linecap="square"></path>
            <path d="M43.0613259,28.5 L49.1939144,28.5" id="Line" stroke="#D0011B" stroke-linecap="square"></path>
            <path d="M50.0613259,28.5 L56.1939144,28.5" id="Line" stroke="#8B572A" stroke-linecap="square"></path>
            <path d="M56.0613259,28.5 L62.1939144,28.5" id="Line" stroke="#BD0FE1" stroke-linecap="square"></path>
            <path d="M75.0613259,28.5 L81.1939144,28.5" id="Line" stroke="#4990E2" stroke-linecap="square"></path>
            <path d="M62.0613259,28.5 L68.1939144,28.5" id="Line" stroke="#50E3C2" stroke-linecap="square"></path>
            <path d="M81.0613259,28.5 L87.1939144,28.5" id="Line" stroke="#B8E986" stroke-linecap="square"></path>
            <path d="M92.0613259,28.5 L98.1939144,28.5" id="Line" stroke="#F8E81C" stroke-linecap="square"></path>
            <path d="M68.0613259,28.5 L74.1939144,28.5" id="Line" stroke="#D0011B" stroke-linecap="square"></path>
            <path d="M74.0613259,28.5 L80.1939144,28.5" id="Line" stroke="#8B572A" stroke-linecap="square"></path>
            <path d="M80.0613259,28.5 L86.1939144,28.5" id="Line" stroke="#BD0FE1" stroke-linecap="square"></path>
            <path d="M99.0613259,28.5 L105.193914,28.5" id="Line" stroke="#4990E2" stroke-linecap="square"></path>
            <path d="M86.0613259,28.5 L92.1939144,28.5" id="Line" stroke="#50E3C2" stroke-linecap="square"></path>
            <path d="M105.061326,28.5 L111.193914,28.5" id="Line" stroke="#B8E986" stroke-linecap="square"></path>
        </g>
    </g>
</svg>