<?xml version="1.0" encoding="UTF-8"?>
<svg width="143px" height="62px" viewBox="0 0 143 62" version="1.1" xmlns="http://www.w3.org/2000/svg" xmlns:xlink="http://www.w3.org/1999/xlink">
    <!-- Generator: Sketch 43.1 (39012) - http://www.bohemiancoding.com/sketch -->
    <title>Ударов по пальцу мол</title>
    <desc>Created with Sketch.</desc>
    <defs></defs>
    <g id="Page-1" stroke="none" stroke-width="1" fill="none" fill-rule="evenodd">
        <g id="Главная" transform="translate(-759.000000, -3488.000000)" fill="#000000">
            <path d="M789.788574,3508.26367 L790.286621,3507.13574 C791.243657,3507.47754 792.210444,3507.64844 793.187012,3507.64844 C794.02686,3507.64844 794.798336,3507.52149 795.501465,3507.26758 C796.204593,3507.01367 796.839353,3506.63526 797.405762,3506.13232 C797.972171,3505.62939 798.523923,3504.95313 799.061035,3504.10352 C799.793461,3502.95117 800.462399,3501.50099 801.067871,3499.75293 C801.224122,3499.29394 801.360839,3498.86914 801.478027,3498.47852 C801.595215,3498.08789 801.878416,3497.07716 802.327637,3495.44629 L802.444824,3495.03613 L802.239746,3495.43164 C801.810056,3496.29102 801.377932,3497.05029 800.943359,3497.70947 C800.508787,3498.36866 799.974124,3499.08398 799.339355,3499.85547 C798.880369,3500.39258 798.484865,3500.80517 798.152832,3501.09326 C797.820799,3501.38135 797.496095,3501.59863 797.178711,3501.74512 C796.861327,3501.8916 796.556154,3501.96484 796.263184,3501.96484 C795.540524,3501.96484 795.032716,3501.6084 794.739746,3500.89551 C794.612792,3500.54394 794.549316,3499.95313 794.549316,3499.12305 L794.549316,3498.47852 L794.812988,3490.97852 C794.822754,3490.87109 794.827637,3490.70996 794.827637,3490.49512 C794.827637,3489.32324 794.51514,3488.7373 793.890137,3488.7373 C793.509275,3488.7373 793.147951,3488.99609 792.806152,3489.51367 C792.464354,3490.03125 792.154298,3490.78564 791.875977,3491.77686 C791.597655,3492.76807 791.360841,3493.97167 791.165527,3495.3877 L791.121582,3495.75391 L789.993652,3495.03613 C790.091309,3494.21582 790.28662,3493.33936 790.57959,3492.40674 C790.87256,3491.47412 791.180174,3490.72949 791.502441,3490.17285 C792.234867,3488.91308 793.030757,3488.2832 793.890137,3488.2832 C794.612797,3488.2832 795.16699,3488.63232 795.552734,3489.33057 C795.938478,3490.02881 796.131348,3491.06152 796.131348,3492.42871 C796.131348,3492.80957 796.126465,3493.09766 796.116699,3493.29297 L795.92627,3498.22949 C795.92627,3498.42481 795.923828,3498.57861 795.918945,3498.69092 C795.914062,3498.80322 795.911621,3498.92773 795.911621,3499.06445 C795.911621,3500.28516 796.282711,3500.89551 797.024902,3500.89551 C797.376467,3500.89551 797.747557,3500.74658 798.138184,3500.44873 C798.528811,3500.15088 798.992673,3499.66993 799.529785,3499.00586 C800.193851,3498.18554 800.809079,3497.25293 801.375488,3496.20801 C801.941897,3495.16308 802.410643,3494.07667 802.781738,3492.94873 C803.152834,3491.8208 803.426269,3490.68555 803.602051,3489.54297 L805.228027,3488.81055 L805.140137,3489.25 C804.573728,3492.26759 803.851079,3495.0996 802.972168,3497.74609 C802.093257,3500.39259 801.21436,3502.37499 800.335449,3503.69336 C799.261225,3505.3047 797.999031,3506.49609 796.548828,3507.26758 C795.098626,3508.03907 793.387217,3508.4248 791.414551,3508.4248 C790.770016,3508.4248 790.22803,3508.37109 789.788574,3508.26367 Z M806.209473,3508.23438 C805.623532,3508.23438 805.157228,3508.02197 804.810547,3507.59717 C804.463865,3507.17236 804.290527,3506.62305 804.290527,3505.94922 C804.290527,3505.1582 804.412596,3504.38672 804.656738,3503.63477 C804.90088,3502.88281 805.237791,3502.21387 805.66748,3501.62793 C806.09717,3501.04199 806.600095,3500.5708 807.17627,3500.21436 C807.752444,3499.85791 808.372555,3499.67969 809.036621,3499.67969 C809.778812,3499.67969 810.354978,3499.88476 810.765137,3500.29492 C810.794434,3500.12891 810.818848,3499.92139 810.838379,3499.67236 C810.85791,3499.42334 810.875,3499.16699 810.889648,3498.90332 C810.904297,3498.63965 810.914062,3498.38574 810.918945,3498.1416 C810.923828,3497.89746 810.92627,3497.69727 810.92627,3497.54102 C810.92627,3497.31641 810.914063,3497.03809 810.889648,3496.70605 C810.865234,3496.37402 810.813965,3496.0249 810.73584,3495.65869 C810.657714,3495.29248 810.547852,3494.92871 810.40625,3494.56738 C810.264648,3494.20605 810.079103,3493.88135 809.849609,3493.59326 C809.620116,3493.30517 809.336916,3493.0708 809,3492.89014 C808.663084,3492.70947 808.260256,3492.61914 807.791504,3492.61914 C807.684081,3492.61914 807.54004,3492.63135 807.359375,3492.65576 C807.17871,3492.68018 806.980958,3492.72656 806.766113,3492.79492 C806.551268,3492.86328 806.32422,3492.9585 806.084961,3493.08057 C805.845702,3493.20264 805.608888,3493.35644 805.374512,3493.54199 L805.19873,3493.26367 C805.423341,3493.04883 805.677245,3492.86328 805.960449,3492.70703 C806.243654,3492.55078 806.531737,3492.42139 806.824707,3492.31885 C807.117677,3492.21631 807.398436,3492.14307 807.666992,3492.09912 C807.935548,3492.05518 808.162597,3492.0332 808.348145,3492.0332 C809.119633,3492.0332 809.747068,3492.18213 810.230469,3492.47998 C810.71387,3492.77783 811.089842,3493.17334 811.358398,3493.6665 C811.626954,3494.15967 811.807617,3494.72119 811.900391,3495.35107 C811.993165,3495.98096 812.039551,3496.62793 812.039551,3497.29199 C812.039551,3498.18067 811.961427,3499.06689 811.805176,3499.95068 C811.648925,3500.83448 811.434083,3501.68164 811.160645,3502.49219 C810.887206,3503.30274 810.564943,3504.05957 810.193848,3504.7627 C809.822752,3505.46582 809.419924,3506.07373 808.985352,3506.58643 C808.550779,3507.09912 808.096682,3507.50195 807.623047,3507.79492 C807.149412,3508.08789 806.678225,3508.23438 806.209473,3508.23438 Z M810.501465,3501.11523 C810.394042,3500.79297 810.198732,3500.5415 809.915527,3500.36084 C809.632323,3500.18017 809.319826,3500.08984 808.978027,3500.08984 C808.616697,3500.08984 808.284669,3500.17773 807.981934,3500.35352 C807.679198,3500.5293 807.40088,3500.76611 807.146973,3501.06396 C806.893065,3501.36182 806.668458,3501.70849 806.473145,3502.104 C806.277831,3502.49951 806.111817,3502.91211 805.975098,3503.3418 C805.838378,3503.77149 805.73584,3504.20849 805.66748,3504.65283 C805.599121,3505.09717 805.564941,3505.51953 805.564941,3505.91992 C805.564941,3506.42774 805.667479,3506.83545 805.872559,3507.14307 C806.077638,3507.45069 806.3999,3507.60449 806.839355,3507.60449 C807.151857,3507.60449 807.461913,3507.48975 807.769531,3507.26025 C808.07715,3507.03076 808.365233,3506.72803 808.633789,3506.35205 C808.902345,3505.97607 809.151366,3505.55371 809.380859,3505.08496 C809.610353,3504.61621 809.808105,3504.14014 809.974121,3503.65674 C810.140138,3503.17334 810.269531,3502.70947 810.362305,3502.26514 C810.455079,3501.8208 810.501465,3501.4375 810.501465,3501.11523 Z M820.608887,3499.34277 L819.231934,3504.7041 C819.085448,3505.29004 819.012207,3505.74902 819.012207,3506.08105 C819.012207,3506.37402 819.075683,3506.62793 819.202637,3506.84277 C819.32959,3507.05762 819.485839,3507.16504 819.671387,3507.16504 C819.954591,3507.16504 820.423337,3506.81836 821.077637,3506.125 L821.282715,3506.33008 L821.121582,3506.52051 C820.604001,3507.11621 820.206056,3507.53369 819.927734,3507.77295 C819.649413,3508.01221 819.407716,3508.13184 819.202637,3508.13184 C818.890135,3508.13184 818.619142,3507.96826 818.389648,3507.64111 C818.160155,3507.31396 818.04541,3506.93555 818.04541,3506.50586 C818.04541,3506.19336 818.162596,3505.48536 818.396973,3504.38184 L818.51416,3503.8252 C818.15283,3504.66504 817.669437,3505.4707 817.063965,3506.24219 C816.048335,3507.53126 815.076665,3508.17578 814.148926,3508.17578 C813.592282,3508.17578 813.152834,3507.97559 812.830566,3507.5752 C812.508299,3507.1748 812.347168,3506.6377 812.347168,3505.96387 C812.347168,3505.04589 812.608396,3504.08399 813.130859,3503.07812 C813.653323,3502.07226 814.30273,3501.24463 815.079102,3500.59521 C815.855473,3499.9458 816.60986,3499.62109 817.342285,3499.62109 C818.113773,3499.62109 818.68994,3499.90429 819.070801,3500.4707 L819.231934,3499.91406 L820.608887,3499.34277 Z M818.924316,3501.21777 C818.807128,3500.84668 818.609376,3500.55615 818.331055,3500.34619 C818.052733,3500.13623 817.732912,3500.03125 817.371582,3500.03125 C816.941892,3500.03125 816.487795,3500.229 816.009277,3500.62451 C815.530759,3501.02002 815.091311,3501.56933 814.690918,3502.27246 C814.378416,3502.8291 814.117189,3503.44433 813.907227,3504.11816 C813.697265,3504.792 813.592285,3505.34863 813.592285,3505.78809 C813.592285,3506.28614 813.687499,3506.67676 813.87793,3506.95996 C814.06836,3507.24317 814.339354,3507.38477 814.690918,3507.38477 C815.140139,3507.38477 815.608884,3507.17481 816.097168,3506.75488 C816.585452,3506.33496 817.068845,3505.73438 817.547363,3504.95312 C817.840333,3504.5039 818.069823,3504.05469 818.23584,3503.60547 C818.401856,3503.15625 818.587401,3502.53125 818.79248,3501.73047 L818.924316,3501.21777 Z M821.092285,3513.81543 L823.86084,3500.03125 L825.26709,3499.43066 L824.300293,3503.63477 C825.022953,3502.17968 825.704098,3501.13233 826.34375,3500.49268 C826.983402,3499.85302 827.684078,3499.5332 828.445801,3499.5332 C829.031741,3499.5332 829.495604,3499.74804 829.837402,3500.17773 C830.179201,3500.60742 830.350098,3501.19824 830.350098,3501.9502 C830.350098,3502.71192 830.196291,3503.49316 829.888672,3504.29395 C829.581053,3505.09473 829.148929,3505.82226 828.592285,3506.47656 C827.586421,3507.68751 826.478033,3508.29297 825.26709,3508.29297 C824.505367,3508.29297 823.880374,3508.09278 823.39209,3507.69238 L821.883301,3513.81543 L821.092285,3513.81543 Z M823.611816,3506.72559 C824.021975,3507.52637 824.598141,3507.92676 825.340332,3507.92676 C826.414556,3507.92676 827.352047,3507.05274 828.152832,3505.30469 C828.807132,3503.89843 829.134277,3502.7168 829.134277,3501.75977 C829.134277,3501.24218 829.036622,3500.8418 828.841309,3500.55859 C828.645995,3500.27539 828.367678,3500.13379 828.006348,3500.13379 C827.420407,3500.13379 826.805179,3500.51953 826.160645,3501.29102 C825.545407,3502.05274 825.022951,3502.90234 824.593262,3503.83984 C824.427245,3504.21094 824.273438,3504.60644 824.131836,3505.02637 C823.990234,3505.44629 823.855958,3505.87597 823.729004,3506.31543 L823.611816,3506.72559 Z M831.565918,3505.1875 C831.565918,3504.30859 831.802732,3503.43213 832.276367,3502.55811 C832.750002,3501.68408 833.362789,3500.97364 834.114746,3500.42676 C834.866703,3499.87988 835.633297,3499.60645 836.414551,3499.60645 C837.234867,3499.60645 837.896482,3499.87744 838.399414,3500.41943 C838.902346,3500.96143 839.153809,3501.66211 839.153809,3502.52148 C839.153809,3503.45899 838.921877,3504.36718 838.458008,3505.24609 C837.994138,3506.125 837.383793,3506.84521 836.626953,3507.40674 C835.870113,3507.96826 835.105961,3508.24902 834.334473,3508.24902 C833.50439,3508.24902 832.835452,3507.96826 832.327637,3507.40674 C831.819822,3506.84521 831.565918,3506.10547 831.565918,3505.1875 Z M837.835449,3501.96484 C837.835449,3501.3789 837.691408,3500.89551 837.40332,3500.51465 C837.115233,3500.13379 836.746584,3499.94336 836.297363,3499.94336 C835.887205,3499.94336 835.494143,3500.07519 835.118164,3500.33887 C834.742186,3500.60254 834.397951,3500.98828 834.085449,3501.49609 C833.733885,3502.08203 833.443361,3502.76562 833.213867,3503.54688 C832.984374,3504.32813 832.869629,3505.02148 832.869629,3505.62695 C832.869629,3506.34961 833.011229,3506.90625 833.294434,3507.29688 C833.577638,3507.6875 833.982908,3507.88281 834.510254,3507.88281 C835.359868,3507.88281 836.10693,3507.292 836.751465,3506.11035 C837.083498,3505.50488 837.347167,3504.82618 837.54248,3504.07422 C837.737794,3503.32226 837.835449,3502.61914 837.835449,3501.96484 Z M842.449707,3503.62012 C843.133304,3502.30175 843.85107,3501.32032 844.603027,3500.67578 C845.354984,3500.03125 846.092282,3499.70898 846.814941,3499.70898 C847.137209,3499.70898 847.405761,3499.75781 847.620605,3499.85547 C847.83545,3499.95313 848.008788,3500.08984 848.140625,3500.26562 C848.272462,3500.44141 848.365234,3500.65137 848.418945,3500.89551 C848.472657,3501.13965 848.499512,3501.41308 848.499512,3501.71582 C848.499512,3502.12598 848.440919,3502.57275 848.32373,3503.05615 C848.206542,3503.53955 848.040528,3504.02295 847.825684,3504.50635 C847.610839,3504.98975 847.352052,3505.45605 847.049316,3505.90527 C846.746581,3506.35449 846.40967,3506.75244 846.038574,3507.09912 C845.667479,3507.4458 845.264651,3507.72412 844.830078,3507.93408 C844.395506,3508.14404 843.94385,3508.24902 843.475098,3508.24902 C843.299316,3508.24902 843.089357,3508.22217 842.845215,3508.16846 C842.601073,3508.11475 842.369142,3507.98535 842.149414,3507.78027 C841.929686,3507.57519 841.744141,3507.26758 841.592773,3506.85742 C841.441405,3506.44726 841.365723,3505.88086 841.365723,3505.1582 C841.365723,3504.54297 841.409668,3503.88379 841.497559,3503.18066 C841.58545,3502.47754 841.731933,3501.667 841.937012,3500.74902 C841.810058,3500.76855 841.644044,3500.78564 841.438965,3500.80029 C841.233886,3500.81494 841.033692,3500.82227 840.838379,3500.82227 L840.896973,3500.42676 C841.08252,3500.42676 841.285155,3500.41699 841.504883,3500.39746 C841.72461,3500.37793 841.907714,3500.34375 842.054199,3500.29492 C842.386232,3498.94726 842.798826,3497.64844 843.291992,3496.39844 C843.785159,3495.14843 844.332028,3494.04004 844.932617,3493.07324 C845.533206,3492.10644 846.170407,3491.33252 846.844238,3490.75146 C847.51807,3490.17041 848.196774,3489.87988 848.880371,3489.87988 C849.163576,3489.87988 849.405272,3489.93115 849.605469,3490.03369 C849.805665,3490.13623 849.966796,3490.27051 850.088867,3490.43652 C850.210938,3490.60254 850.301269,3490.79541 850.359863,3491.01514 C850.418457,3491.23486 850.447754,3491.46191 850.447754,3491.69629 C850.447754,3492.2334 850.347657,3492.78515 850.147461,3493.35156 C849.947265,3493.91797 849.668947,3494.47949 849.3125,3495.03613 C848.956053,3495.59278 848.541018,3496.13476 848.067383,3496.66211 C847.593748,3497.18946 847.083499,3497.68994 846.536621,3498.16357 C845.989743,3498.63721 845.420901,3499.07178 844.830078,3499.46729 C844.239255,3499.86279 843.655765,3500.20215 843.07959,3500.48535 C843.020996,3500.70996 842.962403,3500.9541 842.903809,3501.21777 C842.845215,3501.48145 842.786621,3501.75244 842.728027,3502.03076 C842.669433,3502.30908 842.615723,3502.58496 842.566895,3502.8584 C842.518066,3503.13184 842.479004,3503.38574 842.449707,3503.62012 Z M842.449707,3506.08105 C842.449707,3506.27637 842.461914,3506.479 842.486328,3506.68896 C842.510742,3506.89893 842.55957,3507.0918 842.632812,3507.26758 C842.706055,3507.44336 842.808593,3507.58984 842.94043,3507.70703 C843.072266,3507.82422 843.240722,3507.88281 843.445801,3507.88281 C843.797365,3507.88281 844.134276,3507.77783 844.456543,3507.56787 C844.77881,3507.35791 845.0791,3507.07959 845.357422,3506.73291 C845.635744,3506.38623 845.887206,3505.99072 846.111816,3505.54639 C846.336427,3505.10205 846.529296,3504.64551 846.69043,3504.17676 C846.851563,3503.70801 846.976074,3503.24903 847.063965,3502.7998 C847.151856,3502.35058 847.195801,3501.9502 847.195801,3501.59863 C847.195801,3501.12988 847.122559,3500.79297 846.976074,3500.58789 C846.829589,3500.38281 846.595216,3500.28027 846.272949,3500.28027 C846.058104,3500.28027 845.813966,3500.35596 845.540527,3500.50732 C845.267088,3500.65869 844.988771,3500.86621 844.705566,3501.12988 C844.422362,3501.39356 844.144044,3501.70849 843.870605,3502.07471 C843.597167,3502.44092 843.35547,3502.83887 843.145508,3503.26855 C842.935546,3503.69824 842.76709,3504.15234 842.640137,3504.63086 C842.513183,3505.10938 842.449707,3505.59277 842.449707,3506.08105 Z M843.211426,3499.9873 C844.090336,3499.51855 844.908199,3498.95459 845.665039,3498.29541 C846.421879,3497.63623 847.07861,3496.93067 847.635254,3496.17871 C848.191897,3495.42675 848.626463,3494.65772 848.938965,3493.87158 C849.251466,3493.08545 849.407715,3492.33594 849.407715,3491.62305 C849.407715,3491.14453 849.344239,3490.80029 849.217285,3490.59033 C849.090331,3490.38037 848.865724,3490.27539 848.543457,3490.27539 C848.250487,3490.27539 847.957521,3490.38525 847.664551,3490.60498 C847.371581,3490.82471 847.083498,3491.12012 846.800293,3491.49121 C846.517088,3491.86231 846.241212,3492.29199 845.972656,3492.78027 C845.7041,3493.26856 845.447755,3493.78369 845.203613,3494.32568 C844.959471,3494.86768 844.732423,3495.41699 844.522461,3495.97363 C844.312499,3496.53028 844.122071,3497.06006 843.951172,3497.56299 C843.780273,3498.06592 843.631348,3498.52734 843.504395,3498.94727 C843.377441,3499.36719 843.279785,3499.71387 843.211426,3499.9873 Z M855.047363,3508.14648 L856.600098,3500.03125 L857.991699,3499.43066 L856.731934,3504.80664 C857.542485,3503.09765 858.348141,3501.79883 859.148926,3500.91016 C859.949711,3500.02148 860.716305,3499.57715 861.44873,3499.57715 C861.81006,3499.57715 862.103026,3499.69678 862.327637,3499.93604 C862.552247,3500.17529 862.664551,3500.49512 862.664551,3500.89551 C862.664551,3501.12012 862.61084,3501.4375 862.503418,3501.84766 L862.356934,3502.46289 L861.91748,3504.25 L861.770996,3504.82129 C861.624511,3505.40723 861.55127,3505.85644 861.55127,3506.16895 C861.55127,3506.48145 861.60498,3506.73291 861.712402,3506.92334 C861.819825,3507.11377 861.961425,3507.20898 862.137207,3507.20898 C862.439943,3507.20898 862.923337,3506.84766 863.587402,3506.125 L863.821777,3506.33008 L863.675293,3506.49121 C863.11865,3507.14551 862.708497,3507.5874 862.444824,3507.81689 C862.181151,3508.04639 861.937013,3508.16113 861.712402,3508.16113 C861.409666,3508.16113 861.153321,3508.00733 860.943359,3507.69971 C860.733397,3507.39209 860.628418,3507.00879 860.628418,3506.5498 C860.628418,3506.2373 860.687011,3505.77344 860.804199,3505.1582 L861.375488,3502.05273 C861.453614,3501.56445 861.492676,3501.22266 861.492676,3501.02734 C861.492676,3500.82226 861.438965,3500.66602 861.331543,3500.55859 C861.224121,3500.45117 861.077638,3500.39746 860.89209,3500.39746 C860.218258,3500.39746 859.388189,3501.12011 858.401855,3502.56543 C857.923337,3503.25879 857.527834,3503.94482 857.215332,3504.62354 C856.90283,3505.30225 856.551271,3506.24218 856.160645,3507.44336 L856.028809,3507.83887 L855.047363,3508.14648 Z M864.627441,3505.1875 C864.627441,3504.30859 864.864255,3503.43213 865.337891,3502.55811 C865.811526,3501.68408 866.424313,3500.97364 867.17627,3500.42676 C867.928226,3499.87988 868.69482,3499.60645 869.476074,3499.60645 C870.296391,3499.60645 870.958005,3499.87744 871.460938,3500.41943 C871.96387,3500.96143 872.215332,3501.66211 872.215332,3502.52148 C872.215332,3503.45899 871.983401,3504.36718 871.519531,3505.24609 C871.055662,3506.125 870.445316,3506.84521 869.688477,3507.40674 C868.931637,3507.96826 868.167484,3508.24902 867.395996,3508.24902 C866.565914,3508.24902 865.896975,3507.96826 865.38916,3507.40674 C864.881345,3506.84521 864.627441,3506.10547 864.627441,3505.1875 Z M870.896973,3501.96484 C870.896973,3501.3789 870.752931,3500.89551 870.464844,3500.51465 C870.176756,3500.13379 869.808108,3499.94336 869.358887,3499.94336 C868.948728,3499.94336 868.555666,3500.07519 868.179688,3500.33887 C867.803709,3500.60254 867.459474,3500.98828 867.146973,3501.49609 C866.795408,3502.08203 866.504884,3502.76562 866.275391,3503.54688 C866.045897,3504.32813 865.931152,3505.02148 865.931152,3505.62695 C865.931152,3506.34961 866.072752,3506.90625 866.355957,3507.29688 C866.639162,3507.6875 867.044431,3507.88281 867.571777,3507.88281 C868.421391,3507.88281 869.168454,3507.292 869.812988,3506.11035 C870.145021,3505.50488 870.40869,3504.82618 870.604004,3504.07422 C870.799317,3503.32226 870.896973,3502.61914 870.896973,3501.96484 Z M759.50293,3544.14648 L761.055664,3536.03125 L762.447266,3535.43066 L761.1875,3540.80664 C761.998051,3539.09765 762.803707,3537.79883 763.604492,3536.91016 C764.405277,3536.02148 765.171871,3535.57715 765.904297,3535.57715 C766.265627,3535.57715 766.558593,3535.69678 766.783203,3535.93604 C767.007814,3536.17529 767.120117,3536.49512 767.120117,3536.89551 C767.120117,3537.12012 767.066407,3537.4375 766.958984,3537.84766 L766.8125,3538.46289 L766.373047,3540.25 L766.226562,3540.82129 C766.080077,3541.40723 766.006836,3541.85644 766.006836,3542.16895 C766.006836,3542.48145 766.060546,3542.73291 766.167969,3542.92334 C766.275391,3543.11377 766.416991,3543.20898 766.592773,3543.20898 C766.895509,3543.20898 767.378903,3542.84766 768.042969,3542.125 L768.277344,3542.33008 L768.130859,3542.49121 C767.574216,3543.14551 767.164064,3543.5874 766.900391,3543.81689 C766.636717,3544.04639 766.392579,3544.16113 766.167969,3544.16113 C765.865233,3544.16113 765.608888,3544.00733 765.398926,3543.69971 C765.188964,3543.39209 765.083984,3543.00879 765.083984,3542.5498 C765.083984,3542.2373 765.142578,3541.77344 765.259766,3541.1582 L765.831055,3538.05273 C765.90918,3537.56445 765.948242,3537.22266 765.948242,3537.02734 C765.948242,3536.82226 765.894532,3536.66602 765.787109,3536.55859 C765.679687,3536.45117 765.533204,3536.39746 765.347656,3536.39746 C764.673825,3536.39746 763.843755,3537.12011 762.857422,3538.56543 C762.378904,3539.25879 761.9834,3539.94482 761.670898,3540.62354 C761.358397,3541.30225 761.006838,3542.24218 760.616211,3543.44336 L760.484375,3543.83887 L759.50293,3544.14648 Z M777.344727,3535.34277 L775.967773,3540.7041 C775.821288,3541.29004 775.748047,3541.74902 775.748047,3542.08105 C775.748047,3542.37402 775.811523,3542.62793 775.938477,3542.84277 C776.06543,3543.05762 776.221679,3543.16504 776.407227,3543.16504 C776.690431,3543.16504 777.159176,3542.81836 777.813477,3542.125 L778.018555,3542.33008 L777.857422,3542.52051 C777.339841,3543.11621 776.941896,3543.53369 776.663574,3543.77295 C776.385253,3544.01221 776.143556,3544.13184 775.938477,3544.13184 C775.625975,3544.13184 775.354982,3543.96826 775.125488,3543.64111 C774.895995,3543.31396 774.78125,3542.93555 774.78125,3542.50586 C774.78125,3542.19336 774.898436,3541.48536 775.132812,3540.38184 L775.25,3539.8252 C774.88867,3540.66504 774.405276,3541.4707 773.799805,3542.24219 C772.784175,3543.53126 771.812505,3544.17578 770.884766,3544.17578 C770.328122,3544.17578 769.888673,3543.97559 769.566406,3543.5752 C769.244139,3543.1748 769.083008,3542.6377 769.083008,3541.96387 C769.083008,3541.04589 769.344236,3540.08399 769.866699,3539.07812 C770.389163,3538.07226 771.03857,3537.24463 771.814941,3536.59521 C772.591312,3535.9458 773.345699,3535.62109 774.078125,3535.62109 C774.849613,3535.62109 775.425779,3535.90429 775.806641,3536.4707 L775.967773,3535.91406 L777.344727,3535.34277 Z M775.660156,3537.21777 C775.542968,3536.84668 775.345216,3536.55615 775.066895,3536.34619 C774.788573,3536.13623 774.468752,3536.03125 774.107422,3536.03125 C773.677732,3536.03125 773.223635,3536.229 772.745117,3536.62451 C772.266599,3537.02002 771.82715,3537.56933 771.426758,3538.27246 C771.114256,3538.8291 770.853028,3539.44433 770.643066,3540.11816 C770.433104,3540.792 770.328125,3541.34863 770.328125,3541.78809 C770.328125,3542.28614 770.423339,3542.67676 770.61377,3542.95996 C770.8042,3543.24317 771.075194,3543.38477 771.426758,3543.38477 C771.875979,3543.38477 772.344724,3543.17481 772.833008,3542.75488 C773.321292,3542.33496 773.804685,3541.73438 774.283203,3540.95312 C774.576173,3540.5039 774.805663,3540.05469 774.97168,3539.60547 C775.137696,3539.15625 775.323241,3538.53125 775.52832,3537.73047 L775.660156,3537.21777 Z M786.851562,3535.63574 C786.695312,3536.17285 786.521974,3536.75146 786.331543,3537.37158 C786.141112,3537.9917 785.953126,3538.6582 785.767578,3539.37109 C785.58203,3540.08399 785.430665,3540.67236 785.313477,3541.13623 C785.196288,3541.6001 785.137695,3541.94433 785.137695,3542.16895 C785.137695,3542.48145 785.191406,3542.73291 785.298828,3542.92334 C785.406251,3543.11377 785.547851,3543.20898 785.723633,3543.20898 C786.026369,3543.20898 786.509762,3542.84766 787.173828,3542.125 L787.408203,3542.33008 L787.261719,3542.49121 C786.978514,3542.82324 786.736817,3543.09912 786.536621,3543.31885 C786.336425,3543.53858 786.167969,3543.70703 786.03125,3543.82422 C785.757811,3544.04883 785.513673,3544.16113 785.298828,3544.16113 C784.996092,3544.16113 784.739747,3544.00977 784.529785,3543.70703 C784.319823,3543.4043 784.214844,3543.01856 784.214844,3542.5498 C784.214844,3542.2373 784.273437,3541.77344 784.390625,3541.1582 L785.386719,3536.17773 L784.463867,3536.36816 C784.268554,3536.40723 784.092774,3536.49268 783.936523,3536.62451 C783.780273,3536.75635 783.609376,3536.98096 783.423828,3537.29834 C783.23828,3537.61572 783.02588,3538.05273 782.786621,3538.60938 C782.547362,3539.16602 782.247072,3539.88378 781.885742,3540.7627 C781.758788,3541.06543 781.604981,3541.40478 781.424316,3541.78076 C781.243651,3542.15674 781.036134,3542.5083 780.801758,3542.83545 C780.567382,3543.1626 780.311037,3543.43848 780.032715,3543.66309 C779.754393,3543.8877 779.463869,3544 779.161133,3544 C779.063476,3544 778.956055,3543.99512 778.838867,3543.98535 C778.721679,3543.97559 778.609376,3543.95605 778.501953,3543.92676 L778.912109,3542.35938 C779.107423,3542.52539 779.346678,3542.6084 779.629883,3542.6084 C779.932619,3542.6084 780.237791,3542.4668 780.54541,3542.18359 C780.853029,3541.90039 781.148436,3541.43653 781.431641,3540.79199 C781.597657,3540.4209 781.763671,3540.01563 781.929688,3539.57617 C782.095704,3539.13672 782.24707,3538.7168 782.383789,3538.31641 C782.520508,3537.91601 782.630371,3537.55713 782.713379,3537.23975 C782.796387,3536.92236 782.842773,3536.69531 782.852539,3536.55859 L781.285156,3536.67578 L781.607422,3536.19238 L786.851562,3535.63574 Z M792.886719,3538.28711 C793.111329,3538.28711 793.311523,3538.30664 793.487305,3538.3457 C793.663087,3538.38477 793.814452,3538.45801 793.941406,3538.56543 C794.06836,3538.67285 794.163574,3538.82178 794.227051,3539.01221 C794.290528,3539.20264 794.322266,3539.44433 794.322266,3539.7373 C794.322266,3540.22559 794.197755,3540.73095 793.94873,3541.25342 C793.699706,3541.77588 793.379885,3542.25195 792.989258,3542.68164 C792.598631,3543.11133 792.161624,3543.46533 791.678223,3543.74365 C791.194822,3544.02197 790.723635,3544.16113 790.264648,3544.16113 C789.766599,3544.16113 789.368654,3544.01709 789.070801,3543.729 C788.772948,3543.44092 788.624023,3543.05762 788.624023,3542.5791 C788.624023,3542.2373 788.677734,3541.78321 788.785156,3541.2168 L789.78125,3536.03125 L791.158203,3535.43066 L789.839844,3540.55762 C790.36719,3539.7666 790.894529,3539.19043 791.421875,3538.8291 C791.949221,3538.46777 792.437498,3538.28711 792.886719,3538.28711 Z M789.59082,3542.38867 C789.59082,3542.73047 789.698241,3543.01855 789.913086,3543.25293 C790.127931,3543.48731 790.430662,3543.60449 790.821289,3543.60449 C791.075197,3543.60449 791.338866,3543.52637 791.612305,3543.37012 C791.885744,3543.21387 792.137206,3542.98682 792.366699,3542.68896 C792.596193,3542.39111 792.78662,3542.02002 792.937988,3541.57568 C793.089356,3541.13135 793.165039,3540.6211 793.165039,3540.04492 C793.165039,3539.69336 793.11377,3539.41748 793.01123,3539.21729 C792.908691,3539.01709 792.715822,3538.91699 792.432617,3538.91699 C792.237304,3538.91699 792.024903,3538.96582 791.79541,3539.06348 C791.565917,3539.16113 791.331544,3539.31494 791.092285,3539.5249 C790.853026,3539.73486 790.613771,3540.00097 790.374512,3540.32324 C790.135253,3540.64551 789.908204,3541.03125 789.693359,3541.48047 C789.625,3541.8125 789.59082,3542.11523 789.59082,3542.38867 Z M802.217773,3543.20898 C802.374024,3543.20898 802.583983,3543.12842 802.847656,3542.96729 C803.111329,3542.80615 803.384764,3542.52539 803.667969,3542.125 L803.990234,3542.46191 C803.853515,3542.97949 803.714356,3543.53125 803.572754,3544.11719 C803.431152,3544.70313 803.279786,3545.29638 803.118652,3545.89697 C802.957519,3546.49756 802.784181,3547.09326 802.598633,3547.68408 C802.413085,3548.27491 802.203126,3548.83398 801.96875,3549.36133 L800.738281,3549.36133 C800.962892,3548.9707 801.202147,3548.5044 801.456055,3547.9624 C801.709962,3547.42041 801.963866,3546.84668 802.217773,3546.24121 C802.471681,3545.63574 802.713378,3545.02295 802.942871,3544.40283 C803.172364,3543.78271 803.374999,3543.2041 803.550781,3542.66699 C803.228514,3543.08692 802.911134,3543.44092 802.598633,3543.729 C802.286131,3544.01709 802.017579,3544.16113 801.792969,3544.16113 C801.490233,3544.16113 801.233888,3544.00977 801.023926,3543.70703 C800.813964,3543.4043 800.708984,3543.01856 800.708984,3542.5498 L800.708984,3542.3374 C800.708984,3542.27393 800.713867,3542.20801 800.723633,3542.13965 C799.708003,3543.48731 798.702153,3544.16113 797.706055,3544.16113 C797.208005,3544.16113 796.81006,3544.01709 796.512207,3543.729 C796.214354,3543.44092 796.06543,3543.05762 796.06543,3542.5791 C796.06543,3542.2373 796.11914,3541.78321 796.226562,3541.2168 L797.222656,3536.03125 L798.643555,3535.43066 L797.222656,3541.09961 C797.095702,3541.59766 797.032227,3542.02734 797.032227,3542.38867 C797.032227,3542.73047 797.139647,3543.00391 797.354492,3543.20898 C797.569337,3543.41406 797.847655,3543.5166 798.189453,3543.5166 C798.609377,3543.5166 799.036619,3543.3457 799.471191,3543.00391 C799.905764,3542.66211 800.362302,3542.125 800.84082,3541.39258 L801.807617,3536.03125 L803.243164,3535.43066 L801.954102,3540.25 C801.739257,3541.02149 801.631836,3541.65625 801.631836,3542.1543 C801.631836,3542.4668 801.685546,3542.7207 801.792969,3542.91602 C801.900391,3543.11133 802.041991,3543.20898 802.217773,3543.20898 Z M804.019531,3549.2002 L804.737305,3548.2334 C805.303714,3548.83887 805.943356,3549.1416 806.65625,3549.1416 C807.408207,3549.1416 808.01367,3548.84375 808.472656,3548.24805 C808.931643,3547.65234 809.307616,3546.67579 809.600586,3545.31836 L810.274414,3542.28613 C809.20019,3543.5459 808.22852,3544.17578 807.359375,3544.17578 C806.85156,3544.17578 806.453615,3544.01953 806.165527,3543.70703 C805.87744,3543.39453 805.733398,3542.97461 805.733398,3542.44727 C805.733398,3542.0957 805.777343,3541.70996 805.865234,3541.29004 L806.861328,3536.03125 L808.282227,3535.43066 L806.861328,3541.33398 C806.74414,3541.8125 806.685547,3542.16894 806.685547,3542.40332 C806.685547,3542.73535 806.785644,3543.00635 806.98584,3543.21631 C807.186036,3543.42627 807.452147,3543.53125 807.78418,3543.53125 C808.14551,3543.53125 808.543455,3543.37256 808.978027,3543.05518 C809.4126,3542.73779 809.898435,3542.26172 810.435547,3541.62695 L811.695312,3536.03125 L813.072266,3535.43066 L810.933594,3544.04395 C810.679686,3545.07911 810.437989,3545.88965 810.208496,3546.47559 C809.979003,3547.06153 809.712892,3547.5498 809.410156,3547.94043 C808.45312,3549.1709 807.28614,3549.78613 805.90918,3549.78613 C805.108394,3549.78613 804.478518,3549.59082 804.019531,3549.2002 Z M828.599609,3535.9873 L830.181641,3535.50391 L829.024414,3540.07422 C828.877929,3540.65039 828.777832,3541.10205 828.724121,3541.4292 C828.67041,3541.75635 828.643555,3541.99805 828.643555,3542.1543 C828.643555,3542.4668 828.697265,3542.71826 828.804688,3542.90869 C828.91211,3543.09912 829.05371,3543.19434 829.229492,3543.19434 C829.532228,3543.19434 830.015622,3542.83301 830.679688,3542.11035 L830.914062,3542.31543 L830.767578,3542.47656 C830.484374,3542.8086 830.242677,3543.08447 830.04248,3543.3042 C829.842284,3543.52393 829.673829,3543.69238 829.537109,3543.80957 C829.263671,3544.03418 829.019532,3544.14648 828.804688,3544.14648 C828.501952,3544.14648 828.245607,3543.99512 828.035645,3543.69238 C827.825683,3543.38965 827.720703,3543.00391 827.720703,3542.53516 C827.720703,3542.31055 827.752441,3541.99072 827.815918,3541.57568 C827.879395,3541.16064 827.962402,3540.68946 828.064941,3540.16211 C828.167481,3539.63476 828.277343,3539.07325 828.394531,3538.47754 C828.511719,3537.88183 828.624023,3537.29102 828.731445,3536.70508 L824.307617,3544 L823.853516,3544 L823.326172,3536.4707 C822.955076,3537.79883 822.603517,3538.93896 822.271484,3539.89111 C821.939451,3540.84327 821.614748,3541.62207 821.297363,3542.22754 C820.979979,3542.83301 820.669923,3543.27978 820.367188,3543.56787 C820.064452,3543.85596 819.76172,3544 819.458984,3544 C819.361328,3544 819.236817,3543.99512 819.085449,3543.98535 C818.934081,3543.97559 818.804688,3543.95605 818.697266,3543.92676 L819.107422,3542.44727 C819.205079,3542.52539 819.339355,3542.58643 819.510254,3542.63037 C819.681153,3542.67432 819.844726,3542.69629 820.000977,3542.69629 C820.186524,3542.69629 820.359862,3542.62793 820.520996,3542.49121 C820.68213,3542.35449 820.835937,3542.17383 820.982422,3541.94922 C821.128907,3541.72461 821.268066,3541.46094 821.399902,3541.1582 C821.531739,3540.85547 821.651367,3540.53809 821.758789,3540.20605 C822.012697,3539.4248 822.188476,3538.76563 822.286133,3538.22852 C822.38379,3537.6914 822.432617,3537.23731 822.432617,3536.86621 C822.432617,3536.75879 822.427734,3536.6416 822.417969,3536.51465 C822.408203,3536.38769 822.383789,3536.24609 822.344727,3536.08984 L824.366211,3535.48926 L824.761719,3542.49121 L828.599609,3535.9873 Z M831.719727,3541.1875 C831.719727,3540.30859 831.956541,3539.43213 832.430176,3538.55811 C832.903811,3537.68408 833.516598,3536.97364 834.268555,3536.42676 C835.020512,3535.87988 835.787105,3535.60645 836.568359,3535.60645 C837.388676,3535.60645 838.05029,3535.87744 838.553223,3536.41943 C839.056155,3536.96143 839.307617,3537.66211 839.307617,3538.52148 C839.307617,3539.45899 839.075686,3540.36718 838.611816,3541.24609 C838.147947,3542.125 837.537601,3542.84521 836.780762,3543.40674 C836.023922,3543.96826 835.259769,3544.24902 834.488281,3544.24902 C833.658199,3544.24902 832.98926,3543.96826 832.481445,3543.40674 C831.97363,3542.84521 831.719727,3542.10547 831.719727,3541.1875 Z M837.989258,3537.96484 C837.989258,3537.3789 837.845216,3536.89551 837.557129,3536.51465 C837.269042,3536.13379 836.900393,3535.94336 836.451172,3535.94336 C836.041014,3535.94336 835.647951,3536.07519 835.271973,3536.33887 C834.895994,3536.60254 834.551759,3536.98828 834.239258,3537.49609 C833.887694,3538.08203 833.597169,3538.76562 833.367676,3539.54688 C833.138182,3540.32813 833.023438,3541.02148 833.023438,3541.62695 C833.023438,3542.34961 833.165038,3542.90625 833.448242,3543.29688 C833.731447,3543.6875 834.136716,3543.88281 834.664062,3543.88281 C835.513676,3543.88281 836.260739,3543.292 836.905273,3542.11035 C837.237306,3541.50488 837.500976,3540.82618 837.696289,3540.07422 C837.891603,3539.32226 837.989258,3538.61914 837.989258,3537.96484 Z M848.521484,3535.63574 C848.365234,3536.17285 848.191895,3536.75146 848.001465,3537.37158 C847.811034,3537.9917 847.623048,3538.6582 847.4375,3539.37109 C847.251952,3540.08399 847.100587,3540.67236 846.983398,3541.13623 C846.86621,3541.6001 846.807617,3541.94433 846.807617,3542.16895 C846.807617,3542.48145 846.861328,3542.73291 846.96875,3542.92334 C847.076172,3543.11377 847.217773,3543.20898 847.393555,3543.20898 C847.696291,3543.20898 848.179684,3542.84766 848.84375,3542.125 L849.078125,3542.33008 L848.931641,3542.49121 C848.648436,3542.82324 848.406739,3543.09912 848.206543,3543.31885 C848.006347,3543.53858 847.837891,3543.70703 847.701172,3543.82422 C847.427733,3544.04883 847.183595,3544.16113 846.96875,3544.16113 C846.666014,3544.16113 846.409669,3544.00977 846.199707,3543.70703 C845.989745,3543.4043 845.884766,3543.01856 845.884766,3542.5498 C845.884766,3542.2373 845.943359,3541.77344 846.060547,3541.1582 L847.056641,3536.17773 L846.133789,3536.36816 C845.938476,3536.40723 845.762696,3536.49268 845.606445,3536.62451 C845.450195,3536.75635 845.279298,3536.98096 845.09375,3537.29834 C844.908202,3537.61572 844.695802,3538.05273 844.456543,3538.60938 C844.217284,3539.16602 843.916994,3539.88378 843.555664,3540.7627 C843.42871,3541.06543 843.274903,3541.40478 843.094238,3541.78076 C842.913573,3542.15674 842.706056,3542.5083 842.47168,3542.83545 C842.237304,3543.1626 841.980958,3543.43848 841.702637,3543.66309 C841.424315,3543.8877 841.133791,3544 840.831055,3544 C840.733398,3544 840.625977,3543.99512 840.508789,3543.98535 C840.391601,3543.97559 840.279297,3543.95605 840.171875,3543.92676 L840.582031,3542.35938 C840.777345,3542.52539 841.0166,3542.6084 841.299805,3542.6084 C841.602541,3542.6084 841.907713,3542.4668 842.215332,3542.18359 C842.522951,3541.90039 842.818358,3541.43653 843.101562,3540.79199 C843.267579,3540.4209 843.433593,3540.01563 843.599609,3539.57617 C843.765626,3539.13672 843.916992,3538.7168 844.053711,3538.31641 C844.19043,3537.91601 844.300293,3537.55713 844.383301,3537.23975 C844.466309,3536.92236 844.512695,3536.69531 844.522461,3536.55859 L842.955078,3536.67578 L843.277344,3536.19238 L848.521484,3535.63574 Z M849.898438,3541.1875 C849.898438,3540.30859 850.135252,3539.43213 850.608887,3538.55811 C851.082522,3537.68408 851.695309,3536.97364 852.447266,3536.42676 C853.199223,3535.87988 853.965816,3535.60645 854.74707,3535.60645 C855.567387,3535.60645 856.229001,3535.87744 856.731934,3536.41943 C857.234866,3536.96143 857.486328,3537.66211 857.486328,3538.52148 C857.486328,3539.45899 857.254397,3540.36718 856.790527,3541.24609 C856.326658,3542.125 855.716312,3542.84521 854.959473,3543.40674 C854.202633,3543.96826 853.43848,3544.24902 852.666992,3544.24902 C851.83691,3544.24902 851.167971,3543.96826 850.660156,3543.40674 C850.152341,3542.84521 849.898438,3542.10547 849.898438,3541.1875 Z M856.167969,3537.96484 C856.167969,3537.3789 856.023927,3536.89551 855.73584,3536.51465 C855.447752,3536.13379 855.079104,3535.94336 854.629883,3535.94336 C854.219725,3535.94336 853.826662,3536.07519 853.450684,3536.33887 C853.074705,3536.60254 852.73047,3536.98828 852.417969,3537.49609 C852.066404,3538.08203 851.77588,3538.76562 851.546387,3539.54688 C851.316893,3540.32813 851.202148,3541.02148 851.202148,3541.62695 C851.202148,3542.34961 851.343749,3542.90625 851.626953,3543.29688 C851.910158,3543.6875 852.315427,3543.88281 852.842773,3543.88281 C853.692387,3543.88281 854.43945,3543.292 855.083984,3542.11035 C855.416017,3541.50488 855.679687,3540.82618 855.875,3540.07422 C856.070313,3539.32226 856.167969,3538.61914 856.167969,3537.96484 Z M864.59082,3543.83887 L863.624023,3544.14648 L864.78125,3538.18457 L864.883789,3537.67188 C864.942383,3537.38867 864.97168,3537.1543 864.97168,3536.96875 C864.97168,3536.53906 864.800783,3536.32422 864.458984,3536.32422 C864.136717,3536.32422 863.746096,3536.5415 863.287109,3536.97607 C862.828123,3537.41065 862.344729,3538.03808 861.836914,3538.8584 C861.504881,3539.38574 861.219239,3539.89355 860.97998,3540.38184 C860.740721,3540.87012 860.520997,3541.39013 860.320801,3541.94189 C860.120604,3542.49366 859.927735,3543.12597 859.742188,3543.83887 L858.833984,3544.14648 L860.342773,3536.03125 L861.749023,3535.43066 L860.474609,3540.74805 C861.12891,3539.23437 861.878414,3537.9917 862.723145,3537.02002 C863.567875,3536.04833 864.327145,3535.5625 865.000977,3535.5625 C865.733402,3535.5625 866.099609,3535.97753 866.099609,3536.80762 C866.099609,3537.09082 866.026368,3537.59375 865.879883,3538.31641 L865.396484,3540.49902 C866.343755,3538.68261 867.144528,3537.40088 867.798828,3536.65381 C868.453128,3535.90673 869.102536,3535.5332 869.74707,3535.5332 C870.1084,3535.5332 870.391601,3535.64062 870.59668,3535.85547 C870.801759,3536.07031 870.904297,3536.37793 870.904297,3536.77832 C870.904297,3537.10059 870.806642,3537.65722 870.611328,3538.44824 L870.157227,3540.25 L870.010742,3540.82129 C869.874023,3541.42676 869.805664,3541.87598 869.805664,3542.16895 C869.805664,3542.48145 869.859374,3542.73291 869.966797,3542.92334 C870.074219,3543.11377 870.210937,3543.20898 870.376953,3543.20898 C870.689455,3543.20898 871.177731,3542.84766 871.841797,3542.125 L872.061523,3542.33008 L871.929688,3542.49121 C871.373044,3543.14551 870.960451,3543.5874 870.691895,3543.81689 C870.423339,3544.04639 870.176759,3544.16113 869.952148,3544.16113 C869.649413,3544.16113 869.393067,3544.00733 869.183105,3543.69971 C868.973143,3543.39209 868.868164,3543.00879 868.868164,3542.5498 C868.868164,3542.2666 868.93164,3541.80274 869.058594,3541.1582 L869.600586,3538.12598 L869.688477,3537.59863 C869.747071,3537.30566 869.776367,3537.07129 869.776367,3536.89551 C869.776367,3536.71973 869.722657,3536.57813 869.615234,3536.4707 C869.507812,3536.36328 869.361329,3536.30957 869.175781,3536.30957 C868.960936,3536.30957 868.724122,3536.3999 868.465332,3536.58057 C868.206542,3536.76123 867.930666,3537.03711 867.637695,3537.4082 C867.344725,3537.7793 867.01758,3538.26758 866.65625,3538.87305 C866.167966,3539.70313 865.772462,3540.47705 865.469727,3541.19482 C865.166991,3541.9126 864.874025,3542.79394 864.59082,3543.83887 Z M874.537109,3536.03125 L875.928711,3535.43066 L874.654297,3540.86523 C874.898439,3540.42578 875.154784,3539.99854 875.42334,3539.5835 C875.691896,3539.16845 875.965331,3538.77783 876.243652,3538.41162 C876.521974,3538.04541 876.795409,3537.7085 877.063965,3537.40088 C877.332521,3537.09326 877.588866,3536.82715 877.833008,3536.60254 C878.057618,3536.39746 878.260253,3536.22412 878.440918,3536.08252 C878.621583,3535.94092 878.807128,3535.82373 878.997559,3535.73096 C879.187989,3535.63818 879.393065,3535.56982 879.612793,3535.52588 C879.832521,3535.48193 880.093748,3535.4502 880.396484,3535.43066 L880.118164,3536.79297 C879.893554,3536.71484 879.703126,3536.6709 879.546875,3536.66113 C879.390624,3536.65137 879.253907,3536.64648 879.136719,3536.64648 C878.951171,3536.64648 878.743653,3536.69775 878.51416,3536.80029 C878.284667,3536.90283 878.050294,3537.04932 877.811035,3537.23975 C877.571776,3537.43018 877.337403,3537.65478 877.10791,3537.91357 C876.878417,3538.17236 876.666017,3538.46289 876.470703,3538.78516 C876.626954,3539.16602 876.805175,3539.61035 877.005371,3540.11816 C877.205567,3540.62598 877.415526,3541.10937 877.635254,3541.56836 C877.854982,3542.02735 878.072265,3542.41553 878.287109,3542.73291 C878.501954,3543.05029 878.702148,3543.20898 878.887695,3543.20898 C879.317385,3543.20898 879.815427,3542.91114 880.381836,3542.31543 L880.499023,3542.18359 L880.689453,3542.40332 C879.70312,3543.59473 878.985354,3544.19043 878.536133,3544.19043 C878.379882,3544.19043 878.228516,3544.16113 878.082031,3544.10254 C877.935546,3544.04395 877.803712,3543.94141 877.686523,3543.79492 C877.520507,3543.59961 877.364259,3543.35547 877.217773,3543.0625 C877.071288,3542.76953 876.919923,3542.44238 876.763672,3542.08105 C876.607421,3541.71972 876.44629,3541.33643 876.280273,3540.93115 C876.114257,3540.52588 875.933595,3540.1084 875.738281,3539.67871 C875.367186,3540.20606 875.018068,3540.80664 874.690918,3541.48047 C874.363768,3542.1543 874.117188,3542.95019 873.951172,3543.86816 L873.013672,3544.13184 L874.537109,3536.03125 Z M881.626953,3541.1875 C881.626953,3540.30859 881.863767,3539.43213 882.337402,3538.55811 C882.811038,3537.68408 883.423824,3536.97364 884.175781,3536.42676 C884.927738,3535.87988 885.694332,3535.60645 886.475586,3535.60645 C887.295903,3535.60645 887.957517,3535.87744 888.460449,3536.41943 C888.963381,3536.96143 889.214844,3537.66211 889.214844,3538.52148 C889.214844,3539.45899 888.982912,3540.36718 888.519043,3541.24609 C888.055173,3542.125 887.444828,3542.84521 886.687988,3543.40674 C885.931149,3543.96826 885.166996,3544.24902 884.395508,3544.24902 C883.565426,3544.24902 882.896487,3543.96826 882.388672,3543.40674 C881.880857,3542.84521 881.626953,3542.10547 881.626953,3541.1875 Z M887.896484,3537.96484 C887.896484,3537.3789 887.752443,3536.89551 887.464355,3536.51465 C887.176268,3536.13379 886.807619,3535.94336 886.358398,3535.94336 C885.94824,3535.94336 885.555178,3536.07519 885.179199,3536.33887 C884.803221,3536.60254 884.458986,3536.98828 884.146484,3537.49609 C883.79492,3538.08203 883.504396,3538.76562 883.274902,3539.54688 C883.045409,3540.32813 882.930664,3541.02148 882.930664,3541.62695 C882.930664,3542.34961 883.072264,3542.90625 883.355469,3543.29688 C883.638673,3543.6875 884.043943,3543.88281 884.571289,3543.88281 C885.420903,3543.88281 886.167966,3543.292 886.8125,3542.11035 C887.144533,3541.50488 887.408202,3540.82618 887.603516,3540.07422 C887.798829,3539.32226 887.896484,3538.61914 887.896484,3537.96484 Z M899.732422,3535.9873 L901.314453,3535.50391 L900.157227,3540.07422 C900.010741,3540.65039 899.910645,3541.10205 899.856934,3541.4292 C899.803222,3541.75635 899.776367,3541.99805 899.776367,3542.1543 C899.776367,3542.4668 899.830078,3542.71826 899.9375,3542.90869 C900.044922,3543.09912 900.186523,3543.19434 900.362305,3543.19434 C900.665041,3543.19434 901.148434,3542.83301 901.8125,3542.11035 L902.046875,3542.31543 L901.900391,3542.47656 C901.617186,3542.8086 901.375489,3543.08447 901.175293,3543.3042 C900.975097,3543.52393 900.806641,3543.69238 900.669922,3543.80957 C900.396483,3544.03418 900.152345,3544.14648 899.9375,3544.14648 C899.634764,3544.14648 899.378419,3543.99512 899.168457,3543.69238 C898.958495,3543.38965 898.853516,3543.00391 898.853516,3542.53516 C898.853516,3542.31055 898.885254,3541.99072 898.94873,3541.57568 C899.012207,3541.16064 899.095214,3540.68946 899.197754,3540.16211 C899.300293,3539.63476 899.410156,3539.07325 899.527344,3538.47754 C899.644532,3537.88183 899.756835,3537.29102 899.864258,3536.70508 L895.44043,3544 L894.986328,3544 L894.458984,3536.4707 C894.087889,3537.79883 893.73633,3538.93896 893.404297,3539.89111 C893.072264,3540.84327 892.74756,3541.62207 892.430176,3542.22754 C892.112791,3542.83301 891.802736,3543.27978 891.5,3543.56787 C891.197264,3543.85596 890.894533,3544 890.591797,3544 C890.49414,3544 890.36963,3543.99512 890.218262,3543.98535 C890.066894,3543.97559 889.937501,3543.95605 889.830078,3543.92676 L890.240234,3542.44727 C890.337891,3542.52539 890.472167,3542.58643 890.643066,3542.63037 C890.813966,3542.67432 890.977538,3542.69629 891.133789,3542.69629 C891.319337,3542.69629 891.492675,3542.62793 891.653809,3542.49121 C891.814942,3542.35449 891.968749,3542.17383 892.115234,3541.94922 C892.261719,3541.72461 892.400878,3541.46094 892.532715,3541.1582 C892.664551,3540.85547 892.784179,3540.53809 892.891602,3540.20605 C893.145509,3539.4248 893.321289,3538.76563 893.418945,3538.22852 C893.516602,3537.6914 893.56543,3537.23731 893.56543,3536.86621 C893.56543,3536.75879 893.560547,3536.6416 893.550781,3536.51465 C893.541016,3536.38769 893.516602,3536.24609 893.477539,3536.08984 L895.499023,3535.48926 L895.894531,3542.49121 L899.732422,3535.9873 Z" id="Ударов-по-пальцу-мол"></path>
        </g>
    </g>
</svg>