<?xml version="1.0" encoding="UTF-8"?>
<svg width="309px" height="52px" viewBox="0 0 309 52" version="1.1" xmlns="http://www.w3.org/2000/svg" xmlns:xlink="http://www.w3.org/1999/xlink">
    <!-- Generator: Sketch 43.1 (39012) - http://www.bohemiancoding.com/sketch -->
    <title>Тёплые квадраты:</title>
    <desc>Created with Sketch.</desc>
    <defs></defs>
    <g id="Page-1" stroke="none" stroke-width="1" fill="none" fill-rule="evenodd">
        <g id="Главная" transform="translate(-40.000000, -3670.000000)" fill="#000000">
            <path d="M72.9072266,3710 L70.0947266,3710 L76.2763672,3680.43945 L76.4814453,3679.41406 C76.6181647,3678.6914 76.6865234,3678.19336 76.6865234,3677.91992 C76.6865234,3677.54883 76.5888682,3677.24121 76.3935547,3676.99707 C76.1982412,3676.75293 75.9248064,3676.63086 75.5732422,3676.63086 C75.0263645,3676.63086 74.4111362,3676.96289 73.7275391,3677.62695 C73.0439419,3678.29102 72.1845755,3679.40429 71.1494141,3680.9668 C69.5478436,3683.34962 67.7998142,3686.66014 65.9052734,3690.89844 C64.420891,3694.2383 63.1562552,3697.48534 62.1113281,3700.63965 C61.066401,3703.79396 60.2119174,3706.91405 59.5478516,3710 L57.1162109,3710 L63.9130859,3678.18359 C64.1279308,3677.1875 64.2353516,3676.40625 64.2353516,3675.83984 C64.2353516,3675.58594 64.1865239,3675.3418 64.0888672,3675.10742 C63.9912104,3674.87305 63.8593758,3674.69727 63.6933594,3674.58008 C63.5273429,3674.46289 63.3369151,3674.4043 63.1220703,3674.4043 C62.204097,3674.4043 61.0810613,3675.29784 59.7529297,3677.08496 C58.424798,3678.87208 56.8525481,3681.65037 55.0361328,3685.41992 C54.1767535,3687.11915 53.3466837,3688.89648 52.5458984,3690.75195 C51.7451132,3692.60743 51.0322297,3694.33593 50.4072266,3695.9375 C49.7822234,3697.53907 49.0791055,3699.49218 48.2978516,3701.79688 C47.1650334,3705.15627 46.3447291,3707.89061 45.8369141,3710 L43.3759766,3710 L43.4638672,3709.58984 L44.7236328,3704.58008 C45.1728538,3702.66601 45.5634749,3700.9668 45.8955078,3699.48242 C47.4384843,3692.4902 48.5712854,3686.77737 49.2939453,3682.34375 C49.8994171,3678.86717 50.2021484,3676.35743 50.2021484,3674.81445 C50.2021484,3673.68163 50.0312517,3672.80762 49.6894531,3672.19238 C49.3476545,3671.57715 48.8740265,3671.26953 48.2685547,3671.26953 C46.7841723,3671.26953 45.4658261,3673.24217 44.3134766,3677.1875 C43.5908167,3679.66798 43.0341816,3682.34374 42.6435547,3685.21484 L40.4462891,3683.7793 C40.778322,3681.25975 41.3300743,3678.98439 42.1015625,3676.95312 C42.8730507,3674.92186 43.7910103,3673.31544 44.8554688,3672.13379 C45.9199272,3670.95214 46.999018,3670.36133 48.0927734,3670.36133 C49.3427797,3670.36133 50.3242152,3671.02538 51.0371094,3672.35352 C51.7500036,3673.68165 52.1064453,3675.49804 52.1064453,3677.80273 C52.1064453,3679.73634 51.9306658,3681.93358 51.5791016,3684.39453 C51.4814448,3685.11719 51.1689479,3686.95311 50.6416016,3689.90234 L49.4697266,3696.28906 L49.6455078,3695.73242 C51.0517648,3691.90428 53.0927601,3687.3926 55.7685547,3682.19727 C57.4482506,3678.97459 59.0058522,3676.53809 60.4414062,3674.8877 C61.8769603,3673.2373 63.1806582,3672.41211 64.3525391,3672.41211 C65.0947303,3672.41211 65.7099585,3672.70019 66.1982422,3673.27637 C66.6865259,3673.85254 66.9306641,3674.58984 66.9306641,3675.48828 C66.9306641,3676.40625 66.745119,3677.73437 66.3740234,3679.47266 L62.9755859,3695.70312 C63.2294935,3694.98047 63.8154251,3693.59376 64.7333984,3691.54297 C67.4091931,3685.60544 69.6943265,3681.32326 71.5888672,3678.69629 C73.4834079,3676.06932 75.2314373,3674.75586 76.8330078,3674.75586 C77.6337931,3674.75586 78.2734351,3675.03418 78.7519531,3675.59082 C79.2304711,3676.14746 79.4697266,3676.88476 79.4697266,3677.80273 C79.4697266,3678.54493 79.3037126,3679.66796 78.9716797,3681.17188 L72.9072266,3710 Z M91.6572266,3705.45898 L92.1845703,3705.89844 C90.9736268,3707.50001 89.7919979,3708.65722 88.6396484,3709.37012 C87.4872989,3710.08301 86.247077,3710.43945 84.9189453,3710.43945 C83.3369062,3710.43945 82.0673876,3709.91211 81.1103516,3708.85742 C80.1533155,3707.80273 79.6748047,3706.40626 79.6748047,3704.66797 C79.6748047,3702.91015 80.1386672,3701.12794 81.0664062,3699.32129 C81.9941453,3697.51464 83.156243,3696.02051 84.5527344,3694.83887 C85.9492257,3693.65722 87.3310479,3693.06641 88.6982422,3693.06641 C89.4990274,3693.06641 90.1582005,3693.30078 90.6757812,3693.76953 C91.193362,3694.23828 91.4521484,3694.84375 91.4521484,3695.58594 C91.4521484,3697.08985 90.6318441,3698.59374 88.9912109,3700.09766 C87.3505777,3701.60157 85.114272,3702.88085 82.2822266,3703.93555 C82.2626952,3704.0918 82.2529297,3704.26758 82.2529297,3704.46289 C82.2529297,3705.81055 82.6240197,3706.90918 83.3662109,3707.75879 C84.1084021,3708.6084 85.0654238,3709.0332 86.2373047,3709.0332 C87.155278,3709.0332 88.043941,3708.74512 88.9033203,3708.16895 C89.7626996,3707.59277 90.6806592,3706.68946 91.6572266,3705.45898 Z M82.2822266,3703.23242 C84.3916121,3702.29492 86.0126896,3701.25001 87.1455078,3700.09766 C87.9072304,3699.3164 88.5224586,3698.47657 88.9912109,3697.57812 C89.4599633,3696.67968 89.6943359,3695.86914 89.6943359,3695.14648 C89.6943359,3694.22851 89.2744183,3693.76953 88.4345703,3693.76953 C87.1650327,3693.76953 85.8808659,3694.7705 84.5820312,3696.77246 C83.2831966,3698.77442 82.5166027,3700.92772 82.2822266,3703.23242 Z M87.0283203,3686.76758 C87.3017592,3686.76758 87.5410146,3686.82617 87.7460938,3686.94336 C87.9511729,3687.06055 88.1123041,3687.22168 88.2294922,3687.42676 C88.3466803,3687.63184 88.4052734,3687.87109 88.4052734,3688.14453 C88.4052734,3688.51563 88.2685561,3688.83789 87.9951172,3689.11133 C87.7216783,3689.38477 87.3994159,3689.52148 87.0283203,3689.52148 C86.6767561,3689.52148 86.3642592,3689.38477 86.0908203,3689.11133 C85.8173814,3688.83789 85.6806641,3688.51563 85.6806641,3688.14453 C85.6806641,3687.73437 85.8076159,3687.40235 86.0615234,3687.14844 C86.315431,3686.89453 86.6376934,3686.76758 87.0283203,3686.76758 Z M91.6279297,3686.76758 C91.8818372,3686.76758 92.1113271,3686.82617 92.3164062,3686.94336 C92.5214854,3687.06055 92.6826166,3687.22168 92.7998047,3687.42676 C92.9169928,3687.63184 92.9755859,3687.87109 92.9755859,3688.14453 C92.9755859,3688.51563 92.8388686,3688.83789 92.5654297,3689.11133 C92.2919908,3689.38477 91.9794939,3689.52148 91.6279297,3689.52148 C91.2568341,3689.52148 90.9345717,3689.38477 90.6611328,3689.11133 C90.3876939,3688.83789 90.2509766,3688.51563 90.2509766,3688.14453 C90.2509766,3687.73437 90.3779284,3687.40235 90.6318359,3687.14844 C90.8857435,3686.89453 91.2177714,3686.76758 91.6279297,3686.76758 Z M94.4990234,3710.29297 L97.6044922,3694.0625 L100.387695,3692.86133 L97.8681641,3703.61328 C99.4892659,3700.1953 101.100578,3697.59767 102.702148,3695.82031 C104.303719,3694.04296 105.836907,3693.1543 107.301758,3693.1543 C108.024418,3693.1543 108.610349,3693.39355 109.05957,3693.87207 C109.508791,3694.35059 109.733398,3694.99023 109.733398,3695.79102 C109.733398,3696.24024 109.625978,3696.875 109.411133,3697.69531 L109.118164,3698.92578 L108.239258,3702.5 L107.946289,3703.64258 C107.653319,3704.81446 107.506836,3705.71289 107.506836,3706.33789 C107.506836,3706.96289 107.614257,3707.46582 107.829102,3707.84668 C108.043946,3708.22754 108.327147,3708.41797 108.678711,3708.41797 C109.284183,3708.41797 110.25097,3707.69532 111.579102,3706.25 L112.047852,3706.66016 L111.754883,3706.98242 C110.641596,3708.29102 109.821292,3709.1748 109.293945,3709.63379 C108.766599,3710.09278 108.278323,3710.32227 107.829102,3710.32227 C107.22363,3710.32227 106.71094,3710.01465 106.291016,3709.39941 C105.871092,3708.78418 105.661133,3708.01758 105.661133,3707.09961 C105.661133,3706.47461 105.778319,3705.54688 106.012695,3704.31641 L107.155273,3698.10547 C107.311524,3697.1289 107.389648,3696.44531 107.389648,3696.05469 C107.389648,3695.64453 107.282228,3695.33203 107.067383,3695.11719 C106.852538,3694.90234 106.559572,3694.79492 106.188477,3694.79492 C104.840814,3694.79492 103.180674,3696.24022 101.208008,3699.13086 C100.250972,3700.51759 99.4599641,3701.88964 98.8349609,3703.24707 C98.2099578,3704.6045 97.5068398,3706.48436 96.7255859,3708.88672 L96.4619141,3709.67773 L94.4990234,3710.29297 Z M129.68457,3693.27148 C129.372069,3694.34571 129.025393,3695.50292 128.644531,3696.74316 C128.26367,3697.9834 127.887697,3699.3164 127.516602,3700.74219 C127.145506,3702.16798 126.842775,3703.34472 126.608398,3704.27246 C126.374022,3705.2002 126.256836,3705.88867 126.256836,3706.33789 C126.256836,3706.96289 126.364257,3707.46582 126.579102,3707.84668 C126.793946,3708.22754 127.077147,3708.41797 127.428711,3708.41797 C128.034183,3708.41797 129.00097,3707.69532 130.329102,3706.25 L130.797852,3706.66016 L130.504883,3706.98242 C129.938474,3707.64649 129.45508,3708.19824 129.054688,3708.6377 C128.654295,3709.07715 128.317384,3709.41406 128.043945,3709.64844 C127.497068,3710.09766 127.008791,3710.32227 126.579102,3710.32227 C125.97363,3710.32227 125.46094,3710.01953 125.041016,3709.41406 C124.621092,3708.80859 124.411133,3708.03711 124.411133,3707.09961 C124.411133,3706.47461 124.528319,3705.54688 124.762695,3704.31641 L126.754883,3694.35547 L124.90918,3694.73633 C124.518553,3694.81445 124.166994,3694.98535 123.854492,3695.24902 C123.541991,3695.5127 123.200197,3695.96191 122.829102,3696.59668 C122.458006,3697.23145 122.033206,3698.10546 121.554688,3699.21875 C121.076169,3700.33204 120.47559,3701.76757 119.75293,3703.52539 C119.499022,3704.13086 119.191408,3704.80957 118.830078,3705.56152 C118.468748,3706.31348 118.053713,3707.0166 117.584961,3707.6709 C117.116209,3708.3252 116.603518,3708.87695 116.046875,3709.32617 C115.490232,3709.77539 114.909183,3710 114.303711,3710 C114.108397,3710 113.893556,3709.99023 113.65918,3709.9707 C113.424804,3709.95117 113.200196,3709.91211 112.985352,3709.85352 L113.805664,3706.71875 C114.196291,3707.05078 114.674802,3707.2168 115.241211,3707.2168 C115.846683,3707.2168 116.457028,3706.9336 117.072266,3706.36719 C117.687503,3705.80078 118.278317,3704.87305 118.844727,3703.58398 C119.176759,3702.84179 119.508787,3702.03125 119.84082,3701.15234 C120.172853,3700.27343 120.475585,3699.4336 120.749023,3698.63281 C121.022462,3697.83203 121.242187,3697.11426 121.408203,3696.47949 C121.57422,3695.84472 121.666992,3695.39063 121.686523,3695.11719 L118.551758,3695.35156 L119.196289,3694.38477 L129.68457,3693.27148 Z M150.807617,3692.86133 L148.229492,3702.5 C147.799803,3704.08204 147.584961,3705.35156 147.584961,3706.30859 C147.584961,3706.9336 147.692382,3707.4414 147.907227,3707.83203 C148.122071,3708.22266 148.405272,3708.41797 148.756836,3708.41797 C149.362308,3708.41797 150.329095,3707.69532 151.657227,3706.25 L152.125977,3706.66016 L151.833008,3706.98242 C150.719721,3708.29102 149.899417,3709.1748 149.37207,3709.63379 C148.844724,3710.09278 148.356448,3710.32227 147.907227,3710.32227 C147.301755,3710.32227 146.789065,3710.01465 146.369141,3709.39941 C145.949217,3708.78418 145.739258,3708.01758 145.739258,3707.09961 C145.739258,3706.51367 145.856444,3705.58594 146.09082,3704.31641 L147.936523,3694.0625 L150.807617,3692.86133 Z M141.754883,3698.57422 C142.204104,3698.57422 142.60449,3698.61328 142.956055,3698.69141 C143.307619,3698.76953 143.61035,3698.91601 143.864258,3699.13086 C144.118165,3699.3457 144.308593,3699.64355 144.435547,3700.02441 C144.562501,3700.40528 144.625977,3700.88867 144.625977,3701.47461 C144.625977,3702.45118 144.376956,3703.46191 143.878906,3704.50684 C143.380857,3705.55176 142.741215,3706.5039 141.959961,3707.36328 C141.178707,3708.22266 140.304692,3708.93066 139.337891,3709.4873 C138.371089,3710.04395 137.428716,3710.32227 136.510742,3710.32227 C135.514643,3710.32227 134.718753,3710.03418 134.123047,3709.45801 C133.527341,3708.88183 133.229492,3708.11524 133.229492,3707.1582 C133.229492,3706.47461 133.336913,3705.56641 133.551758,3704.43359 L135.543945,3694.0625 L138.297852,3692.86133 L135.661133,3703.11523 C136.715826,3701.5332 137.770503,3700.38086 138.825195,3699.6582 C139.879888,3698.93554 140.856441,3698.57422 141.754883,3698.57422 Z M135.163086,3706.77734 C135.163086,3707.46094 135.377928,3708.03711 135.807617,3708.50586 C136.237307,3708.97461 136.84277,3709.20898 137.624023,3709.20898 C138.131838,3709.20898 138.659177,3709.05274 139.206055,3708.74023 C139.752932,3708.42773 140.255857,3707.97364 140.714844,3707.37793 C141.17383,3706.78222 141.554686,3706.04004 141.857422,3705.15137 C142.160158,3704.26269 142.311523,3703.24219 142.311523,3702.08984 C142.311523,3701.38672 142.208985,3700.83496 142.003906,3700.43457 C141.798827,3700.03418 141.413089,3699.83398 140.84668,3699.83398 C140.456053,3699.83398 140.031252,3699.93164 139.572266,3700.12695 C139.113279,3700.32227 138.644534,3700.62988 138.166016,3701.0498 C137.687498,3701.46973 137.208987,3702.00195 136.730469,3702.64648 C136.251951,3703.29102 135.797854,3704.0625 135.368164,3704.96094 C135.231445,3705.625 135.163086,3706.23047 135.163086,3706.77734 Z M165.719727,3705.45898 L166.24707,3705.89844 C165.036127,3707.50001 163.854498,3708.65722 162.702148,3709.37012 C161.549799,3710.08301 160.309577,3710.43945 158.981445,3710.43945 C157.399406,3710.43945 156.129888,3709.91211 155.172852,3708.85742 C154.215816,3707.80273 153.737305,3706.40626 153.737305,3704.66797 C153.737305,3702.91015 154.201167,3701.12794 155.128906,3699.32129 C156.056645,3697.51464 157.218743,3696.02051 158.615234,3694.83887 C160.011726,3693.65722 161.393548,3693.06641 162.760742,3693.06641 C163.561527,3693.06641 164.220701,3693.30078 164.738281,3693.76953 C165.255862,3694.23828 165.514648,3694.84375 165.514648,3695.58594 C165.514648,3697.08985 164.694344,3698.59374 163.053711,3700.09766 C161.413078,3701.60157 159.176772,3702.88085 156.344727,3703.93555 C156.325195,3704.0918 156.31543,3704.26758 156.31543,3704.46289 C156.31543,3705.81055 156.68652,3706.90918 157.428711,3707.75879 C158.170902,3708.6084 159.127924,3709.0332 160.299805,3709.0332 C161.217778,3709.0332 162.106441,3708.74512 162.96582,3708.16895 C163.8252,3707.59277 164.743159,3706.68946 165.719727,3705.45898 Z M156.344727,3703.23242 C158.454112,3702.29492 160.07519,3701.25001 161.208008,3700.09766 C161.96973,3699.3164 162.584959,3698.47657 163.053711,3697.57812 C163.522463,3696.67968 163.756836,3695.86914 163.756836,3695.14648 C163.756836,3694.22851 163.336918,3693.76953 162.49707,3693.76953 C161.227533,3693.76953 159.943366,3694.7705 158.644531,3696.77246 C157.345697,3698.77442 156.579103,3700.92772 156.344727,3703.23242 Z M181.979492,3694.0625 L184.762695,3692.86133 L182.213867,3703.73047 C182.702151,3702.85156 183.214841,3701.99707 183.751953,3701.16699 C184.289065,3700.33691 184.835935,3699.55567 185.392578,3698.82324 C185.949222,3698.09082 186.496091,3697.417 187.033203,3696.80176 C187.570315,3696.18652 188.083005,3695.6543 188.571289,3695.20508 C189.02051,3694.79492 189.425779,3694.44824 189.787109,3694.16504 C190.148439,3693.88183 190.519529,3693.64746 190.900391,3693.46191 C191.281252,3693.27637 191.691404,3693.13965 192.130859,3693.05176 C192.570315,3692.96387 193.09277,3692.90039 193.698242,3692.86133 L193.141602,3695.58594 C192.692381,3695.42969 192.311525,3695.3418 191.999023,3695.32227 C191.686522,3695.30273 191.413087,3695.29297 191.178711,3695.29297 C190.807615,3695.29297 190.39258,3695.39551 189.933594,3695.60059 C189.474607,3695.80567 189.005862,3696.09863 188.527344,3696.47949 C188.048826,3696.86035 187.58008,3697.30957 187.121094,3697.82715 C186.662107,3698.34473 186.237307,3698.92578 185.84668,3699.57031 C186.159181,3700.33204 186.515623,3701.2207 186.916016,3702.23633 C187.316408,3703.25196 187.736326,3704.21875 188.175781,3705.13672 C188.615237,3706.05469 189.049803,3706.83105 189.479492,3707.46582 C189.909182,3708.10059 190.309568,3708.41797 190.680664,3708.41797 C191.540043,3708.41797 192.536127,3707.82227 193.668945,3706.63086 L193.90332,3706.36719 L194.28418,3706.80664 C192.311514,3709.18947 190.875981,3710.38086 189.977539,3710.38086 C189.665037,3710.38086 189.362306,3710.32227 189.069336,3710.20508 C188.776366,3710.08789 188.512696,3709.88281 188.27832,3709.58984 C187.946287,3709.19922 187.633791,3708.71094 187.34082,3708.125 C187.04785,3707.53906 186.745119,3706.88477 186.432617,3706.16211 C186.120116,3705.43945 185.797853,3704.67286 185.46582,3703.8623 C185.133787,3703.05175 184.772463,3702.2168 184.381836,3701.35742 C183.639645,3702.41211 182.94141,3703.61327 182.287109,3704.96094 C181.632809,3706.3086 181.13965,3707.90038 180.807617,3709.73633 L178.932617,3710.26367 L181.979492,3694.0625 Z M200.348633,3701.24023 C201.715827,3698.6035 203.15136,3696.64063 204.655273,3695.35156 C206.159187,3694.06249 207.633782,3693.41797 209.079102,3693.41797 C209.723636,3693.41797 210.26074,3693.51562 210.69043,3693.71094 C211.120119,3693.90625 211.466796,3694.17969 211.730469,3694.53125 C211.994142,3694.88281 212.179687,3695.30273 212.287109,3695.79102 C212.394532,3696.2793 212.448242,3696.82617 212.448242,3697.43164 C212.448242,3698.25196 212.331056,3699.1455 212.09668,3700.1123 C211.862304,3701.07911 211.530276,3702.04589 211.100586,3703.0127 C210.670896,3703.9795 210.153323,3704.9121 209.547852,3705.81055 C208.94238,3706.70899 208.268558,3707.50488 207.526367,3708.19824 C206.784176,3708.89161 205.97852,3709.44824 205.109375,3709.86816 C204.24023,3710.28809 203.336919,3710.49805 202.399414,3710.49805 C202.04785,3710.49805 201.627932,3710.44434 201.139648,3710.33691 C200.651365,3710.22949 200.187502,3709.97071 199.748047,3709.56055 C199.308592,3709.15039 198.937502,3708.53516 198.634766,3707.71484 C198.33203,3706.89453 198.180664,3705.76173 198.180664,3704.31641 C198.180664,3703.08593 198.268554,3701.76759 198.444336,3700.36133 C198.620118,3698.95507 198.913084,3697.33399 199.323242,3695.49805 C199.069335,3695.53711 198.737307,3695.57129 198.327148,3695.60059 C197.91699,3695.62988 197.516604,3695.64453 197.125977,3695.64453 L197.243164,3694.85352 C197.61426,3694.85352 198.019529,3694.83398 198.458984,3694.79492 C198.89844,3694.75586 199.264647,3694.6875 199.557617,3694.58984 C200.221683,3691.89452 201.04687,3689.29689 202.033203,3686.79688 C203.019536,3684.29686 204.113275,3682.08009 205.314453,3680.14648 C206.515631,3678.21288 207.790032,3676.66504 209.137695,3675.50293 C210.485358,3674.34081 211.842767,3673.75977 213.209961,3673.75977 C213.77637,3673.75977 214.259764,3673.8623 214.660156,3674.06738 C215.060549,3674.27246 215.382811,3674.54101 215.626953,3674.87305 C215.871095,3675.20508 216.051757,3675.59082 216.168945,3676.03027 C216.286133,3676.46973 216.344727,3676.92383 216.344727,3677.39258 C216.344727,3678.4668 216.144533,3679.57031 215.744141,3680.70312 C215.343748,3681.83594 214.787113,3682.95898 214.074219,3684.07227 C213.361325,3685.18555 212.531255,3686.26953 211.583984,3687.32422 C210.636714,3688.37891 209.616216,3689.37988 208.522461,3690.32715 C207.428705,3691.27442 206.291022,3692.14355 205.109375,3692.93457 C203.927728,3693.72559 202.760748,3694.40429 201.608398,3694.9707 C201.49121,3695.41992 201.374024,3695.9082 201.256836,3696.43555 C201.139648,3696.96289 201.022462,3697.50488 200.905273,3698.06152 C200.788085,3698.61817 200.680665,3699.16992 200.583008,3699.7168 C200.485351,3700.26367 200.407227,3700.77148 200.348633,3701.24023 Z M200.348633,3706.16211 C200.348633,3706.55274 200.373047,3706.95801 200.421875,3707.37793 C200.470703,3707.79785 200.568359,3708.18359 200.714844,3708.53516 C200.861329,3708.88672 201.066405,3709.17969 201.330078,3709.41406 C201.593751,3709.64844 201.930662,3709.76562 202.34082,3709.76562 C203.043949,3709.76562 203.71777,3709.55567 204.362305,3709.13574 C205.006839,3708.71582 205.607419,3708.15918 206.164062,3707.46582 C206.720706,3706.77246 207.223631,3705.98145 207.672852,3705.09277 C208.122073,3704.2041 208.507811,3703.29102 208.830078,3702.35352 C209.152345,3701.41601 209.401366,3700.49805 209.577148,3699.59961 C209.752931,3698.70117 209.84082,3697.90039 209.84082,3697.19727 C209.84082,3696.25976 209.694337,3695.58594 209.401367,3695.17578 C209.108397,3694.76562 208.639652,3694.56055 207.995117,3694.56055 C207.565428,3694.56055 207.077151,3694.71191 206.530273,3695.01465 C205.983396,3695.31738 205.426761,3695.73242 204.860352,3696.25977 C204.293942,3696.78711 203.737307,3697.41699 203.19043,3698.14941 C202.643552,3698.88184 202.160158,3699.67773 201.740234,3700.53711 C201.32031,3701.39649 200.9834,3702.30468 200.729492,3703.26172 C200.475585,3704.21875 200.348633,3705.18554 200.348633,3706.16211 Z M201.87207,3693.97461 C203.629892,3693.0371 205.265617,3691.90919 206.779297,3690.59082 C208.292976,3689.27245 209.60644,3687.86134 210.719727,3686.35742 C211.833013,3684.85351 212.702145,3683.31544 213.327148,3681.74316 C213.952152,3680.17089 214.264648,3678.67188 214.264648,3677.24609 C214.264648,3676.28906 214.137697,3675.60059 213.883789,3675.18066 C213.629882,3674.76074 213.180667,3674.55078 212.536133,3674.55078 C211.950192,3674.55078 211.364261,3674.77051 210.77832,3675.20996 C210.19238,3675.64942 209.616214,3676.24023 209.049805,3676.98242 C208.483396,3677.72461 207.931643,3678.58398 207.394531,3679.56055 C206.857419,3680.53711 206.344729,3681.56738 205.856445,3682.65137 C205.368162,3683.73536 204.914065,3684.83398 204.494141,3685.94727 C204.074217,3687.06055 203.693361,3688.12011 203.351562,3689.12598 C203.009764,3690.13184 202.711915,3691.05468 202.458008,3691.89453 C202.2041,3692.73438 202.00879,3693.42773 201.87207,3693.97461 Z M231.374023,3692.68555 L228.620117,3703.4082 C228.327147,3704.58008 228.180664,3705.49804 228.180664,3706.16211 C228.180664,3706.74805 228.307616,3707.25586 228.561523,3707.68555 C228.815431,3708.11524 229.127928,3708.33008 229.499023,3708.33008 C230.065433,3708.33008 231.002923,3707.63673 232.311523,3706.25 L232.72168,3706.66016 L232.399414,3707.04102 C231.364253,3708.23243 230.568362,3709.06738 230.011719,3709.5459 C229.455075,3710.02442 228.971682,3710.26367 228.561523,3710.26367 C227.93652,3710.26367 227.394534,3709.93653 226.935547,3709.28223 C226.47656,3708.62793 226.24707,3707.8711 226.24707,3707.01172 C226.24707,3706.38672 226.481443,3704.97071 226.950195,3702.76367 L227.18457,3701.65039 C226.46191,3703.33009 225.495123,3704.9414 224.28418,3706.48438 C222.25292,3709.06251 220.30958,3710.35156 218.454102,3710.35156 C217.340815,3710.35156 216.461917,3709.95118 215.817383,3709.15039 C215.172848,3708.34961 214.850586,3707.2754 214.850586,3705.92773 C214.850586,3704.09179 215.373042,3702.16798 216.417969,3700.15625 C217.462896,3698.14452 218.761711,3696.48926 220.314453,3695.19043 C221.867195,3693.8916 223.375969,3693.24219 224.84082,3693.24219 C226.383797,3693.24219 227.536129,3693.80859 228.297852,3694.94141 L228.620117,3693.82812 L231.374023,3692.68555 Z M228.004883,3696.43555 C227.770507,3695.69336 227.375003,3695.11231 226.818359,3694.69238 C226.261716,3694.27246 225.622074,3694.0625 224.899414,3694.0625 C224.040035,3694.0625 223.131841,3694.458 222.174805,3695.24902 C221.217769,3696.04004 220.338871,3697.13866 219.538086,3698.54492 C218.913083,3699.65821 218.390627,3700.88867 217.970703,3702.23633 C217.550779,3703.58399 217.34082,3704.69726 217.34082,3705.57617 C217.34082,3706.57227 217.531248,3707.35351 217.912109,3707.91992 C218.292971,3708.48633 218.834957,3708.76953 219.538086,3708.76953 C220.436528,3708.76953 221.374019,3708.34961 222.350586,3707.50977 C223.327153,3706.66992 224.293941,3705.46876 225.250977,3703.90625 C225.836917,3703.00781 226.295897,3702.10938 226.62793,3701.21094 C226.959963,3700.3125 227.331053,3699.06251 227.741211,3697.46094 L228.004883,3696.43555 Z M238.727539,3710.46875 C237.555658,3710.46875 236.62305,3710.04395 235.929688,3709.19434 C235.236325,3708.34472 234.889648,3707.2461 234.889648,3705.89844 C234.889648,3704.3164 235.133787,3702.77345 235.62207,3701.26953 C236.110354,3699.76562 236.784175,3698.42774 237.643555,3697.25586 C238.502934,3696.08398 239.508783,3695.14161 240.661133,3694.42871 C241.813482,3693.71582 243.053704,3693.35938 244.381836,3693.35938 C245.866218,3693.35938 247.018551,3693.76953 247.838867,3694.58984 C247.897461,3694.25781 247.946289,3693.84278 247.985352,3693.34473 C248.024414,3692.84668 248.058594,3692.33399 248.087891,3691.80664 C248.117188,3691.27929 248.136719,3690.77149 248.146484,3690.2832 C248.15625,3689.79492 248.161133,3689.39453 248.161133,3689.08203 C248.161133,3688.63281 248.136719,3688.07618 248.087891,3687.41211 C248.039062,3686.74804 247.936524,3686.04981 247.780273,3685.31738 C247.624023,3684.58496 247.404298,3683.85743 247.121094,3683.13477 C246.837889,3682.41211 246.466799,3681.7627 246.007812,3681.18652 C245.548826,3680.61035 244.982425,3680.1416 244.308594,3679.78027 C243.634762,3679.41894 242.829106,3679.23828 241.891602,3679.23828 C241.676757,3679.23828 241.388674,3679.2627 241.027344,3679.31152 C240.666014,3679.36035 240.27051,3679.45312 239.84082,3679.58984 C239.411131,3679.72656 238.957034,3679.91699 238.478516,3680.16113 C237.999998,3680.40527 237.52637,3680.71289 237.057617,3681.08398 L236.706055,3680.52734 C237.155276,3680.09765 237.663083,3679.72656 238.229492,3679.41406 C238.795901,3679.10156 239.372067,3678.84277 239.958008,3678.6377 C240.543948,3678.43262 241.105466,3678.28613 241.642578,3678.19824 C242.17969,3678.11035 242.633787,3678.06641 243.004883,3678.06641 C244.547859,3678.06641 245.80273,3678.36425 246.769531,3678.95996 C247.736333,3679.55567 248.488279,3680.34667 249.025391,3681.33301 C249.562503,3682.31934 249.923827,3683.44238 250.109375,3684.70215 C250.294923,3685.96192 250.387695,3687.25585 250.387695,3688.58398 C250.387695,3690.36134 250.231447,3692.13378 249.918945,3693.90137 C249.606444,3695.66895 249.176761,3697.36327 248.629883,3698.98438 C248.083005,3700.60548 247.43848,3702.11913 246.696289,3703.52539 C245.954098,3704.93165 245.148442,3706.14746 244.279297,3707.17285 C243.410152,3708.19825 242.501958,3709.0039 241.554688,3709.58984 C240.607417,3710.17578 239.665044,3710.46875 238.727539,3710.46875 Z M247.311523,3696.23047 C247.096679,3695.58593 246.706058,3695.08301 246.139648,3694.72168 C245.573239,3694.36035 244.948246,3694.17969 244.264648,3694.17969 C243.541989,3694.17969 242.877933,3694.35547 242.272461,3694.70703 C241.666989,3695.0586 241.110354,3695.53222 240.602539,3696.12793 C240.094724,3696.72364 239.64551,3697.41699 239.254883,3698.20801 C238.864256,3698.99903 238.532228,3699.82421 238.258789,3700.68359 C237.98535,3701.54297 237.780274,3702.41699 237.643555,3703.30566 C237.506835,3704.19434 237.438477,3705.03906 237.438477,3705.83984 C237.438477,3706.85547 237.643553,3707.6709 238.053711,3708.28613 C238.463869,3708.90137 239.108394,3709.20898 239.987305,3709.20898 C240.612308,3709.20898 241.232419,3708.97949 241.847656,3708.52051 C242.462894,3708.06152 243.03906,3707.45606 243.576172,3706.7041 C244.113284,3705.95214 244.611326,3705.10743 245.070312,3704.16992 C245.529299,3703.23242 245.924803,3702.28028 246.256836,3701.31348 C246.588869,3700.34667 246.847655,3699.41895 247.033203,3698.53027 C247.218751,3697.6416 247.311523,3696.875 247.311523,3696.23047 Z M248.981445,3721.63086 L254.518555,3694.0625 L257.331055,3692.86133 L255.397461,3701.26953 C256.842781,3698.35936 258.205072,3696.26465 259.484375,3694.98535 C260.763678,3693.70605 262.165031,3693.06641 263.688477,3693.06641 C264.860357,3693.06641 265.788083,3693.49609 266.47168,3694.35547 C267.155277,3695.21485 267.49707,3696.39648 267.49707,3697.90039 C267.49707,3699.42384 267.189456,3700.98632 266.574219,3702.58789 C265.958981,3704.18946 265.094732,3705.64452 263.981445,3706.95312 C261.969717,3709.37501 259.752942,3710.58594 257.331055,3710.58594 C255.80761,3710.58594 254.557622,3710.18555 253.581055,3709.38477 L250.563477,3721.63086 L248.981445,3721.63086 Z M254.020508,3707.45117 C254.840824,3709.05274 255.993157,3709.85352 257.477539,3709.85352 C259.625987,3709.85352 261.500969,3708.10549 263.102539,3704.60938 C264.411139,3701.79686 265.06543,3699.4336 265.06543,3697.51953 C265.06543,3696.48437 264.870119,3695.6836 264.479492,3695.11719 C264.088865,3694.55078 263.53223,3694.26758 262.80957,3694.26758 C261.637689,3694.26758 260.407233,3695.03905 259.118164,3696.58203 C257.887689,3698.10548 256.842778,3699.80468 255.983398,3701.67969 C255.651366,3702.42188 255.343751,3703.21289 255.060547,3704.05273 C254.777342,3704.89258 254.50879,3705.75195 254.254883,3706.63086 L254.020508,3707.45117 Z M286.452148,3692.68555 L283.698242,3703.4082 C283.405272,3704.58008 283.258789,3705.49804 283.258789,3706.16211 C283.258789,3706.74805 283.385741,3707.25586 283.639648,3707.68555 C283.893556,3708.11524 284.206053,3708.33008 284.577148,3708.33008 C285.143558,3708.33008 286.081048,3707.63673 287.389648,3706.25 L287.799805,3706.66016 L287.477539,3707.04102 C286.442378,3708.23243 285.646487,3709.06738 285.089844,3709.5459 C284.5332,3710.02442 284.049807,3710.26367 283.639648,3710.26367 C283.014645,3710.26367 282.472659,3709.93653 282.013672,3709.28223 C281.554685,3708.62793 281.325195,3707.8711 281.325195,3707.01172 C281.325195,3706.38672 281.559568,3704.97071 282.02832,3702.76367 L282.262695,3701.65039 C281.540035,3703.33009 280.573248,3704.9414 279.362305,3706.48438 C277.331045,3709.06251 275.387705,3710.35156 273.532227,3710.35156 C272.41894,3710.35156 271.540042,3709.95118 270.895508,3709.15039 C270.250973,3708.34961 269.928711,3707.2754 269.928711,3705.92773 C269.928711,3704.09179 270.451167,3702.16798 271.496094,3700.15625 C272.541021,3698.14452 273.839836,3696.48926 275.392578,3695.19043 C276.94532,3693.8916 278.454094,3693.24219 279.918945,3693.24219 C281.461922,3693.24219 282.614254,3693.80859 283.375977,3694.94141 L283.698242,3693.82812 L286.452148,3692.68555 Z M283.083008,3696.43555 C282.848632,3695.69336 282.453128,3695.11231 281.896484,3694.69238 C281.339841,3694.27246 280.700199,3694.0625 279.977539,3694.0625 C279.11816,3694.0625 278.209966,3694.458 277.25293,3695.24902 C276.295894,3696.04004 275.416996,3697.13866 274.616211,3698.54492 C273.991208,3699.65821 273.468752,3700.88867 273.048828,3702.23633 C272.628904,3703.58399 272.418945,3704.69726 272.418945,3705.57617 C272.418945,3706.57227 272.609373,3707.35351 272.990234,3707.91992 C273.371096,3708.48633 273.913082,3708.76953 274.616211,3708.76953 C275.514653,3708.76953 276.452144,3708.34961 277.428711,3707.50977 C278.405278,3706.66992 279.372066,3705.46876 280.329102,3703.90625 C280.915042,3703.00781 281.374022,3702.10938 281.706055,3701.21094 C282.038088,3700.3125 282.409178,3699.06251 282.819336,3697.46094 L283.083008,3696.43555 Z M301.24707,3709.67773 L299.313477,3710.29297 L301.62793,3698.36914 L301.833008,3697.34375 C301.950196,3696.77734 302.008789,3696.3086 302.008789,3695.9375 C302.008789,3695.07812 301.666996,3694.64844 300.983398,3694.64844 C300.338864,3694.64844 299.557622,3695.083 298.639648,3695.95215 C297.721675,3696.82129 296.754888,3698.07616 295.739258,3699.7168 C295.075192,3700.77149 294.503909,3701.7871 294.025391,3702.76367 C293.546873,3703.74024 293.107424,3704.78027 292.707031,3705.88379 C292.306639,3706.98731 291.9209,3708.25195 291.549805,3709.67773 L289.733398,3710.29297 L292.750977,3694.0625 L295.563477,3692.86133 L293.014648,3703.49609 C294.323249,3700.46873 295.822257,3697.98341 297.511719,3696.04004 C299.20118,3694.09667 300.71972,3693.125 302.067383,3693.125 C303.532234,3693.125 304.264648,3693.95507 304.264648,3695.61523 C304.264648,3696.18164 304.118166,3697.18749 303.825195,3698.63281 L302.858398,3702.99805 C304.752939,3699.36522 306.354486,3696.80177 307.663086,3695.30762 C308.971686,3693.81347 310.270501,3693.06641 311.55957,3693.06641 C312.28223,3693.06641 312.848631,3693.28125 313.258789,3693.71094 C313.668947,3694.14063 313.874023,3694.75586 313.874023,3695.55664 C313.874023,3696.20118 313.678713,3697.31445 313.288086,3698.89648 L312.379883,3702.5 L312.086914,3703.64258 C311.813475,3704.85352 311.676758,3705.75195 311.676758,3706.33789 C311.676758,3706.96289 311.784179,3707.46582 311.999023,3707.84668 C312.213868,3708.22754 312.487303,3708.41797 312.819336,3708.41797 C313.444339,3708.41797 314.420892,3707.69532 315.749023,3706.25 L316.188477,3706.66016 L315.924805,3706.98242 C314.811518,3708.29102 313.986331,3709.1748 313.449219,3709.63379 C312.912107,3710.09278 312.418948,3710.32227 311.969727,3710.32227 C311.364255,3710.32227 310.851565,3710.01465 310.431641,3709.39941 C310.011717,3708.78418 309.801758,3708.01758 309.801758,3707.09961 C309.801758,3706.5332 309.92871,3705.60548 310.182617,3704.31641 L311.266602,3698.25195 L311.442383,3697.19727 C311.559571,3696.61133 311.618164,3696.14258 311.618164,3695.79102 C311.618164,3695.43945 311.510743,3695.15625 311.295898,3694.94141 C311.081054,3694.72656 310.788088,3694.61914 310.416992,3694.61914 C309.987303,3694.61914 309.513674,3694.7998 308.996094,3695.16113 C308.478513,3695.52246 307.926761,3696.07422 307.34082,3696.81641 C306.75488,3697.5586 306.10059,3698.53515 305.37793,3699.74609 C304.401362,3701.40626 303.610355,3702.95409 303.004883,3704.38965 C302.399411,3705.8252 301.813479,3707.58788 301.24707,3709.67773 Z M336.198242,3692.86133 L333.620117,3702.5 C333.190428,3704.08204 332.975586,3705.35156 332.975586,3706.30859 C332.975586,3706.9336 333.083007,3707.4414 333.297852,3707.83203 C333.512696,3708.22266 333.795897,3708.41797 334.147461,3708.41797 C334.752933,3708.41797 335.71972,3707.69532 337.047852,3706.25 L337.516602,3706.66016 L337.223633,3706.98242 C336.110346,3708.29102 335.290042,3709.1748 334.762695,3709.63379 C334.235349,3710.09278 333.747073,3710.32227 333.297852,3710.32227 C332.69238,3710.32227 332.17969,3710.01465 331.759766,3709.39941 C331.339842,3708.78418 331.129883,3708.01758 331.129883,3707.09961 C331.129883,3706.51367 331.247069,3705.58594 331.481445,3704.31641 L333.327148,3694.0625 L336.198242,3692.86133 Z M327.145508,3698.57422 C327.594729,3698.57422 327.995115,3698.61328 328.34668,3698.69141 C328.698244,3698.76953 329.000975,3698.91601 329.254883,3699.13086 C329.50879,3699.3457 329.699218,3699.64355 329.826172,3700.02441 C329.953126,3700.40528 330.016602,3700.88867 330.016602,3701.47461 C330.016602,3702.45118 329.767581,3703.46191 329.269531,3704.50684 C328.771482,3705.55176 328.13184,3706.5039 327.350586,3707.36328 C326.569332,3708.22266 325.695317,3708.93066 324.728516,3709.4873 C323.761714,3710.04395 322.819341,3710.32227 321.901367,3710.32227 C320.905268,3710.32227 320.109378,3710.03418 319.513672,3709.45801 C318.917966,3708.88183 318.620117,3708.11524 318.620117,3707.1582 C318.620117,3706.47461 318.727538,3705.56641 318.942383,3704.43359 L320.93457,3694.0625 L323.688477,3692.86133 L321.051758,3703.11523 C322.106451,3701.5332 323.161128,3700.38086 324.21582,3699.6582 C325.270513,3698.93554 326.247066,3698.57422 327.145508,3698.57422 Z M320.553711,3706.77734 C320.553711,3707.46094 320.768553,3708.03711 321.198242,3708.50586 C321.627932,3708.97461 322.233395,3709.20898 323.014648,3709.20898 C323.522463,3709.20898 324.049802,3709.05274 324.59668,3708.74023 C325.143557,3708.42773 325.646482,3707.97364 326.105469,3707.37793 C326.564455,3706.78222 326.945311,3706.04004 327.248047,3705.15137 C327.550783,3704.26269 327.702148,3703.24219 327.702148,3702.08984 C327.702148,3701.38672 327.59961,3700.83496 327.394531,3700.43457 C327.189452,3700.03418 326.803714,3699.83398 326.237305,3699.83398 C325.846678,3699.83398 325.421877,3699.93164 324.962891,3700.12695 C324.503904,3700.32227 324.035159,3700.62988 323.556641,3701.0498 C323.078123,3701.46973 322.599612,3702.00195 322.121094,3702.64648 C321.642576,3703.29102 321.188479,3704.0625 320.758789,3704.96094 C320.62207,3705.625 320.553711,3706.23047 320.553711,3706.77734 Z M348.297852,3695.46875 C348.297852,3696.25 348.048831,3696.91894 347.550781,3697.47559 C347.052732,3698.03223 346.461917,3698.31055 345.77832,3698.31055 C345.19238,3698.31055 344.704104,3698.125 344.313477,3697.75391 C343.92285,3697.38281 343.727539,3696.88477 343.727539,3696.25977 C343.727539,3695.71289 343.844725,3695.22461 344.079102,3694.79492 C344.313478,3694.36523 344.621092,3694.01856 345.001953,3693.75488 C345.382814,3693.49121 345.797849,3693.35938 346.24707,3693.35938 C346.872073,3693.35938 347.370115,3693.55469 347.741211,3693.94531 C348.112307,3694.33594 348.297852,3694.84375 348.297852,3695.46875 Z M345.836914,3707.48047 C345.836914,3708.26172 345.587893,3708.93066 345.089844,3709.4873 C344.591794,3710.04395 344.00098,3710.32227 343.317383,3710.32227 C341.950188,3710.32227 341.266602,3709.63868 341.266602,3708.27148 C341.266602,3707.72461 341.383788,3707.23633 341.618164,3706.80664 C341.85254,3706.37695 342.160154,3706.03027 342.541016,3705.7666 C342.921877,3705.50293 343.336912,3705.37109 343.786133,3705.37109 C344.411136,3705.37109 344.909178,3705.5664 345.280273,3705.95703 C345.651369,3706.34766 345.836914,3706.85547 345.836914,3707.48047 Z" id="Тёплые-квадраты:"></path>
        </g>
    </g>
</svg>