<?xml version="1.0" encoding="UTF-8"?>
<svg width="119px" height="46px" viewBox="0 0 119 46" version="1.1" xmlns="http://www.w3.org/2000/svg" xmlns:xlink="http://www.w3.org/1999/xlink">
    <!-- Generator: Sketch 43.1 (39012) - http://www.bohemiancoding.com/sketch -->
    <title>логотип</title>
    <desc>Created with Sketch.</desc>
    <defs></defs>
    <g id="Page-1" stroke="none" stroke-width="1" fill="none" fill-rule="evenodd">
        <g id="логотип" fill="#000000">
            <path d="M31.7148438,36 L29.8398438,36 L33.9609375,16.2929688 L34.0976562,15.609375 C34.1888025,15.1276018 34.234375,14.7955738 34.234375,14.6132812 C34.234375,14.3658842 34.1692715,14.1608081 34.0390625,13.9980469 C33.9088535,13.8352856 33.7265637,13.7539062 33.4921875,13.7539062 C33.1276023,13.7539062 32.7174502,13.9752582 32.2617188,14.4179688 C31.8059873,14.8606793 31.2330764,15.6028594 30.5429688,16.6445312 C29.4752551,18.2330809 28.3099021,20.44009 27.046875,23.265625 C26.0572867,25.4921986 25.2141962,27.6568905 24.5175781,29.7597656 C23.8209601,31.8626407 23.2513043,33.942698 22.8085938,36 L21.1875,36 L25.71875,14.7890625 C25.8619799,14.1249967 25.9335938,13.6041686 25.9335938,13.2265625 C25.9335938,13.0572908 25.901042,12.894532 25.8359375,12.7382812 C25.770833,12.5820305 25.6829433,12.4648441 25.5722656,12.3867188 C25.461588,12.3085934 25.3346361,12.2695312 25.1914062,12.2695312 C24.579424,12.2695312 23.8307336,12.8652284 22.9453125,14.0566406 C22.0598914,15.2480528 21.0117248,17.1002479 19.8007812,19.6132812 C19.2278617,20.7460994 18.6744818,21.9309834 18.140625,23.1679688 C17.6067682,24.4049541 17.1315125,25.5572863 16.7148438,26.625 C16.298175,27.6927137 15.8294297,28.994784 15.3085938,30.53125 C14.5533816,32.7708445 14.0065121,34.593743 13.6679688,36 L12.0273438,36 L12.0859375,35.7265625 L12.9257812,32.3867188 C13.2252619,31.1106707 13.485676,29.9778695 13.7070312,28.9882812 C14.7356822,24.3267996 15.490883,20.5182439 15.9726562,17.5625 C16.3763041,15.2447801 16.578125,13.5716197 16.578125,12.5429688 C16.578125,11.7877566 16.4641938,11.2050802 16.2363281,10.7949219 C16.0084624,10.3847636 15.6927104,10.1796875 15.2890625,10.1796875 C14.2994742,10.1796875 13.4205768,11.4947785 12.6523438,14.125 C12.1705705,15.7786541 11.7994805,17.5624904 11.5390625,19.4765625 L10.0742188,18.5195312 C10.295574,16.8398354 10.6634089,15.3229234 11.1777344,13.96875 C11.6920599,12.6145766 12.3040329,11.5436237 13.0136719,10.7558594 C13.7233108,9.96809502 14.4427047,9.57421875 15.171875,9.57421875 C16.0052125,9.57421875 16.6595028,10.0169227 17.1347656,10.9023438 C17.6100284,11.7877648 17.8476562,12.9986902 17.8476562,14.5351562 C17.8476562,15.8242252 17.7304699,17.2890543 17.4960938,18.9296875 C17.4309893,19.4114607 17.222658,20.6354068 16.8710938,22.6015625 L16.0898438,26.859375 L16.2070312,26.4882812 C17.1445359,23.9361852 18.5051994,20.9284027 20.2890625,17.4648438 C21.4088598,15.3163955 22.4472608,13.6920628 23.4042969,12.5917969 C24.3613329,11.491531 25.2304648,10.9414062 26.0117188,10.9414062 C26.5065129,10.9414062 26.916665,11.1334616 27.2421875,11.5175781 C27.56771,11.9016946 27.7304688,12.3932262 27.7304688,12.9921875 C27.7304688,13.6041697 27.6067721,14.4895775 27.359375,15.6484375 L25.09375,26.46875 C25.2630217,25.9869768 25.6536428,25.0625068 26.265625,23.6953125 C28.0494881,19.7369594 29.5729104,16.8821702 30.8359375,15.1308594 C32.0989646,13.3795485 33.2643176,12.5039062 34.3320312,12.5039062 C34.8658881,12.5039062 35.2923161,12.6894513 35.6113281,13.0605469 C35.9303401,13.4316425 36.0898438,13.923174 36.0898438,14.5351562 C36.0898438,15.0299504 35.9791678,15.7786408 35.7578125,16.78125 L31.7148438,36 Z M68.0039062,10.5507812 L53.7070312,26.15625 C54.1367209,27.1588592 54.7161422,28.2233017 55.4453125,29.3496094 C56.1744828,30.4759171 56.9459595,31.511063 57.7597656,32.4550781 C58.5735718,33.3990933 59.4427037,34.2486941 60.3671875,35.0039062 L58.9804688,36.3125 C56.1939965,33.7994666 53.9283941,30.6484564 52.1835938,26.859375 L65.9140625,10.5507812 L68.0039062,10.5507812 Z M53.8828125,10.6679688 L56.0117188,9.671875 C55.8164053,10.9088604 55.5462257,12.3248618 55.2011719,13.9199219 C54.8561181,15.5149819 54.4557314,17.1588457 54,18.8515625 C53.5442686,20.5442793 53.1210957,21.9570256 52.7304688,23.0898438 C52.3007791,24.4049545 51.8417993,25.6451765 51.3535156,26.8105469 C50.8652319,27.9759173 50.36719,28.9850218 49.859375,29.8378906 C49.35156,30.6907595 48.7981801,31.4720017 48.1992188,32.1816406 C47.6002574,32.8912796 46.9687533,33.5130182 46.3046875,34.046875 C43.9869676,35.9609471 41.0442887,36.9179688 37.4765625,36.9179688 C36.5911414,36.9179688 35.9075545,36.8398445 35.4257812,36.6835938 L36.0117188,35.2382812 C37.5091221,35.6679709 38.8893166,35.8828125 40.1523438,35.8828125 C43.0560041,35.8828125 45.5494688,34.3528799 47.6328125,31.2929688 C48.2317738,30.4075477 48.7753882,29.3854225 49.2636719,28.2265625 C49.7519556,27.0677025 50.2955699,25.446625 50.8945312,23.3632812 C51.180991,22.373693 51.4641913,21.3418022 51.7441406,20.2675781 C52.0240899,19.193354 52.284504,18.1516978 52.5253906,17.1425781 C52.7662772,16.1334585 53.0136706,15.0397194 53.2675781,13.8613281 C53.5214856,12.6829368 53.7005203,11.7812531 53.8046875,11.15625 L53.8828125,10.6679688 Z" id="ТК"></path>
            <rect id="Rectangle-2" x="4" y="29" width="2" height="2"></rect>
            <rect id="Rectangle-2" opacity="0.5" x="68" y="19" width="12" height="12"></rect>
            <rect id="Rectangle-2" opacity="0.5" x="74" y="25" width="12" height="12"></rect>
            <rect id="Rectangle-2" opacity="0.5" x="94" y="25" width="10" height="10"></rect>
            <rect id="Rectangle-2" opacity="0.5" x="89" y="11" width="10" height="10"></rect>
            <rect id="Rectangle-2" opacity="0.5" x="100" y="14" width="10" height="10"></rect>
            <rect id="Rectangle-2" opacity="0.5" x="100" y="6" width="5" height="5"></rect>
            <rect id="Rectangle-2" opacity="0.5" x="104" y="5" width="5" height="5"></rect>
            <rect id="Rectangle-2" opacity="0.5" x="104" y="15" width="5" height="5"></rect>
            <rect id="Rectangle-2" opacity="0.5" x="94" y="15" width="5" height="5"></rect>
            <rect id="Rectangle-2" opacity="0.5" x="94" y="25" width="5" height="5"></rect>
            <rect id="Rectangle-2" opacity="0.5" x="81" y="17" width="5" height="5"></rect>
        </g>
    </g>
</svg>