<?xml version="1.0" encoding="UTF-8"?>
<svg width="81px" height="57px" viewBox="0 0 81 57" version="1.1" xmlns="http://www.w3.org/2000/svg" xmlns:xlink="http://www.w3.org/1999/xlink">
    <!-- Generator: Sketch 43.1 (39012) - http://www.bohemiancoding.com/sketch -->
    <title>Обшитых балконов</title>
    <desc>Created with Sketch.</desc>
    <defs></defs>
    <g id="Page-1" stroke="none" stroke-width="1" fill="none" fill-rule="evenodd">
        <g id="Главная" transform="translate(-370.000000, -3488.000000)" fill="#000000">
            <path d="M387.516602,3495.43164 C387.516602,3496.7793 387.291994,3498.13915 386.842773,3499.51123 C386.393552,3500.88331 385.763676,3502.16992 384.953125,3503.37109 C384.259762,3504.39649 383.476079,3505.27783 382.602051,3506.01514 C381.728023,3506.75245 380.802739,3507.30664 379.826172,3507.67773 C378.849604,3508.04883 377.843755,3508.23438 376.808594,3508.23438 C375.900386,3508.23438 375.058109,3508.07324 374.281738,3507.75098 C373.505367,3507.42871 372.841311,3506.96729 372.289551,3506.3667 C371.73779,3505.76611 371.315431,3505.03858 371.022461,3504.18408 C370.729491,3503.32959 370.583008,3502.39942 370.583008,3501.39355 C370.583008,3499.76269 370.880856,3498.16114 371.476562,3496.58887 C372.072269,3495.01659 372.873042,3493.61768 373.878906,3492.39209 C374.884771,3491.1665 376.029779,3490.19727 377.313965,3489.48438 C378.598151,3488.77148 379.909173,3488.41504 381.24707,3488.41504 C382.487311,3488.41504 383.58105,3488.708 384.52832,3489.29395 C385.475591,3489.87989 386.210447,3490.70507 386.73291,3491.76953 C387.255374,3492.83399 387.516602,3494.05468 387.516602,3495.43164 Z M385.832031,3494.81641 C385.832031,3493.9082 385.719728,3493.09034 385.495117,3492.36279 C385.270507,3491.63525 384.948244,3491.02002 384.52832,3490.51709 C384.108396,3490.01416 383.600589,3489.62842 383.004883,3489.35986 C382.409177,3489.09131 381.720707,3488.95703 380.939453,3488.95703 C380.128902,3488.95703 379.325688,3489.13525 378.529785,3489.4917 C377.733883,3489.84815 376.98682,3490.3706 376.288574,3491.05908 C375.590329,3491.74756 374.962893,3492.58496 374.40625,3493.57129 C373.781247,3494.66504 373.268557,3495.97607 372.868164,3497.50439 C372.467771,3499.03272 372.267578,3500.44628 372.267578,3501.74512 C372.267578,3502.96583 372.46533,3504.02539 372.86084,3504.92383 C373.25635,3505.82227 373.825192,3506.51562 374.567383,3507.00391 C375.309574,3507.49219 376.164058,3507.73633 377.130859,3507.73633 C378.039067,3507.73633 378.939937,3507.50684 379.833496,3507.04785 C380.727055,3506.58886 381.549801,3505.93946 382.301758,3505.09961 C383.053715,3504.25976 383.688474,3503.28321 384.206055,3502.16992 C384.665041,3501.18359 385.05078,3499.99952 385.363281,3498.61768 C385.675783,3497.23583 385.832031,3495.96876 385.832031,3494.81641 Z M387.838867,3505.74414 C387.838867,3505.00195 387.96826,3504.26465 388.227051,3503.53223 C388.485841,3502.7998 388.834959,3502.14307 389.274414,3501.56201 C389.713869,3500.98095 390.221677,3500.50977 390.797852,3500.14844 C391.374026,3499.78711 391.974606,3499.60645 392.599609,3499.60645 C392.814454,3499.60645 392.997558,3499.62109 393.148926,3499.65039 C393.300294,3499.67969 393.454101,3499.73828 393.610352,3499.82617 C393.463866,3499.52344 393.270997,3499.22559 393.031738,3498.93262 C392.792479,3498.63965 392.541017,3498.34424 392.277344,3498.04639 C392.013671,3497.74853 391.745119,3497.45069 391.47168,3497.15283 C391.198241,3496.85498 390.954103,3496.55469 390.739258,3496.25195 C390.524413,3495.94922 390.348633,3495.64404 390.211914,3495.33643 C390.075195,3495.02881 390.006836,3494.71875 390.006836,3494.40625 C390.006836,3494.18164 390.045898,3493.94727 390.124023,3493.70312 C390.202149,3493.45898 390.348632,3493.2124 390.563477,3492.96338 C390.778321,3492.71435 391.073729,3492.47022 391.449707,3492.23096 C391.825685,3491.9917 392.31152,3491.76465 392.907227,3491.5498 C393.424807,3491.36426 393.927732,3491.17627 394.416016,3490.98584 C394.904299,3490.79541 395.360838,3490.60498 395.785645,3490.41455 C396.210451,3490.22412 396.593748,3490.03125 396.935547,3489.83594 C397.277345,3489.64062 397.560546,3489.44531 397.785156,3489.25 L397.858398,3490.36328 C397.711913,3490.54883 397.514161,3490.72705 397.265137,3490.89795 C397.016112,3491.06885 396.732912,3491.22998 396.415527,3491.38135 C396.098143,3491.53272 395.758791,3491.67676 395.397461,3491.81348 C395.036131,3491.9502 394.674806,3492.07715 394.313477,3492.19434 C393.639645,3492.40918 393.080569,3492.61914 392.63623,3492.82422 C392.191892,3493.0293 391.837892,3493.2417 391.574219,3493.46143 C391.310546,3493.68115 391.125001,3493.91553 391.017578,3494.16455 C390.910156,3494.41358 390.856445,3494.68945 390.856445,3494.99219 C390.856445,3495.31445 390.922363,3495.60742 391.054199,3495.87109 C391.186036,3496.13477 391.361815,3496.39355 391.581543,3496.64746 C391.801271,3496.90137 392.060057,3497.1626 392.35791,3497.43115 C392.655763,3497.69971 392.970701,3498 393.302734,3498.33203 C393.546876,3498.57617 393.776366,3498.81543 393.991211,3499.0498 C394.206056,3499.28418 394.391601,3499.5332 394.547852,3499.79688 C394.704102,3500.06055 394.828613,3500.34863 394.921387,3500.66113 C395.014161,3500.97363 395.060547,3501.33496 395.060547,3501.74512 C395.060547,3502.03809 395.014161,3502.40429 394.921387,3502.84375 C394.828613,3503.28321 394.689454,3503.74219 394.503906,3504.2207 C394.318358,3504.69922 394.083986,3505.18017 393.800781,3505.66357 C393.517577,3506.14698 393.185549,3506.5791 392.804688,3506.95996 C392.423826,3507.34082 391.994143,3507.65088 391.515625,3507.89014 C391.037107,3508.1294 390.509769,3508.24902 389.933594,3508.24902 C389.308591,3508.24902 388.803225,3508.05615 388.41748,3507.67041 C388.031736,3507.28467 387.838867,3506.64258 387.838867,3505.74414 Z M393.90332,3501.55469 C393.90332,3500.93945 393.805665,3500.51709 393.610352,3500.2876 C393.415038,3500.0581 393.161134,3499.94336 392.848633,3499.94336 C392.37988,3499.94336 391.923342,3500.09473 391.479004,3500.39746 C391.034666,3500.7002 390.639162,3501.11035 390.29248,3501.62793 C389.945799,3502.14551 389.667482,3502.74853 389.45752,3503.43701 C389.247558,3504.12549 389.142578,3504.85546 389.142578,3505.62695 C389.142578,3506.03711 389.179199,3506.3789 389.252441,3506.65234 C389.325684,3506.92578 389.425781,3507.14551 389.552734,3507.31152 C389.679688,3507.47754 389.826171,3507.59717 389.992188,3507.67041 C390.158204,3507.74365 390.338866,3507.78027 390.53418,3507.78027 C390.885744,3507.78027 391.212889,3507.67041 391.515625,3507.45068 C391.818361,3507.23096 392.094237,3506.94287 392.343262,3506.58643 C392.592286,3506.22998 392.814452,3505.82715 393.009766,3505.37793 C393.205079,3504.92871 393.368652,3504.47461 393.500488,3504.01562 C393.632325,3503.55664 393.732422,3503.11231 393.800781,3502.68262 C393.869141,3502.25293 393.90332,3501.87695 393.90332,3501.55469 Z M402.53125,3508.16113 C402.023435,3508.16113 401.623048,3508.00977 401.330078,3507.70703 C401.037108,3507.4043 400.890625,3507.01856 400.890625,3506.5498 L400.890625,3506.3374 C400.890625,3506.27393 400.895508,3506.20801 400.905273,3506.13965 C400.504881,3506.75489 400.060549,3507.23584 399.572266,3507.58252 C399.083982,3507.9292 398.581057,3508.12207 398.063477,3508.16113 C397.565427,3508.16113 397.167482,3508.01709 396.869629,3507.729 C396.571776,3507.44092 396.422852,3507.05762 396.422852,3506.5791 C396.422852,3506.2373 396.476562,3505.78321 396.583984,3505.2168 L397.580078,3500.03125 L399.000977,3499.43066 L397.580078,3505.09961 C397.453124,3505.59766 397.389648,3506.02734 397.389648,3506.38867 C397.389648,3506.56445 397.418945,3506.7207 397.477539,3506.85742 C397.536133,3506.99414 397.614257,3507.11133 397.711914,3507.20898 C397.809571,3507.30664 397.912109,3507.38232 398.019531,3507.43604 C398.126954,3507.48975 398.234374,3507.5166 398.341797,3507.5166 C398.74219,3507.5166 399.18408,3507.3457 399.66748,3507.00391 C400.150881,3506.66211 400.602537,3506.125 401.022461,3505.39258 L402.018555,3500.03125 L403.454102,3499.43066 L402.165039,3504.25 C401.950194,3505.02149 401.842773,3505.65625 401.842773,3506.1543 C401.842773,3506.42774 401.874511,3506.65234 401.937988,3506.82812 C402.001465,3507.00391 402.079589,3507.14307 402.172363,3507.24561 C402.265137,3507.34815 402.367675,3507.41895 402.47998,3507.45801 C402.592286,3507.49707 402.702148,3507.5166 402.80957,3507.5166 C403.209963,3507.5166 403.656736,3507.3457 404.149902,3507.00391 C404.643069,3506.66211 405.099607,3506.125 405.519531,3505.39258 L406.486328,3500.03125 L407.921875,3499.43066 L406.632812,3504.25 C406.417968,3505.02149 406.310547,3505.65625 406.310547,3506.1543 C406.310547,3506.4668 406.364257,3506.7207 406.47168,3506.91602 C406.579102,3507.11133 406.720702,3507.20898 406.896484,3507.20898 C407.19922,3507.20898 407.682614,3506.84766 408.34668,3506.125 L408.581055,3506.33008 L408.43457,3506.49121 C408.151366,3506.82324 407.909669,3507.09912 407.709473,3507.31885 C407.509276,3507.53858 407.340821,3507.70703 407.204102,3507.82422 C406.930663,3508.04883 406.686525,3508.16113 406.47168,3508.16113 C406.168944,3508.16113 405.912599,3508.00977 405.702637,3507.70703 C405.492675,3507.4043 405.387695,3507.01856 405.387695,3506.5498 L405.387695,3506.3374 C405.387695,3506.27393 405.392578,3506.20801 405.402344,3506.13965 C404.972654,3506.73535 404.516116,3507.21142 404.032715,3507.56787 C403.549314,3507.92432 403.048831,3508.12207 402.53125,3508.16113 Z M412.360352,3499.43066 L410.939453,3505.09961 C410.812499,3505.60742 410.749023,3506.03711 410.749023,3506.38867 C410.749023,3506.73047 410.856444,3507.00391 411.071289,3507.20898 C411.286134,3507.41406 411.564451,3507.5166 411.90625,3507.5166 C412.736332,3507.5166 413.600581,3506.8379 414.499023,3505.48047 L414.557617,3505.39258 C414.577149,3505.29492 414.591797,3505.2168 414.601562,3505.1582 L415.524414,3500.03125 L416.959961,3499.43066 L415.670898,3504.25 C415.456054,3505.04102 415.348633,3505.67578 415.348633,3506.1543 C415.348633,3506.4668 415.402343,3506.7207 415.509766,3506.91602 C415.617188,3507.11133 415.758788,3507.20898 415.93457,3507.20898 C416.237306,3507.20898 416.7207,3506.84766 417.384766,3506.125 L417.619141,3506.33008 L417.472656,3506.49121 C416.916013,3507.14551 416.505861,3507.5874 416.242188,3507.81689 C415.978514,3508.04639 415.734376,3508.16113 415.509766,3508.16113 C415.20703,3508.16113 414.950685,3508.00733 414.740723,3507.69971 C414.530761,3507.39209 414.425781,3507.00879 414.425781,3506.5498 C414.425781,3506.40332 414.430664,3506.2666 414.44043,3506.13965 C413.4248,3507.48731 412.41895,3508.16113 411.422852,3508.16113 C410.924802,3508.16113 410.526857,3508.01709 410.229004,3507.729 C409.931151,3507.44092 409.782227,3507.05762 409.782227,3506.5791 C409.782227,3506.20801 409.835937,3505.75391 409.943359,3505.2168 L410.939453,3500.03125 L412.360352,3499.43066 Z M424.328125,3507.83887 L423.361328,3508.14648 L424.518555,3502.18457 L424.621094,3501.67188 C424.679688,3501.38867 424.708984,3501.1543 424.708984,3500.96875 C424.708984,3500.53906 424.538088,3500.32422 424.196289,3500.32422 C423.874022,3500.32422 423.483401,3500.5415 423.024414,3500.97607 C422.565427,3501.41065 422.082034,3502.03808 421.574219,3502.8584 C421.242186,3503.38574 420.956544,3503.89355 420.717285,3504.38184 C420.478026,3504.87012 420.258302,3505.39013 420.058105,3505.94189 C419.857909,3506.49366 419.66504,3507.12597 419.479492,3507.83887 L418.571289,3508.14648 L420.080078,3500.03125 L421.486328,3499.43066 L420.211914,3504.74805 C420.866214,3503.23437 421.615718,3501.9917 422.460449,3501.02002 C423.30518,3500.04833 424.06445,3499.5625 424.738281,3499.5625 C425.470707,3499.5625 425.836914,3499.97753 425.836914,3500.80762 C425.836914,3501.09082 425.763673,3501.59375 425.617188,3502.31641 L425.133789,3504.49902 C426.081059,3502.68261 426.881833,3501.40088 427.536133,3500.65381 C428.190433,3499.90673 428.839841,3499.5332 429.484375,3499.5332 C429.845705,3499.5332 430.128905,3499.64062 430.333984,3499.85547 C430.539064,3500.07031 430.641602,3500.37793 430.641602,3500.77832 C430.641602,3501.10059 430.543946,3501.65722 430.348633,3502.44824 L429.894531,3504.25 L429.748047,3504.82129 C429.611327,3505.42676 429.542969,3505.87598 429.542969,3506.16895 C429.542969,3506.48145 429.596679,3506.73291 429.704102,3506.92334 C429.811524,3507.11377 429.948241,3507.20898 430.114258,3507.20898 C430.426759,3507.20898 430.915036,3506.84766 431.579102,3506.125 L431.798828,3506.33008 L431.666992,3506.49121 C431.110349,3507.14551 430.697755,3507.5874 430.429199,3507.81689 C430.160643,3508.04639 429.914064,3508.16113 429.689453,3508.16113 C429.386717,3508.16113 429.130372,3508.00733 428.92041,3507.69971 C428.710448,3507.39209 428.605469,3507.00879 428.605469,3506.5498 C428.605469,3506.2666 428.668945,3505.80274 428.795898,3505.1582 L429.337891,3502.12598 L429.425781,3501.59863 C429.484375,3501.30566 429.513672,3501.07129 429.513672,3500.89551 C429.513672,3500.71973 429.459961,3500.57813 429.352539,3500.4707 C429.245117,3500.36328 429.098634,3500.30957 428.913086,3500.30957 C428.698241,3500.30957 428.461427,3500.3999 428.202637,3500.58057 C427.943846,3500.76123 427.66797,3501.03711 427.375,3501.4082 C427.08203,3501.7793 426.754885,3502.26758 426.393555,3502.87305 C425.905271,3503.70313 425.509767,3504.47705 425.207031,3505.19482 C424.904295,3505.9126 424.61133,3506.79394 424.328125,3507.83887 Z M441.803711,3499.43066 L440.514648,3504.25 C440.299804,3505.04102 440.192383,3505.67578 440.192383,3506.1543 C440.192383,3506.4668 440.246093,3506.7207 440.353516,3506.91602 C440.460938,3507.11133 440.602538,3507.20898 440.77832,3507.20898 C441.081056,3507.20898 441.56445,3506.84766 442.228516,3506.125 L442.462891,3506.33008 L442.316406,3506.49121 C441.759763,3507.14551 441.349611,3507.5874 441.085938,3507.81689 C440.822264,3508.04639 440.578126,3508.16113 440.353516,3508.16113 C440.05078,3508.16113 439.794435,3508.00733 439.584473,3507.69971 C439.374511,3507.39209 439.269531,3507.00879 439.269531,3506.5498 C439.269531,3506.25683 439.328124,3505.79297 439.445312,3505.1582 L440.368164,3500.03125 L441.803711,3499.43066 Z M437.277344,3502.28711 C437.501954,3502.28711 437.702148,3502.30664 437.87793,3502.3457 C438.053712,3502.38477 438.205077,3502.45801 438.332031,3502.56543 C438.458985,3502.67285 438.554199,3502.82178 438.617676,3503.01221 C438.681153,3503.20264 438.712891,3503.44433 438.712891,3503.7373 C438.712891,3504.22559 438.58838,3504.73095 438.339355,3505.25342 C438.090331,3505.77588 437.77051,3506.25195 437.379883,3506.68164 C436.989256,3507.11133 436.552249,3507.46533 436.068848,3507.74365 C435.585447,3508.02197 435.11426,3508.16113 434.655273,3508.16113 C434.157224,3508.16113 433.759279,3508.01709 433.461426,3507.729 C433.163573,3507.44092 433.014648,3507.05762 433.014648,3506.5791 C433.014648,3506.2373 433.068359,3505.78321 433.175781,3505.2168 L434.171875,3500.03125 L435.548828,3499.43066 L434.230469,3504.55762 C434.757815,3503.7666 435.285154,3503.19043 435.8125,3502.8291 C436.339846,3502.46777 436.828123,3502.28711 437.277344,3502.28711 Z M433.981445,3506.38867 C433.981445,3506.73047 434.088866,3507.01855 434.303711,3507.25293 C434.518556,3507.48731 434.821287,3507.60449 435.211914,3507.60449 C435.465822,3507.60449 435.729491,3507.52637 436.00293,3507.37012 C436.276369,3507.21387 436.527831,3506.98682 436.757324,3506.68896 C436.986818,3506.39111 437.177245,3506.02002 437.328613,3505.57568 C437.479981,3505.13135 437.555664,3504.6211 437.555664,3504.04492 C437.555664,3503.69336 437.504395,3503.41748 437.401855,3503.21729 C437.299316,3503.01709 437.106447,3502.91699 436.823242,3502.91699 C436.627929,3502.91699 436.415528,3502.96582 436.186035,3503.06348 C435.956542,3503.16113 435.722169,3503.31494 435.48291,3503.5249 C435.243651,3503.73486 435.004396,3504.00097 434.765137,3504.32324 C434.525878,3504.64551 434.298829,3505.03125 434.083984,3505.48047 C434.015625,3505.8125 433.981445,3506.11523 433.981445,3506.38867 Z M446.754883,3503.07812 L447.282227,3502.46289 C447.5459,3502.16015 447.936521,3501.69629 448.454102,3501.07129 L449.435547,3499.85547 L449.582031,3499.66504 L450.607422,3499.66504 L450.460938,3499.82617 C449.689449,3500.63672 449.049807,3501.32519 448.541992,3501.8916 C447.760738,3502.74122 447.262696,3503.28808 447.047852,3503.53223 L447.003906,3503.59082 L449.083984,3508.01465 L447.750977,3508.01465 L446.154297,3504.55762 L446.110352,3504.61621 C445.963866,3504.77246 445.685549,3505.10449 445.275391,3505.6123 L444.381836,3506.69629 C443.825193,3507.38965 443.458985,3507.8291 443.283203,3508.01465 L442.257812,3508.01465 L442.492188,3507.78027 C443.32227,3506.94043 444.274409,3505.91016 445.348633,3504.68945 L445.919922,3504.04492 L444.000977,3499.88477 L445.041016,3499.45996 L446.754883,3503.07812 Z M374.120605,3541.74414 C374.120605,3541.00195 374.249999,3540.26465 374.508789,3539.53223 C374.767579,3538.7998 375.116697,3538.14307 375.556152,3537.56201 C375.995608,3536.98095 376.503415,3536.50977 377.07959,3536.14844 C377.655765,3535.78711 378.256345,3535.60645 378.881348,3535.60645 C379.096192,3535.60645 379.279296,3535.62109 379.430664,3535.65039 C379.582032,3535.67969 379.735839,3535.73828 379.89209,3535.82617 C379.745605,3535.52344 379.552736,3535.22559 379.313477,3534.93262 C379.074218,3534.63965 378.822755,3534.34424 378.559082,3534.04639 C378.295409,3533.74853 378.026857,3533.45069 377.753418,3533.15283 C377.479979,3532.85498 377.235841,3532.55469 377.020996,3532.25195 C376.806151,3531.94922 376.630372,3531.64404 376.493652,3531.33643 C376.356933,3531.02881 376.288574,3530.71875 376.288574,3530.40625 C376.288574,3530.18164 376.327636,3529.94727 376.405762,3529.70312 C376.483887,3529.45898 376.63037,3529.2124 376.845215,3528.96338 C377.06006,3528.71435 377.355467,3528.47022 377.731445,3528.23096 C378.107424,3527.9917 378.593259,3527.76465 379.188965,3527.5498 C379.706546,3527.36426 380.20947,3527.17627 380.697754,3526.98584 C381.186038,3526.79541 381.642576,3526.60498 382.067383,3526.41455 C382.49219,3526.22412 382.875487,3526.03125 383.217285,3525.83594 C383.559084,3525.64062 383.842284,3525.44531 384.066895,3525.25 L384.140137,3526.36328 C383.993652,3526.54883 383.7959,3526.72705 383.546875,3526.89795 C383.29785,3527.06885 383.01465,3527.22998 382.697266,3527.38135 C382.379881,3527.53272 382.040529,3527.67676 381.679199,3527.81348 C381.317869,3527.9502 380.956545,3528.07715 380.595215,3528.19434 C379.921383,3528.40918 379.362307,3528.61914 378.917969,3528.82422 C378.473631,3529.0293 378.11963,3529.2417 377.855957,3529.46143 C377.592284,3529.68115 377.406739,3529.91553 377.299316,3530.16455 C377.191894,3530.41358 377.138184,3530.68945 377.138184,3530.99219 C377.138184,3531.31445 377.204101,3531.60742 377.335938,3531.87109 C377.467774,3532.13477 377.643554,3532.39355 377.863281,3532.64746 C378.083009,3532.90137 378.341795,3533.1626 378.639648,3533.43115 C378.937501,3533.69971 379.25244,3534 379.584473,3534.33203 C379.828615,3534.57617 380.058104,3534.81543 380.272949,3535.0498 C380.487794,3535.28418 380.673339,3535.5332 380.82959,3535.79688 C380.985841,3536.06055 381.110351,3536.34863 381.203125,3536.66113 C381.295899,3536.97363 381.342285,3537.33496 381.342285,3537.74512 C381.342285,3538.03809 381.295899,3538.40429 381.203125,3538.84375 C381.110351,3539.28321 380.971192,3539.74219 380.785645,3540.2207 C380.600097,3540.69922 380.365724,3541.18017 380.08252,3541.66357 C379.799315,3542.14698 379.467287,3542.5791 379.086426,3542.95996 C378.705565,3543.34082 378.275881,3543.65088 377.797363,3543.89014 C377.318845,3544.1294 376.791507,3544.24902 376.215332,3544.24902 C375.590329,3544.24902 375.084963,3544.05615 374.699219,3543.67041 C374.313475,3543.28467 374.120605,3542.64258 374.120605,3541.74414 Z M380.185059,3537.55469 C380.185059,3536.93945 380.087403,3536.51709 379.89209,3536.2876 C379.696776,3536.0581 379.442873,3535.94336 379.130371,3535.94336 C378.661619,3535.94336 378.20508,3536.09473 377.760742,3536.39746 C377.316404,3536.7002 376.9209,3537.11035 376.574219,3537.62793 C376.227537,3538.14551 375.94922,3538.74853 375.739258,3539.43701 C375.529296,3540.12549 375.424316,3540.85546 375.424316,3541.62695 C375.424316,3542.03711 375.460937,3542.3789 375.53418,3542.65234 C375.607422,3542.92578 375.707519,3543.14551 375.834473,3543.31152 C375.961426,3543.47754 376.107909,3543.59717 376.273926,3543.67041 C376.439942,3543.74365 376.620604,3543.78027 376.815918,3543.78027 C377.167482,3543.78027 377.494627,3543.67041 377.797363,3543.45068 C378.100099,3543.23096 378.375975,3542.94287 378.625,3542.58643 C378.874025,3542.22998 379.09619,3541.82715 379.291504,3541.37793 C379.486817,3540.92871 379.65039,3540.47461 379.782227,3540.01562 C379.914063,3539.55664 380.01416,3539.11231 380.08252,3538.68262 C380.150879,3538.25293 380.185059,3537.87695 380.185059,3537.55469 Z M390.570801,3535.34277 L389.193848,3540.7041 C389.047363,3541.29004 388.974121,3541.74902 388.974121,3542.08105 C388.974121,3542.37402 389.037597,3542.62793 389.164551,3542.84277 C389.291505,3543.05762 389.447753,3543.16504 389.633301,3543.16504 C389.916505,3543.16504 390.385251,3542.81836 391.039551,3542.125 L391.244629,3542.33008 L391.083496,3542.52051 C390.565915,3543.11621 390.16797,3543.53369 389.889648,3543.77295 C389.611327,3544.01221 389.36963,3544.13184 389.164551,3544.13184 C388.852049,3544.13184 388.581056,3543.96826 388.351562,3543.64111 C388.122069,3543.31396 388.007324,3542.93555 388.007324,3542.50586 C388.007324,3542.19336 388.124511,3541.48536 388.358887,3540.38184 L388.476074,3539.8252 C388.114744,3540.66504 387.631351,3541.4707 387.025879,3542.24219 C386.010249,3543.53126 385.038579,3544.17578 384.11084,3544.17578 C383.554196,3544.17578 383.114748,3543.97559 382.79248,3543.5752 C382.470213,3543.1748 382.309082,3542.6377 382.309082,3541.96387 C382.309082,3541.04589 382.57031,3540.08399 383.092773,3539.07812 C383.615237,3538.07226 384.264645,3537.24463 385.041016,3536.59521 C385.817387,3535.9458 386.571774,3535.62109 387.304199,3535.62109 C388.075687,3535.62109 388.651854,3535.90429 389.032715,3536.4707 L389.193848,3535.91406 L390.570801,3535.34277 Z M388.88623,3537.21777 C388.769042,3536.84668 388.57129,3536.55615 388.292969,3536.34619 C388.014647,3536.13623 387.694826,3536.03125 387.333496,3536.03125 C386.903806,3536.03125 386.449709,3536.229 385.971191,3536.62451 C385.492673,3537.02002 385.053225,3537.56933 384.652832,3538.27246 C384.34033,3538.8291 384.079103,3539.44433 383.869141,3540.11816 C383.659179,3540.792 383.554199,3541.34863 383.554199,3541.78809 C383.554199,3542.28614 383.649413,3542.67676 383.839844,3542.95996 C384.030274,3543.24317 384.301268,3543.38477 384.652832,3543.38477 C385.102053,3543.38477 385.570798,3543.17481 386.059082,3542.75488 C386.547366,3542.33496 387.030759,3541.73438 387.509277,3540.95312 C387.802248,3540.5039 388.031737,3540.05469 388.197754,3539.60547 C388.36377,3539.15625 388.549315,3538.53125 388.754395,3537.73047 L388.88623,3537.21777 Z M400.077637,3535.63574 C399.921386,3536.17285 399.748048,3536.75146 399.557617,3537.37158 C399.367187,3537.9917 399.1792,3538.6582 398.993652,3539.37109 C398.808105,3540.08399 398.656739,3540.67236 398.539551,3541.13623 C398.422363,3541.6001 398.36377,3541.94433 398.36377,3542.16895 C398.36377,3542.48145 398.41748,3542.73291 398.524902,3542.92334 C398.632325,3543.11377 398.773925,3543.20898 398.949707,3543.20898 C399.252443,3543.20898 399.735837,3542.84766 400.399902,3542.125 L400.634277,3542.33008 L400.487793,3542.49121 C400.204588,3542.82324 399.962892,3543.09912 399.762695,3543.31885 C399.562499,3543.53858 399.394044,3543.70703 399.257324,3543.82422 C398.983885,3544.04883 398.739747,3544.16113 398.524902,3544.16113 C398.222166,3544.16113 397.965821,3544.00977 397.755859,3543.70703 C397.545897,3543.4043 397.440918,3543.01856 397.440918,3542.5498 C397.440918,3542.2373 397.499511,3541.77344 397.616699,3541.1582 L398.612793,3536.17773 L397.689941,3536.36816 C397.494628,3536.40723 397.318848,3536.49268 397.162598,3536.62451 C397.006347,3536.75635 396.83545,3536.98096 396.649902,3537.29834 C396.464355,3537.61572 396.251954,3538.05273 396.012695,3538.60938 C395.773436,3539.16602 395.473146,3539.88378 395.111816,3540.7627 C394.984863,3541.06543 394.831056,3541.40478 394.650391,3541.78076 C394.469726,3542.15674 394.262208,3542.5083 394.027832,3542.83545 C393.793456,3543.1626 393.537111,3543.43848 393.258789,3543.66309 C392.980467,3543.8877 392.689943,3544 392.387207,3544 C392.28955,3544 392.182129,3543.99512 392.064941,3543.98535 C391.947753,3543.97559 391.83545,3543.95605 391.728027,3543.92676 L392.138184,3542.35938 C392.333497,3542.52539 392.572752,3542.6084 392.855957,3542.6084 C393.158693,3542.6084 393.463866,3542.4668 393.771484,3542.18359 C394.079103,3541.90039 394.37451,3541.43653 394.657715,3540.79199 C394.823731,3540.4209 394.989745,3540.01563 395.155762,3539.57617 C395.321778,3539.13672 395.473144,3538.7168 395.609863,3538.31641 C395.746583,3537.91601 395.856445,3537.55713 395.939453,3537.23975 C396.022461,3536.92236 396.068848,3536.69531 396.078613,3536.55859 L394.51123,3536.67578 L394.833496,3536.19238 L400.077637,3535.63574 Z M403.109863,3536.03125 L404.501465,3535.43066 L403.227051,3540.86523 C403.471193,3540.42578 403.727538,3539.99854 403.996094,3539.5835 C404.26465,3539.16845 404.538085,3538.77783 404.816406,3538.41162 C405.094728,3538.04541 405.368163,3537.7085 405.636719,3537.40088 C405.905275,3537.09326 406.16162,3536.82715 406.405762,3536.60254 C406.630372,3536.39746 406.833007,3536.22412 407.013672,3536.08252 C407.194337,3535.94092 407.379882,3535.82373 407.570312,3535.73096 C407.760743,3535.63818 407.965819,3535.56982 408.185547,3535.52588 C408.405275,3535.48193 408.666502,3535.4502 408.969238,3535.43066 L408.690918,3536.79297 C408.466307,3536.71484 408.27588,3536.6709 408.119629,3536.66113 C407.963378,3536.65137 407.826661,3536.64648 407.709473,3536.64648 C407.523925,3536.64648 407.316407,3536.69775 407.086914,3536.80029 C406.857421,3536.90283 406.623048,3537.04932 406.383789,3537.23975 C406.14453,3537.43018 405.910157,3537.65478 405.680664,3537.91357 C405.451171,3538.17236 405.238771,3538.46289 405.043457,3538.78516 C405.199708,3539.16602 405.377929,3539.61035 405.578125,3540.11816 C405.778321,3540.62598 405.98828,3541.10937 406.208008,3541.56836 C406.427735,3542.02735 406.645018,3542.41553 406.859863,3542.73291 C407.074708,3543.05029 407.274901,3543.20898 407.460449,3543.20898 C407.890139,3543.20898 408.388181,3542.91114 408.95459,3542.31543 L409.071777,3542.18359 L409.262207,3542.40332 C408.275874,3543.59473 407.558108,3544.19043 407.108887,3544.19043 C406.952636,3544.19043 406.80127,3544.16113 406.654785,3544.10254 C406.5083,3544.04395 406.376465,3543.94141 406.259277,3543.79492 C406.093261,3543.59961 405.937012,3543.35547 405.790527,3543.0625 C405.644042,3542.76953 405.492677,3542.44238 405.336426,3542.08105 C405.180175,3541.71972 405.019044,3541.33643 404.853027,3540.93115 C404.687011,3540.52588 404.506349,3540.1084 404.311035,3539.67871 C403.93994,3540.20606 403.590822,3540.80664 403.263672,3541.48047 C402.936522,3542.1543 402.689942,3542.95019 402.523926,3543.86816 L401.586426,3544.13184 L403.109863,3536.03125 Z M410.199707,3541.1875 C410.199707,3540.30859 410.436521,3539.43213 410.910156,3538.55811 C411.383791,3537.68408 411.996578,3536.97364 412.748535,3536.42676 C413.500492,3535.87988 414.267086,3535.60645 415.04834,3535.60645 C415.868656,3535.60645 416.530271,3535.87744 417.033203,3536.41943 C417.536135,3536.96143 417.787598,3537.66211 417.787598,3538.52148 C417.787598,3539.45899 417.555666,3540.36718 417.091797,3541.24609 C416.627927,3542.125 416.017582,3542.84521 415.260742,3543.40674 C414.503902,3543.96826 413.73975,3544.24902 412.968262,3544.24902 C412.138179,3544.24902 411.469241,3543.96826 410.961426,3543.40674 C410.453611,3542.84521 410.199707,3542.10547 410.199707,3541.1875 Z M416.469238,3537.96484 C416.469238,3537.3789 416.325197,3536.89551 416.037109,3536.51465 C415.749022,3536.13379 415.380373,3535.94336 414.931152,3535.94336 C414.520994,3535.94336 414.127932,3536.07519 413.751953,3536.33887 C413.375975,3536.60254 413.03174,3536.98828 412.719238,3537.49609 C412.367674,3538.08203 412.07715,3538.76562 411.847656,3539.54688 C411.618163,3540.32813 411.503418,3541.02148 411.503418,3541.62695 C411.503418,3542.34961 411.645018,3542.90625 411.928223,3543.29688 C412.211427,3543.6875 412.616697,3543.88281 413.144043,3543.88281 C413.993657,3543.88281 414.740719,3543.292 415.385254,3542.11035 C415.717287,3541.50488 415.980956,3540.82618 416.17627,3540.07422 C416.371583,3539.32226 416.469238,3538.61914 416.469238,3537.96484 Z M425.126465,3536.03125 L426.562012,3535.43066 L425.36084,3540.08887 C425.214355,3540.66504 425.114258,3541.1167 425.060547,3541.44385 C425.006836,3541.771 424.97998,3542.01269 424.97998,3542.16895 C424.97998,3542.48145 425.033691,3542.73291 425.141113,3542.92334 C425.248536,3543.11377 425.390136,3543.20898 425.565918,3543.20898 C425.868654,3543.20898 426.352047,3542.84766 427.016113,3542.125 L427.250488,3542.33008 L427.104004,3542.49121 C426.820799,3542.82324 426.579103,3543.09912 426.378906,3543.31885 C426.17871,3543.53858 426.010255,3543.70703 425.873535,3543.82422 C425.600096,3544.04883 425.355958,3544.16113 425.141113,3544.16113 C424.838377,3544.16113 424.582032,3544.00977 424.37207,3543.70703 C424.162108,3543.4043 424.057129,3543.01856 424.057129,3542.5498 C424.057129,3542.30566 424.091308,3541.95899 424.159668,3541.50977 C424.228028,3541.06054 424.3208,3540.51368 424.437988,3539.86914 L421.039551,3539.86914 L420.116699,3543.83887 L419.135254,3544.14648 L420.687988,3536.03125 L422.07959,3535.43066 L421.156738,3539.37109 L424.540527,3539.37109 C424.628418,3538.89258 424.721191,3538.37744 424.818848,3537.82568 C424.916504,3537.27392 425.019042,3536.67578 425.126465,3536.03125 Z M428.070801,3541.1875 C428.070801,3540.30859 428.307615,3539.43213 428.78125,3538.55811 C429.254885,3537.68408 429.867672,3536.97364 430.619629,3536.42676 C431.371586,3535.87988 432.13818,3535.60645 432.919434,3535.60645 C433.73975,3535.60645 434.401365,3535.87744 434.904297,3536.41943 C435.407229,3536.96143 435.658691,3537.66211 435.658691,3538.52148 C435.658691,3539.45899 435.42676,3540.36718 434.962891,3541.24609 C434.499021,3542.125 433.888676,3542.84521 433.131836,3543.40674 C432.374996,3543.96826 431.610844,3544.24902 430.839355,3544.24902 C430.009273,3544.24902 429.340335,3543.96826 428.83252,3543.40674 C428.324704,3542.84521 428.070801,3542.10547 428.070801,3541.1875 Z M434.340332,3537.96484 C434.340332,3537.3789 434.196291,3536.89551 433.908203,3536.51465 C433.620116,3536.13379 433.251467,3535.94336 432.802246,3535.94336 C432.392088,3535.94336 431.999025,3536.07519 431.623047,3536.33887 C431.247068,3536.60254 430.902834,3536.98828 430.590332,3537.49609 C430.238768,3538.08203 429.948243,3538.76562 429.71875,3539.54688 C429.489257,3540.32813 429.374512,3541.02148 429.374512,3541.62695 C429.374512,3542.34961 429.516112,3542.90625 429.799316,3543.29688 C430.082521,3543.6875 430.48779,3543.88281 431.015137,3543.88281 C431.86475,3543.88281 432.611813,3543.292 433.256348,3542.11035 C433.588381,3541.50488 433.85205,3540.82618 434.047363,3540.07422 C434.242677,3539.32226 434.340332,3538.61914 434.340332,3537.96484 Z M438.95459,3539.62012 C439.638187,3538.30175 440.355953,3537.32032 441.10791,3536.67578 C441.859867,3536.03125 442.597164,3535.70898 443.319824,3535.70898 C443.642091,3535.70898 443.910643,3535.75781 444.125488,3535.85547 C444.340333,3535.95313 444.513671,3536.08984 444.645508,3536.26562 C444.777344,3536.44141 444.870117,3536.65137 444.923828,3536.89551 C444.977539,3537.13965 445.004395,3537.41308 445.004395,3537.71582 C445.004395,3538.12598 444.945801,3538.57275 444.828613,3539.05615 C444.711425,3539.53955 444.545411,3540.02295 444.330566,3540.50635 C444.115722,3540.98975 443.856935,3541.45605 443.554199,3541.90527 C443.251463,3542.35449 442.914553,3542.75244 442.543457,3543.09912 C442.172361,3543.4458 441.769533,3543.72412 441.334961,3543.93408 C440.900388,3544.14404 440.448733,3544.24902 439.97998,3544.24902 C439.804198,3544.24902 439.59424,3544.22217 439.350098,3544.16846 C439.105956,3544.11475 438.874025,3543.98535 438.654297,3543.78027 C438.434569,3543.57519 438.249024,3543.26758 438.097656,3542.85742 C437.946288,3542.44726 437.870605,3541.88086 437.870605,3541.1582 C437.870605,3540.54297 437.91455,3539.88379 438.002441,3539.18066 C438.090332,3538.47754 438.236815,3537.667 438.441895,3536.74902 C438.314941,3536.76855 438.148927,3536.78564 437.943848,3536.80029 C437.738769,3536.81494 437.538575,3536.82227 437.343262,3536.82227 L437.401855,3536.42676 C437.587403,3536.42676 437.790038,3536.41699 438.009766,3536.39746 C438.229493,3536.37793 438.412597,3536.34375 438.559082,3536.29492 C438.891115,3534.94726 439.303708,3533.64844 439.796875,3532.39844 C440.290042,3531.14843 440.836911,3530.04004 441.4375,3529.07324 C442.038089,3528.10644 442.67529,3527.33252 443.349121,3526.75146 C444.022953,3526.17041 444.701657,3525.87988 445.385254,3525.87988 C445.668458,3525.87988 445.910155,3525.93115 446.110352,3526.03369 C446.310548,3526.13623 446.471679,3526.27051 446.59375,3526.43652 C446.715821,3526.60254 446.806152,3526.79541 446.864746,3527.01514 C446.92334,3527.23486 446.952637,3527.46191 446.952637,3527.69629 C446.952637,3528.2334 446.85254,3528.78515 446.652344,3529.35156 C446.452147,3529.91797 446.17383,3530.47949 445.817383,3531.03613 C445.460936,3531.59278 445.045901,3532.13476 444.572266,3532.66211 C444.09863,3533.18946 443.588382,3533.68994 443.041504,3534.16357 C442.494626,3534.63721 441.925784,3535.07178 441.334961,3535.46729 C440.744138,3535.86279 440.160647,3536.20215 439.584473,3536.48535 C439.525879,3536.70996 439.467285,3536.9541 439.408691,3537.21777 C439.350097,3537.48145 439.291504,3537.75244 439.23291,3538.03076 C439.174316,3538.30908 439.120606,3538.58496 439.071777,3538.8584 C439.022949,3539.13184 438.983887,3539.38574 438.95459,3539.62012 Z M438.95459,3542.08105 C438.95459,3542.27637 438.966797,3542.479 438.991211,3542.68896 C439.015625,3542.89893 439.064453,3543.0918 439.137695,3543.26758 C439.210938,3543.44336 439.313476,3543.58984 439.445312,3543.70703 C439.577149,3543.82422 439.745604,3543.88281 439.950684,3543.88281 C440.302248,3543.88281 440.639159,3543.77783 440.961426,3543.56787 C441.283693,3543.35791 441.583983,3543.07959 441.862305,3542.73291 C442.140626,3542.38623 442.392089,3541.99072 442.616699,3541.54639 C442.84131,3541.10205 443.034179,3540.64551 443.195312,3540.17676 C443.356446,3539.70801 443.480957,3539.24903 443.568848,3538.7998 C443.656739,3538.35058 443.700684,3537.9502 443.700684,3537.59863 C443.700684,3537.12988 443.627442,3536.79297 443.480957,3536.58789 C443.334472,3536.38281 443.100099,3536.28027 442.777832,3536.28027 C442.562987,3536.28027 442.318849,3536.35596 442.04541,3536.50732 C441.771971,3536.65869 441.493654,3536.86621 441.210449,3537.12988 C440.927245,3537.39356 440.648927,3537.70849 440.375488,3538.07471 C440.102049,3538.44092 439.860353,3538.83887 439.650391,3539.26855 C439.440429,3539.69824 439.271973,3540.15234 439.14502,3540.63086 C439.018066,3541.10938 438.95459,3541.59277 438.95459,3542.08105 Z M439.716309,3535.9873 C440.595219,3535.51855 441.413082,3534.95459 442.169922,3534.29541 C442.926762,3533.63623 443.583493,3532.93067 444.140137,3532.17871 C444.69678,3531.42675 445.131346,3530.65772 445.443848,3529.87158 C445.756349,3529.08545 445.912598,3528.33594 445.912598,3527.62305 C445.912598,3527.14453 445.849122,3526.80029 445.722168,3526.59033 C445.595214,3526.38037 445.370607,3526.27539 445.04834,3526.27539 C444.75537,3526.27539 444.462404,3526.38525 444.169434,3526.60498 C443.876463,3526.82471 443.58838,3527.12012 443.305176,3527.49121 C443.021971,3527.86231 442.746095,3528.29199 442.477539,3528.78027 C442.208983,3529.26856 441.952638,3529.78369 441.708496,3530.32568 C441.464354,3530.86768 441.237306,3531.41699 441.027344,3531.97363 C440.817382,3532.53028 440.626954,3533.06006 440.456055,3533.56299 C440.285155,3534.06592 440.136231,3534.52734 440.009277,3534.94727 C439.882324,3535.36719 439.784668,3535.71387 439.716309,3535.9873 Z" id="Обшитых-балконов"></path>
        </g>
    </g>
</svg>