<?xml version="1.0" encoding="UTF-8"?>
<svg width="32px" height="59px" viewBox="0 0 32 59" version="1.1" xmlns="http://www.w3.org/2000/svg" xmlns:xlink="http://www.w3.org/1999/xlink">
    <!-- Generator: Sketch 43.1 (39012) - http://www.bohemiancoding.com/sketch -->
    <title>Shape</title>
    <desc>Created with Sketch.</desc>
    <defs></defs>
    <g id="Page-1" stroke="none" stroke-width="1" fill="none" fill-rule="evenodd">
        <g id="Главная" transform="translate(-22.000000, -3150.000000)" fill-rule="nonzero" fill="#000000">
            <path d="M41.41975,3186.47575 L22.58575,3205.30775 C21.80475,3206.08875 21.80475,3207.35475 22.58575,3208.13575 C22.97675,3208.52675 23.48775,3208.72175 23.99975,3208.72175 C24.51175,3208.72175 25.02275,3208.52675 25.41375,3208.13575 L44.24775,3189.30375 C45.02875,3188.52275 45.02875,3187.25675 44.24775,3186.47575 C43.46675,3185.69475 42.20175,3185.69475 41.41975,3186.47575 Z M52.77775,3177.94775 L25.41575,3150.58575 C24.63475,3149.80475 23.36875,3149.80475 22.58775,3150.58575 C21.80675,3151.36675 21.80675,3152.63275 22.58775,3153.41375 L48.53475,3179.36175 L46.48175,3181.41375 C45.70075,3182.19375 45.70075,3183.46075 46.48175,3184.24175 C46.87275,3184.63275 47.38375,3184.82775 47.89575,3184.82775 C48.40775,3184.82775 48.91875,3184.63275 49.30975,3184.24175 L52.77675,3180.77575 C53.15175,3180.40075 53.36275,3179.89175 53.36275,3179.36175 C53.36275,3178.83175 53.15275,3178.32275 52.77775,3177.94775 Z" id="Shape" transform="translate(37.681375, 3179.360875) scale(-1, 1) translate(-37.681375, -3179.360875) "></path>
        </g>
    </g>
</svg>