<?xml version="1.0" encoding="UTF-8"?>
<svg width="32px" height="59px" viewBox="0 0 32 59" version="1.1" xmlns="http://www.w3.org/2000/svg" xmlns:xlink="http://www.w3.org/1999/xlink">
    <!-- Generator: Sketch 43.1 (39012) - http://www.bohemiancoding.com/sketch -->
    <title>Shape</title>
    <desc>Created with Sketch.</desc>
    <defs></defs>
    <g id="Page-1" stroke="none" stroke-width="1" fill="none" fill-rule="evenodd">
        <g id="Главная" transform="translate(-968.000000, -3152.000000)" fill-rule="nonzero" fill="#000000">
            <path d="M987.41975,3188.47575 L968.58575,3207.30775 C967.80475,3208.08875 967.80475,3209.35475 968.58575,3210.13575 C968.97675,3210.52675 969.48775,3210.72175 969.99975,3210.72175 C970.51175,3210.72175 971.02275,3210.52675 971.41375,3210.13575 L990.24775,3191.30375 C991.02875,3190.52275 991.02875,3189.25675 990.24775,3188.47575 C989.46675,3187.69475 988.20175,3187.69475 987.41975,3188.47575 Z M998.77775,3179.94775 L971.41575,3152.58575 C970.63475,3151.80475 969.36875,3151.80475 968.58775,3152.58575 C967.80675,3153.36675 967.80675,3154.63275 968.58775,3155.41375 L994.53475,3181.36175 L992.48175,3183.41375 C991.70075,3184.19375 991.70075,3185.46075 992.48175,3186.24175 C992.87275,3186.63275 993.38375,3186.82775 993.89575,3186.82775 C994.40775,3186.82775 994.91875,3186.63275 995.30975,3186.24175 L998.77675,3182.77575 C999.15175,3182.40075 999.36275,3181.89175 999.36275,3181.36175 C999.36275,3180.83175 999.15275,3180.32275 998.77775,3179.94775 Z" id="Shape"></path>
        </g>
    </g>
</svg>