<?xml version="1.0" encoding="UTF-8"?>
<svg width="137px" height="264px" viewBox="0 0 137 264" version="1.1" xmlns="http://www.w3.org/2000/svg" xmlns:xlink="http://www.w3.org/1999/xlink">
    <!-- Generator: Sketch 43.1 (39012) - http://www.bohemiancoding.com/sketch -->
    <title>Desktop</title>
    <desc>Created with Sketch.</desc>
    <defs></defs>
    <g id="Page-1" stroke="none" stroke-width="1" fill="none" fill-rule="evenodd" opacity="0.5">
        <g id="Desktop" fill="#000000">
            <rect id="Rectangle-2" x="94" y="131" width="11" height="12"></rect>
            <rect id="Rectangle-2" x="69" y="5" width="11" height="12"></rect>
            <rect id="Rectangle-2" x="77" y="103" width="11" height="12"></rect>
            <rect id="Rectangle-2" x="26" y="33" width="12" height="12"></rect>
            <rect id="Rectangle-2" x="69" y="59" width="12" height="12"></rect>
            <rect id="Rectangle-2" x="26" y="59" width="12" height="12"></rect>
            <rect id="Rectangle-2" x="31" y="103" width="12" height="12"></rect>
            <rect id="Rectangle-2" x="31" y="143" width="12" height="12"></rect>
            <rect id="Rectangle-2" x="17" y="116" width="12" height="12"></rect>
            <rect id="Rectangle-2" x="3" y="143" width="12" height="12"></rect>
            <rect id="Rectangle-2" x="3" y="90" width="12" height="12"></rect>
            <rect id="Rectangle-2" x="12" y="6" width="12" height="12"></rect>
            <rect id="Rectangle-2" x="19" y="238" width="11" height="12"></rect>
            <rect id="Rectangle-2" x="5" y="211" width="11" height="12"></rect>
            <rect id="Rectangle-2" x="46" y="211" width="11" height="12"></rect>
            <rect id="Rectangle-2" x="106" y="171" width="12" height="12"></rect>
            <rect id="Rectangle-2" x="32" y="184" width="12" height="12"></rect>
            <rect id="Rectangle" x="121" y="198" width="11" height="11"></rect>
            <rect id="Rectangle" x="93" y="224" width="11" height="11"></rect>
            <rect id="Rectangle" transform="translate(123.500000, 249.500000) rotate(44.000000) translate(-123.500000, -249.500000) " x="118" y="244" width="11" height="11"></rect>
            <rect id="Rectangle" x="60" y="224" width="11" height="11"></rect>
            <rect id="Rectangle" x="33" y="198" width="11" height="11"></rect>
        </g>
    </g>
</svg>