<?xml version="1.0" encoding="UTF-8"?>
<svg width="403px" height="65px" viewBox="0 0 403 65" version="1.1" xmlns="http://www.w3.org/2000/svg" xmlns:xlink="http://www.w3.org/1999/xlink">
    <!-- Generator: Sketch 43.1 (39012) - http://www.bohemiancoding.com/sketch -->
    <title>Тёплые Квадраты</title>
    <desc>Created with Sketch.</desc>
    <defs></defs>
    <g id="Page-1" stroke="none" stroke-width="1" fill="none" fill-rule="evenodd">
        <g id="Главная" transform="translate(-78.000000, -1720.000000)" fill="#FFFFFF">
            <path d="M118.590332,1770 L115.074707,1770 L122.801758,1733.04932 L123.058105,1731.76758 C123.229005,1730.86425 123.314453,1730.2417 123.314453,1729.8999 C123.314453,1729.43603 123.192384,1729.05152 122.948242,1728.74634 C122.7041,1728.44116 122.362307,1728.28857 121.922852,1728.28857 C121.239254,1728.28857 120.470219,1728.70361 119.615723,1729.53369 C118.761226,1730.36377 117.687018,1731.75536 116.393066,1733.7085 C114.391103,1736.68703 112.206067,1740.82517 109.837891,1746.12305 C107.982413,1750.29787 106.401618,1754.35667 105.095459,1758.29956 C103.7893,1762.24245 102.721196,1766.14256 101.891113,1770 L98.8515625,1770 L107.347656,1730.22949 C107.616212,1728.98437 107.750488,1728.00782 107.750488,1727.2998 C107.750488,1726.98242 107.689454,1726.67725 107.567383,1726.38428 C107.445312,1726.09131 107.280519,1725.87158 107.072998,1725.7251 C106.865477,1725.57861 106.627443,1725.50537 106.358887,1725.50537 C105.21142,1725.50537 103.807625,1726.6223 102.147461,1728.8562 C100.487296,1731.0901 98.521984,1734.56296 96.2514648,1739.2749 C95.1772407,1741.39894 94.1396534,1743.62059 93.1386719,1745.93994 C92.1376903,1748.25929 91.2465859,1750.41991 90.465332,1752.42188 C89.6840781,1754.42384 88.8051807,1756.86522 87.8286133,1759.74609 C86.4125906,1763.94533 85.3872102,1767.36327 84.7524414,1770 L81.6762695,1770 L81.7861328,1769.4873 L83.3608398,1763.2251 C83.9223661,1760.83251 84.4106425,1758.70851 84.8256836,1756.85303 C86.7544042,1748.11275 88.1704056,1740.97171 89.0737305,1735.42969 C89.8305702,1731.08396 90.2089844,1727.94679 90.2089844,1726.01807 C90.2089844,1724.60204 89.9953635,1723.50953 89.5681152,1722.74048 C89.140867,1721.97143 88.5488319,1721.58691 87.7919922,1721.58691 C85.9365142,1721.58691 84.2885814,1724.05271 82.8481445,1728.98438 C81.9448197,1732.08498 81.2490259,1735.42967 80.7607422,1739.01855 L78.0141602,1737.22412 C78.4292013,1734.07469 79.1188917,1731.23048 80.083252,1728.69141 C81.0476122,1726.15233 82.1950617,1724.14429 83.5256348,1722.66724 C84.8562078,1721.19018 86.2050713,1720.45166 87.5722656,1720.45166 C89.1347734,1720.45166 90.3615678,1721.28173 91.2526855,1722.94189 C92.1438033,1724.60206 92.5893555,1726.87254 92.5893555,1729.75342 C92.5893555,1732.17042 92.3696311,1734.91698 91.9301758,1737.99316 C91.8081049,1738.89649 91.4174838,1741.19139 90.7583008,1744.87793 L89.293457,1752.86133 L89.5131836,1752.16553 C91.2710049,1747.38035 93.8222489,1741.74076 97.1669922,1735.24658 C99.2666121,1731.21824 101.213614,1728.17262 103.008057,1726.10962 C104.802499,1724.04662 106.432122,1723.01514 107.896973,1723.01514 C108.824712,1723.01514 109.593747,1723.37524 110.204102,1724.09546 C110.814456,1724.81568 111.119629,1725.7373 111.119629,1726.86035 C111.119629,1728.00782 110.887698,1729.66796 110.423828,1731.84082 L106.175781,1752.12891 C106.493166,1751.22558 107.22558,1749.4922 108.373047,1746.92871 C111.71779,1739.5068 114.574207,1734.15407 116.942383,1730.87036 C119.310559,1727.58665 121.495595,1725.94482 123.497559,1725.94482 C124.49854,1725.94482 125.298093,1726.29272 125.89624,1726.98853 C126.494388,1727.68433 126.793457,1728.60595 126.793457,1729.75342 C126.793457,1730.68116 126.58594,1732.08495 126.170898,1733.96484 L118.590332,1770 Z M142.027832,1764.32373 L142.687012,1764.87305 C141.173332,1766.87501 139.696296,1768.32153 138.255859,1769.21265 C136.815422,1770.10376 135.265145,1770.54932 133.60498,1770.54932 C131.627432,1770.54932 130.040533,1769.89014 128.844238,1768.57178 C127.647943,1767.25341 127.049805,1765.50782 127.049805,1763.33496 C127.049805,1761.13768 127.629633,1758.90992 128.789307,1756.65161 C129.94898,1754.3933 131.401603,1752.52564 133.147217,1751.04858 C134.892831,1749.57153 136.620109,1748.83301 138.329102,1748.83301 C139.330083,1748.83301 140.154049,1749.12597 140.801025,1749.71191 C141.448001,1750.29785 141.771484,1751.05468 141.771484,1751.98242 C141.771484,1753.86231 140.746104,1755.74218 138.695312,1757.62207 C136.644521,1759.50196 133.849139,1761.10107 130.309082,1762.41943 C130.284668,1762.61475 130.272461,1762.83447 130.272461,1763.07861 C130.272461,1764.76319 130.736323,1766.13647 131.664062,1767.19849 C132.591802,1768.2605 133.788079,1768.7915 135.25293,1768.7915 C136.400396,1768.7915 137.511225,1768.4314 138.585449,1767.71118 C139.659673,1766.99096 140.807123,1765.86182 142.027832,1764.32373 Z M130.309082,1761.54053 C132.945814,1760.36865 134.972161,1759.06251 136.388184,1757.62207 C137.340337,1756.6455 138.109372,1755.59571 138.695312,1754.47266 C139.281253,1753.3496 139.574219,1752.33643 139.574219,1751.43311 C139.574219,1750.28564 139.049322,1749.71191 137.999512,1749.71191 C136.41259,1749.71191 134.807381,1750.96312 133.183838,1753.46558 C131.560295,1755.96803 130.602052,1758.65965 130.309082,1761.54053 Z M136.241699,1740.95947 C136.583498,1740.95947 136.882567,1741.03271 137.138916,1741.1792 C137.395265,1741.32568 137.596679,1741.5271 137.743164,1741.78345 C137.889649,1742.0398 137.962891,1742.33887 137.962891,1742.68066 C137.962891,1743.14453 137.791994,1743.54736 137.450195,1743.88916 C137.108397,1744.23096 136.705569,1744.40186 136.241699,1744.40186 C135.802244,1744.40186 135.411623,1744.23096 135.069824,1743.88916 C134.728026,1743.54736 134.557129,1743.14453 134.557129,1742.68066 C134.557129,1742.16797 134.715819,1741.75293 135.033203,1741.43555 C135.350588,1741.11816 135.753416,1740.95947 136.241699,1740.95947 Z M141.991211,1740.95947 C142.308595,1740.95947 142.595458,1741.03271 142.851807,1741.1792 C143.108156,1741.32568 143.30957,1741.5271 143.456055,1741.78345 C143.60254,1742.0398 143.675781,1742.33887 143.675781,1742.68066 C143.675781,1743.14453 143.504885,1743.54736 143.163086,1743.88916 C142.821287,1744.23096 142.430666,1744.40186 141.991211,1744.40186 C141.527341,1744.40186 141.124513,1744.23096 140.782715,1743.88916 C140.440916,1743.54736 140.27002,1743.14453 140.27002,1742.68066 C140.27002,1742.16797 140.428709,1741.75293 140.746094,1741.43555 C141.063478,1741.11816 141.478513,1740.95947 141.991211,1740.95947 Z M145.580078,1770.36621 L149.461914,1750.07812 L152.940918,1748.57666 L149.791504,1762.0166 C151.817881,1757.74412 153.832021,1754.49708 155.833984,1752.27539 C157.835948,1750.0537 159.752432,1748.94287 161.583496,1748.94287 C162.486821,1748.94287 163.219235,1749.24194 163.780762,1749.84009 C164.342288,1750.43824 164.623047,1751.23779 164.623047,1752.23877 C164.623047,1752.8003 164.488771,1753.59374 164.220215,1754.61914 L163.854004,1756.15723 L162.755371,1760.625 L162.38916,1762.05322 C162.022947,1763.51807 161.839844,1764.64111 161.839844,1765.42236 C161.839844,1766.20362 161.97412,1766.83227 162.242676,1767.30835 C162.511232,1767.78443 162.865232,1768.02246 163.304688,1768.02246 C164.061527,1768.02246 165.270011,1767.11915 166.930176,1765.3125 L167.516113,1765.8252 L167.149902,1766.22803 C165.758294,1767.86378 164.732913,1768.9685 164.07373,1769.54224 C163.414547,1770.11597 162.804202,1770.40283 162.242676,1770.40283 C161.485836,1770.40283 160.844973,1770.01831 160.320068,1769.24927 C159.795163,1768.48022 159.532715,1767.52198 159.532715,1766.37451 C159.532715,1765.59326 159.679198,1764.4336 159.972168,1762.89551 L161.400391,1755.13184 C161.595704,1753.91113 161.693359,1753.05664 161.693359,1752.56836 C161.693359,1752.05566 161.559083,1751.66504 161.290527,1751.39648 C161.021971,1751.12793 160.655764,1750.99365 160.191895,1750.99365 C158.507316,1750.99365 156.432141,1752.80027 153.966309,1756.41357 C152.770014,1758.14698 151.781254,1759.86205 151,1761.55884 C150.218746,1763.25562 149.339849,1765.60545 148.363281,1768.6084 L148.033691,1769.59717 L145.580078,1770.36621 Z M189.562012,1749.08936 C189.171385,1750.43214 188.738039,1751.87865 188.261963,1753.42896 C187.785886,1754.97926 187.31592,1756.6455 186.852051,1758.42773 C186.388181,1760.20997 186.009767,1761.6809 185.716797,1762.84058 C185.423827,1764.00025 185.277344,1764.86084 185.277344,1765.42236 C185.277344,1766.20362 185.41162,1766.83227 185.680176,1767.30835 C185.948732,1767.78443 186.302732,1768.02246 186.742188,1768.02246 C187.499027,1768.02246 188.707511,1767.11915 190.367676,1765.3125 L190.953613,1765.8252 L190.587402,1766.22803 C189.879391,1767.05811 189.275149,1767.7478 188.774658,1768.29712 C188.274167,1768.84644 187.853029,1769.26758 187.51123,1769.56055 C186.827633,1770.12207 186.217288,1770.40283 185.680176,1770.40283 C184.923336,1770.40283 184.282473,1770.02442 183.757568,1769.26758 C183.232663,1768.51074 182.970215,1767.54639 182.970215,1766.37451 C182.970215,1765.59326 183.116698,1764.4336 183.409668,1762.89551 L185.899902,1750.44434 L183.592773,1750.92041 C183.10449,1751.01807 182.665041,1751.23169 182.274414,1751.56128 C181.883787,1751.89087 181.456545,1752.45239 180.992676,1753.24585 C180.528806,1754.03931 179.997806,1755.13183 179.399658,1756.52344 C178.801511,1757.91505 178.050786,1759.70946 177.147461,1761.90674 C176.830077,1762.66358 176.445559,1763.51196 175.993896,1764.4519 C175.542234,1765.39185 175.02344,1766.27075 174.4375,1767.08862 C173.85156,1767.9065 173.210697,1768.59619 172.514893,1769.15771 C171.819088,1769.71924 171.092777,1770 170.335938,1770 C170.091796,1770 169.823244,1769.98779 169.530273,1769.96338 C169.237303,1769.93896 168.956544,1769.89014 168.687988,1769.81689 L169.713379,1765.89844 C170.201663,1766.31348 170.799801,1766.521 171.507812,1766.521 C172.264652,1766.521 173.027584,1766.167 173.796631,1765.45898 C174.565678,1764.75097 175.304196,1763.59132 176.012207,1761.97998 C176.427248,1761.05224 176.842283,1760.03907 177.257324,1758.94043 C177.672365,1757.84179 178.05078,1756.792 178.392578,1755.79102 C178.734377,1754.79003 179.009032,1753.89283 179.216553,1753.09937 C179.424073,1752.3059 179.540039,1751.73828 179.564453,1751.39648 L175.645996,1751.68945 L176.45166,1750.48096 L189.562012,1749.08936 Z M215.96582,1748.57666 L212.743164,1760.625 C212.206052,1762.60255 211.9375,1764.18945 211.9375,1765.38574 C211.9375,1766.167 212.071776,1766.80176 212.340332,1767.29004 C212.608888,1767.77832 212.962888,1768.02246 213.402344,1768.02246 C214.159183,1768.02246 215.367667,1767.11915 217.027832,1765.3125 L217.61377,1765.8252 L217.247559,1766.22803 C215.85595,1767.86378 214.83057,1768.9685 214.171387,1769.54224 C213.512204,1770.11597 212.901858,1770.40283 212.340332,1770.40283 C211.583492,1770.40283 210.94263,1770.01831 210.417725,1769.24927 C209.89282,1768.48022 209.630371,1767.52198 209.630371,1766.37451 C209.630371,1765.64209 209.776854,1764.48243 210.069824,1762.89551 L212.376953,1750.07812 L215.96582,1748.57666 Z M204.649902,1755.71777 C205.211429,1755.71777 205.711912,1755.7666 206.151367,1755.86426 C206.590823,1755.96191 206.969237,1756.14502 207.286621,1756.41357 C207.604005,1756.68213 207.84204,1757.05444 208.000732,1757.53052 C208.159425,1758.00659 208.23877,1758.61084 208.23877,1759.34326 C208.23877,1760.56397 207.927493,1761.82739 207.304932,1763.13354 C206.68237,1764.4397 205.882817,1765.62988 204.90625,1766.7041 C203.929683,1767.77833 202.837164,1768.66333 201.628662,1769.35913 C200.42016,1770.05494 199.242193,1770.40283 198.094727,1770.40283 C196.849603,1770.40283 195.85474,1770.04273 195.110107,1769.32251 C194.365475,1768.60229 193.993164,1767.64405 193.993164,1766.44775 C193.993164,1765.59326 194.12744,1764.45801 194.395996,1763.04199 L196.88623,1750.07812 L200.328613,1748.57666 L197.032715,1761.39404 C198.351081,1759.41649 199.669427,1757.97608 200.987793,1757.07275 C202.306159,1756.16943 203.52685,1755.71777 204.649902,1755.71777 Z M196.410156,1765.97168 C196.410156,1766.82618 196.678708,1767.54638 197.21582,1768.13232 C197.752932,1768.71826 198.509761,1769.01123 199.486328,1769.01123 C200.121097,1769.01123 200.78027,1768.81592 201.463867,1768.42529 C202.147464,1768.03467 202.77612,1767.46704 203.349854,1766.72241 C203.923587,1765.97778 204.399656,1765.05005 204.778076,1763.93921 C205.156496,1762.82836 205.345703,1761.55274 205.345703,1760.1123 C205.345703,1759.23339 205.217531,1758.5437 204.961182,1758.04321 C204.704833,1757.54272 204.22266,1757.29248 203.514648,1757.29248 C203.026365,1757.29248 202.495364,1757.41455 201.921631,1757.65869 C201.347898,1757.90283 200.761966,1758.28735 200.163818,1758.81226 C199.565671,1759.33716 198.967532,1760.00244 198.369385,1760.80811 C197.771237,1761.61377 197.203616,1762.57812 196.666504,1763.70117 C196.495605,1764.53125 196.410156,1765.28808 196.410156,1765.97168 Z M234.605957,1764.32373 L235.265137,1764.87305 C233.751457,1766.87501 232.274421,1768.32153 230.833984,1769.21265 C229.393547,1770.10376 227.84327,1770.54932 226.183105,1770.54932 C224.205557,1770.54932 222.618658,1769.89014 221.422363,1768.57178 C220.226068,1767.25341 219.62793,1765.50782 219.62793,1763.33496 C219.62793,1761.13768 220.207758,1758.90992 221.367432,1756.65161 C222.527105,1754.3933 223.979728,1752.52564 225.725342,1751.04858 C227.470956,1749.57153 229.198234,1748.83301 230.907227,1748.83301 C231.908208,1748.83301 232.732174,1749.12597 233.37915,1749.71191 C234.026126,1750.29785 234.349609,1751.05468 234.349609,1751.98242 C234.349609,1753.86231 233.324229,1755.74218 231.273438,1757.62207 C229.222646,1759.50196 226.427264,1761.10107 222.887207,1762.41943 C222.862793,1762.61475 222.850586,1762.83447 222.850586,1763.07861 C222.850586,1764.76319 223.314448,1766.13647 224.242188,1767.19849 C225.169927,1768.2605 226.366204,1768.7915 227.831055,1768.7915 C228.978521,1768.7915 230.08935,1768.4314 231.163574,1767.71118 C232.237798,1766.99096 233.385248,1765.86182 234.605957,1764.32373 Z M222.887207,1761.54053 C225.523939,1760.36865 227.550286,1759.06251 228.966309,1757.62207 C229.918462,1756.6455 230.687497,1755.59571 231.273438,1754.47266 C231.859378,1753.3496 232.152344,1752.33643 232.152344,1751.43311 C232.152344,1750.28564 231.627447,1749.71191 230.577637,1749.71191 C228.990715,1749.71191 227.385506,1750.96312 225.761963,1753.46558 C224.13842,1755.96803 223.180177,1758.65965 222.887207,1761.54053 Z M310.375,1722.28271 L283.568359,1751.54297 C284.374027,1753.42286 285.460442,1755.41869 286.827637,1757.53052 C288.194831,1759.64234 289.64135,1761.58324 291.167236,1763.35327 C292.693123,1765.1233 294.322745,1766.7163 296.056152,1768.13232 L293.456055,1770.58594 C288.231419,1765.874 283.983415,1759.96586 280.711914,1752.86133 L306.456543,1722.28271 L310.375,1722.28271 Z M283.897949,1722.50244 L287.889648,1720.63477 C287.523436,1722.95411 287.016849,1725.60912 286.369873,1728.59985 C285.722897,1731.59059 284.972172,1734.67284 284.117676,1737.84668 C283.263179,1741.02052 282.46973,1743.66942 281.737305,1745.79346 C280.931637,1748.25929 280.071049,1750.58471 279.155518,1752.76978 C278.239986,1754.95484 277.306157,1756.84692 276.354004,1758.44604 C275.401851,1760.04517 274.364263,1761.51 273.241211,1762.84058 C272.118158,1764.17115 270.934088,1765.33691 269.688965,1766.33789 C265.34324,1769.92678 259.825717,1771.72119 253.13623,1771.72119 C251.476066,1771.72119 250.19434,1771.57471 249.291016,1771.28174 L250.389648,1768.57178 C253.19728,1769.37745 255.785144,1769.78027 258.15332,1769.78027 C263.597683,1769.78027 268.27293,1766.91165 272.179199,1761.17432 C273.302252,1759.51415 274.321529,1757.59767 275.237061,1755.4248 C276.152592,1753.25194 277.171869,1750.21242 278.294922,1746.30615 C278.832034,1744.45067 279.363034,1742.51588 279.887939,1740.50171 C280.412844,1738.48754 280.901121,1736.53443 281.352783,1734.64233 C281.804446,1732.75023 282.268308,1730.69947 282.744385,1728.48999 C283.220461,1726.28051 283.556151,1724.58985 283.751465,1723.41797 L283.897949,1722.50244 Z M308.617188,1759.05029 C310.32618,1755.75438 312.120596,1753.30079 314.000488,1751.68945 C315.88038,1750.07812 317.723624,1749.27246 319.530273,1749.27246 C320.335942,1749.27246 321.007322,1749.39453 321.544434,1749.63867 C322.081546,1749.88281 322.514891,1750.22461 322.844482,1750.66406 C323.174074,1751.10352 323.406005,1751.62841 323.540283,1752.23877 C323.674561,1752.84912 323.741699,1753.53271 323.741699,1754.28955 C323.741699,1755.31495 323.595216,1756.43188 323.302246,1757.64038 C323.009276,1758.84888 322.594241,1760.05737 322.057129,1761.26587 C321.520017,1762.47437 320.873051,1763.64013 320.116211,1764.76318 C319.359371,1765.88624 318.517094,1766.8811 317.589355,1767.7478 C316.661616,1768.61451 315.654546,1769.3103 314.568115,1769.83521 C313.481684,1770.36011 312.352545,1770.62256 311.180664,1770.62256 C310.741209,1770.62256 310.216312,1770.55542 309.605957,1770.42114 C308.995602,1770.28686 308.415774,1769.96338 307.866455,1769.45068 C307.317136,1768.93799 306.853273,1768.16895 306.474854,1767.14355 C306.096434,1766.11816 305.907227,1764.70216 305.907227,1762.89551 C305.907227,1761.35741 306.017089,1759.70948 306.236816,1757.95166 C306.456544,1756.19384 306.822751,1754.16749 307.335449,1751.87256 C307.018065,1751.92139 306.60303,1751.96411 306.090332,1752.00073 C305.577634,1752.03735 305.077151,1752.05566 304.588867,1752.05566 L304.735352,1751.06689 C305.199221,1751.06689 305.705808,1751.04248 306.255127,1750.99365 C306.804446,1750.94482 307.262205,1750.85938 307.628418,1750.7373 C308.4585,1747.36815 309.489984,1744.12111 310.7229,1740.99609 C311.955817,1737.87108 313.322991,1735.10011 314.824463,1732.68311 C316.325935,1730.2661 317.918937,1728.33131 319.603516,1726.87866 C321.288094,1725.42602 322.984855,1724.69971 324.693848,1724.69971 C325.401859,1724.69971 326.006101,1724.82788 326.506592,1725.08423 C327.007083,1725.34058 327.409911,1725.67627 327.715088,1726.09131 C328.020265,1726.50635 328.246093,1726.98852 328.392578,1727.53784 C328.539063,1728.08716 328.612305,1728.65478 328.612305,1729.24072 C328.612305,1730.5835 328.362063,1731.96288 327.861572,1733.37891 C327.361081,1734.79493 326.665288,1736.19872 325.77417,1737.59033 C324.883052,1738.98194 323.845465,1740.33691 322.661377,1741.65527 C321.477289,1742.97364 320.201667,1744.22485 318.834473,1745.40894 C317.467278,1746.59302 316.045173,1747.67944 314.568115,1748.66821 C313.091057,1749.65699 311.632331,1750.50537 310.191895,1751.21338 C310.045409,1751.77491 309.898927,1752.38525 309.752441,1753.04443 C309.605956,1753.70362 309.459473,1754.3811 309.312988,1755.0769 C309.166503,1755.77271 309.032227,1756.4624 308.910156,1757.146 C308.788085,1757.82959 308.69043,1758.46435 308.617188,1759.05029 Z M308.617188,1765.20264 C308.617188,1765.69092 308.647705,1766.19751 308.70874,1766.72241 C308.769776,1767.24732 308.891845,1767.72949 309.074951,1768.16895 C309.258058,1768.6084 309.514403,1768.97461 309.843994,1769.26758 C310.173586,1769.56055 310.594724,1769.70703 311.107422,1769.70703 C311.986333,1769.70703 312.828609,1769.44458 313.634277,1768.91968 C314.439945,1768.39477 315.19067,1767.69898 315.886475,1766.83228 C316.582279,1765.96557 317.210935,1764.97681 317.772461,1763.86597 C318.333987,1762.75512 318.81616,1761.61378 319.218994,1760.44189 C319.621828,1759.27001 319.933104,1758.12256 320.152832,1756.99951 C320.37256,1755.87646 320.482422,1754.87549 320.482422,1753.99658 C320.482422,1752.8247 320.299318,1751.98242 319.933105,1751.46973 C319.566893,1750.95703 318.980961,1750.70068 318.175293,1750.70068 C317.638181,1750.70068 317.027835,1750.88989 316.344238,1751.26831 C315.660641,1751.64673 314.964847,1752.16552 314.256836,1752.82471 C313.548825,1753.48389 312.853031,1754.27124 312.169434,1755.18677 C311.485836,1756.1023 310.881594,1757.09716 310.356689,1758.17139 C309.831784,1759.24561 309.410646,1760.38085 309.093262,1761.57715 C308.775877,1762.77344 308.617188,1763.98193 308.617188,1765.20264 Z M310.521484,1749.96826 C312.718761,1748.79638 314.763418,1747.38648 316.655518,1745.73853 C318.547617,1744.09057 320.189446,1742.32667 321.581055,1740.44678 C322.972663,1738.56689 324.059078,1736.6443 324.840332,1734.67896 C325.621586,1732.71361 326.012207,1730.83985 326.012207,1729.05762 C326.012207,1727.86132 325.853517,1727.00074 325.536133,1726.47583 C325.218748,1725.95093 324.657231,1725.68848 323.851562,1725.68848 C323.119137,1725.68848 322.386722,1725.96313 321.654297,1726.51245 C320.921871,1727.06177 320.201664,1727.80029 319.493652,1728.72803 C318.785641,1729.65577 318.095951,1730.72997 317.424561,1731.95068 C316.75317,1733.17139 316.112308,1734.45922 315.501953,1735.81421 C314.891599,1737.1692 314.323977,1738.54247 313.799072,1739.93408 C313.274167,1741.32569 312.798098,1742.65014 312.37085,1743.90747 C311.943601,1745.1648 311.571291,1746.31835 311.253906,1747.36816 C310.936522,1748.41797 310.692384,1749.28466 310.521484,1749.96826 Z M347.398926,1748.35693 L343.956543,1761.76025 C343.59033,1763.2251 343.407227,1764.37255 343.407227,1765.20264 C343.407227,1765.93506 343.565916,1766.56982 343.883301,1767.10693 C344.200685,1767.64405 344.591306,1767.9126 345.055176,1767.9126 C345.763187,1767.9126 346.93505,1767.04591 348.570801,1765.3125 L349.083496,1765.8252 L348.680664,1766.30127 C347.386712,1767.79053 346.391849,1768.83423 345.696045,1769.43237 C345.000241,1770.03052 344.395999,1770.32959 343.883301,1770.32959 C343.102047,1770.32959 342.424563,1769.92066 341.85083,1769.10278 C341.277097,1768.28491 340.990234,1767.33887 340.990234,1766.26465 C340.990234,1765.48339 341.2832,1763.71339 341.869141,1760.95459 L342.162109,1759.56299 C341.258785,1761.66261 340.050301,1763.67675 338.536621,1765.60547 C335.997546,1768.82814 333.568371,1770.43945 331.249023,1770.43945 C329.857415,1770.43945 328.758793,1769.93897 327.953125,1768.93799 C327.147457,1767.93701 326.744629,1766.59425 326.744629,1764.90967 C326.744629,1762.61473 327.397699,1760.20997 328.703857,1757.69531 C330.010016,1755.18065 331.633535,1753.11158 333.574463,1751.48804 C335.515391,1749.86449 337.401358,1749.05273 339.232422,1749.05273 C341.161142,1749.05273 342.601558,1749.76074 343.553711,1751.17676 L343.956543,1749.78516 L347.398926,1748.35693 Z M343.1875,1753.04443 C342.89453,1752.11669 342.40015,1751.39038 341.704346,1750.86548 C341.008541,1750.34057 340.208989,1750.07812 339.305664,1750.07812 C338.23144,1750.07812 337.096197,1750.5725 335.899902,1751.56128 C334.703607,1752.55005 333.604985,1753.92333 332.604004,1755.68115 C331.82275,1757.07276 331.16968,1758.61083 330.644775,1760.29541 C330.11987,1761.97999 329.857422,1763.37158 329.857422,1764.47021 C329.857422,1765.71534 330.095457,1766.69189 330.571533,1767.3999 C331.04761,1768.10791 331.725093,1768.46191 332.604004,1768.46191 C333.727056,1768.46191 334.89892,1767.93702 336.119629,1766.88721 C337.340338,1765.8374 338.548822,1764.33595 339.745117,1762.38281 C340.477543,1761.25976 341.051267,1760.13672 341.466309,1759.01367 C341.88135,1757.89062 342.345212,1756.32814 342.85791,1754.32617 L343.1875,1753.04443 Z M356.59082,1770.58594 C355.125969,1770.58594 353.960209,1770.05494 353.093506,1768.99292 C352.226802,1767.9309 351.793457,1766.55763 351.793457,1764.87305 C351.793457,1762.8955 352.09863,1760.96681 352.708984,1759.08691 C353.319339,1757.20702 354.161616,1755.53468 355.23584,1754.06982 C356.310064,1752.60497 357.567376,1751.42701 359.007812,1750.53589 C360.448249,1749.64477 361.998527,1749.19922 363.658691,1749.19922 C365.514169,1749.19922 366.954585,1749.71191 367.97998,1750.7373 C368.053223,1750.32226 368.114258,1749.80347 368.163086,1749.18091 C368.211914,1748.55835 368.254638,1747.91748 368.29126,1747.2583 C368.327881,1746.59912 368.352295,1745.96436 368.364502,1745.354 C368.376709,1744.74365 368.382812,1744.24317 368.382812,1743.85254 C368.382812,1743.29101 368.352295,1742.59522 368.29126,1741.76514 C368.230224,1740.93505 368.102052,1740.06226 367.906738,1739.14673 C367.711425,1738.2312 367.436769,1737.32178 367.082764,1736.41846 C366.728758,1735.51513 366.264895,1734.70337 365.691162,1733.98315 C365.117429,1733.26294 364.409428,1732.677 363.567139,1732.22534 C362.724849,1731.77368 361.717779,1731.54785 360.545898,1731.54785 C360.277342,1731.54785 359.917239,1731.57837 359.465576,1731.6394 C359.013914,1731.70044 358.519534,1731.81641 357.982422,1731.9873 C357.44531,1732.1582 356.877689,1732.39624 356.279541,1732.70142 C355.681393,1733.00659 355.089358,1733.39111 354.503418,1733.85498 L354.063965,1733.15918 C354.625491,1732.62207 355.26025,1732.15821 355.968262,1731.76758 C356.676273,1731.37695 357.396481,1731.05347 358.128906,1730.79712 C358.861332,1730.54077 359.563229,1730.35767 360.234619,1730.2478 C360.906009,1730.13794 361.47363,1730.08301 361.9375,1730.08301 C363.866221,1730.08301 365.434808,1730.45532 366.643311,1731.19995 C367.851813,1731.94458 368.791745,1732.93334 369.463135,1734.16626 C370.134525,1735.39918 370.58618,1736.80297 370.818115,1738.37769 C371.05005,1739.9524 371.166016,1741.56982 371.166016,1743.22998 C371.166016,1745.45167 370.970705,1747.66723 370.580078,1749.87671 C370.189451,1752.08619 369.652347,1754.20409 368.96875,1756.23047 C368.285153,1758.25685 367.479497,1760.14892 366.551758,1761.90674 C365.624019,1763.66456 364.616949,1765.18432 363.530518,1766.46606 C362.444086,1767.74781 361.308844,1768.75488 360.124756,1769.4873 C358.940668,1770.21973 357.762701,1770.58594 356.59082,1770.58594 Z M367.320801,1752.78809 C367.052245,1751.98242 366.563968,1751.35376 365.855957,1750.9021 C365.147946,1750.45044 364.366703,1750.22461 363.512207,1750.22461 C362.608882,1750.22461 361.778812,1750.44433 361.021973,1750.88379 C360.265133,1751.32324 359.569339,1751.91528 358.93457,1752.65991 C358.299802,1753.40454 357.738284,1754.27124 357.25,1755.26001 C356.761716,1756.24878 356.346681,1757.28027 356.004883,1758.35449 C355.663084,1759.42872 355.406739,1760.52123 355.23584,1761.63208 C355.064941,1762.74293 354.979492,1763.79882 354.979492,1764.7998 C354.979492,1766.06934 355.235837,1767.08862 355.748535,1767.85767 C356.261233,1768.62671 357.066889,1769.01123 358.165527,1769.01123 C358.946781,1769.01123 359.72192,1768.72437 360.490967,1768.15063 C361.260014,1767.5769 361.980221,1766.82007 362.651611,1765.88013 C363.323001,1764.94018 363.945554,1763.88428 364.519287,1762.7124 C365.09302,1761.54052 365.5874,1760.35035 366.002441,1759.14185 C366.417483,1757.93334 366.740966,1756.77369 366.9729,1755.66284 C367.204835,1754.552 367.320801,1753.59375 367.320801,1752.78809 Z M369.408203,1784.53857 L376.32959,1750.07812 L379.845215,1748.57666 L377.428223,1759.08691 C379.234872,1755.4492 380.937736,1752.83082 382.536865,1751.23169 C384.135994,1749.63256 385.887686,1748.83301 387.791992,1748.83301 C389.256843,1748.83301 390.4165,1749.37011 391.270996,1750.44434 C392.125493,1751.51856 392.552734,1752.9956 392.552734,1754.87549 C392.552734,1756.77979 392.168217,1758.7329 391.39917,1760.73486 C390.630123,1762.73683 389.549812,1764.55566 388.158203,1766.19141 C385.643542,1769.21877 382.872574,1770.73242 379.845215,1770.73242 C377.940908,1770.73242 376.378424,1770.23194 375.157715,1769.23096 L371.385742,1784.53857 L369.408203,1784.53857 Z M375.707031,1766.81396 C376.732427,1768.81593 378.172842,1769.81689 380.02832,1769.81689 C382.713881,1769.81689 385.057607,1767.63186 387.05957,1763.26172 C388.695321,1759.74608 389.513184,1756.792 389.513184,1754.39941 C389.513184,1753.10546 389.269045,1752.1045 388.780762,1751.39648 C388.292478,1750.68847 387.596684,1750.33447 386.693359,1750.33447 C385.228508,1750.33447 383.690438,1751.29882 382.079102,1753.22754 C380.541008,1755.13185 379.234869,1757.25585 378.160645,1759.59961 C377.745603,1760.52735 377.361086,1761.51611 377.00708,1762.56592 C376.653074,1763.61573 376.317384,1764.68994 376,1765.78857 L375.707031,1766.81396 Z M416.246582,1748.35693 L412.804199,1761.76025 C412.437986,1763.2251 412.254883,1764.37255 412.254883,1765.20264 C412.254883,1765.93506 412.413573,1766.56982 412.730957,1767.10693 C413.048341,1767.64405 413.438963,1767.9126 413.902832,1767.9126 C414.610843,1767.9126 415.782707,1767.04591 417.418457,1765.3125 L417.931152,1765.8252 L417.52832,1766.30127 C416.234369,1767.79053 415.239505,1768.83423 414.543701,1769.43237 C413.847897,1770.03052 413.243655,1770.32959 412.730957,1770.32959 C411.949703,1770.32959 411.27222,1769.92066 410.698486,1769.10278 C410.124753,1768.28491 409.837891,1767.33887 409.837891,1766.26465 C409.837891,1765.48339 410.130856,1763.71339 410.716797,1760.95459 L411.009766,1759.56299 C410.106441,1761.66261 408.897957,1763.67675 407.384277,1765.60547 C404.845202,1768.82814 402.416027,1770.43945 400.09668,1770.43945 C398.705071,1770.43945 397.606449,1769.93897 396.800781,1768.93799 C395.995113,1767.93701 395.592285,1766.59425 395.592285,1764.90967 C395.592285,1762.61473 396.245355,1760.20997 397.551514,1757.69531 C398.857673,1755.18065 400.481191,1753.11158 402.422119,1751.48804 C404.363047,1749.86449 406.249014,1749.05273 408.080078,1749.05273 C410.008799,1749.05273 411.449214,1749.76074 412.401367,1751.17676 L412.804199,1749.78516 L416.246582,1748.35693 Z M412.035156,1753.04443 C411.742186,1752.11669 411.247806,1751.39038 410.552002,1750.86548 C409.856198,1750.34057 409.056645,1750.07812 408.15332,1750.07812 C407.079096,1750.07812 405.943854,1750.5725 404.747559,1751.56128 C403.551264,1752.55005 402.452642,1753.92333 401.45166,1755.68115 C400.670406,1757.07276 400.017337,1758.61083 399.492432,1760.29541 C398.967527,1761.97999 398.705078,1763.37158 398.705078,1764.47021 C398.705078,1765.71534 398.943113,1766.69189 399.419189,1767.3999 C399.895266,1768.10791 400.57275,1768.46191 401.45166,1768.46191 C402.574713,1768.46191 403.746576,1767.93702 404.967285,1766.88721 C406.187994,1765.8374 407.396478,1764.33595 408.592773,1762.38281 C409.325199,1761.25976 409.898924,1760.13672 410.313965,1759.01367 C410.729006,1757.89062 411.192869,1756.32814 411.705566,1754.32617 L412.035156,1753.04443 Z M434.740234,1769.59717 L432.323242,1770.36621 L435.216309,1755.46143 L435.472656,1754.17969 C435.619141,1753.47168 435.692383,1752.88574 435.692383,1752.42188 C435.692383,1751.34765 435.265141,1750.81055 434.410645,1750.81055 C433.604976,1750.81055 432.628424,1751.35375 431.480957,1752.44019 C430.33349,1753.52662 429.125006,1755.0952 427.855469,1757.146 C427.025386,1758.46436 426.311282,1759.73388 425.713135,1760.95459 C425.114987,1762.1753 424.565676,1763.47533 424.065186,1764.85474 C423.564695,1766.23414 423.082522,1767.81493 422.618652,1769.59717 L420.348145,1770.36621 L424.120117,1750.07812 L427.635742,1748.57666 L424.449707,1761.87012 C426.085457,1758.08592 427.959218,1754.97926 430.071045,1752.55005 C432.182872,1750.12084 434.081046,1748.90625 435.765625,1748.90625 C437.596689,1748.90625 438.512207,1749.94384 438.512207,1752.01904 C438.512207,1752.72705 438.329103,1753.98437 437.962891,1755.79102 L436.754395,1761.24756 C439.12257,1756.70652 441.124504,1753.50221 442.760254,1751.63452 C444.396004,1749.76684 446.019523,1748.83301 447.630859,1748.83301 C448.534184,1748.83301 449.242185,1749.10156 449.754883,1749.63867 C450.267581,1750.17578 450.523926,1750.94482 450.523926,1751.9458 C450.523926,1752.75147 450.279788,1754.14306 449.791504,1756.12061 L448.65625,1760.625 L448.290039,1762.05322 C447.94824,1763.5669 447.777344,1764.68994 447.777344,1765.42236 C447.777344,1766.20362 447.91162,1766.83227 448.180176,1767.30835 C448.448732,1767.78443 448.790525,1768.02246 449.205566,1768.02246 C449.98682,1768.02246 451.207511,1767.11915 452.867676,1765.3125 L453.416992,1765.8252 L453.087402,1766.22803 C451.695794,1767.86378 450.66431,1768.9685 449.99292,1769.54224 C449.32153,1770.11597 448.705081,1770.40283 448.143555,1770.40283 C447.386715,1770.40283 446.745852,1770.01831 446.220947,1769.24927 C445.696042,1768.48022 445.433594,1767.52198 445.433594,1766.37451 C445.433594,1765.6665 445.592284,1764.50684 445.909668,1762.89551 L447.264648,1755.31494 L447.484375,1753.99658 C447.63086,1753.26416 447.704102,1752.67822 447.704102,1752.23877 C447.704102,1751.79931 447.569826,1751.44531 447.30127,1751.17676 C447.032714,1750.9082 446.666506,1750.77393 446.202637,1750.77393 C445.665525,1750.77393 445.07349,1750.99975 444.426514,1751.45142 C443.779538,1751.90308 443.089847,1752.59277 442.357422,1753.52051 C441.624996,1754.44825 440.807133,1755.66894 439.903809,1757.18262 C438.683099,1759.25782 437.69434,1761.19262 436.9375,1762.98706 C436.18066,1764.7815 435.448246,1766.98485 434.740234,1769.59717 Z M478.429199,1748.57666 L475.206543,1760.625 C474.669431,1762.60255 474.400879,1764.18945 474.400879,1765.38574 C474.400879,1766.167 474.535155,1766.80176 474.803711,1767.29004 C475.072267,1767.77832 475.426267,1768.02246 475.865723,1768.02246 C476.622562,1768.02246 477.831046,1767.11915 479.491211,1765.3125 L480.077148,1765.8252 L479.710938,1766.22803 C478.319329,1767.86378 477.293949,1768.9685 476.634766,1769.54224 C475.975583,1770.11597 475.365237,1770.40283 474.803711,1770.40283 C474.046871,1770.40283 473.406008,1770.01831 472.881104,1769.24927 C472.356199,1768.48022 472.09375,1767.52198 472.09375,1766.37451 C472.09375,1765.64209 472.240233,1764.48243 472.533203,1762.89551 L474.840332,1750.07812 L478.429199,1748.57666 Z M467.113281,1755.71777 C467.674807,1755.71777 468.175291,1755.7666 468.614746,1755.86426 C469.054201,1755.96191 469.432616,1756.14502 469.75,1756.41357 C470.067384,1756.68213 470.305419,1757.05444 470.464111,1757.53052 C470.622804,1758.00659 470.702148,1758.61084 470.702148,1759.34326 C470.702148,1760.56397 470.390872,1761.82739 469.768311,1763.13354 C469.145749,1764.4397 468.346196,1765.62988 467.369629,1766.7041 C466.393062,1767.77833 465.300543,1768.66333 464.092041,1769.35913 C462.883539,1770.05494 461.705572,1770.40283 460.558105,1770.40283 C459.312982,1770.40283 458.318119,1770.04273 457.573486,1769.32251 C456.828854,1768.60229 456.456543,1767.64405 456.456543,1766.44775 C456.456543,1765.59326 456.590819,1764.45801 456.859375,1763.04199 L459.349609,1750.07812 L462.791992,1748.57666 L459.496094,1761.39404 C460.81446,1759.41649 462.132806,1757.97608 463.451172,1757.07275 C464.769538,1756.16943 465.990229,1755.71777 467.113281,1755.71777 Z M458.873535,1765.97168 C458.873535,1766.82618 459.142087,1767.54638 459.679199,1768.13232 C460.216311,1768.71826 460.97314,1769.01123 461.949707,1769.01123 C462.584476,1769.01123 463.243649,1768.81592 463.927246,1768.42529 C464.610843,1768.03467 465.239499,1767.46704 465.813232,1766.72241 C466.386966,1765.97778 466.863035,1765.05005 467.241455,1763.93921 C467.619875,1762.82836 467.809082,1761.55274 467.809082,1760.1123 C467.809082,1759.23339 467.680909,1758.5437 467.424561,1758.04321 C467.168212,1757.54272 466.686039,1757.29248 465.978027,1757.29248 C465.489744,1757.29248 464.958743,1757.41455 464.38501,1757.65869 C463.811276,1757.90283 463.225345,1758.28735 462.627197,1758.81226 C462.02905,1759.33716 461.430911,1760.00244 460.832764,1760.80811 C460.234616,1761.61377 459.666995,1762.57812 459.129883,1763.70117 C458.958984,1764.53125 458.873535,1765.28808 458.873535,1765.97168 Z" id="Тёплые-Квадраты"></path>
        </g>
    </g>
</svg>