<?xml version="1.0" encoding="UTF-8"?>
<svg width="69px" height="57px" viewBox="0 0 69 57" version="1.1" xmlns="http://www.w3.org/2000/svg" xmlns:xlink="http://www.w3.org/1999/xlink">
    <!-- Generator: Sketch 43.1 (39012) - http://www.bohemiancoding.com/sketch -->
    <title>Звонков в день</title>
    <desc>Created with Sketch.</desc>
    <defs></defs>
    <g id="Page-1" stroke="none" stroke-width="1" fill="none" fill-rule="evenodd">
        <g id="Главная" transform="translate(-177.000000, -3488.000000)" fill="#000000">
            <path d="M182.225098,3492.28223 C182.654787,3491.53027 183.147946,3490.89307 183.70459,3490.37061 C184.261233,3489.84814 184.834958,3489.42334 185.425781,3489.09619 C186.016605,3488.76904 186.60986,3488.53223 187.205566,3488.38574 C187.801273,3488.23926 188.353025,3488.16602 188.86084,3488.16602 C189.124513,3488.16602 189.407713,3488.19043 189.710449,3488.23926 C190.013185,3488.28809 190.293944,3488.39062 190.552734,3488.54688 C190.811525,3488.70313 191.026366,3488.92773 191.197266,3489.2207 C191.368165,3489.51367 191.453613,3489.90429 191.453613,3490.39258 C191.453613,3490.79297 191.370606,3491.28857 191.20459,3491.87939 C191.038573,3492.47022 190.75049,3493.08056 190.340332,3493.71045 C189.930174,3494.34034 189.378421,3494.95312 188.685059,3495.54883 C187.991696,3496.14453 187.117681,3496.64746 186.062988,3497.05762 C186.414553,3497.10645 186.775877,3497.22363 187.146973,3497.40918 C187.518068,3497.59473 187.85742,3497.84863 188.165039,3498.1709 C188.472658,3498.49317 188.72412,3498.87646 188.919434,3499.3208 C189.114747,3499.76514 189.212402,3500.26562 189.212402,3500.82227 C189.212402,3501.97462 189.017092,3503.01709 188.626465,3503.94971 C188.235838,3504.88233 187.703617,3505.67578 187.029785,3506.33008 C186.355954,3506.98438 185.564946,3507.48974 184.656738,3507.84619 C183.748531,3508.20264 182.776861,3508.38086 181.741699,3508.38086 C181.321775,3508.38086 180.904299,3508.34424 180.489258,3508.271 C180.074217,3508.19775 179.67383,3508.07813 179.288086,3507.91211 C178.902342,3507.74609 178.536135,3507.52881 178.189453,3507.26025 C177.842772,3506.9917 177.532716,3506.66211 177.259277,3506.27148 L178.182129,3504.99707 C178.396974,3505.48535 178.663084,3505.90771 178.980469,3506.26416 C179.297853,3506.62061 179.642088,3506.91357 180.013184,3507.14307 C180.384279,3507.37256 180.772459,3507.54102 181.177734,3507.64844 C181.58301,3507.75586 181.985838,3507.80957 182.38623,3507.80957 C183.069828,3507.80957 183.729001,3507.64356 184.36377,3507.31152 C184.998538,3506.97949 185.560056,3506.53028 186.04834,3505.96387 C186.536624,3505.39746 186.929686,3504.73584 187.227539,3503.979 C187.525392,3503.22216 187.674316,3502.42383 187.674316,3501.58398 C187.674316,3500.83203 187.552247,3500.22168 187.308105,3499.75293 C187.063964,3499.28418 186.75635,3498.91553 186.385254,3498.64697 C186.014158,3498.37842 185.613772,3498.18799 185.184082,3498.07568 C184.754392,3497.96338 184.354006,3497.8877 183.98291,3497.84863 L184.656738,3496.92578 C185.418461,3496.85742 186.119137,3496.64258 186.758789,3496.28125 C187.398441,3495.91992 187.947752,3495.46338 188.406738,3494.91162 C188.865725,3494.35986 189.222167,3493.74219 189.476074,3493.05859 C189.729982,3492.375 189.856934,3491.67188 189.856934,3490.94922 C189.856934,3490.51953 189.817871,3490.16309 189.739746,3489.87988 C189.661621,3489.59668 189.544434,3489.37207 189.388184,3489.20605 C189.231933,3489.04004 189.036622,3488.92285 188.802246,3488.85449 C188.56787,3488.78613 188.289552,3488.75195 187.967285,3488.75195 C187.498533,3488.75195 187.017581,3488.8667 186.524414,3489.09619 C186.031248,3489.32568 185.557619,3489.65527 185.103516,3490.08496 C184.649412,3490.51465 184.229494,3491.03466 183.84375,3491.64502 C183.458006,3492.25537 183.138185,3492.9414 182.884277,3493.70312 L182.225098,3492.28223 Z M192.435059,3503.62012 C193.118656,3502.30175 193.836422,3501.32032 194.588379,3500.67578 C195.340336,3500.03125 196.077633,3499.70898 196.800293,3499.70898 C197.12256,3499.70898 197.391112,3499.75781 197.605957,3499.85547 C197.820802,3499.95313 197.99414,3500.08984 198.125977,3500.26562 C198.257813,3500.44141 198.350586,3500.65137 198.404297,3500.89551 C198.458008,3501.13965 198.484863,3501.41308 198.484863,3501.71582 C198.484863,3502.12598 198.42627,3502.57275 198.309082,3503.05615 C198.191894,3503.53955 198.02588,3504.02295 197.811035,3504.50635 C197.59619,3504.98975 197.337404,3505.45605 197.034668,3505.90527 C196.731932,3506.35449 196.395021,3506.75244 196.023926,3507.09912 C195.65283,3507.4458 195.250002,3507.72412 194.81543,3507.93408 C194.380857,3508.14404 193.929202,3508.24902 193.460449,3508.24902 C193.284667,3508.24902 193.074708,3508.22217 192.830566,3508.16846 C192.586425,3508.11475 192.354493,3507.98535 192.134766,3507.78027 C191.915038,3507.57519 191.729493,3507.26758 191.578125,3506.85742 C191.426757,3506.44726 191.351074,3505.88086 191.351074,3505.1582 C191.351074,3504.54297 191.395019,3503.88379 191.48291,3503.18066 C191.570801,3502.47754 191.717284,3501.667 191.922363,3500.74902 C191.79541,3500.76855 191.629396,3500.78564 191.424316,3500.80029 C191.219237,3500.81494 191.019044,3500.82227 190.82373,3500.82227 L190.882324,3500.42676 C191.067872,3500.42676 191.270507,3500.41699 191.490234,3500.39746 C191.709962,3500.37793 191.893066,3500.34375 192.039551,3500.29492 C192.371584,3498.94726 192.784177,3497.64844 193.277344,3496.39844 C193.77051,3495.14843 194.31738,3494.04004 194.917969,3493.07324 C195.518558,3492.10644 196.155758,3491.33252 196.82959,3490.75146 C197.503421,3490.17041 198.182125,3489.87988 198.865723,3489.87988 C199.148927,3489.87988 199.390624,3489.93115 199.59082,3490.03369 C199.791017,3490.13623 199.952148,3490.27051 200.074219,3490.43652 C200.19629,3490.60254 200.286621,3490.79541 200.345215,3491.01514 C200.403809,3491.23486 200.433105,3491.46191 200.433105,3491.69629 C200.433105,3492.2334 200.333009,3492.78515 200.132812,3493.35156 C199.932616,3493.91797 199.654299,3494.47949 199.297852,3495.03613 C198.941404,3495.59278 198.52637,3496.13476 198.052734,3496.66211 C197.579099,3497.18946 197.06885,3497.68994 196.521973,3498.16357 C195.975095,3498.63721 195.406253,3499.07178 194.81543,3499.46729 C194.224606,3499.86279 193.641116,3500.20215 193.064941,3500.48535 C193.006347,3500.70996 192.947754,3500.9541 192.88916,3501.21777 C192.830566,3501.48145 192.771973,3501.75244 192.713379,3502.03076 C192.654785,3502.30908 192.601074,3502.58496 192.552246,3502.8584 C192.503418,3503.13184 192.464356,3503.38574 192.435059,3503.62012 Z M192.435059,3506.08105 C192.435059,3506.27637 192.447266,3506.479 192.47168,3506.68896 C192.496094,3506.89893 192.544922,3507.0918 192.618164,3507.26758 C192.691407,3507.44336 192.793945,3507.58984 192.925781,3507.70703 C193.057618,3507.82422 193.226073,3507.88281 193.431152,3507.88281 C193.782717,3507.88281 194.119627,3507.77783 194.441895,3507.56787 C194.764162,3507.35791 195.064452,3507.07959 195.342773,3506.73291 C195.621095,3506.38623 195.872557,3505.99072 196.097168,3505.54639 C196.321778,3505.10205 196.514648,3504.64551 196.675781,3504.17676 C196.836915,3503.70801 196.961425,3503.24903 197.049316,3502.7998 C197.137207,3502.35058 197.181152,3501.9502 197.181152,3501.59863 C197.181152,3501.12988 197.107911,3500.79297 196.961426,3500.58789 C196.814941,3500.38281 196.580568,3500.28027 196.258301,3500.28027 C196.043456,3500.28027 195.799318,3500.35596 195.525879,3500.50732 C195.25244,3500.65869 194.974123,3500.86621 194.690918,3501.12988 C194.407713,3501.39356 194.129396,3501.70849 193.855957,3502.07471 C193.582518,3502.44092 193.340821,3502.83887 193.130859,3503.26855 C192.920897,3503.69824 192.752442,3504.15234 192.625488,3504.63086 C192.498535,3505.10938 192.435059,3505.59277 192.435059,3506.08105 Z M193.196777,3499.9873 C194.075688,3499.51855 194.893551,3498.95459 195.650391,3498.29541 C196.40723,3497.63623 197.063962,3496.93067 197.620605,3496.17871 C198.177249,3495.42675 198.611815,3494.65772 198.924316,3493.87158 C199.236818,3493.08545 199.393066,3492.33594 199.393066,3491.62305 C199.393066,3491.14453 199.32959,3490.80029 199.202637,3490.59033 C199.075683,3490.38037 198.851076,3490.27539 198.528809,3490.27539 C198.235838,3490.27539 197.942873,3490.38525 197.649902,3490.60498 C197.356932,3490.82471 197.068849,3491.12012 196.785645,3491.49121 C196.50244,3491.86231 196.226564,3492.29199 195.958008,3492.78027 C195.689452,3493.26856 195.433107,3493.78369 195.188965,3494.32568 C194.944823,3494.86768 194.717774,3495.41699 194.507812,3495.97363 C194.297851,3496.53028 194.107423,3497.06006 193.936523,3497.56299 C193.765624,3498.06592 193.6167,3498.52734 193.489746,3498.94727 C193.362792,3499.36719 193.265137,3499.71387 193.196777,3499.9873 Z M199.686035,3505.1875 C199.686035,3504.30859 199.922849,3503.43213 200.396484,3502.55811 C200.87012,3501.68408 201.482906,3500.97364 202.234863,3500.42676 C202.98682,3499.87988 203.753414,3499.60645 204.534668,3499.60645 C205.354985,3499.60645 206.016599,3499.87744 206.519531,3500.41943 C207.022463,3500.96143 207.273926,3501.66211 207.273926,3502.52148 C207.273926,3503.45899 207.041995,3504.36718 206.578125,3505.24609 C206.114255,3506.125 205.50391,3506.84521 204.74707,3507.40674 C203.990231,3507.96826 203.226078,3508.24902 202.45459,3508.24902 C201.624508,3508.24902 200.955569,3507.96826 200.447754,3507.40674 C199.939939,3506.84521 199.686035,3506.10547 199.686035,3505.1875 Z M205.955566,3501.96484 C205.955566,3501.3789 205.811525,3500.89551 205.523438,3500.51465 C205.23535,3500.13379 204.866701,3499.94336 204.41748,3499.94336 C204.007322,3499.94336 203.61426,3500.07519 203.238281,3500.33887 C202.862303,3500.60254 202.518068,3500.98828 202.205566,3501.49609 C201.854002,3502.08203 201.563478,3502.76562 201.333984,3503.54688 C201.104491,3504.32813 200.989746,3505.02148 200.989746,3505.62695 C200.989746,3506.34961 201.131346,3506.90625 201.414551,3507.29688 C201.697755,3507.6875 202.103025,3507.88281 202.630371,3507.88281 C203.479985,3507.88281 204.227048,3507.292 204.871582,3506.11035 C205.203615,3505.50488 205.467284,3504.82618 205.662598,3504.07422 C205.857911,3503.32226 205.955566,3502.61914 205.955566,3501.96484 Z M214.612793,3500.03125 L216.04834,3499.43066 L214.847168,3504.08887 C214.700683,3504.66504 214.600586,3505.1167 214.546875,3505.44385 C214.493164,3505.771 214.466309,3506.01269 214.466309,3506.16895 C214.466309,3506.48145 214.520019,3506.73291 214.627441,3506.92334 C214.734864,3507.11377 214.876464,3507.20898 215.052246,3507.20898 C215.354982,3507.20898 215.838376,3506.84766 216.502441,3506.125 L216.736816,3506.33008 L216.590332,3506.49121 C216.307127,3506.82324 216.065431,3507.09912 215.865234,3507.31885 C215.665038,3507.53858 215.496583,3507.70703 215.359863,3507.82422 C215.086424,3508.04883 214.842286,3508.16113 214.627441,3508.16113 C214.324706,3508.16113 214.06836,3508.00977 213.858398,3507.70703 C213.648436,3507.4043 213.543457,3507.01856 213.543457,3506.5498 C213.543457,3506.30566 213.577636,3505.95899 213.645996,3505.50977 C213.714356,3505.06054 213.807128,3504.51368 213.924316,3503.86914 L210.525879,3503.86914 L209.603027,3507.83887 L208.621582,3508.14648 L210.174316,3500.03125 L211.565918,3499.43066 L210.643066,3503.37109 L214.026855,3503.37109 C214.114747,3502.89258 214.207519,3502.37744 214.305176,3501.82568 C214.402833,3501.27392 214.505371,3500.67578 214.612793,3500.03125 Z M219.212402,3500.03125 L220.604004,3499.43066 L219.32959,3504.86523 C219.573732,3504.42578 219.830077,3503.99854 220.098633,3503.5835 C220.367189,3503.16845 220.640624,3502.77783 220.918945,3502.41162 C221.197267,3502.04541 221.470702,3501.7085 221.739258,3501.40088 C222.007814,3501.09326 222.264159,3500.82715 222.508301,3500.60254 C222.732911,3500.39746 222.935546,3500.22412 223.116211,3500.08252 C223.296876,3499.94092 223.482421,3499.82373 223.672852,3499.73096 C223.863282,3499.63818 224.068358,3499.56982 224.288086,3499.52588 C224.507814,3499.48193 224.769041,3499.4502 225.071777,3499.43066 L224.793457,3500.79297 C224.568847,3500.71484 224.378419,3500.6709 224.222168,3500.66113 C224.065917,3500.65137 223.9292,3500.64648 223.812012,3500.64648 C223.626464,3500.64648 223.418946,3500.69775 223.189453,3500.80029 C222.95996,3500.90283 222.725587,3501.04932 222.486328,3501.23975 C222.247069,3501.43018 222.012696,3501.65478 221.783203,3501.91357 C221.55371,3502.17236 221.34131,3502.46289 221.145996,3502.78516 C221.302247,3503.16602 221.480468,3503.61035 221.680664,3504.11816 C221.88086,3504.62598 222.090819,3505.10937 222.310547,3505.56836 C222.530275,3506.02735 222.747558,3506.41553 222.962402,3506.73291 C223.177247,3507.05029 223.37744,3507.20898 223.562988,3507.20898 C223.992678,3507.20898 224.49072,3506.91114 225.057129,3506.31543 L225.174316,3506.18359 L225.364746,3506.40332 C224.378413,3507.59473 223.660647,3508.19043 223.211426,3508.19043 C223.055175,3508.19043 222.903809,3508.16113 222.757324,3508.10254 C222.610839,3508.04395 222.479004,3507.94141 222.361816,3507.79492 C222.1958,3507.59961 222.039552,3507.35547 221.893066,3507.0625 C221.746581,3506.76953 221.595216,3506.44238 221.438965,3506.08105 C221.282714,3505.71972 221.121583,3505.33643 220.955566,3504.93115 C220.78955,3504.52588 220.608888,3504.1084 220.413574,3503.67871 C220.042479,3504.20606 219.693361,3504.80664 219.366211,3505.48047 C219.039061,3506.1543 218.792481,3506.95019 218.626465,3507.86816 L217.688965,3508.13184 L219.212402,3500.03125 Z M226.302246,3505.1875 C226.302246,3504.30859 226.53906,3503.43213 227.012695,3502.55811 C227.48633,3501.68408 228.099117,3500.97364 228.851074,3500.42676 C229.603031,3499.87988 230.369625,3499.60645 231.150879,3499.60645 C231.971196,3499.60645 232.63281,3499.87744 233.135742,3500.41943 C233.638674,3500.96143 233.890137,3501.66211 233.890137,3502.52148 C233.890137,3503.45899 233.658205,3504.36718 233.194336,3505.24609 C232.730466,3506.125 232.120121,3506.84521 231.363281,3507.40674 C230.606442,3507.96826 229.842289,3508.24902 229.070801,3508.24902 C228.240719,3508.24902 227.57178,3507.96826 227.063965,3507.40674 C226.55615,3506.84521 226.302246,3506.10547 226.302246,3505.1875 Z M232.571777,3501.96484 C232.571777,3501.3789 232.427736,3500.89551 232.139648,3500.51465 C231.851561,3500.13379 231.482912,3499.94336 231.033691,3499.94336 C230.623533,3499.94336 230.230471,3500.07519 229.854492,3500.33887 C229.478514,3500.60254 229.134279,3500.98828 228.821777,3501.49609 C228.470213,3502.08203 228.179689,3502.76562 227.950195,3503.54688 C227.720702,3504.32813 227.605957,3505.02148 227.605957,3505.62695 C227.605957,3506.34961 227.747557,3506.90625 228.030762,3507.29688 C228.313966,3507.6875 228.719236,3507.88281 229.246582,3507.88281 C230.096196,3507.88281 230.843258,3507.292 231.487793,3506.11035 C231.819826,3505.50488 232.083495,3504.82618 232.278809,3504.07422 C232.474122,3503.32226 232.571777,3502.61914 232.571777,3501.96484 Z M237.186035,3503.62012 C237.869632,3502.30175 238.587399,3501.32032 239.339355,3500.67578 C240.091312,3500.03125 240.82861,3499.70898 241.55127,3499.70898 C241.873537,3499.70898 242.142089,3499.75781 242.356934,3499.85547 C242.571778,3499.95313 242.745117,3500.08984 242.876953,3500.26562 C243.00879,3500.44141 243.101562,3500.65137 243.155273,3500.89551 C243.208985,3501.13965 243.23584,3501.41308 243.23584,3501.71582 C243.23584,3502.12598 243.177247,3502.57275 243.060059,3503.05615 C242.942871,3503.53955 242.776857,3504.02295 242.562012,3504.50635 C242.347167,3504.98975 242.08838,3505.45605 241.785645,3505.90527 C241.482909,3506.35449 241.145998,3506.75244 240.774902,3507.09912 C240.403807,3507.4458 240.000979,3507.72412 239.566406,3507.93408 C239.131834,3508.14404 238.680178,3508.24902 238.211426,3508.24902 C238.035644,3508.24902 237.825685,3508.22217 237.581543,3508.16846 C237.337401,3508.11475 237.10547,3507.98535 236.885742,3507.78027 C236.666015,3507.57519 236.48047,3507.26758 236.329102,3506.85742 C236.177734,3506.44726 236.102051,3505.88086 236.102051,3505.1582 C236.102051,3504.54297 236.145996,3503.88379 236.233887,3503.18066 C236.321778,3502.47754 236.468261,3501.667 236.67334,3500.74902 C236.546386,3500.76855 236.380372,3500.78564 236.175293,3500.80029 C235.970214,3500.81494 235.770021,3500.82227 235.574707,3500.82227 L235.633301,3500.42676 C235.818849,3500.42676 236.021483,3500.41699 236.241211,3500.39746 C236.460939,3500.37793 236.644042,3500.34375 236.790527,3500.29492 C237.12256,3498.94726 237.535154,3497.64844 238.02832,3496.39844 C238.521487,3495.14843 239.068356,3494.04004 239.668945,3493.07324 C240.269534,3492.10644 240.906735,3491.33252 241.580566,3490.75146 C242.254398,3490.17041 242.933102,3489.87988 243.616699,3489.87988 C243.899904,3489.87988 244.141601,3489.93115 244.341797,3490.03369 C244.541993,3490.13623 244.703124,3490.27051 244.825195,3490.43652 C244.947266,3490.60254 245.037597,3490.79541 245.096191,3491.01514 C245.154785,3491.23486 245.184082,3491.46191 245.184082,3491.69629 C245.184082,3492.2334 245.083985,3492.78515 244.883789,3493.35156 C244.683593,3493.91797 244.405275,3494.47949 244.048828,3495.03613 C243.692381,3495.59278 243.277346,3496.13476 242.803711,3496.66211 C242.330076,3497.18946 241.819827,3497.68994 241.272949,3498.16357 C240.726071,3498.63721 240.15723,3499.07178 239.566406,3499.46729 C238.975583,3499.86279 238.392093,3500.20215 237.815918,3500.48535 C237.757324,3500.70996 237.698731,3500.9541 237.640137,3501.21777 C237.581543,3501.48145 237.52295,3501.75244 237.464355,3502.03076 C237.405761,3502.30908 237.352051,3502.58496 237.303223,3502.8584 C237.254394,3503.13184 237.215332,3503.38574 237.186035,3503.62012 Z M237.186035,3506.08105 C237.186035,3506.27637 237.198242,3506.479 237.222656,3506.68896 C237.24707,3506.89893 237.295898,3507.0918 237.369141,3507.26758 C237.442383,3507.44336 237.544921,3507.58984 237.676758,3507.70703 C237.808594,3507.82422 237.97705,3507.88281 238.182129,3507.88281 C238.533693,3507.88281 238.870604,3507.77783 239.192871,3507.56787 C239.515138,3507.35791 239.815428,3507.07959 240.09375,3506.73291 C240.372072,3506.38623 240.623534,3505.99072 240.848145,3505.54639 C241.072755,3505.10205 241.265624,3504.64551 241.426758,3504.17676 C241.587891,3503.70801 241.712402,3503.24903 241.800293,3502.7998 C241.888184,3502.35058 241.932129,3501.9502 241.932129,3501.59863 C241.932129,3501.12988 241.858887,3500.79297 241.712402,3500.58789 C241.565917,3500.38281 241.331545,3500.28027 241.009277,3500.28027 C240.794433,3500.28027 240.550294,3500.35596 240.276855,3500.50732 C240.003417,3500.65869 239.725099,3500.86621 239.441895,3501.12988 C239.15869,3501.39356 238.880372,3501.70849 238.606934,3502.07471 C238.333495,3502.44092 238.091798,3502.83887 237.881836,3503.26855 C237.671874,3503.69824 237.503419,3504.15234 237.376465,3504.63086 C237.249511,3505.10938 237.186035,3505.59277 237.186035,3506.08105 Z M237.947754,3499.9873 C238.826665,3499.51855 239.644527,3498.95459 240.401367,3498.29541 C241.158207,3497.63623 241.814939,3496.93067 242.371582,3496.17871 C242.928225,3495.42675 243.362791,3494.65772 243.675293,3493.87158 C243.987795,3493.08545 244.144043,3492.33594 244.144043,3491.62305 C244.144043,3491.14453 244.080567,3490.80029 243.953613,3490.59033 C243.82666,3490.38037 243.602052,3490.27539 243.279785,3490.27539 C242.986815,3490.27539 242.693849,3490.38525 242.400879,3490.60498 C242.107909,3490.82471 241.819826,3491.12012 241.536621,3491.49121 C241.253417,3491.86231 240.97754,3492.29199 240.708984,3492.78027 C240.440428,3493.26856 240.184083,3493.78369 239.939941,3494.32568 C239.6958,3494.86768 239.468751,3495.41699 239.258789,3495.97363 C239.048827,3496.53028 238.858399,3497.06006 238.6875,3497.56299 C238.516601,3498.06592 238.367676,3498.52734 238.240723,3498.94727 C238.113769,3499.36719 238.016114,3499.71387 237.947754,3499.9873 Z M189.871582,3539.62012 C190.555179,3538.30175 191.272945,3537.32032 192.024902,3536.67578 C192.776859,3536.03125 193.514157,3535.70898 194.236816,3535.70898 C194.559084,3535.70898 194.827636,3535.75781 195.04248,3535.85547 C195.257325,3535.95313 195.430663,3536.08984 195.5625,3536.26562 C195.694337,3536.44141 195.787109,3536.65137 195.84082,3536.89551 C195.894532,3537.13965 195.921387,3537.41308 195.921387,3537.71582 C195.921387,3538.12598 195.862794,3538.57275 195.745605,3539.05615 C195.628417,3539.53955 195.462403,3540.02295 195.247559,3540.50635 C195.032714,3540.98975 194.773927,3541.45605 194.471191,3541.90527 C194.168456,3542.35449 193.831545,3542.75244 193.460449,3543.09912 C193.089354,3543.4458 192.686526,3543.72412 192.251953,3543.93408 C191.817381,3544.14404 191.365725,3544.24902 190.896973,3544.24902 C190.721191,3544.24902 190.511232,3544.22217 190.26709,3544.16846 C190.022948,3544.11475 189.791017,3543.98535 189.571289,3543.78027 C189.351561,3543.57519 189.166016,3543.26758 189.014648,3542.85742 C188.86328,3542.44726 188.787598,3541.88086 188.787598,3541.1582 C188.787598,3540.54297 188.831543,3539.88379 188.919434,3539.18066 C189.007325,3538.47754 189.153808,3537.667 189.358887,3536.74902 C189.231933,3536.76855 189.065919,3536.78564 188.86084,3536.80029 C188.655761,3536.81494 188.455567,3536.82227 188.260254,3536.82227 L188.318848,3536.42676 C188.504395,3536.42676 188.70703,3536.41699 188.926758,3536.39746 C189.146485,3536.37793 189.329589,3536.34375 189.476074,3536.29492 C189.808107,3534.94726 190.220701,3533.64844 190.713867,3532.39844 C191.207034,3531.14843 191.753903,3530.04004 192.354492,3529.07324 C192.955081,3528.10644 193.592282,3527.33252 194.266113,3526.75146 C194.939945,3526.17041 195.618649,3525.87988 196.302246,3525.87988 C196.585451,3525.87988 196.827147,3525.93115 197.027344,3526.03369 C197.22754,3526.13623 197.388671,3526.27051 197.510742,3526.43652 C197.632813,3526.60254 197.723144,3526.79541 197.781738,3527.01514 C197.840332,3527.23486 197.869629,3527.46191 197.869629,3527.69629 C197.869629,3528.2334 197.769532,3528.78515 197.569336,3529.35156 C197.36914,3529.91797 197.090822,3530.47949 196.734375,3531.03613 C196.377928,3531.59278 195.962893,3532.13476 195.489258,3532.66211 C195.015623,3533.18946 194.505374,3533.68994 193.958496,3534.16357 C193.411618,3534.63721 192.842776,3535.07178 192.251953,3535.46729 C191.66113,3535.86279 191.07764,3536.20215 190.501465,3536.48535 C190.442871,3536.70996 190.384278,3536.9541 190.325684,3537.21777 C190.26709,3537.48145 190.208496,3537.75244 190.149902,3538.03076 C190.091308,3538.30908 190.037598,3538.58496 189.98877,3538.8584 C189.939941,3539.13184 189.900879,3539.38574 189.871582,3539.62012 Z M189.871582,3542.08105 C189.871582,3542.27637 189.883789,3542.479 189.908203,3542.68896 C189.932617,3542.89893 189.981445,3543.0918 190.054688,3543.26758 C190.12793,3543.44336 190.230468,3543.58984 190.362305,3543.70703 C190.494141,3543.82422 190.662597,3543.88281 190.867676,3543.88281 C191.21924,3543.88281 191.556151,3543.77783 191.878418,3543.56787 C192.200685,3543.35791 192.500975,3543.07959 192.779297,3542.73291 C193.057619,3542.38623 193.309081,3541.99072 193.533691,3541.54639 C193.758302,3541.10205 193.951171,3540.64551 194.112305,3540.17676 C194.273438,3539.70801 194.397949,3539.24903 194.48584,3538.7998 C194.573731,3538.35058 194.617676,3537.9502 194.617676,3537.59863 C194.617676,3537.12988 194.544434,3536.79297 194.397949,3536.58789 C194.251464,3536.38281 194.017091,3536.28027 193.694824,3536.28027 C193.479979,3536.28027 193.235841,3536.35596 192.962402,3536.50732 C192.688963,3536.65869 192.410646,3536.86621 192.127441,3537.12988 C191.844237,3537.39356 191.565919,3537.70849 191.29248,3538.07471 C191.019042,3538.44092 190.777345,3538.83887 190.567383,3539.26855 C190.357421,3539.69824 190.188965,3540.15234 190.062012,3540.63086 C189.935058,3541.10938 189.871582,3541.59277 189.871582,3542.08105 Z M190.633301,3535.9873 C191.512211,3535.51855 192.330074,3534.95459 193.086914,3534.29541 C193.843754,3533.63623 194.500485,3532.93067 195.057129,3532.17871 C195.613772,3531.42675 196.048338,3530.65772 196.36084,3529.87158 C196.673341,3529.08545 196.82959,3528.33594 196.82959,3527.62305 C196.82959,3527.14453 196.766114,3526.80029 196.63916,3526.59033 C196.512206,3526.38037 196.287599,3526.27539 195.965332,3526.27539 C195.672362,3526.27539 195.379396,3526.38525 195.086426,3526.60498 C194.793456,3526.82471 194.505373,3527.12012 194.222168,3527.49121 C193.938963,3527.86231 193.663087,3528.29199 193.394531,3528.78027 C193.125975,3529.26856 192.86963,3529.78369 192.625488,3530.32568 C192.381346,3530.86768 192.154298,3531.41699 191.944336,3531.97363 C191.734374,3532.53028 191.543946,3533.06006 191.373047,3533.56299 C191.202148,3534.06592 191.053223,3534.52734 190.92627,3534.94727 C190.799316,3535.36719 190.70166,3535.71387 190.633301,3535.9873 Z M204.505371,3544.23438 C203.919431,3544.23438 203.453127,3544.02197 203.106445,3543.59717 C202.759764,3543.17236 202.586426,3542.62305 202.586426,3541.94922 C202.586426,3541.1582 202.708495,3540.38672 202.952637,3539.63477 C203.196779,3538.88281 203.533689,3538.21387 203.963379,3537.62793 C204.393069,3537.04199 204.895993,3536.5708 205.472168,3536.21436 C206.048343,3535.85791 206.668454,3535.67969 207.33252,3535.67969 C208.074711,3535.67969 208.650877,3535.88476 209.061035,3536.29492 C209.090332,3536.12891 209.114746,3535.92139 209.134277,3535.67236 C209.153809,3535.42334 209.170898,3535.16699 209.185547,3534.90332 C209.200195,3534.63965 209.209961,3534.38574 209.214844,3534.1416 C209.219727,3533.89746 209.222168,3533.69727 209.222168,3533.54102 C209.222168,3533.31641 209.209961,3533.03809 209.185547,3532.70605 C209.161133,3532.37402 209.109864,3532.0249 209.031738,3531.65869 C208.953613,3531.29248 208.843751,3530.92871 208.702148,3530.56738 C208.560546,3530.20605 208.375001,3529.88135 208.145508,3529.59326 C207.916014,3529.30517 207.632814,3529.0708 207.295898,3528.89014 C206.958983,3528.70947 206.556155,3528.61914 206.087402,3528.61914 C205.97998,3528.61914 205.835938,3528.63135 205.655273,3528.65576 C205.474608,3528.68018 205.276857,3528.72656 205.062012,3528.79492 C204.847167,3528.86328 204.620118,3528.9585 204.380859,3529.08057 C204.1416,3529.20264 203.904786,3529.35644 203.67041,3529.54199 L203.494629,3529.26367 C203.719239,3529.04883 203.973143,3528.86328 204.256348,3528.70703 C204.539552,3528.55078 204.827635,3528.42139 205.120605,3528.31885 C205.413576,3528.21631 205.694335,3528.14307 205.962891,3528.09912 C206.231447,3528.05518 206.458495,3528.0332 206.644043,3528.0332 C207.415531,3528.0332 208.042966,3528.18213 208.526367,3528.47998 C209.009768,3528.77783 209.385741,3529.17334 209.654297,3529.6665 C209.922853,3530.15967 210.103515,3530.72119 210.196289,3531.35107 C210.289063,3531.98096 210.335449,3532.62793 210.335449,3533.29199 C210.335449,3534.18067 210.257325,3535.06689 210.101074,3535.95068 C209.944823,3536.83448 209.729982,3537.68164 209.456543,3538.49219 C209.183104,3539.30274 208.860842,3540.05957 208.489746,3540.7627 C208.11865,3541.46582 207.715822,3542.07373 207.28125,3542.58643 C206.846678,3543.09912 206.39258,3543.50195 205.918945,3543.79492 C205.44531,3544.08789 204.974123,3544.23438 204.505371,3544.23438 Z M208.797363,3537.11523 C208.689941,3536.79297 208.49463,3536.5415 208.211426,3536.36084 C207.928221,3536.18017 207.615724,3536.08984 207.273926,3536.08984 C206.912596,3536.08984 206.580568,3536.17773 206.277832,3536.35352 C205.975096,3536.5293 205.696779,3536.76611 205.442871,3537.06396 C205.188964,3537.36182 204.964356,3537.70849 204.769043,3538.104 C204.573729,3538.49951 204.407716,3538.91211 204.270996,3539.3418 C204.134277,3539.77149 204.031739,3540.20849 203.963379,3540.65283 C203.895019,3541.09717 203.86084,3541.51953 203.86084,3541.91992 C203.86084,3542.42774 203.963378,3542.83545 204.168457,3543.14307 C204.373536,3543.45069 204.695799,3543.60449 205.135254,3543.60449 C205.447755,3543.60449 205.757811,3543.48975 206.06543,3543.26025 C206.373048,3543.03076 206.661131,3542.72803 206.929688,3542.35205 C207.198244,3541.97607 207.447264,3541.55371 207.676758,3541.08496 C207.906251,3540.61621 208.104003,3540.14014 208.27002,3539.65674 C208.436036,3539.17334 208.565429,3538.70947 208.658203,3538.26514 C208.750977,3537.8208 208.797363,3537.4375 208.797363,3537.11523 Z M216.634277,3541.72949 L216.897949,3541.94922 C216.292477,3542.75 215.701663,3543.32861 215.125488,3543.68506 C214.549314,3544.04151 213.929203,3544.21973 213.265137,3544.21973 C212.474117,3544.21973 211.839358,3543.95606 211.36084,3543.42871 C210.882322,3542.90136 210.643066,3542.20313 210.643066,3541.33398 C210.643066,3540.45507 210.874998,3539.56397 211.338867,3538.66064 C211.802737,3537.75732 212.383786,3537.01026 213.082031,3536.41943 C213.780277,3535.82861 214.471188,3535.5332 215.154785,3535.5332 C215.555178,3535.5332 215.884764,3535.65039 216.143555,3535.88477 C216.402345,3536.11914 216.531738,3536.42187 216.531738,3536.79297 C216.531738,3537.54493 216.121586,3538.29687 215.30127,3539.04883 C214.480953,3539.80079 213.3628,3540.44043 211.946777,3540.96777 C211.937012,3541.0459 211.932129,3541.13379 211.932129,3541.23145 C211.932129,3541.90528 212.117674,3542.45459 212.48877,3542.87939 C212.859865,3543.3042 213.338376,3543.5166 213.924316,3543.5166 C214.383303,3543.5166 214.827635,3543.37256 215.257324,3543.08447 C215.687014,3542.79639 216.145994,3542.34473 216.634277,3541.72949 Z M211.946777,3540.61621 C213.00147,3540.14746 213.812009,3539.625 214.378418,3539.04883 C214.759279,3538.6582 215.066893,3538.23828 215.30127,3537.78906 C215.535646,3537.33984 215.652832,3536.93457 215.652832,3536.57324 C215.652832,3536.11426 215.442873,3535.88477 215.022949,3535.88477 C214.38818,3535.88477 213.746097,3536.38525 213.09668,3537.38623 C212.447262,3538.38721 212.063965,3539.46386 211.946777,3540.61621 Z M224.046387,3536.03125 L225.481934,3535.43066 L224.280762,3540.08887 C224.134277,3540.66504 224.03418,3541.1167 223.980469,3541.44385 C223.926758,3541.771 223.899902,3542.01269 223.899902,3542.16895 C223.899902,3542.48145 223.953613,3542.73291 224.061035,3542.92334 C224.168458,3543.11377 224.310058,3543.20898 224.48584,3543.20898 C224.788576,3543.20898 225.271969,3542.84766 225.936035,3542.125 L226.17041,3542.33008 L226.023926,3542.49121 C225.740721,3542.82324 225.499024,3543.09912 225.298828,3543.31885 C225.098632,3543.53858 224.930176,3543.70703 224.793457,3543.82422 C224.520018,3544.04883 224.27588,3544.16113 224.061035,3544.16113 C223.758299,3544.16113 223.501954,3544.00977 223.291992,3543.70703 C223.08203,3543.4043 222.977051,3543.01856 222.977051,3542.5498 C222.977051,3542.30566 223.01123,3541.95899 223.07959,3541.50977 C223.14795,3541.06054 223.240722,3540.51368 223.35791,3539.86914 L219.959473,3539.86914 L219.036621,3543.83887 L218.055176,3544.14648 L219.60791,3536.03125 L220.999512,3535.43066 L220.07666,3539.37109 L223.460449,3539.37109 C223.54834,3538.89258 223.641113,3538.37744 223.73877,3537.82568 C223.836426,3537.27392 223.938964,3536.67578 224.046387,3536.03125 Z M231.648926,3538.28711 C231.873536,3538.28711 232.07373,3538.30664 232.249512,3538.3457 C232.425294,3538.38477 232.57666,3538.45801 232.703613,3538.56543 C232.830567,3538.67285 232.925781,3538.82178 232.989258,3539.01221 C233.052735,3539.20264 233.084473,3539.44433 233.084473,3539.7373 C233.084473,3540.22559 232.959962,3540.73095 232.710938,3541.25342 C232.461913,3541.77588 232.142092,3542.25195 231.751465,3542.68164 C231.360838,3543.11133 230.923831,3543.46533 230.44043,3543.74365 C229.957029,3544.02197 229.485842,3544.16113 229.026855,3544.16113 C228.528806,3544.16113 228.130861,3544.01709 227.833008,3543.729 C227.535155,3543.44092 227.38623,3543.05762 227.38623,3542.5791 C227.38623,3542.2373 227.439941,3541.78321 227.547363,3541.2168 L228.543457,3536.03125 L229.92041,3535.43066 L228.602051,3540.55762 C229.129397,3539.7666 229.656736,3539.19043 230.184082,3538.8291 C230.711428,3538.46777 231.199705,3538.28711 231.648926,3538.28711 Z M228.353027,3542.38867 C228.353027,3542.73047 228.460448,3543.01855 228.675293,3543.25293 C228.890138,3543.48731 229.192869,3543.60449 229.583496,3543.60449 C229.837404,3543.60449 230.101073,3543.52637 230.374512,3543.37012 C230.647951,3543.21387 230.899413,3542.98682 231.128906,3542.68896 C231.3584,3542.39111 231.548827,3542.02002 231.700195,3541.57568 C231.851563,3541.13135 231.927246,3540.6211 231.927246,3540.04492 C231.927246,3539.69336 231.875977,3539.41748 231.773438,3539.21729 C231.670898,3539.01709 231.478029,3538.91699 231.194824,3538.91699 C230.999511,3538.91699 230.787111,3538.96582 230.557617,3539.06348 C230.328124,3539.16113 230.093751,3539.31494 229.854492,3539.5249 C229.615233,3539.73486 229.375978,3540.00097 229.136719,3540.32324 C228.89746,3540.64551 228.670411,3541.03125 228.455566,3541.48047 C228.387207,3541.8125 228.353027,3542.11523 228.353027,3542.38867 Z" id="Звонков-в-день"></path>
        </g>
    </g>
</svg>