<svg xmlns="http://www.w3.org/2000/svg" width="377" height="39" viewBox="0 0 377 39">
    <path fill="#FFF" fill-rule="evenodd" d="M16.183 30h-2.11l5.032-22.852c.205-.908.308-1.582.308-2.021 0-.498-.121-.894-.363-1.187-.242-.293-.575-.439-1-.439-1.303 0-2.849 1.45-4.636 4.35-.703 1.128-1.454 2.476-2.252 4.044a103.185 103.185 0 0 0-2.142 4.449 87.238 87.238 0 0 0-1.912 4.625 86.004 86.004 0 0 0-1.714 4.9l-1.165 3.714-.131.417H2.23l.132-.44c.967-3.34 2.058-7.99 3.274-13.952.468-2.241.879-4.35 1.23-6.328.484-2.652.725-4.497.725-5.537 0-.542-.058-1.03-.175-1.462-.118-.432-.282-.758-.495-.977a1.019 1.019 0 0 0-.758-.33C4.977.974 3.98 2.44 3.175 5.37c-.63 2.24-1.048 4.27-1.253 6.086L.208 10.27c.293-1.832.748-3.52 1.363-5.065.615-1.546 1.31-2.747 2.087-3.604C4.435.743 5.218.315 6.01.315c.938 0 1.674.505 2.209 1.516.534 1.01.802 2.41.802 4.197 0 1.465-.14 3.076-.418 4.834-.19 1.201-.395 2.395-.615 3.581l-1.12 5.406.197-.484c1.274-3.105 2.494-5.793 3.658-8.064 1.165-2.27 2.253-4.109 3.263-5.515 1.817-2.475 3.501-3.713 5.054-3.713.718 0 1.307.252 1.769.758.461.505.692 1.16.692 1.966 0 .689-.125 1.597-.374 2.725L16.183 30zm3.8 8.723l4.154-20.676 2.11-.901-1.451 6.306c1.084-2.182 2.106-3.754 3.065-4.713.96-.96 2.01-1.44 3.153-1.44.88 0 1.575.323 2.088.968.512.644.769 1.53.769 2.658 0 1.143-.231 2.315-.693 3.516a11.234 11.234 0 0 1-1.944 3.274c-1.509 1.816-3.171 2.724-4.988 2.724-1.142 0-2.08-.3-2.812-.9l-2.264 9.184h-1.186zm3.78-10.635c.615 1.202 1.48 1.802 2.593 1.802 1.611 0 3.018-1.31 4.219-3.933.981-2.11 1.472-3.882 1.472-5.317 0-.777-.147-1.377-.44-1.802-.293-.425-.71-.637-1.252-.637-.879 0-1.802.578-2.769 1.736a17.964 17.964 0 0 0-2.35 3.823c-.25.556-.48 1.15-.693 1.78-.212.63-.414 1.274-.604 1.933l-.176.615zm16.392-10.942l-2.132 8.503c-.19.762-.285 1.407-.285 1.934 0 .513.16.923.483 1.23.322.308.74.462 1.253.462 1.245 0 2.541-1.018 3.889-3.054l.088-.132c.029-.147.051-.264.066-.352l1.384-7.69 2.153-.901-1.933 7.229c-.323 1.187-.484 2.139-.484 2.856 0 .47.08.85.242 1.143.161.293.373.44.637.44.454 0 1.18-.543 2.175-1.627l.352.308-.22.242c-.835.981-1.45 1.644-1.845 1.988-.396.345-.762.517-1.1.517-.453 0-.838-.231-1.153-.692-.315-.462-.472-1.037-.472-1.725 0-.22.007-.425.022-.616-1.524 2.022-3.032 3.033-4.526 3.033-.748 0-1.344-.216-1.791-.648-.447-.433-.67-1.008-.67-1.725 0-.557.08-1.238.241-2.044l1.494-7.778 2.132-.901zm18.083 9.448l.396.33c-.908 1.201-1.795 2.069-2.659 2.604a5.21 5.21 0 0 1-2.79.802c-1.187 0-2.14-.396-2.857-1.187-.718-.791-1.077-1.838-1.077-3.142 0-1.318.348-2.655 1.044-4.01.696-1.355 1.568-2.476 2.615-3.362 1.047-.886 2.084-1.33 3.109-1.33.6 0 1.095.177 1.483.528.388.352.582.806.582 1.362 0 1.128-.615 2.256-1.845 3.384-1.23 1.128-2.908 2.088-5.032 2.879a3.212 3.212 0 0 0-.022.395c0 1.01.278 1.835.835 2.472.557.637 1.274.956 2.153.956.689 0 1.355-.216 2-.648.644-.432 1.333-1.11 2.065-2.033zm-7.031-1.67c1.582-.703 2.798-1.486 3.647-2.35a8.02 8.02 0 0 0 1.385-1.89c.351-.674.527-1.282.527-1.824 0-.689-.315-1.033-.945-1.033-.952 0-1.915.75-2.89 2.252-.973 1.502-1.548 3.117-1.724 4.845zm22.918-6.943l2.373-.725-1.736 6.855c-.22.865-.37 1.542-.45 2.033-.081.49-.122.853-.122 1.087 0 .47.081.846.242 1.132.161.286.374.429.637.429.454 0 1.18-.542 2.176-1.626l.351.307-.22.242c-.424.498-.787.912-1.087 1.241-.3.33-.553.583-.758.758-.41.337-.777.506-1.099.506-.454 0-.838-.227-1.153-.681-.315-.455-.473-1.033-.473-1.736 0-.337.048-.817.143-1.44.095-.622.22-1.329.374-2.12.153-.79.318-1.633.494-2.527.176-.893.344-1.78.505-2.658L67.687 30h-.682l-.79-11.294a86.698 86.698 0 0 1-1.583 5.13c-.498 1.429-.985 2.597-1.46 3.505-.477.909-.942 1.579-1.396 2.01-.454.433-.908.649-1.362.649-.147 0-.334-.007-.56-.022a2.968 2.968 0 0 1-.583-.088l.615-2.22c.147.118.348.21.604.276.257.065.502.098.737.098.278 0 .538-.102.78-.307.241-.205.472-.476.692-.813.22-.337.428-.733.626-1.187.198-.454.377-.93.538-1.428.381-1.172.645-2.16.791-2.966.147-.806.22-1.487.22-2.044 0-.16-.007-.337-.022-.527a3.882 3.882 0 0 0-.11-.637l3.032-.901.594 10.503 5.757-9.756zm2.724 19.82l1.077-1.45c.85.907 1.809 1.361 2.878 1.361 1.128 0 2.036-.446 2.725-1.34.688-.893 1.252-2.358 1.692-4.394l1.01-4.549c-1.61 1.89-3.068 2.835-4.372 2.835-.762 0-1.359-.235-1.79-.703-.433-.47-.65-1.1-.65-1.89 0-.527.067-1.106.199-1.736l1.494-7.888 2.131-.901-2.131 8.855c-.176.718-.264 1.252-.264 1.604 0 .498.15.905.45 1.22.3.314.7.472 1.198.472.542 0 1.139-.238 1.79-.714.653-.476 1.381-1.19 2.187-2.143l1.89-8.393 2.065-.901-3.208 12.92c-.38 1.553-.743 2.768-1.087 3.647-.345.88-.744 1.612-1.198 2.198-1.435 1.845-3.186 2.768-5.251 2.768-1.202 0-2.146-.293-2.835-.879zm30.52-10.592c0 .47.08.85.242 1.143.161.293.373.44.637.44.234 0 .55-.121.945-.363.395-.242.806-.663 1.23-1.263l.484.505c-.205.776-.414 1.604-.626 2.483-.213.879-.44 1.769-.682 2.67-.241.9-.501 1.794-.78 2.68a23.605 23.605 0 0 1-.944 2.516h-1.846c.337-.586.696-1.285 1.076-2.098a69.533 69.533 0 0 0 2.23-5.34c.345-.93.649-1.798.913-2.603-.484.63-.96 1.16-1.429 1.593-.468.432-.871.648-1.208.648-.454 0-.839-.227-1.154-.681-.315-.455-.472-1.033-.472-1.736v-.319c0-.095.007-.194.022-.297-.645.894-1.33 1.612-2.055 2.154-.725.542-1.475.842-2.252.9-.762 0-1.362-.226-1.802-.68-.439-.455-.659-1.033-.659-1.736v-.319c0-.095.008-.194.022-.297-.6.923-1.267 1.645-2 2.165-.732.52-1.486.81-2.262.868-.748 0-1.344-.216-1.791-.648-.447-.433-.67-1.008-.67-1.725 0-.513.08-1.194.241-2.044l1.494-7.778 2.132-.901-2.132 8.503c-.19.747-.285 1.392-.285 1.934 0 .264.044.498.132.703.088.205.205.381.351.527.147.147.3.26.462.341.16.08.322.12.483.12.6 0 1.263-.255 1.989-.768.725-.513 1.402-1.318 2.032-2.417l1.494-8.042 2.153-.901-1.933 7.229c-.322 1.157-.484 2.11-.484 2.856 0 .41.048.748.143 1.011.096.264.213.473.352.626.139.154.293.26.461.319a1.5 1.5 0 0 0 .495.088c.6 0 1.27-.256 2.01-.77.74-.512 1.425-1.317 2.055-2.416l1.45-8.042 2.153-.901-1.933 7.229c-.132.483-.246.989-.341 1.516a7.67 7.67 0 0 0-.143 1.318zm14.524-.615l.396.33c-.909 1.201-1.795 2.069-2.66 2.604a5.21 5.21 0 0 1-2.79.802c-1.186 0-2.138-.396-2.856-1.187s-1.077-1.838-1.077-3.142c0-1.318.348-2.655 1.044-4.01.696-1.355 1.567-2.476 2.615-3.362 1.047-.886 2.083-1.33 3.109-1.33.6 0 1.095.177 1.483.528.388.352.582.806.582 1.362 0 1.128-.615 2.256-1.845 3.384-1.23 1.128-2.908 2.088-5.032 2.879a3.212 3.212 0 0 0-.022.395c0 1.01.278 1.835.835 2.472.556.637 1.274.956 2.153.956.689 0 1.355-.216 2-.648.644-.432 1.333-1.11 2.065-2.033zm-7.031-1.67c1.582-.703 2.798-1.486 3.647-2.35a8.02 8.02 0 0 0 1.385-1.89c.351-.674.527-1.282.527-1.824 0-.689-.315-1.033-.945-1.033-.952 0-1.915.75-2.89 2.252-.973 1.502-1.548 3.117-1.724 4.845zm18.171 1.78c-.893 1.26-1.761 2.18-2.604 2.758a4.838 4.838 0 0 1-2.801.868c-1.128 0-2.047-.396-2.758-1.187-.71-.791-1.065-1.816-1.065-3.076 0-1.318.344-2.659 1.032-4.021.689-1.362 1.571-2.49 2.648-3.384 1.077-.893 2.113-1.34 3.11-1.34.673 0 1.215.187 1.625.56.41.374.615.875.615 1.505 0 .571-.216 1.117-.648 1.637-.432.52-.897.78-1.395.78a.82.82 0 0 1-.593-.263c.952-.425 1.428-1.216 1.428-2.374 0-.41-.106-.728-.319-.955-.212-.227-.494-.34-.846-.34-.542 0-1.087.219-1.637.658-.549.44-1.065 1.051-1.549 1.835-.483.784-.86 1.619-1.131 2.505a9.157 9.157 0 0 0-.407 2.692c0 1.084.257 1.962.77 2.636.512.674 1.186 1.011 2.02 1.011.719 0 1.414-.227 2.088-.681.674-.454 1.377-1.15 2.11-2.088l.307.264zm10.371 3.054l-1.45.462 1.736-8.943.154-.77c.088-.424.132-.776.132-1.054 0-.644-.257-.967-.77-.967-.483 0-1.069.326-1.757.978-.689.652-1.414 1.593-2.176 2.824a24.743 24.743 0 0 0-1.285 2.285 23.64 23.64 0 0 0-.989 2.34c-.3.827-.59 1.776-.868 2.845l-1.362.462 2.263-12.173 2.11-.901-1.912 7.976c.981-2.27 2.106-4.134 3.373-5.592 1.267-1.457 2.406-2.186 3.417-2.186 1.098 0 1.647.622 1.647 1.867 0 .425-.11 1.18-.33 2.264l-.724 3.274c1.42-2.725 2.622-4.648 3.603-5.768.982-1.12 1.956-1.681 2.923-1.681.542 0 .966.16 1.274.483.308.322.462.784.462 1.384 0 .484-.147 1.319-.44 2.505l-.681 2.703-.22.857c-.205.908-.307 1.582-.307 2.021 0 .47.08.846.241 1.132.161.286.366.428.615.428.47 0 1.202-.542 2.198-1.625l.33.307-.198.242c-.835.981-1.454 1.644-1.857 1.988-.403.345-.773.517-1.11.517-.454 0-.838-.231-1.153-.692-.315-.462-.473-1.037-.473-1.725 0-.425.096-1.12.286-2.088l.813-4.548.132-.791c.088-.44.132-.791.132-1.055 0-.263-.08-.476-.242-.637-.161-.161-.38-.242-.66-.242-.322 0-.677.136-1.065.407-.388.27-.802.685-1.241 1.241-.44.557-.93 1.29-1.473 2.198-.732 1.245-1.325 2.406-1.78 3.482-.453 1.077-.893 2.399-1.318 3.966zm15.579-6.328c1.025-1.977 2.102-3.45 3.23-4.416 1.128-.967 2.234-1.45 3.318-1.45.483 0 .886.073 1.208.22.323.146.583.35.78.614.198.264.337.579.418.945.08.366.12.777.12 1.23 0 .616-.087 1.286-.263 2.011a12.75 12.75 0 0 1-.747 2.176c-.322.725-.71 1.424-1.165 2.098-.454.674-.96 1.27-1.516 1.79s-1.16.938-1.813 1.253a4.618 4.618 0 0 1-2.032.473c-.264 0-.579-.04-.945-.121-.366-.08-.714-.275-1.044-.583-.33-.307-.607-.769-.834-1.384-.228-.615-.341-1.465-.341-2.549 0-.923.066-1.911.198-2.966.132-1.055.351-2.27.659-3.647a12.647 12.647 0 0 1-1.648.11l.088-.594c.278 0 .582-.015.912-.044.33-.03.604-.08.824-.154a45.683 45.683 0 0 1 1.856-5.844c.74-1.875 1.56-3.538 2.461-4.988.901-1.45 1.857-2.611 2.868-3.483 1.01-.871 2.029-1.307 3.054-1.307.425 0 .787.077 1.088.23.3.154.542.356.725.605.183.249.318.538.406.868.088.33.132.67.132 1.021 0 .806-.15 1.634-.45 2.483-.3.85-.718 1.692-1.253 2.527a18.943 18.943 0 0 1-1.868 2.44 26.004 26.004 0 0 1-4.856 4.208 22.864 22.864 0 0 1-2.625 1.526c-.088.337-.176.703-.264 1.099-.088.395-.176.802-.264 1.22-.088.417-.168.83-.241 1.24-.074.41-.132.792-.176 1.143zm0 3.692c0 .293.018.597.055.911.036.315.11.605.22.868.11.264.263.484.461.66.198.175.45.263.758.263.527 0 1.033-.157 1.516-.472a5.825 5.825 0 0 0 1.351-1.253c.418-.52.795-1.113 1.132-1.78a16.28 16.28 0 0 0 1.428-4.12 9.497 9.497 0 0 0 .198-1.801c0-.703-.11-1.209-.33-1.516-.22-.308-.57-.462-1.054-.462-.322 0-.689.114-1.099.341-.41.227-.827.538-1.252.934a10.57 10.57 0 0 0-1.253 1.417 11.21 11.21 0 0 0-1.845 3.834 8.449 8.449 0 0 0-.286 2.176zm1.142-9.141a19.71 19.71 0 0 0 3.68-2.538 19.986 19.986 0 0 0 2.956-3.175c.835-1.128 1.487-2.281 1.956-3.46.469-1.18.703-2.304.703-3.373 0-.718-.095-1.235-.286-1.55-.19-.314-.527-.472-1.01-.472-.44 0-.88.165-1.319.494-.44.33-.871.773-1.296 1.33a15.503 15.503 0 0 0-1.242 1.933 32.543 32.543 0 0 0-1.153 2.319 42.768 42.768 0 0 0-1.022 2.471c-.315.835-.6 1.63-.857 2.384a64.66 64.66 0 0 0-.67 2.077c-.19.63-.337 1.15-.44 1.56zm22.127-.967l-2.065 8.042c-.22.88-.33 1.568-.33 2.066 0 .439.095.82.286 1.142.19.322.424.484.703.484.425 0 1.128-.52 2.11-1.56l.307.307-.242.286c-.776.893-1.373 1.52-1.79 1.878-.418.36-.78.539-1.088.539-.47 0-.876-.246-1.22-.736-.344-.491-.516-1.059-.516-1.703 0-.469.176-1.531.527-3.186l.176-.835a16.31 16.31 0 0 1-2.175 3.625c-1.524 1.934-2.981 2.9-4.373 2.9-.835 0-1.494-.3-1.978-.9-.483-.6-.725-1.406-.725-2.417 0-1.377.392-2.82 1.176-4.329.784-1.509 1.758-2.75 2.922-3.724 1.165-.974 2.296-1.461 3.395-1.461 1.157 0 2.022.424 2.593 1.274l.242-.835 2.065-.857zm-2.527 2.813c-.176-.557-.472-.993-.89-1.308a2.326 2.326 0 0 0-1.439-.472c-.645 0-1.326.297-2.043.89-.718.593-1.377 1.417-1.978 2.472-.469.835-.86 1.757-1.176 2.768-.314 1.011-.472 1.846-.472 2.505 0 .747.143 1.333.429 1.758.285.425.692.637 1.219.637.674 0 1.377-.315 2.11-.945.732-.63 1.457-1.53 2.175-2.702.44-.674.783-1.348 1.032-2.022.25-.674.528-1.611.835-2.812l.198-.77zm12.788 10.393l2.33-12.173 2.087-.901-1.89 8.064c1.216-2.564 2.424-4.512 3.626-5.845 1.2-1.333 2.35-2 3.45-2 .541 0 .98.18 1.318.54.337.358.505.838.505 1.438 0 .337-.08.813-.242 1.428l-.22.923-.659 2.681-.22.857c-.22.879-.329 1.553-.329 2.021 0 .47.08.846.242 1.132.16.286.373.428.637.428.454 0 1.18-.542 2.175-1.625l.352.307-.22.242c-.835.981-1.45 1.644-1.846 1.988-.395.345-.761.517-1.098.517-.454 0-.839-.231-1.154-.692-.315-.462-.472-1.037-.472-1.725 0-.469.088-1.165.263-2.088l.857-4.658c.118-.732.176-1.245.176-1.538 0-.308-.08-.542-.242-.703-.16-.161-.38-.242-.659-.242-1.01 0-2.256 1.084-3.735 3.252a20.69 20.69 0 0 0-1.78 3.087c-.469 1.018-.996 2.428-1.582 4.23l-.198.593-1.472.462zm12.854 8.503l4.153-20.676 2.11-.901-1.45 6.306c1.083-2.182 2.105-3.754 3.064-4.713.96-.96 2.01-1.44 3.153-1.44.88 0 1.575.323 2.088.968.513.644.769 1.53.769 2.658 0 1.143-.23 2.315-.692 3.516a11.234 11.234 0 0 1-1.945 3.274c-1.509 1.816-3.171 2.724-4.988 2.724-1.142 0-2.08-.3-2.812-.9l-2.263 9.184h-1.187zm3.78-10.635c.615 1.202 1.479 1.802 2.592 1.802 1.612 0 3.018-1.31 4.219-3.933.981-2.11 1.472-3.882 1.472-5.317 0-.777-.146-1.377-.44-1.802-.292-.425-.71-.637-1.252-.637-.879 0-1.801.578-2.768 1.736a17.964 17.964 0 0 0-2.351 3.823c-.25.556-.48 1.15-.692 1.78-.213.63-.414 1.274-.605 1.933l-.176.615zm16.391-10.942l-2.131 8.503c-.19.762-.286 1.407-.286 1.934 0 .513.161.923.483 1.23.323.308.74.462 1.253.462 1.245 0 2.541-1.018 3.89-3.054l.087-.132c.03-.147.051-.264.066-.352l1.384-7.69 2.154-.901-1.934 7.229c-.322 1.187-.483 2.139-.483 2.856 0 .47.08.85.241 1.143.161.293.374.44.637.44.455 0 1.18-.543 2.176-1.627l.351.308-.22.242c-.834.981-1.45 1.644-1.845 1.988-.396.345-.762.517-1.099.517-.454 0-.838-.231-1.153-.692-.315-.462-.473-1.037-.473-1.725 0-.22.008-.425.022-.616-1.523 2.022-3.032 3.033-4.526 3.033-.747 0-1.344-.216-1.79-.648-.448-.433-.671-1.008-.671-1.725 0-.557.08-1.238.242-2.044l1.494-7.778 2.131-.901zm20.04 6.284c1.025-1.977 2.101-3.45 3.23-4.416 1.127-.967 2.233-1.45 3.317-1.45.483 0 .886.073 1.208.22.323.146.583.35.78.614.198.264.337.579.418.945.08.366.12.777.12 1.23 0 .616-.087 1.286-.263 2.011a12.75 12.75 0 0 1-.747 2.176c-.322.725-.71 1.424-1.164 2.098-.455.674-.96 1.27-1.517 1.79-.556.52-1.16.938-1.812 1.253a4.618 4.618 0 0 1-2.033.473c-.263 0-.578-.04-.945-.121-.366-.08-.714-.275-1.043-.583-.33-.307-.608-.769-.835-1.384-.227-.615-.34-1.465-.34-2.549 0-.923.065-1.911.197-2.966.132-1.055.351-2.27.66-3.647a12.647 12.647 0 0 1-1.648.11l.087-.594c.278 0 .582-.015.912-.044.33-.03.604-.08.824-.154a45.683 45.683 0 0 1 1.857-5.844c.74-1.875 1.56-3.538 2.46-4.988.901-1.45 1.857-2.611 2.868-3.483 1.01-.871 2.029-1.307 3.054-1.307.425 0 .787.077 1.088.23.3.154.542.356.725.605.183.249.318.538.406.868.088.33.132.67.132 1.021 0 .806-.15 1.634-.45 2.483-.3.85-.718 1.692-1.253 2.527a18.943 18.943 0 0 1-1.867 2.44 26.004 26.004 0 0 1-4.856 4.208 22.864 22.864 0 0 1-2.626 1.526c-.088.337-.176.703-.264 1.099-.088.395-.175.802-.263 1.22-.088.417-.169.83-.242 1.24-.073.41-.132.792-.176 1.143zm0 3.692c0 .293.017.597.054.911.037.315.11.605.22.868.11.264.263.484.461.66.198.175.45.263.758.263.528 0 1.033-.157 1.516-.472a5.825 5.825 0 0 0 1.352-1.253c.417-.52.794-1.113 1.131-1.78a16.28 16.28 0 0 0 1.429-4.12 9.497 9.497 0 0 0 .197-1.801c0-.703-.11-1.209-.33-1.516-.219-.308-.57-.462-1.054-.462-.322 0-.688.114-1.099.341-.41.227-.827.538-1.252.934a10.57 10.57 0 0 0-1.253 1.417 11.21 11.21 0 0 0-1.845 3.834 8.449 8.449 0 0 0-.286 2.176zm1.142-9.141a19.71 19.71 0 0 0 3.68-2.538 19.986 19.986 0 0 0 2.955-3.175c.835-1.128 1.487-2.281 1.956-3.46.469-1.18.703-2.304.703-3.373 0-.718-.095-1.235-.285-1.55-.19-.314-.528-.472-1.011-.472-.44 0-.88.165-1.319.494-.439.33-.871.773-1.296 1.33a15.503 15.503 0 0 0-1.241 1.933 32.544 32.544 0 0 0-1.154 2.319 42.768 42.768 0 0 0-1.022 2.471c-.315.835-.6 1.63-.857 2.384-.256.755-.48 1.447-.67 2.077-.19.63-.337 1.15-.44 1.56zm23.51-.835l-1.933 7.229c-.322 1.187-.484 2.139-.484 2.856 0 .47.081.85.242 1.143.161.293.374.44.637.44.454 0 1.18-.543 2.176-1.627l.351.308-.22.242c-.834.981-1.45 1.644-1.845 1.988-.396.345-.762.517-1.099.517-.454 0-.838-.231-1.153-.692-.315-.462-.473-1.037-.473-1.725 0-.44.088-1.136.264-2.088l1.384-7.69 2.153-.901zm-6.79 4.285c.338 0 .638.029.902.088.263.058.49.168.68.33.191.16.334.384.43.67.095.285.142.648.142 1.087 0 .732-.187 1.49-.56 2.274a8.792 8.792 0 0 1-1.44 2.142 8.135 8.135 0 0 1-1.966 1.593c-.725.418-1.432.627-2.12.627-.747 0-1.344-.216-1.791-.648-.447-.433-.67-1.008-.67-1.725 0-.513.08-1.194.242-2.044l1.494-7.778 2.065-.901-1.977 7.69c.79-1.186 1.582-2.05 2.373-2.592.79-.542 1.523-.813 2.197-.813zm-4.943 6.152c0 .513.161.945.483 1.296.323.352.777.528 1.363.528.38 0 .776-.117 1.186-.352.41-.234.788-.575 1.132-1.022.344-.446.63-1.003.857-1.67.227-.666.34-1.431.34-2.296 0-.527-.077-.94-.23-1.241-.154-.3-.443-.45-.868-.45-.293 0-.612.073-.956.22a4.004 4.004 0 0 0-1.055.691 7.67 7.67 0 0 0-1.076 1.198c-.36.483-.7 1.062-1.022 1.736a6.805 6.805 0 0 0-.154 1.362zm14.107-.967c0-1.113.194-2.219.582-3.318a10.858 10.858 0 0 1 1.57-2.955 8.569 8.569 0 0 1 2.286-2.12c.864-.542 1.765-.813 2.703-.813.322 0 .597.022.824.066.227.044.457.131.692.263a6.83 6.83 0 0 0-.868-1.34 43.9 43.9 0 0 0-1.132-1.33 99.787 99.787 0 0 0-1.208-1.34c-.41-.447-.777-.897-1.099-1.351a7.973 7.973 0 0 1-.79-1.373 3.408 3.408 0 0 1-.309-1.396c0-.337.06-.688.176-1.054.117-.367.337-.736.66-1.11.322-.373.765-.74 1.329-1.099.564-.358 1.292-.699 2.186-1.021.776-.279 1.53-.56 2.263-.846a45.028 45.028 0 0 0 2.055-.857 19.859 19.859 0 0 0 1.725-.868 7.984 7.984 0 0 0 1.274-.879l.11 1.67c-.22.278-.517.546-.89.802a9.409 9.409 0 0 1-1.274.725c-.477.227-.986.443-1.528.648-.542.205-1.084.396-1.626.572-1.01.322-1.849.637-2.515.944-.667.308-1.198.627-1.593.956-.396.33-.674.681-.835 1.055a3.102 3.102 0 0 0-.242 1.241c0 .484.099.923.297 1.319.197.395.46.783.79 1.164.33.381.718.773 1.165 1.176a38.067 38.067 0 0 1 2.45 2.428c.322.351.6.725.835 1.12.234.396.421.828.56 1.297.14.468.209 1.01.209 1.626 0 .44-.07.988-.209 1.648-.139.659-.348 1.347-.626 2.065s-.63 1.44-1.055 2.164a9.59 9.59 0 0 1-1.494 1.945 7.395 7.395 0 0 1-1.933 1.395 5.231 5.231 0 0 1-2.373.539c-.938 0-1.696-.29-2.275-.868-.578-.579-.867-1.542-.867-2.89zm9.096-6.284c0-.923-.146-1.556-.44-1.9-.292-.345-.673-.517-1.142-.517-.703 0-1.388.227-2.054.681-.667.454-1.26 1.07-1.78 1.846s-.938 1.68-1.253 2.714a11.202 11.202 0 0 0-.472 3.284c0 .616.055 1.128.165 1.539.11.41.26.74.45.988.19.25.41.429.66.539.249.11.52.164.812.164.528 0 1.019-.164 1.473-.494.454-.33.868-.762 1.241-1.296.374-.535.707-1.14 1-1.813a16.65 16.65 0 0 0 .736-2.044c.198-.688.348-1.355.45-2 .103-.644.154-1.208.154-1.691zm3.186 5.45c0-1.32.355-2.634 1.066-3.945.71-1.31 1.63-2.377 2.757-3.197 1.128-.82 2.278-1.23 3.45-1.23 1.23 0 2.223.406 2.977 1.22.755.812 1.132 1.863 1.132 3.152 0 1.406-.348 2.769-1.044 4.087-.695 1.319-1.611 2.399-2.746 3.241-1.135.842-2.282 1.264-3.439 1.264-1.245 0-2.248-.422-3.01-1.264-.762-.842-1.143-1.952-1.143-3.329zm9.405-4.835c0-.879-.217-1.604-.649-2.175-.432-.571-.985-.857-1.659-.857-.615 0-1.204.198-1.768.593-.564.396-1.08.974-1.55 1.736-.527.88-.963 1.904-1.307 3.076-.344 1.172-.516 2.212-.516 3.12 0 1.084.212 1.92.637 2.505.425.586 1.033.88 1.824.88 1.274 0 2.395-.887 3.362-2.66.498-.908.893-1.926 1.186-3.054.293-1.128.44-2.182.44-3.164zm2.263 17.776l4.153-20.676 2.109-.901-1.45 6.306c1.084-2.182 2.105-3.754 3.065-4.713.96-.96 2.01-1.44 3.153-1.44.879 0 1.575.323 2.087.968.513.644.77 1.53.77 2.658 0 1.143-.231 2.315-.693 3.516a11.234 11.234 0 0 1-1.944 3.274c-1.51 1.816-3.172 2.724-4.988 2.724-1.143 0-2.08-.3-2.813-.9l-2.263 9.184h-1.186zm3.779-10.635c.615 1.202 1.48 1.802 2.593 1.802 1.611 0 3.017-1.31 4.219-3.933.981-2.11 1.472-3.882 1.472-5.317 0-.777-.147-1.377-.44-1.802-.293-.425-.71-.637-1.252-.637-.88 0-1.802.578-2.769 1.736a17.964 17.964 0 0 0-2.35 3.823c-.25.556-.48 1.15-.693 1.78-.212.63-.414 1.274-.604 1.933l-.176.615zm20.918-1.494l.395.33c-.908 1.201-1.794 2.069-2.658 2.604a5.21 5.21 0 0 1-2.79.802c-1.187 0-2.14-.396-2.857-1.187-.718-.791-1.077-1.838-1.077-3.142 0-1.318.348-2.655 1.044-4.01.696-1.355 1.567-2.476 2.615-3.362 1.047-.886 2.083-1.33 3.109-1.33.6 0 1.095.177 1.483.528.388.352.582.806.582 1.362 0 1.128-.615 2.256-1.846 3.384-1.23 1.128-2.907 2.088-5.031 2.879a3.212 3.212 0 0 0-.022.395c0 1.01.278 1.835.835 2.472.556.637 1.274.956 2.153.956.689 0 1.355-.216 2-.648.644-.432 1.333-1.11 2.065-2.033zm-7.031-1.67c1.582-.703 2.798-1.486 3.647-2.35a8.02 8.02 0 0 0 1.384-1.89c.352-.674.528-1.282.528-1.824 0-.689-.315-1.033-.945-1.033-.952 0-1.915.75-2.89 2.252-.974 1.502-1.548 3.117-1.724 4.845zm25.95-6.877l2.153-.901-1.802 6.987c-.22.865-.37 1.542-.45 2.033-.081.49-.121.853-.121 1.087 0 .47.08.846.241 1.132.162.286.374.428.638.428.454 0 1.179-.542 2.175-1.625l.351.307-.22.242c-.424.498-.787.912-1.087 1.241-.3.33-.553.583-.758.758-.41.337-.776.506-1.099.506-.454 0-.838-.227-1.153-.681-.315-.455-.473-1.033-.473-1.736 0-.367.052-.887.154-1.56.103-.674.242-1.494.418-2.461h-5.098l-1.384 5.954-1.472.462 2.329-12.173 2.087-.901-1.384 5.91h5.076a273.535 273.535 0 0 0 .879-5.01zm16.809-1.033l-2.066 8.042c-.22.88-.33 1.568-.33 2.066 0 .439.096.82.286 1.142.19.322.425.484.703.484.425 0 1.128-.52 2.11-1.56l.307.307-.241.286c-.777.893-1.374 1.52-1.791 1.878-.418.36-.78.539-1.088.539-.469 0-.875-.246-1.22-.736-.344-.491-.516-1.059-.516-1.703 0-.469.176-1.531.528-3.186l.175-.835a16.31 16.31 0 0 1-2.175 3.625c-1.523 1.934-2.98 2.9-4.372 2.9-.835 0-1.495-.3-1.978-.9-.483-.6-.725-1.406-.725-2.417 0-1.377.392-2.82 1.175-4.329.784-1.509 1.758-2.75 2.923-3.724 1.164-.974 2.296-1.461 3.395-1.461 1.157 0 2.021.424 2.592 1.274l.242-.835 2.066-.857zm-2.527 2.813c-.176-.557-.473-.993-.89-1.308a2.326 2.326 0 0 0-1.44-.472c-.644 0-1.325.297-2.043.89-.718.593-1.377 1.417-1.977 2.472-.47.835-.861 1.757-1.176 2.768-.315 1.011-.472 1.846-.472 2.505 0 .747.142 1.333.428 1.758.286.425.692.637 1.22.637.673 0 1.377-.315 2.109-.945.732-.63 1.457-1.53 2.175-2.702.44-.674.784-1.348 1.033-2.022.249-.674.527-1.611.835-2.812l.198-.77zm13.996 6.877c-.893 1.26-1.761 2.18-2.604 2.758a4.838 4.838 0 0 1-2.801.868c-1.128 0-2.047-.396-2.758-1.187-.71-.791-1.065-1.816-1.065-3.076 0-1.318.344-2.659 1.032-4.021.689-1.362 1.571-2.49 2.648-3.384 1.077-.893 2.113-1.34 3.11-1.34.673 0 1.215.187 1.625.56.41.374.615.875.615 1.505 0 .571-.216 1.117-.648 1.637-.432.52-.897.78-1.395.78a.82.82 0 0 1-.593-.263c.952-.425 1.428-1.216 1.428-2.374 0-.41-.106-.728-.319-.955-.212-.227-.494-.34-.846-.34-.542 0-1.087.219-1.637.658-.549.44-1.065 1.051-1.549 1.835-.483.784-.86 1.619-1.131 2.505a9.157 9.157 0 0 0-.407 2.692c0 1.084.257 1.962.77 2.636.512.674 1.186 1.011 2.02 1.011.719 0 1.414-.227 2.088-.681.674-.454 1.377-1.15 2.11-2.088l.307.264zm8.394-7.602a2.18 2.18 0 0 1-.56 1.505c-.374.417-.817.626-1.33.626-.44 0-.806-.14-1.098-.418-.293-.278-.44-.651-.44-1.12a2.23 2.23 0 0 1 .956-1.879c.286-.198.597-.296.934-.296.468 0 .842.146 1.12.439.279.293.418.674.418 1.143zm-1.846 9.008a2.18 2.18 0 0 1-.56 1.505c-.374.418-.817.627-1.33.627-1.025 0-1.538-.513-1.538-1.538a2.23 2.23 0 0 1 .956-1.879c.286-.198.597-.297.934-.297.469 0 .842.147 1.12.44.279.293.418.674.418 1.142z"/>
</svg>
