<svg xmlns="http://www.w3.org/2000/svg" width="485" height="93" viewBox="0 0 485 93">
    <path fill="#FFF" fill-rule="evenodd" d="M18.183 30h-2.11l5.032-22.852c.205-.908.308-1.582.308-2.021 0-.498-.121-.894-.363-1.187-.242-.293-.575-.439-1-.439-1.303 0-2.849 1.45-4.636 4.35-.703 1.128-1.454 2.476-2.252 4.044a103.185 103.185 0 0 0-2.142 4.449 87.238 87.238 0 0 0-1.912 4.625 86.004 86.004 0 0 0-1.714 4.9l-1.165 3.714-.131.417H4.23l.132-.44c.967-3.34 2.058-7.99 3.274-13.952.468-2.241.879-4.35 1.23-6.328.484-2.652.725-4.497.725-5.537 0-.542-.058-1.03-.175-1.462-.118-.432-.282-.758-.495-.977a1.019 1.019 0 0 0-.758-.33C6.977.974 5.98 2.44 5.175 5.37c-.63 2.24-1.048 4.27-1.253 6.086L2.208 10.27c.293-1.832.748-3.52 1.363-5.065.615-1.546 1.31-2.747 2.087-3.604C6.435.743 7.218.315 8.01.315c.938 0 1.674.505 2.209 1.516.534 1.01.802 2.41.802 4.197 0 1.465-.14 3.076-.418 4.834-.19 1.201-.395 2.395-.615 3.581l-1.12 5.406.197-.484c1.274-3.105 2.494-5.793 3.658-8.064 1.165-2.27 2.253-4.109 3.263-5.515 1.817-2.475 3.501-3.713 5.054-3.713.718 0 1.307.252 1.769.758.461.505.692 1.16.692 1.966 0 .689-.125 1.597-.374 2.725L18.183 30zm3.8 8.723l4.154-20.676 2.11-.901-1.451 6.306c1.084-2.182 2.106-3.754 3.065-4.713.96-.96 2.01-1.44 3.153-1.44.88 0 1.575.323 2.088.968.512.644.769 1.53.769 2.658 0 1.143-.231 2.315-.693 3.516a11.234 11.234 0 0 1-1.944 3.274c-1.509 1.816-3.171 2.724-4.988 2.724-1.142 0-2.08-.3-2.812-.9l-2.264 9.184h-1.186zm3.78-10.635c.615 1.202 1.48 1.802 2.593 1.802 1.611 0 3.018-1.31 4.219-3.933.981-2.11 1.472-3.882 1.472-5.317 0-.777-.147-1.377-.44-1.802-.293-.425-.71-.637-1.252-.637-.879 0-1.802.578-2.769 1.736a17.964 17.964 0 0 0-2.35 3.823c-.25.556-.48 1.15-.693 1.78-.212.63-.414 1.274-.604 1.933l-.176.615zm16.392-10.942l-2.132 8.503c-.19.762-.285 1.407-.285 1.934 0 .513.16.923.483 1.23.322.308.74.462 1.253.462 1.245 0 2.541-1.018 3.889-3.054l.088-.132c.029-.147.051-.264.066-.352l1.384-7.69 2.153-.901-1.933 7.229c-.323 1.187-.484 2.139-.484 2.856 0 .47.08.85.242 1.143.161.293.373.44.637.44.454 0 1.18-.543 2.175-1.627l.352.308-.22.242c-.835.981-1.45 1.644-1.845 1.988-.396.345-.762.517-1.1.517-.453 0-.838-.231-1.153-.692-.315-.462-.472-1.037-.472-1.725 0-.22.007-.425.022-.616-1.524 2.022-3.032 3.033-4.526 3.033-.748 0-1.344-.216-1.791-.648-.447-.433-.67-1.008-.67-1.725 0-.557.08-1.238.241-2.044l1.494-7.778 2.132-.901zm20.039 6.284c1.025-1.977 2.102-3.45 3.23-4.416 1.128-.967 2.234-1.45 3.318-1.45.483 0 .886.073 1.208.22.322.146.582.35.78.614.198.264.337.579.418.945.08.366.12.777.12 1.23 0 .616-.087 1.286-.263 2.011a12.75 12.75 0 0 1-.747 2.176c-.322.725-.71 1.424-1.165 2.098-.454.674-.96 1.27-1.516 1.79s-1.16.938-1.813 1.253a4.618 4.618 0 0 1-2.032.473c-.264 0-.579-.04-.945-.121-.366-.08-.714-.275-1.044-.583-.33-.307-.608-.769-.835-1.384-.227-.615-.34-1.465-.34-2.549 0-.923.066-1.911.198-2.966.131-1.055.351-2.27.659-3.647a12.647 12.647 0 0 1-1.648.11l.088-.594c.278 0 .582-.015.912-.044.33-.03.604-.08.824-.154a45.683 45.683 0 0 1 1.856-5.844c.74-1.875 1.56-3.538 2.461-4.988.901-1.45 1.857-2.611 2.868-3.483 1.01-.871 2.028-1.307 3.054-1.307.425 0 .787.077 1.087.23.3.154.542.356.726.605.183.249.318.538.406.868.088.33.132.67.132 1.021 0 .806-.15 1.634-.45 2.483-.3.85-.718 1.692-1.253 2.527a18.943 18.943 0 0 1-1.868 2.44 26.004 26.004 0 0 1-4.856 4.208 22.864 22.864 0 0 1-2.625 1.526c-.088.337-.176.703-.264 1.099-.088.395-.176.802-.264 1.22-.088.417-.168.83-.241 1.24-.074.41-.132.792-.176 1.143zm0 3.692c0 .293.018.597.055.911.036.315.11.605.22.868.11.264.263.484.46.66.199.175.451.263.759.263.527 0 1.033-.157 1.516-.472a5.825 5.825 0 0 0 1.351-1.253c.418-.52.795-1.113 1.132-1.78a16.28 16.28 0 0 0 1.428-4.12 9.497 9.497 0 0 0 .198-1.801c0-.703-.11-1.209-.33-1.516-.22-.308-.57-.462-1.054-.462-.323 0-.689.114-1.099.341-.41.227-.828.538-1.252.934a10.57 10.57 0 0 0-1.253 1.417 11.21 11.21 0 0 0-1.846 3.834 8.449 8.449 0 0 0-.285 2.176zm1.142-9.141a19.71 19.71 0 0 0 3.68-2.538 19.986 19.986 0 0 0 2.956-3.175c.835-1.128 1.487-2.281 1.956-3.46.468-1.18.703-2.304.703-3.373 0-.718-.095-1.235-.286-1.55-.19-.314-.527-.472-1.01-.472-.44 0-.88.165-1.319.494-.44.33-.871.773-1.296 1.33a15.503 15.503 0 0 0-1.242 1.933 32.544 32.544 0 0 0-1.153 2.319 42.767 42.767 0 0 0-1.022 2.471c-.315.835-.6 1.63-.857 2.384a64.66 64.66 0 0 0-.67 2.077c-.19.63-.337 1.15-.44 1.56zm23.511-.835l-1.933 7.229c-.323 1.187-.484 2.139-.484 2.856 0 .47.08.85.242 1.143.161.293.373.44.637.44.454 0 1.18-.543 2.175-1.627l.352.308-.22.242c-.835.981-1.45 1.644-1.845 1.988-.396.345-.762.517-1.1.517-.453 0-.838-.231-1.153-.692-.315-.462-.472-1.037-.472-1.725 0-.44.088-1.136.264-2.088l1.384-7.69 2.153-.901zm-6.79 4.285c.338 0 .638.029.901.088.264.058.491.168.682.33.19.16.333.384.428.67.095.285.143.648.143 1.087 0 .732-.187 1.49-.56 2.274a8.792 8.792 0 0 1-1.44 2.142 8.135 8.135 0 0 1-1.966 1.593c-.725.418-1.432.627-2.12.627-.748 0-1.344-.216-1.791-.648-.447-.433-.67-1.008-.67-1.725 0-.513.08-1.194.241-2.044l1.494-7.778 2.066-.901-1.978 7.69c.791-1.186 1.582-2.05 2.373-2.592.791-.542 1.524-.813 2.198-.813zm-4.943 6.152c0 .513.16.945.483 1.296.322.352.777.528 1.362.528.381 0 .777-.117 1.187-.352.41-.234.787-.575 1.132-1.022.344-.446.63-1.003.857-1.67.227-.666.34-1.431.34-2.296 0-.527-.077-.94-.23-1.241-.154-.3-.444-.45-.869-.45-.293 0-.611.073-.955.22a4.004 4.004 0 0 0-1.055.691 7.67 7.67 0 0 0-1.077 1.198c-.359.483-.7 1.062-1.021 1.736a6.805 6.805 0 0 0-.154 1.362zm14.106-.967c0-1.113.194-2.219.582-3.318a10.858 10.858 0 0 1 1.572-2.955 8.569 8.569 0 0 1 2.285-2.12c.864-.542 1.765-.813 2.702-.813.323 0 .597.022.824.066.227.044.458.131.692.263a6.83 6.83 0 0 0-.867-1.34c-.36-.44-.737-.883-1.132-1.33a99.8 99.8 0 0 0-1.209-1.34c-.41-.447-.776-.897-1.098-1.351a7.973 7.973 0 0 1-.791-1.373 3.408 3.408 0 0 1-.308-1.396c0-.337.059-.688.176-1.054.117-.367.337-.736.66-1.11.321-.373.765-.74 1.328-1.099.564-.358 1.293-.699 2.187-1.021a87.46 87.46 0 0 0 2.263-.846 45.028 45.028 0 0 0 2.054-.857 19.859 19.859 0 0 0 1.725-.868 7.984 7.984 0 0 0 1.275-.879l.11 1.67c-.22.278-.517.546-.89.802a9.409 9.409 0 0 1-1.275.725c-.476.227-.985.443-1.527.648-.542.205-1.084.396-1.626.572-1.01.322-1.85.637-2.516.944-.666.308-1.197.627-1.593.956-.395.33-.674.681-.835 1.055a3.102 3.102 0 0 0-.241 1.241c0 .484.098.923.296 1.319.198.395.462.783.791 1.164.33.381.718.773 1.165 1.176a38.068 38.068 0 0 1 2.45 2.428c.322.351.6.725.835 1.12.234.396.42.828.56 1.297.14.468.209 1.01.209 1.626 0 .44-.07.988-.209 1.648-.14.659-.348 1.347-.626 2.065-.279.718-.63 1.44-1.055 2.164a9.59 9.59 0 0 1-1.494 1.945 7.395 7.395 0 0 1-1.934 1.395 5.231 5.231 0 0 1-2.373.539c-.937 0-1.695-.29-2.274-.868-.578-.579-.868-1.542-.868-2.89zm9.097-6.284c0-.923-.147-1.556-.44-1.9-.293-.345-.673-.517-1.142-.517-.703 0-1.388.227-2.055.681-.666.454-1.26 1.07-1.78 1.846s-.937 1.68-1.252 2.714a11.202 11.202 0 0 0-.472 3.284c0 .616.055 1.128.165 1.539.11.41.26.74.45.988.19.25.41.429.66.539.248.11.52.164.812.164.528 0 1.018-.164 1.472-.494.454-.33.868-.762 1.242-1.296.373-.535.707-1.14 1-1.813a16.65 16.65 0 0 0 .736-2.044c.197-.688.348-1.355.45-2 .103-.644.154-1.208.154-1.691zm3.186 5.45c0-1.32.355-2.634 1.066-3.945.71-1.31 1.63-2.377 2.757-3.197 1.128-.82 2.278-1.23 3.45-1.23 1.23 0 2.223.406 2.977 1.22.755.812 1.132 1.863 1.132 3.152 0 1.406-.348 2.769-1.044 4.087-.696 1.319-1.611 2.399-2.747 3.241-1.135.842-2.281 1.264-3.438 1.264-1.245 0-2.249-.422-3.01-1.264-.762-.842-1.143-1.952-1.143-3.329zm9.404-4.835c0-.879-.216-1.604-.648-2.175-.432-.571-.985-.857-1.659-.857-.615 0-1.205.198-1.769.593-.564.396-1.08.974-1.549 1.736-.527.88-.963 1.904-1.307 3.076-.344 1.172-.517 2.212-.517 3.12 0 1.084.213 1.92.638 2.505.425.586 1.032.88 1.823.88 1.275 0 2.395-.887 3.362-2.66.498-.908.894-1.926 1.187-3.054.293-1.128.44-2.182.44-3.164zm2.263 17.776l4.153-20.676 2.11-.901-1.45 6.306c1.083-2.182 2.105-3.754 3.065-4.713.96-.96 2.01-1.44 3.153-1.44.879 0 1.574.323 2.087.968.513.644.77 1.53.77 2.658 0 1.143-.232 2.315-.693 3.516a11.234 11.234 0 0 1-1.945 3.274c-1.508 1.816-3.171 2.724-4.987 2.724-1.143 0-2.08-.3-2.813-.9l-2.263 9.184h-1.187zm3.78-10.635c.615 1.202 1.48 1.802 2.592 1.802 1.612 0 3.018-1.31 4.22-3.933.98-2.11 1.471-3.882 1.471-5.317 0-.777-.146-1.377-.44-1.802-.292-.425-.71-.637-1.251-.637-.88 0-1.802.578-2.77 1.736a17.964 17.964 0 0 0-2.35 3.823c-.25.556-.48 1.15-.692 1.78-.213.63-.414 1.274-.605 1.933l-.175.615zm20.918-1.494l.395.33c-.908 1.201-1.794 2.069-2.659 2.604a5.21 5.21 0 0 1-2.79.802c-1.187 0-2.139-.396-2.856-1.187-.718-.791-1.077-1.838-1.077-3.142 0-1.318.348-2.655 1.044-4.01.695-1.355 1.567-2.476 2.614-3.362 1.048-.886 2.084-1.33 3.11-1.33.6 0 1.094.177 1.483.528.388.352.582.806.582 1.362 0 1.128-.615 2.256-1.846 3.384-1.23 1.128-2.908 2.088-5.032 2.879a3.212 3.212 0 0 0-.022.395c0 1.01.279 1.835.835 2.472.557.637 1.275.956 2.154.956.688 0 1.355-.216 2-.648.644-.432 1.332-1.11 2.065-2.033zm-7.032-1.67c1.582-.703 2.798-1.486 3.648-2.35a8.02 8.02 0 0 0 1.384-1.89c.352-.674.528-1.282.528-1.824 0-.689-.315-1.033-.945-1.033-.952 0-1.916.75-2.89 2.252-.974 1.502-1.549 3.117-1.725 4.845zm28.763-7.47c-.235.805-.495 1.673-.78 2.603a72.15 72.15 0 0 0-.846 3c-.279 1.069-.506 1.952-.681 2.647-.176.696-.264 1.213-.264 1.55 0 .468.08.845.242 1.131.16.286.373.428.637.428.454 0 1.179-.542 2.175-1.625l.352.307-.22.242c-.425.498-.787.912-1.088 1.241-.3.33-.553.583-.758.758-.41.337-.776.506-1.098.506-.455 0-.84-.227-1.154-.681-.315-.455-.472-1.033-.472-1.736 0-.469.087-1.165.263-2.088l1.494-7.47-1.384.285a1.738 1.738 0 0 0-.79.385c-.235.198-.492.534-.77 1.01-.278.477-.597 1.132-.956 1.967-.359.835-.81 1.912-1.351 3.23-.19.454-.421.963-.692 1.527a10.571 10.571 0 0 1-.934 1.582 6.28 6.28 0 0 1-1.154 1.242c-.417.337-.853.505-1.307.505-.146 0-.308-.007-.483-.022a2.8 2.8 0 0 1-.506-.088l.615-2.35c.293.248.652.373 1.077.373.454 0 .912-.213 1.373-.638.462-.424.905-1.12 1.33-2.087.249-.557.498-1.165.747-1.824s.476-1.289.681-1.89c.205-.6.37-1.138.494-1.614.125-.476.194-.817.21-1.022l-2.352.176.483-.725 7.867-.835zm7.602 8.327c0-.659.088-1.318.264-1.977h-2.725l-1.384 5.954-1.472.462 2.329-12.173 2.087-.901-1.384 5.91h2.79c.147-.41.33-.812.55-1.208.718-1.318 1.64-2.388 2.768-3.208 1.128-.82 2.278-1.23 3.45-1.23 1.23 0 2.223.406 2.977 1.22.755.812 1.132 1.863 1.132 3.152 0 1.406-.348 2.769-1.044 4.087-.695 1.319-1.611 2.399-2.746 3.241-1.136.842-2.282 1.264-3.439 1.264-1.245 0-2.249-.422-3.01-1.264-.762-.842-1.143-1.952-1.143-3.329zm9.404-4.834c0-.879-.216-1.604-.648-2.175-.432-.571-.985-.857-1.659-.857-.615 0-1.204.198-1.768.593-.564.396-1.08.974-1.55 1.736-.527.88-.963 1.904-1.307 3.076-.344 1.172-.516 2.212-.516 3.12 0 1.084.212 1.92.637 2.505.425.586 1.033.88 1.824.88 1.274 0 2.395-.887 3.361-2.66.499-.908.894-1.926 1.187-3.054.293-1.128.44-2.182.44-3.164zm3.956 5.67c0-1.114.194-2.22.582-3.319a10.858 10.858 0 0 1 1.57-2.955 8.569 8.569 0 0 1 2.286-2.12c.864-.542 1.765-.813 2.703-.813.322 0 .597.022.824.066.227.044.457.131.692.263a6.83 6.83 0 0 0-.868-1.34c-.359-.44-.736-.883-1.132-1.33a99.8 99.8 0 0 0-1.208-1.34c-.41-.447-.777-.897-1.099-1.351a7.973 7.973 0 0 1-.79-1.373 3.408 3.408 0 0 1-.309-1.396c0-.337.06-.688.176-1.054.117-.367.337-.736.66-1.11.322-.373.765-.74 1.329-1.099.564-.358 1.293-.699 2.186-1.021a87.46 87.46 0 0 0 2.263-.846 45.028 45.028 0 0 0 2.055-.857 19.859 19.859 0 0 0 1.725-.868 7.984 7.984 0 0 0 1.274-.879l.11 1.67c-.22.278-.517.546-.89.802a9.409 9.409 0 0 1-1.274.725c-.477.227-.986.443-1.528.648-.542.205-1.084.396-1.626.572-1.01.322-1.849.637-2.515.944-.667.308-1.198.627-1.593.956-.396.33-.674.681-.835 1.055a3.102 3.102 0 0 0-.242 1.241c0 .484.099.923.297 1.319.197.395.461.783.79 1.164.33.381.718.773 1.165 1.176a38.068 38.068 0 0 1 2.45 2.428c.322.351.6.725.835 1.12.234.396.421.828.56 1.297.14.468.21 1.01.21 1.626 0 .44-.07.988-.21 1.648-.139.659-.348 1.347-.626 2.065s-.63 1.44-1.055 2.164a9.59 9.59 0 0 1-1.494 1.945 7.395 7.395 0 0 1-1.933 1.395 5.231 5.231 0 0 1-2.373.539c-.938 0-1.696-.29-2.275-.868-.578-.579-.867-1.542-.867-2.89zm9.096-6.285c0-.923-.146-1.556-.44-1.9-.292-.345-.673-.517-1.142-.517-.703 0-1.388.227-2.054.681-.667.454-1.26 1.07-1.78 1.846s-.938 1.68-1.252 2.714a11.202 11.202 0 0 0-.473 3.284c0 .616.055 1.128.165 1.539.11.41.26.74.45.988.19.25.41.429.66.539.249.11.52.164.813.164.527 0 1.018-.164 1.472-.494.454-.33.868-.762 1.241-1.296.374-.535.707-1.14 1-1.813a16.65 16.65 0 0 0 .736-2.044c.198-.688.348-1.355.45-2 .103-.644.154-1.208.154-1.691zm3.186 5.45c0-1.32.355-2.634 1.066-3.945.71-1.31 1.63-2.377 2.758-3.197 1.127-.82 2.277-1.23 3.45-1.23 1.23 0 2.222.406 2.977 1.22.754.812 1.131 1.863 1.131 3.152 0 1.406-.348 2.769-1.044 4.087-.695 1.319-1.61 2.399-2.746 3.241-1.135.842-2.282 1.264-3.439 1.264-1.245 0-2.248-.422-3.01-1.264-.762-.842-1.143-1.952-1.143-3.329zm9.405-4.835c0-.879-.217-1.604-.649-2.175-.432-.571-.985-.857-1.659-.857-.615 0-1.204.198-1.768.593-.564.396-1.08.974-1.55 1.736-.527.88-.963 1.904-1.307 3.076-.344 1.172-.516 2.212-.516 3.12 0 1.084.212 1.92.637 2.505.425.586 1.033.88 1.824.88 1.274 0 2.395-.887 3.362-2.66.498-.908.893-1.926 1.186-3.054.293-1.128.44-2.182.44-3.164zm8.635-10.503c.498.66 1.073 1.147 1.725 1.462.652.314 1.256.472 1.812.472.293 0 .601-.018.923-.055.323-.037.645-.132.967-.286a3.41 3.41 0 0 0 .934-.68c.3-.301.582-.708.846-1.22l.395.22c-.307.703-.68 1.281-1.12 1.735a5.76 5.76 0 0 1-1.363 1.066 5.314 5.314 0 0 1-1.395.538 5.568 5.568 0 0 1-1.175.154c-.22 0-.487-.03-.802-.088a6.362 6.362 0 0 1-.967-.263 5.407 5.407 0 0 1-.956-.45 2.73 2.73 0 0 1-.769-.671l.945-1.934zm-.396 6.702l-2.131 8.503c-.19.762-.286 1.407-.286 1.934 0 .513.161.923.484 1.23.322.308.74.462 1.252.462 1.245 0 2.542-1.018 3.89-3.054l.087-.132c.03-.147.051-.264.066-.352l1.384-7.69 2.154-.901-1.934 7.229c-.322 1.187-.483 2.139-.483 2.856 0 .47.08.85.241 1.143.162.293.374.44.638.44.454 0 1.179-.543 2.175-1.627l.351.308-.22.242c-.834.981-1.45 1.644-1.845 1.988-.395.345-.762.517-1.099.517-.454 0-.838-.231-1.153-.692-.315-.462-.473-1.037-.473-1.725 0-.22.008-.425.022-.616-1.523 2.022-3.032 3.033-4.526 3.033-.747 0-1.344-.216-1.79-.648-.447-.433-.67-1.008-.67-1.725 0-.557.08-1.238.24-2.044l1.495-7.778 2.131-.901zm21.358 0l-2.132 8.503c-.19.762-.285 1.407-.285 1.934 0 .513.16.923.483 1.23.322.308.74.462 1.253.462 1.245 0 2.541-1.018 3.889-3.054l.088-.132c.029-.147.05-.264.066-.352l1.384-7.69 2.153-.901-1.933 7.229c-.323 1.187-.484 2.139-.484 2.856 0 .47.08.85.242 1.143.161.293.373.44.637.44.454 0 1.18-.543 2.175-1.627l.352.308-.22.242c-.835.981-1.45 1.644-1.846 1.988-.395.345-.761.517-1.098.517-.454 0-.839-.231-1.154-.692-.315-.462-.472-1.037-.472-1.725 0-.22.007-.425.022-.616-1.524 2.022-3.032 3.033-4.527 3.033-.747 0-1.344-.216-1.79-.648-.447-.433-.67-1.008-.67-1.725 0-.557.08-1.238.241-2.044l1.494-7.778 2.132-.901zm10.195 3.296c0-.396.132-.784.396-1.165.263-.38.622-.721 1.076-1.021.454-.3.993-.546 1.615-.736a6.92 6.92 0 0 1 2.033-.286c.6 0 1.098.102 1.494.308.395.205.707.465.934.78.227.314.384.659.472 1.032.088.374.132.722.132 1.044 0 .894-.161 1.692-.484 2.395a7.09 7.09 0 0 1-1.274 1.9 10.632 10.632 0 0 1-1.813 1.539c-.68.461-1.373.897-2.076 1.307.483.073.897.26 1.241.56.345.3.63.67.857 1.11.227.44.392.926.495 1.461.102.535.154 1.073.154 1.615.19-.03.37-.051.538-.066.168-.014.348-.03.538-.044.19-.014.4-.022.626-.022h.824l-.11.484c-.292 0-.659.014-1.098.044-.44.029-.872.08-1.297.153a15.827 15.827 0 0 1-.78 3.197 14.87 14.87 0 0 1-1.285 2.703 12.513 12.513 0 0 1-1.659 2.164c-.608.63-1.23 1.161-1.868 1.593a8.153 8.153 0 0 1-1.911.978c-.637.22-1.234.33-1.791.33-.952 0-1.674-.25-2.164-.747-.491-.498-.736-1.143-.736-1.934 0-1.098.307-2.117.923-3.054.615-.938 1.413-1.769 2.395-2.494a15.328 15.328 0 0 1 3.284-1.835 19.184 19.184 0 0 1 3.593-1.098c0-.528-.04-1.055-.12-1.582a4.598 4.598 0 0 0-.451-1.429 2.814 2.814 0 0 0-.923-1.043c-.396-.271-.908-.429-1.538-.473v-.175c.263-.088.597-.224 1-.407a9.703 9.703 0 0 0 1.263-.703c.44-.286.879-.626 1.318-1.022a7.62 7.62 0 0 0 1.187-1.362c.351-.513.637-1.08.857-1.703.22-.623.33-1.307.33-2.054 0-.997-.154-1.707-.462-2.132-.308-.425-.798-.637-1.472-.637-.469 0-.894.099-1.275.297-.38.197-.717.472-1.01.824a4.495 4.495 0 0 0-.726 1.263 6.133 6.133 0 0 0-.373 1.615c-.205-.044-.403-.194-.593-.45-.19-.257-.286-.597-.286-1.022zm3.23 12.766a14.947 14.947 0 0 0-3.35 1.088 11.875 11.875 0 0 0-2.802 1.78 8.457 8.457 0 0 0-1.923 2.35 5.797 5.797 0 0 0-.714 2.824c0 .688.19 1.205.571 1.55.381.343.828.515 1.34.515.806 0 1.6-.256 2.385-.769.783-.512 1.494-1.22 2.131-2.12.637-.9 1.168-1.967 1.593-3.197.425-1.23.681-2.57.769-4.021zm12.524 4.592l1.077-1.45c.85.908 1.81 1.362 2.879 1.362 1.127 0 2.036-.446 2.724-1.34.689-.893 1.253-2.358 1.692-4.394l1.01-4.549c-1.61 1.89-3.068 2.835-4.372 2.835-.762 0-1.358-.235-1.79-.703-.433-.47-.649-1.1-.649-1.89 0-.527.066-1.106.198-1.736l1.494-7.888 2.131-.901-2.13 8.855c-.177.718-.265 1.252-.265 1.604 0 .498.15.905.45 1.22.301.314.7.472 1.198.472.542 0 1.14-.238 1.791-.714.652-.476 1.38-1.19 2.186-2.143l1.89-8.393 2.066-.901-3.208 12.92c-.381 1.553-.744 2.768-1.088 3.647-.344.88-.744 1.612-1.198 2.198-1.435 1.845-3.186 2.768-5.251 2.768-1.201 0-2.146-.293-2.835-.879zm24.324-11.096c-.893 1.26-1.761 2.18-2.604 2.758a4.838 4.838 0 0 1-2.801.868c-1.128 0-2.047-.396-2.758-1.187-.71-.791-1.065-1.816-1.065-3.076 0-1.318.344-2.659 1.032-4.021.689-1.362 1.571-2.49 2.648-3.384 1.077-.893 2.113-1.34 3.11-1.34.673 0 1.215.187 1.625.56.41.374.615.875.615 1.505 0 .571-.216 1.117-.648 1.637-.432.52-.897.78-1.395.78a.82.82 0 0 1-.593-.263c.952-.425 1.428-1.216 1.428-2.374 0-.41-.106-.728-.319-.955-.212-.227-.494-.34-.846-.34-.542 0-1.087.219-1.637.658-.549.44-1.065 1.051-1.549 1.835-.483.784-.86 1.619-1.131 2.505a9.157 9.157 0 0 0-.407 2.692c0 1.084.257 1.962.77 2.636.512.674 1.186 1.011 2.02 1.011.719 0 1.414-.227 2.088-.681.674-.454 1.377-1.15 2.11-2.088l.307.264zm13.535-9.25c-.234.805-.494 1.673-.78 2.603-.285.93-.567 1.93-.846 3-.278 1.069-.505 1.952-.68 2.647-.177.696-.264 1.213-.264 1.55 0 .468.08.845.241 1.131.161.286.374.428.637.428.455 0 1.18-.542 2.176-1.625l.351.307-.22.242a51.85 51.85 0 0 1-1.087 1.241c-.3.33-.553.583-.758.758-.41.337-.777.506-1.099.506-.454 0-.838-.227-1.153-.681-.315-.455-.473-1.033-.473-1.736 0-.469.088-1.165.264-2.088l1.494-7.47-1.384.285a1.738 1.738 0 0 0-.791.385c-.235.198-.491.534-.77 1.01-.278.477-.596 1.132-.955 1.967-.359.835-.81 1.912-1.351 3.23-.19.454-.422.963-.693 1.527a10.57 10.57 0 0 1-.933 1.582 6.28 6.28 0 0 1-1.154 1.242c-.417.337-.853.505-1.307.505-.147 0-.308-.007-.484-.022a2.801 2.801 0 0 1-.505-.088l.615-2.35c.293.248.652.373 1.077.373.454 0 .912-.213 1.373-.638.462-.424.905-1.12 1.33-2.087.248-.557.497-1.165.747-1.824.249-.659.476-1.289.68-1.89.206-.6.37-1.138.495-1.614.125-.476.194-.817.209-1.022l-2.351.176.483-.725 7.866-.835zm.11 20.346l1.077-1.45c.85.908 1.809 1.362 2.878 1.362 1.128 0 2.036-.446 2.725-1.34.688-.893 1.252-2.358 1.692-4.394l1.01-4.549c-1.61 1.89-3.068 2.835-4.372 2.835-.762 0-1.359-.235-1.79-.703-.433-.47-.649-1.1-.649-1.89 0-.527.066-1.106.198-1.736l1.494-7.888 2.131-.901-2.131 8.855c-.176.718-.264 1.252-.264 1.604 0 .498.15.905.45 1.22.3.314.7.472 1.198.472.542 0 1.14-.238 1.79-.714.653-.476 1.382-1.19 2.187-2.143l1.89-8.393 2.065-.901-3.208 12.92c-.38 1.553-.743 2.768-1.087 3.647-.345.88-.744 1.612-1.198 2.198-1.435 1.845-3.186 2.768-5.251 2.768-1.202 0-2.146-.293-2.835-.879zm16.106-17.49c.923-1.01 1.806-1.754 2.648-2.23.842-.476 1.57-.714 2.186-.714.63 0 1.095.154 1.395.461.3.308.45.74.45 1.297 0 .395-.061.776-.186 1.142-.124.366-.33.75-.615 1.154a9.896 9.896 0 0 1-1.132 1.296c-.469.461-1.04.978-1.714 1.55a6.879 6.879 0 0 0-1.01.999 4.29 4.29 0 0 0-.56.89 3.093 3.093 0 0 0-.242.758 3.955 3.955 0 0 0-.055.626c0 .44.128.776.384 1.01.257.235.553.352.89.352.22 0 .454-.018.703-.055.25-.036.528-.128.835-.274a6.25 6.25 0 0 0 1.033-.648c.38-.286.813-.685 1.296-1.198l.286.308c-.689.776-1.318 1.38-1.89 1.812-.571.433-1.087.751-1.549.956-.461.205-.86.33-1.197.374a6.594 6.594 0 0 1-.813.066c-.63 0-1.084-.172-1.363-.517-.278-.344-.417-.758-.417-1.241 0-.337.044-.656.132-.956.088-.3.26-.63.516-.989s.615-.769 1.077-1.23a61.352 61.352 0 0 1 1.79-1.703c.44-.396.792-.754 1.055-1.077.264-.322.462-.622.594-.9.131-.279.22-.546.263-.803.044-.256.066-.516.066-.78 0-.512-.106-.882-.319-1.11-.212-.226-.56-.34-1.043-.34-.147 0-.337.037-.571.11a3.72 3.72 0 0 0-.802.385 7.25 7.25 0 0 0-.978.736 8.108 8.108 0 0 0-1.055 1.142l-.088-.659zm8.855 13.315l-.33-.505c.923-.586 1.681-1.18 2.275-1.78.593-.6.985-1.172 1.175-1.714-.41.323-.79.484-1.142.484-.396 0-.703-.128-.923-.385-.22-.256-.33-.59-.33-1 0-.6.19-1.116.572-1.548.38-.433.85-.649 1.406-.649.454 0 .835.172 1.142.517.308.344.462.772.462 1.285 0 .879-.407 1.816-1.22 2.813-.813.996-1.842 1.823-3.087 2.482zm20.654-10.195c1.026-1.977 2.102-3.45 3.23-4.416 1.128-.967 2.234-1.45 3.318-1.45.484 0 .886.073 1.209.22.322.146.582.35.78.614.198.264.337.579.417.945.08.366.121.777.121 1.23 0 .616-.088 1.286-.264 2.011a12.75 12.75 0 0 1-.747 2.176c-.322.725-.71 1.424-1.164 2.098-.454.674-.96 1.27-1.516 1.79-.557.52-1.161.938-1.813 1.253a4.618 4.618 0 0 1-2.032.473c-.264 0-.58-.04-.945-.121-.367-.08-.714-.275-1.044-.583-.33-.307-.608-.769-.835-1.384-.227-.615-.34-1.465-.34-2.549 0-.923.065-1.911.197-2.966.132-1.055.352-2.27.66-3.647a12.647 12.647 0 0 1-1.648.11l.087-.594c.279 0 .583-.015.912-.044.33-.03.604-.08.824-.154a45.683 45.683 0 0 1 1.857-5.844c.74-1.875 1.56-3.538 2.46-4.988.902-1.45 1.857-2.611 2.868-3.483 1.011-.871 2.029-1.307 3.054-1.307.425 0 .788.077 1.088.23.3.154.542.356.725.605.183.249.319.538.407.868.088.33.131.67.131 1.021 0 .806-.15 1.634-.45 2.483-.3.85-.718 1.692-1.252 2.527a18.943 18.943 0 0 1-1.868 2.44 26.004 26.004 0 0 1-4.856 4.208 22.864 22.864 0 0 1-2.626 1.526c-.088.337-.176.703-.263 1.099-.088.395-.176.802-.264 1.22-.088.417-.169.83-.242 1.24-.073.41-.132.792-.176 1.143zm0 3.692c0 .293.019.597.055.911.037.315.11.605.22.868.11.264.264.484.462.66.197.175.45.263.758.263.527 0 1.032-.157 1.516-.472a5.825 5.825 0 0 0 1.351-1.253c.417-.52.795-1.113 1.132-1.78a16.28 16.28 0 0 0 1.428-4.12 9.497 9.497 0 0 0 .198-1.801c0-.703-.11-1.209-.33-1.516-.22-.308-.571-.462-1.055-.462-.322 0-.688.114-1.098.341-.41.227-.828.538-1.253.934a10.57 10.57 0 0 0-1.252 1.417 11.21 11.21 0 0 0-1.846 3.834 8.449 8.449 0 0 0-.286 2.176zm1.143-9.141a19.71 19.71 0 0 0 3.68-2.538 19.986 19.986 0 0 0 2.956-3.175c.835-1.128 1.487-2.281 1.955-3.46.47-1.18.703-2.304.703-3.373 0-.718-.095-1.235-.285-1.55-.19-.314-.528-.472-1.011-.472-.44 0-.879.165-1.318.494-.44.33-.872.773-1.297 1.33a15.503 15.503 0 0 0-1.241 1.933 32.544 32.544 0 0 0-1.154 2.319 42.768 42.768 0 0 0-1.021 2.471c-.315.835-.601 1.63-.857 2.384a64.66 64.66 0 0 0-.67 2.077c-.191.63-.337 1.15-.44 1.56zm23.51-.835l-1.933 7.229c-.322 1.187-.483 2.139-.483 2.856 0 .47.08.85.241 1.143.162.293.374.44.638.44.454 0 1.179-.543 2.175-1.627l.352.308-.22.242c-.835.981-1.45 1.644-1.846 1.988-.395.345-.762.517-1.099.517-.454 0-.838-.231-1.153-.692-.315-.462-.473-1.037-.473-1.725 0-.44.088-1.136.264-2.088l1.384-7.69 2.154-.901zm-6.789 4.285c.337 0 .637.029.901.088.264.058.49.168.681.33.19.16.333.384.429.67.095.285.143.648.143 1.087 0 .732-.187 1.49-.56 2.274a8.792 8.792 0 0 1-1.44 2.142 8.135 8.135 0 0 1-1.967 1.593c-.725.418-1.431.627-2.12.627-.747 0-1.344-.216-1.79-.648-.447-.433-.67-1.008-.67-1.725 0-.513.08-1.194.24-2.044l1.495-7.778 2.065-.901-1.977 7.69c.79-1.186 1.582-2.05 2.373-2.592.79-.542 1.523-.813 2.197-.813zm-4.944 6.152c0 .513.161.945.484 1.296.322.352.776.528 1.362.528.38 0 .776-.117 1.187-.352.41-.234.787-.575 1.131-1.022.344-.446.63-1.003.857-1.67.227-.666.34-1.431.34-2.296 0-.527-.076-.94-.23-1.241-.154-.3-.443-.45-.868-.45-.293 0-.612.073-.956.22a4.004 4.004 0 0 0-1.054.691 7.67 7.67 0 0 0-1.077 1.198c-.359.483-.7 1.062-1.022 1.736a6.805 6.805 0 0 0-.154 1.362zm21.951 2.637l2.33-12.173 2.087-.901-1.89 8.064c1.216-2.564 2.424-4.512 3.625-5.845 1.202-1.333 2.351-2 3.45-2 .542 0 .982.18 1.318.54.337.358.506.838.506 1.438 0 .337-.08.813-.242 1.428l-.22.923-.659 2.681-.22.857c-.22.879-.33 1.553-.33 2.021 0 .47.081.846.243 1.132.16.286.373.428.637.428.454 0 1.179-.542 2.175-1.625l.352.307-.22.242c-.835.981-1.45 1.644-1.846 1.988-.395.345-.762.517-1.098.517-.455 0-.839-.231-1.154-.692-.315-.462-.472-1.037-.472-1.725 0-.469.087-1.165.263-2.088l.857-4.658c.117-.732.176-1.245.176-1.538 0-.308-.08-.542-.242-.703-.16-.161-.38-.242-.659-.242-1.01 0-2.256 1.084-3.735 3.252a20.69 20.69 0 0 0-1.78 3.087c-.469 1.018-.996 2.428-1.582 4.23l-.198.593-1.472.462zm14.37-4.439c0-1.318.355-2.633 1.066-3.944.71-1.31 1.63-2.377 2.757-3.197 1.128-.82 2.278-1.23 3.45-1.23 1.23 0 2.223.406 2.977 1.22.755.812 1.132 1.863 1.132 3.152 0 1.406-.348 2.769-1.044 4.087-.696 1.319-1.611 2.399-2.746 3.241-1.136.842-2.282 1.264-3.439 1.264-1.245 0-2.249-.422-3.01-1.264-.762-.842-1.143-1.952-1.143-3.329zm9.404-4.834c0-.879-.216-1.604-.648-2.175-.432-.571-.985-.857-1.659-.857-.615 0-1.205.198-1.768.593-.564.396-1.08.974-1.55 1.736-.527.88-.963 1.904-1.307 3.076-.344 1.172-.516 2.212-.516 3.12 0 1.084.212 1.92.637 2.505.425.586 1.033.88 1.824.88 1.274 0 2.395-.887 3.361-2.66.499-.908.894-1.926 1.187-3.054.293-1.128.44-2.182.44-3.164zm15.799-3.493c-.235.805-.495 1.673-.78 2.603-.286.93-.568 1.93-.846 3-.279 1.069-.506 1.952-.681 2.647-.176.696-.264 1.213-.264 1.55 0 .468.08.845.242 1.131.16.286.373.428.637.428.454 0 1.18-.542 2.175-1.625l.352.307-.22.242a51.85 51.85 0 0 1-1.088 1.241c-.3.33-.553.583-.758.758-.41.337-.776.506-1.098.506-.454 0-.839-.227-1.154-.681-.315-.455-.472-1.033-.472-1.736 0-.469.088-1.165.263-2.088l1.495-7.47-1.385.285a1.738 1.738 0 0 0-.79.385c-.235.198-.492.534-.77 1.01-.278.477-.597 1.132-.956 1.967-.359.835-.809 1.912-1.351 3.23-.19.454-.421.963-.692 1.527a10.57 10.57 0 0 1-.934 1.582 6.28 6.28 0 0 1-1.153 1.242c-.418.337-.854.505-1.308.505-.146 0-.307-.007-.483-.022a2.801 2.801 0 0 1-.506-.088l.616-2.35c.293.248.651.373 1.076.373.454 0 .912-.213 1.374-.638.461-.424.904-1.12 1.329-2.087.249-.557.498-1.165.747-1.824s.476-1.289.681-1.89c.205-.6.37-1.138.495-1.614.124-.476.194-.817.208-1.022l-2.35.176.483-.725 7.866-.835zm.11 20.346l1.076-1.45c.85.908 1.81 1.362 2.879 1.362 1.128 0 2.036-.446 2.724-1.34.689-.893 1.253-2.358 1.692-4.394l1.011-4.549c-1.611 1.89-3.069 2.835-4.373 2.835-.761 0-1.358-.235-1.79-.703-.432-.47-.649-1.1-.649-1.89 0-.527.066-1.106.198-1.736l1.494-7.888 2.132-.901-2.132 8.855c-.175.718-.263 1.252-.263 1.604 0 .498.15.905.45 1.22.3.314.7.472 1.198.472.542 0 1.139-.238 1.79-.714.652-.476 1.381-1.19 2.187-2.143l1.89-8.393 2.065-.901-3.208 12.92c-.381 1.553-.744 2.768-1.088 3.647-.344.88-.743 1.612-1.197 2.198-1.436 1.845-3.186 2.768-5.252 2.768-1.201 0-2.146-.293-2.834-.879zm15.095-14.106c1.26-1.524 2.102-2.944 2.527-4.263-1.187-.659-1.78-1.604-1.78-2.834 0-.586.14-1.062.417-1.429.279-.366.63-.549 1.055-.549.44 0 .798.202 1.077.604.278.403.417.927.417 1.571 0 .455-.08.96-.241 1.517.395.102.754.153 1.076.153.908 0 1.655-.263 2.241-.79h1.055l-.154.307a41.954 41.954 0 0 0-2.603 5.702c-.682 1.868-1.022 3.263-1.022 4.186 0 .337.088.619.263.846.176.227.389.34.638.34.6 0 1.567-.637 2.9-1.911l.352.395c-.41.454-1.048 1.018-1.912 1.692-.776.615-1.501.923-2.175.923-.572 0-1.022-.19-1.352-.571-.33-.381-.494-.901-.494-1.56 0-1.1.425-2.49 1.274-4.175.308-.63.704-1.348 1.187-2.154a84.035 84.035 0 0 1 1.824-2.878l.22-.308c-.484.44-.95.751-1.396.934-.447.183-.956.275-1.527.275-.264 0-.542-.037-.835-.11-.469 1.435-1.348 2.915-2.637 4.438l-.395-.351zm3.01-5.581c.059-.366.088-.674.088-.923 0-.513-.084-.916-.253-1.209-.168-.293-.384-.439-.648-.439-.146 0-.275.07-.384.209a.807.807 0 0 0-.165.516c0 .689.454 1.304 1.362 1.846zm11.184-.967l-2.131 8.503c-.19.762-.286 1.407-.286 1.934 0 .513.161.923.484 1.23.322.308.74.462 1.252.462 1.245 0 2.542-1.018 3.89-3.054l.087-.132c.03-.147.051-.264.066-.352l1.384-7.69 2.154-.901-1.934 7.229c-.322 1.187-.483 2.139-.483 2.856 0 .47.08.85.241 1.143.161.293.374.44.638.44.454 0 1.179-.543 2.175-1.627l.351.308-.22.242c-.834.981-1.45 1.644-1.845 1.988-.396.345-.762.517-1.099.517-.454 0-.838-.231-1.153-.692-.315-.462-.473-1.037-.473-1.725 0-.22.008-.425.022-.616-1.523 2.022-3.032 3.033-4.526 3.033-.747 0-1.344-.216-1.79-.648-.448-.433-.671-1.008-.671-1.725 0-.557.08-1.238.242-2.044l1.494-7.778 2.131-.901zm17.952 12.612l-1.45.462 1.735-8.943.154-.77c.088-.424.132-.776.132-1.054 0-.644-.256-.967-.769-.967-.483 0-1.07.326-1.758.978-.688.652-1.413 1.593-2.175 2.824a24.743 24.743 0 0 0-1.285 2.285 23.64 23.64 0 0 0-.99 2.34c-.3.827-.589 1.776-.867 2.845l-1.362.462 2.263-12.173 2.11-.901-1.912 7.976c.981-2.27 2.105-4.134 3.372-5.592 1.267-1.457 2.406-2.186 3.417-2.186 1.099 0 1.648.622 1.648 1.867 0 .425-.11 1.18-.33 2.264l-.725 3.274c1.421-2.725 2.622-4.648 3.604-5.768.981-1.12 1.955-1.681 2.922-1.681.542 0 .967.16 1.275.483.307.322.461.784.461 1.384 0 .484-.146 1.319-.44 2.505l-.68 2.703-.22.857c-.205.908-.308 1.582-.308 2.021 0 .47.08.846.242 1.132.161.286.366.428.615.428.469 0 1.201-.542 2.197-1.625l.33.307-.198.242c-.835.981-1.454 1.644-1.857 1.988-.402.345-.772.517-1.11.517-.453 0-.838-.231-1.153-.692-.315-.462-.472-1.037-.472-1.725 0-.425.095-1.12.286-2.088l.813-4.548.131-.791c.088-.44.132-.791.132-1.055 0-.263-.08-.476-.242-.637-.16-.161-.38-.242-.659-.242-.322 0-.677.136-1.065.407-.389.27-.802.685-1.242 1.241-.44.557-.93 1.29-1.472 2.198-.732 1.245-1.326 2.406-1.78 3.482-.454 1.077-.893 2.399-1.318 3.966zm21.423-3.164l.396.33c-.909 1.201-1.795 2.069-2.659 2.604a5.21 5.21 0 0 1-2.79.802c-1.187 0-2.14-.396-2.857-1.187-.718-.791-1.077-1.838-1.077-3.142 0-1.318.348-2.655 1.044-4.01.696-1.355 1.567-2.476 2.615-3.362 1.047-.886 2.084-1.33 3.109-1.33.6 0 1.095.177 1.483.528.388.352.582.806.582 1.362 0 1.128-.615 2.256-1.845 3.384-1.23 1.128-2.908 2.088-5.032 2.879a3.212 3.212 0 0 0-.022.395c0 1.01.278 1.835.835 2.472.557.637 1.274.956 2.153.956.689 0 1.355-.216 2-.648.644-.432 1.333-1.11 2.065-2.033zm-7.031-1.67c1.582-.703 2.798-1.486 3.647-2.35a8.02 8.02 0 0 0 1.385-1.89c.351-.674.527-1.282.527-1.824 0-.689-.315-1.033-.945-1.033-.952 0-1.915.75-2.89 2.252-.973 1.502-1.548 3.117-1.724 4.845zM2.89 72.047l2.087-.901-1.912 8.152c.367-.66.751-1.3 1.154-1.923a28.419 28.419 0 0 1 2.46-3.274c.404-.461.788-.86 1.154-1.197.337-.308.641-.568.912-.78.271-.213.55-.388.835-.528.286-.139.594-.241.923-.307.33-.066.722-.114 1.176-.143l-.418 2.043a3.332 3.332 0 0 0-.857-.197c-.234-.015-.44-.022-.615-.022-.278 0-.59.077-.934.23a4.964 4.964 0 0 0-1.054.66c-.36.285-.71.622-1.055 1.01a8.973 8.973 0 0 0-.956 1.308c.234.571.502 1.238.802 2 .3.761.615 1.486.945 2.175.33.688.655 1.27.978 1.746.322.476.622.714.9.714.645 0 1.392-.446 2.242-1.34l.176-.198.285.33c-1.48 1.787-2.556 2.68-3.23 2.68-.234 0-.461-.043-.681-.131a1.458 1.458 0 0 1-.593-.462 5.47 5.47 0 0 1-.703-1.098c-.22-.44-.447-.93-.682-1.472a96.841 96.841 0 0 1-.725-1.725 54.153 54.153 0 0 0-.813-1.879 19.461 19.461 0 0 0-1.57 2.703c-.491 1.01-.861 2.204-1.11 3.581l-1.407.396L2.89 72.047zm23.027-1.033l-2.065 8.042c-.22.88-.33 1.568-.33 2.066 0 .439.095.82.286 1.142.19.322.424.484.703.484.425 0 1.128-.52 2.11-1.56l.307.307-.242.286c-.776.893-1.373 1.52-1.79 1.878-.418.36-.78.539-1.088.539-.47 0-.876-.246-1.22-.736-.344-.491-.516-1.059-.516-1.703 0-.469.176-1.531.527-3.186l.176-.835a16.31 16.31 0 0 1-2.175 3.625c-1.524 1.934-2.981 2.9-4.373 2.9-.835 0-1.494-.3-1.977-.9-.484-.6-.726-1.406-.726-2.417 0-1.377.392-2.82 1.176-4.329.784-1.509 1.758-2.75 2.922-3.724 1.165-.974 2.296-1.461 3.395-1.461 1.157 0 2.022.424 2.593 1.274l.242-.835 2.065-.857zm-2.527 2.813c-.176-.557-.472-.993-.89-1.308a2.326 2.326 0 0 0-1.439-.472c-.644 0-1.326.297-2.043.89-.718.593-1.377 1.417-1.978 2.472-.469.835-.86 1.757-1.175 2.768-.315 1.011-.473 1.846-.473 2.505 0 .747.143 1.333.429 1.758.285.425.692.637 1.219.637.674 0 1.377-.315 2.11-.945.732-.63 1.457-1.53 2.175-2.702.44-.674.783-1.348 1.032-2.022.25-.674.528-1.611.835-2.812l.198-.77zm4.768 3.867c1.26-1.524 2.102-2.944 2.527-4.263-1.186-.659-1.78-1.604-1.78-2.834 0-.586.14-1.062.418-1.429.278-.366.63-.549 1.054-.549.44 0 .799.202 1.077.604.278.403.418.927.418 1.571 0 .455-.081.96-.242 1.517.395.102.754.153 1.077.153.908 0 1.655-.263 2.24-.79h1.055l-.153.307a41.954 41.954 0 0 0-2.604 5.702c-.681 1.868-1.022 3.263-1.022 4.186 0 .337.088.619.264.846.176.227.388.34.637.34.6 0 1.567-.637 2.9-1.911l.352.395c-.41.454-1.047 1.018-1.912 1.692-.776.615-1.501.923-2.175.923-.571 0-1.022-.19-1.351-.571-.33-.381-.495-.901-.495-1.56 0-1.1.425-2.49 1.275-4.175.307-.63.703-1.348 1.186-2.154a84.036 84.036 0 0 1 1.824-2.878l.22-.308c-.484.44-.949.751-1.396.934-.446.183-.955.275-1.527.275-.263 0-.542-.037-.835-.11-.468 1.435-1.347 2.915-2.636 4.438l-.396-.351zm3.01-5.581c.06-.366.088-.674.088-.923 0-.513-.084-.916-.252-1.209-.169-.293-.385-.439-.649-.439-.146 0-.274.07-.384.209a.807.807 0 0 0-.165.516c0 .689.454 1.304 1.362 1.846zm15.71 8.481l.396.33c-.908 1.201-1.794 2.069-2.658 2.604a5.21 5.21 0 0 1-2.79.802c-1.187 0-2.14-.396-2.857-1.187-.718-.791-1.077-1.838-1.077-3.142 0-1.318.348-2.655 1.044-4.01.696-1.355 1.567-2.476 2.615-3.362 1.047-.886 2.083-1.33 3.109-1.33.6 0 1.095.177 1.483.528.388.352.582.806.582 1.362 0 1.128-.615 2.256-1.846 3.384-1.23 1.128-2.907 2.088-5.031 2.879a3.212 3.212 0 0 0-.022.395c0 1.01.278 1.835.835 2.472.556.637 1.274.956 2.153.956.688 0 1.355-.216 2-.648.644-.432 1.332-1.11 2.065-2.033zm-7.03-1.67c1.582-.703 2.798-1.486 3.647-2.35a8.02 8.02 0 0 0 1.384-1.89c.352-.674.528-1.282.528-1.824 0-.689-.315-1.033-.945-1.033-.952 0-1.915.75-2.89 2.252-.974 1.502-1.549 3.117-1.724 4.845zm18.171 1.78c-.894 1.26-1.761 2.18-2.604 2.758a4.838 4.838 0 0 1-2.801.868c-1.128 0-2.047-.396-2.758-1.187-.71-.791-1.065-1.816-1.065-3.076 0-1.318.344-2.659 1.032-4.021.689-1.362 1.571-2.49 2.648-3.384 1.077-.893 2.113-1.34 3.11-1.34.673 0 1.215.187 1.625.56.41.374.615.875.615 1.505 0 .571-.216 1.117-.648 1.637-.432.52-.897.78-1.395.78a.82.82 0 0 1-.593-.263c.952-.425 1.428-1.216 1.428-2.374 0-.41-.106-.728-.319-.955-.212-.227-.494-.34-.846-.34-.542 0-1.087.219-1.637.658-.549.44-1.065 1.051-1.549 1.835-.483.784-.86 1.619-1.131 2.505a9.157 9.157 0 0 0-.407 2.692c0 1.084.256 1.962.77 2.636.512.674 1.186 1.011 2.02 1.011.718 0 1.414-.227 2.088-.681.674-.454 1.377-1.15 2.11-2.088l.307.264zm10.371 3.054l-1.45.462 1.736-8.943.154-.77c.087-.424.131-.776.131-1.054 0-.644-.256-.967-.769-.967-.483 0-1.069.326-1.757.978-.689.652-1.414 1.593-2.176 2.824a24.743 24.743 0 0 0-1.285 2.285 23.64 23.64 0 0 0-.989 2.34c-.3.827-.59 1.776-.868 2.845l-1.362.462 2.263-12.173 2.11-.901-1.912 7.976c.981-2.27 2.106-4.134 3.373-5.592 1.267-1.457 2.406-2.186 3.416-2.186 1.099 0 1.648.622 1.648 1.867 0 .425-.11 1.18-.33 2.264l-.724 3.274c1.42-2.725 2.622-4.648 3.603-5.768.982-1.12 1.956-1.681 2.923-1.681.542 0 .966.16 1.274.483.308.322.461.784.461 1.384 0 .484-.146 1.319-.44 2.505l-.68 2.703-.22.857c-.205.908-.308 1.582-.308 2.021 0 .47.081.846.242 1.132.161.286.366.428.615.428.47 0 1.202-.542 2.198-1.626l.33.308-.199.242c-.835.981-1.453 1.644-1.856 1.988-.403.345-.773.517-1.11.517-.454 0-.838-.231-1.153-.692-.315-.462-.473-1.037-.473-1.725 0-.425.095-1.12.286-2.088l.813-4.548.132-.791c.088-.44.131-.791.131-1.055 0-.263-.08-.476-.241-.637-.161-.161-.381-.242-.66-.242-.322 0-.677.136-1.065.407-.388.27-.802.685-1.242 1.241-.439.557-.93 1.29-1.472 2.198-.732 1.245-1.325 2.406-1.78 3.482-.454 1.077-.893 2.399-1.318 3.966zM83.97 77.43c1.025-1.977 2.102-3.45 3.23-4.416 1.128-.967 2.234-1.45 3.318-1.45.483 0 .886.073 1.208.22.322.146.582.35.78.614.198.264.337.579.418.945.08.366.12.777.12 1.23 0 .616-.087 1.286-.263 2.011a12.75 12.75 0 0 1-.747 2.176c-.323.725-.71 1.424-1.165 2.098-.454.674-.96 1.27-1.516 1.79-.557.52-1.16.938-1.813 1.253a4.618 4.618 0 0 1-2.032.473c-.264 0-.579-.04-.945-.121-.366-.08-.714-.275-1.044-.583-.33-.307-.608-.769-.835-1.384-.227-.615-.34-1.465-.34-2.549 0-.923.066-1.911.198-2.966.131-1.055.351-2.27.659-3.647a12.647 12.647 0 0 1-1.648.11l.088-.594c.278 0 .582-.015.912-.044.33-.03.604-.08.823-.154a45.683 45.683 0 0 1 1.857-5.844c.74-1.875 1.56-3.538 2.461-4.988.901-1.45 1.857-2.611 2.868-3.483 1.01-.871 2.028-1.307 3.054-1.307.425 0 .787.077 1.087.23.3.154.542.356.725.605.184.249.32.538.407.868.088.33.132.67.132 1.021 0 .806-.15 1.634-.45 2.483-.3.85-.718 1.692-1.253 2.527a18.943 18.943 0 0 1-1.868 2.44 26.004 26.004 0 0 1-4.856 4.208 22.864 22.864 0 0 1-2.625 1.526c-.088.337-.176.703-.264 1.099-.088.395-.176.802-.264 1.22-.088.417-.168.83-.241 1.24-.074.41-.132.792-.176 1.143zm0 3.692c0 .293.018.597.055.911.036.315.11.605.22.868.11.264.263.484.46.66.199.175.451.263.759.263.527 0 1.033-.157 1.516-.472a5.825 5.825 0 0 0 1.351-1.253c.418-.52.795-1.113 1.132-1.78a16.28 16.28 0 0 0 1.428-4.12 9.497 9.497 0 0 0 .198-1.801c0-.703-.11-1.209-.33-1.516-.22-.308-.571-.462-1.054-.462-.323 0-.689.114-1.099.341-.41.227-.828.538-1.252.934a10.57 10.57 0 0 0-1.253 1.417 11.21 11.21 0 0 0-1.846 3.834 8.449 8.449 0 0 0-.285 2.176zm1.142-9.141a19.71 19.71 0 0 0 3.68-2.538 19.986 19.986 0 0 0 2.956-3.175c.835-1.128 1.487-2.281 1.956-3.46.468-1.18.703-2.304.703-3.373 0-.718-.095-1.235-.286-1.55-.19-.314-.527-.472-1.01-.472-.44 0-.88.165-1.319.494-.44.33-.872.773-1.296 1.33a15.503 15.503 0 0 0-1.242 1.933A32.544 32.544 0 0 0 88.1 63.49a42.768 42.768 0 0 0-1.022 2.471c-.315.835-.6 1.63-.857 2.384a64.66 64.66 0 0 0-.67 2.077c-.19.63-.337 1.15-.44 1.56zm18.721 8.613l.396.33c-.909 1.201-1.795 2.069-2.66 2.604a5.21 5.21 0 0 1-2.79.802c-1.186 0-2.138-.396-2.856-1.187s-1.077-1.838-1.077-3.142c0-1.318.348-2.655 1.044-4.01.696-1.355 1.567-2.476 2.615-3.362 1.047-.886 2.083-1.33 3.109-1.33.6 0 1.095.177 1.483.528.388.352.582.806.582 1.362 0 1.128-.615 2.256-1.845 3.384-1.231 1.128-2.908 2.088-5.032 2.879a3.212 3.212 0 0 0-.022.395c0 1.01.278 1.835.835 2.472.556.637 1.274.956 2.153.956.689 0 1.355-.216 2-.648.644-.432 1.333-1.11 2.065-2.033zm-7.031-1.67c1.582-.703 2.798-1.486 3.647-2.35a8.02 8.02 0 0 0 1.385-1.89c.351-.674.527-1.282.527-1.824 0-.689-.315-1.033-.945-1.033-.952 0-1.915.75-2.89 2.252-.973 1.502-1.548 3.117-1.724 4.845zm18.15-6.877l2.153-.901-1.802 6.987c-.22.865-.37 1.542-.45 2.033-.081.49-.122.853-.122 1.087 0 .47.081.846.242 1.132.161.286.374.428.637.428.454 0 1.18-.542 2.176-1.626l.351.308-.22.242a51.85 51.85 0 0 1-1.087 1.241c-.3.33-.553.583-.758.758-.41.337-.777.506-1.099.506-.454 0-.838-.227-1.153-.681-.315-.455-.473-1.033-.473-1.736 0-.367.051-.887.154-1.56.103-.674.242-1.494.417-2.461h-5.097l-1.384 5.954-1.473.462 2.33-12.173 2.087-.901-1.384 5.91h5.075a273.507 273.507 0 0 0 .879-5.01zm13.622 0l2.154-.901-1.802 6.987c-.22.865-.37 1.542-.45 2.033-.081.49-.121.853-.121 1.087 0 .47.08.846.241 1.132.161.286.374.428.637.428.455 0 1.18-.542 2.176-1.626l.351.308-.22.242a51.85 51.85 0 0 1-1.087 1.241c-.3.33-.553.583-.758.758-.41.337-.777.506-1.099.506-.454 0-.838-.227-1.153-.681-.315-.455-.473-1.033-.473-1.736 0-.367.052-.887.154-1.56.103-.674.242-1.494.418-2.461h-5.098l-1.384 5.954-1.473.462 2.33-12.173 2.087-.901-1.384 5.91h5.075a273.476 273.476 0 0 0 .879-5.01zm4.417 7.734c0-1.318.355-2.633 1.065-3.944.71-1.31 1.63-2.377 2.758-3.197 1.128-.82 2.278-1.23 3.45-1.23 1.23 0 2.223.406 2.977 1.22.754.812 1.132 1.863 1.132 3.152 0 1.406-.348 2.769-1.044 4.087-.696 1.319-1.611 2.399-2.747 3.241-1.135.842-2.281 1.264-3.438 1.264-1.246 0-2.249-.422-3.01-1.264-.762-.842-1.143-1.952-1.143-3.329zm9.404-4.834c0-.879-.216-1.604-.648-2.175-.432-.571-.985-.857-1.66-.857-.614 0-1.204.198-1.768.593-.564.396-1.08.974-1.549 1.736-.527.88-.963 1.904-1.307 3.076-.345 1.172-.517 2.212-.517 3.12 0 1.084.213 1.92.638 2.505.424.586 1.032.88 1.823.88 1.275 0 2.395-.887 3.362-2.66.498-.908.894-1.926 1.187-3.054.293-1.128.439-2.182.439-3.164zm14.722 2.483c1.025-1.977 2.102-3.45 3.23-4.416 1.128-.967 2.234-1.45 3.318-1.45.483 0 .886.073 1.208.22.322.146.582.35.78.614.198.264.337.579.418.945.08.366.12.777.12 1.23 0 .616-.087 1.286-.263 2.011a12.75 12.75 0 0 1-.747 2.176c-.323.725-.71 1.424-1.165 2.098-.454.674-.96 1.27-1.516 1.79-.557.52-1.16.938-1.813 1.253a4.618 4.618 0 0 1-2.032.473c-.264 0-.579-.04-.945-.121-.366-.08-.714-.275-1.044-.583-.33-.307-.608-.769-.835-1.384-.227-.615-.34-1.465-.34-2.549 0-.923.066-1.911.197-2.966.132-1.055.352-2.27.66-3.647a12.647 12.647 0 0 1-1.648.11l.088-.594c.278 0 .582-.015.911-.044.33-.03.605-.08.824-.154a45.683 45.683 0 0 1 1.857-5.844c.74-1.875 1.56-3.538 2.461-4.988.901-1.45 1.857-2.611 2.868-3.483 1.01-.871 2.028-1.307 3.054-1.307.425 0 .787.077 1.087.23.3.154.542.356.725.605.184.249.32.538.407.868.088.33.132.67.132 1.021 0 .806-.15 1.634-.45 2.483-.3.85-.718 1.692-1.253 2.527a18.943 18.943 0 0 1-1.868 2.44 26.004 26.004 0 0 1-4.856 4.208 22.864 22.864 0 0 1-2.625 1.526c-.088.337-.176.703-.264 1.099-.088.395-.176.802-.264 1.22-.088.417-.168.83-.241 1.24-.074.41-.132.792-.176 1.143zm0 3.692c0 .293.018.597.055.911.036.315.11.605.22.868.11.264.263.484.46.66.199.175.451.263.759.263.527 0 1.033-.157 1.516-.472a5.825 5.825 0 0 0 1.351-1.253c.418-.52.795-1.113 1.132-1.78a16.28 16.28 0 0 0 1.428-4.12 9.497 9.497 0 0 0 .198-1.801c0-.703-.11-1.209-.33-1.516-.22-.308-.571-.462-1.054-.462-.323 0-.689.114-1.099.341-.41.227-.828.538-1.252.934a10.57 10.57 0 0 0-1.253 1.417 11.21 11.21 0 0 0-1.846 3.834 8.449 8.449 0 0 0-.285 2.176zm1.142-9.141a19.71 19.71 0 0 0 3.68-2.538 19.986 19.986 0 0 0 2.956-3.175c.835-1.128 1.487-2.281 1.956-3.46.468-1.18.703-2.304.703-3.373 0-.718-.095-1.235-.286-1.55-.19-.314-.527-.472-1.01-.472-.44 0-.88.165-1.319.494-.44.33-.872.773-1.296 1.33a15.503 15.503 0 0 0-1.242 1.933 32.544 32.544 0 0 0-1.153 2.319 42.767 42.767 0 0 0-1.022 2.471c-.315.835-.6 1.63-.857 2.384a64.66 64.66 0 0 0-.67 2.077c-.19.63-.337 1.15-.44 1.56zm23.511-.835l-1.934 7.229c-.322 1.187-.483 2.139-.483 2.856 0 .47.08.85.242 1.143.16.293.373.44.637.44.454 0 1.18-.543 2.175-1.626l.352.307-.22.242c-.835.981-1.45 1.644-1.846 1.988-.395.345-.761.517-1.098.517-.454 0-.839-.231-1.154-.692-.315-.462-.472-1.037-.472-1.725 0-.44.088-1.136.263-2.088l1.385-7.69 2.153-.901zm-6.79 4.285c.337 0 .638.029.901.088.264.058.491.168.682.33.19.16.333.384.428.67.095.285.143.648.143 1.087 0 .732-.187 1.49-.56 2.274a8.792 8.792 0 0 1-1.44 2.142 8.135 8.135 0 0 1-1.966 1.593c-.725.418-1.432.627-2.12.627-.748 0-1.345-.216-1.791-.648-.447-.433-.67-1.008-.67-1.725 0-.513.08-1.194.241-2.044l1.494-7.778 2.066-.901-1.978 7.69c.791-1.186 1.582-2.05 2.373-2.592.791-.542 1.524-.813 2.197-.813zm-4.943 6.152c0 .513.16.945.483 1.296.322.352.776.528 1.362.528.381 0 .777-.117 1.187-.352.41-.234.787-.575 1.131-1.022.345-.446.63-1.003.857-1.67.227-.666.341-1.431.341-2.296 0-.527-.077-.94-.23-1.241-.155-.3-.444-.45-.869-.45-.293 0-.611.073-.955.22a4.004 4.004 0 0 0-1.055.691 7.67 7.67 0 0 0-1.077 1.198c-.359.483-.7 1.062-1.022 1.736a6.805 6.805 0 0 0-.153 1.362zm14.15 2.637l2.33-12.173 2.087-.901-1.89 8.064c1.216-2.564 2.424-4.512 3.625-5.845 1.202-1.333 2.351-2 3.45-2 .542 0 .982.18 1.318.54.337.358.506.838.506 1.438 0 .337-.08.813-.242 1.428l-.22.923-.659 2.681-.22.857c-.22.879-.33 1.553-.33 2.021 0 .47.081.846.243 1.132.16.286.373.428.637.428.454 0 1.179-.542 2.175-1.626l.352.308-.22.242c-.835.981-1.45 1.644-1.846 1.988-.395.345-.761.517-1.098.517-.455 0-.839-.231-1.154-.692-.315-.462-.472-1.037-.472-1.725 0-.469.088-1.165.263-2.088l.857-4.658c.117-.732.176-1.245.176-1.538 0-.308-.08-.542-.242-.703-.16-.161-.38-.242-.659-.242-1.01 0-2.256 1.084-3.735 3.252a20.69 20.69 0 0 0-1.78 3.087c-.469 1.018-.996 2.428-1.582 4.23l-.198.593-1.472.462zm14.37-4.439c0-1.318.355-2.633 1.066-3.944.71-1.31 1.63-2.377 2.757-3.197 1.128-.82 2.278-1.23 3.45-1.23 1.23 0 2.223.406 2.977 1.22.755.812 1.132 1.863 1.132 3.152 0 1.406-.348 2.769-1.044 4.087-.696 1.319-1.611 2.399-2.746 3.241-1.136.842-2.282 1.264-3.439 1.264-1.245 0-2.249-.422-3.01-1.264-.762-.842-1.143-1.952-1.143-3.329zm9.404-4.834c0-.879-.216-1.604-.648-2.175-.432-.571-.985-.857-1.659-.857-.615 0-1.205.198-1.768.593-.564.396-1.08.974-1.55 1.736-.527.88-.963 1.904-1.307 3.076-.344 1.172-.516 2.212-.516 3.12 0 1.084.212 1.92.637 2.505.425.586 1.033.88 1.824.88 1.274 0 2.395-.887 3.361-2.66.499-.908.894-1.926 1.187-3.054.293-1.128.44-2.182.44-3.164zm15.799-3.493c-.235.805-.495 1.673-.78 2.603a72.15 72.15 0 0 0-.846 3c-.279 1.069-.506 1.952-.681 2.647-.176.696-.264 1.213-.264 1.55 0 .468.08.845.242 1.131.16.286.373.428.637.428.454 0 1.18-.542 2.175-1.626l.352.308-.22.242a51.85 51.85 0 0 1-1.088 1.241c-.3.33-.553.583-.758.758-.41.337-.776.506-1.098.506-.454 0-.839-.227-1.154-.681-.315-.455-.472-1.033-.472-1.736 0-.469.088-1.165.263-2.088l1.495-7.47-1.385.285a1.738 1.738 0 0 0-.79.385c-.235.198-.491.534-.77 1.01-.278.477-.597 1.132-.956 1.967-.359.835-.809 1.912-1.35 3.23-.191.454-.422.963-.693 1.527a10.571 10.571 0 0 1-.934 1.582 6.28 6.28 0 0 1-1.153 1.242c-.418.337-.854.505-1.308.505-.146 0-.307-.007-.483-.022a2.801 2.801 0 0 1-.506-.088l.616-2.35c.293.248.651.373 1.076.373.454 0 .912-.213 1.374-.638.461-.424.904-1.12 1.329-2.087.249-.557.498-1.165.747-1.824s.476-1.289.681-1.89c.205-.6.37-1.138.495-1.614.124-.476.194-.817.208-1.022l-2.35.176.483-.725 7.866-.835zm11.272.593l2.153-.901-1.802 6.987c-.22.865-.37 1.542-.45 2.033-.08.49-.121.853-.121 1.087 0 .47.08.846.242 1.132.16.286.373.428.637.428.454 0 1.18-.542 2.175-1.626l.352.308-.22.242a51.85 51.85 0 0 1-1.088 1.241c-.3.33-.553.583-.758.758-.41.337-.776.506-1.098.506-.454 0-.839-.227-1.154-.681-.315-.455-.472-1.033-.472-1.736 0-.367.051-.887.154-1.56.102-.674.241-1.494.417-2.461H228.9l-1.384 5.954-1.472.462 2.329-12.173 2.087-.901-1.384 5.91h5.076a273.535 273.535 0 0 0 .879-5.01zm13.403 8.547l.396.33c-.909 1.201-1.795 2.069-2.66 2.604a5.21 5.21 0 0 1-2.79.802c-1.186 0-2.138-.396-2.856-1.187s-1.077-1.838-1.077-3.142c0-1.318.348-2.655 1.044-4.01.696-1.355 1.567-2.476 2.615-3.362 1.047-.886 2.083-1.33 3.109-1.33.6 0 1.095.177 1.483.528.388.352.582.806.582 1.362 0 1.128-.615 2.256-1.845 3.384-1.23 1.128-2.908 2.088-5.032 2.879a3.212 3.212 0 0 0-.022.395c0 1.01.278 1.835.835 2.472.556.637 1.274.956 2.153.956.689 0 1.355-.216 2-.648.644-.432 1.333-1.11 2.065-2.033zm-7.031-1.67c1.582-.703 2.798-1.486 3.647-2.35a8.02 8.02 0 0 0 1.385-1.89c.351-.674.527-1.282.527-1.824 0-.689-.315-1.033-.945-1.033-.952 0-1.915.75-2.89 2.252-.973 1.502-1.548 3.117-1.724 4.845zm18.15-6.877l2.153-.901-1.802 6.987c-.22.865-.37 1.542-.45 2.033-.081.49-.121.853-.121 1.087 0 .47.08.846.241 1.132.161.286.374.428.637.428.455 0 1.18-.542 2.176-1.626l.351.308-.22.242a51.85 51.85 0 0 1-1.087 1.241c-.3.33-.553.583-.758.758-.41.337-.777.506-1.099.506-.454 0-.838-.227-1.153-.681-.315-.455-.473-1.033-.473-1.736 0-.367.052-.887.154-1.56.103-.674.242-1.494.418-2.461h-5.098l-1.384 5.954-1.473.462 2.33-12.173 2.087-.901-1.384 5.91h5.075a273.535 273.535 0 0 0 .879-5.01zm2.46 19.753l1.077-1.45c.85.908 1.809 1.362 2.878 1.362 1.128 0 2.036-.446 2.725-1.34.688-.893 1.252-2.358 1.692-4.394l1.01-4.549c-1.61 1.89-3.068 2.835-4.372 2.835-.762 0-1.359-.235-1.79-.703-.433-.47-.649-1.1-.649-1.89 0-.527.066-1.106.198-1.736l1.494-7.888 2.131-.901-2.131 8.855c-.176.718-.264 1.252-.264 1.604 0 .498.15.905.45 1.22.3.314.7.472 1.198.472.542 0 1.14-.238 1.79-.714.653-.476 1.382-1.19 2.187-2.143l1.89-8.393 2.065-.901-3.208 12.92c-.38 1.553-.743 2.768-1.087 3.647-.345.88-.744 1.612-1.198 2.198-1.435 1.845-3.186 2.768-5.251 2.768-1.202 0-2.146-.293-2.835-.879zm20.633-12.019c0-.659.087-1.318.263-1.977h-2.724l-1.385 5.954-1.472.462 2.33-12.173 2.087-.901-1.385 5.91h2.79c.147-.41.33-.812.55-1.208.718-1.318 1.64-2.388 2.769-3.208 1.128-.82 2.278-1.23 3.45-1.23 1.23 0 2.222.406 2.977 1.22.754.812 1.131 1.863 1.131 3.152 0 1.406-.348 2.769-1.043 4.087-.696 1.319-1.612 2.399-2.747 3.241-1.135.842-2.281 1.264-3.439 1.264-1.245 0-2.248-.422-3.01-1.264-.762-.842-1.142-1.952-1.142-3.329zm9.404-4.834c0-.879-.216-1.604-.648-2.175-.433-.571-.985-.857-1.66-.857-.615 0-1.204.198-1.768.593-.564.396-1.08.974-1.55 1.736-.527.88-.962 1.904-1.307 3.076-.344 1.172-.516 2.212-.516 3.12 0 1.084.212 1.92.637 2.505.425.586 1.033.88 1.824.88 1.274 0 2.395-.887 3.362-2.66.498-.908.893-1.926 1.186-3.054.293-1.128.44-2.182.44-3.164zm10.063 17.776l4.153-20.676 2.11-.901-1.45 6.306c1.083-2.182 2.105-3.754 3.064-4.713.96-.96 2.011-1.44 3.154-1.44.878 0 1.574.323 2.087.968.513.644.769 1.53.769 2.658 0 1.143-.23 2.315-.692 3.516a11.234 11.234 0 0 1-1.945 3.274c-1.509 1.816-3.171 2.724-4.988 2.724-1.142 0-2.08-.3-2.812-.9l-2.263 9.184h-1.187zm3.78-10.635c.615 1.202 1.48 1.802 2.592 1.802 1.612 0 3.018-1.31 4.22-3.933.98-2.11 1.471-3.882 1.471-5.317 0-.777-.146-1.377-.44-1.802-.292-.425-.71-.637-1.252-.637-.879 0-1.801.578-2.768 1.736a17.964 17.964 0 0 0-2.351 3.823c-.25.556-.48 1.15-.692 1.78-.213.63-.414 1.274-.605 1.933l-.175.615zm24.323-11.074l-2.065 8.042c-.22.88-.33 1.568-.33 2.066 0 .439.096.82.286 1.142.19.322.425.484.703.484.425 0 1.128-.52 2.11-1.56l.307.307-.242.286c-.776.893-1.373 1.52-1.79 1.878-.418.36-.78.539-1.088.539-.469 0-.875-.246-1.22-.736-.344-.491-.516-1.059-.516-1.703 0-.469.176-1.531.527-3.186l.176-.835a16.31 16.31 0 0 1-2.175 3.625c-1.524 1.934-2.981 2.9-4.373 2.9-.835 0-1.494-.3-1.977-.9-.484-.6-.725-1.406-.725-2.417 0-1.377.392-2.82 1.175-4.329.784-1.509 1.758-2.75 2.923-3.724 1.164-.974 2.296-1.461 3.394-1.461 1.158 0 2.022.424 2.593 1.274l.242-.835 2.065-.857zm-2.527 2.813c-.175-.557-.472-.993-.89-1.308a2.326 2.326 0 0 0-1.439-.472c-.644 0-1.325.297-2.043.89-.718.593-1.377 1.417-1.978 2.472-.468.835-.86 1.757-1.175 2.768-.315 1.011-.473 1.846-.473 2.505 0 .747.143 1.333.429 1.758.286.425.692.637 1.22.637.673 0 1.376-.315 2.109-.945.732-.63 1.457-1.53 2.175-2.702.44-.674.784-1.348 1.033-2.022.249-.674.527-1.611.835-2.812l.197-.77zm4.944 6.79c0-1.114.194-2.22.583-3.319a10.858 10.858 0 0 1 1.57-2.955 8.569 8.569 0 0 1 2.286-2.12c.864-.542 1.765-.813 2.702-.813.323 0 .597.022.824.066.227.044.458.131.693.263a6.83 6.83 0 0 0-.868-1.34c-.36-.44-.736-.883-1.132-1.33a99.8 99.8 0 0 0-1.208-1.34c-.41-.447-.777-.897-1.1-1.351a7.973 7.973 0 0 1-.79-1.373 3.408 3.408 0 0 1-.308-1.396c0-.337.059-.688.176-1.054.117-.367.337-.736.66-1.11.321-.373.765-.74 1.329-1.099.564-.358 1.292-.699 2.186-1.021.776-.279 1.53-.56 2.263-.846a45.028 45.028 0 0 0 2.054-.857 19.859 19.859 0 0 0 1.725-.868 7.984 7.984 0 0 0 1.275-.879l.11 1.67c-.22.278-.517.546-.89.802a9.409 9.409 0 0 1-1.275.725c-.476.227-.985.443-1.527.648-.542.205-1.084.396-1.626.572-1.01.322-1.85.637-2.516.944-.666.308-1.197.627-1.593.956-.395.33-.673.681-.835 1.055a3.102 3.102 0 0 0-.241 1.241c0 .484.099.923.296 1.319.198.395.462.783.791 1.164.33.381.718.773 1.165 1.176a38.068 38.068 0 0 1 2.45 2.428c.322.351.6.725.835 1.12.234.396.42.828.56 1.297.14.468.209 1.01.209 1.626 0 .44-.07.988-.209 1.648-.14.659-.348 1.347-.626 2.065s-.63 1.44-1.055 2.164a9.59 9.59 0 0 1-1.494 1.945 7.395 7.395 0 0 1-1.934 1.395 5.231 5.231 0 0 1-2.373.539c-.937 0-1.695-.29-2.274-.868-.578-.579-.868-1.542-.868-2.89zm9.097-6.285c0-.923-.147-1.556-.44-1.9-.292-.345-.673-.517-1.142-.517-.703 0-1.388.227-2.054.681-.667.454-1.26 1.07-1.78 1.846s-.938 1.68-1.253 2.714a11.202 11.202 0 0 0-.472 3.284c0 .616.055 1.128.165 1.539.11.41.26.74.45.988.19.25.41.429.66.539.248.11.52.164.812.164.528 0 1.018-.164 1.472-.494.455-.33.868-.762 1.242-1.296.373-.535.707-1.14 1-1.813a16.65 16.65 0 0 0 .736-2.044c.197-.688.348-1.355.45-2 .103-.644.154-1.208.154-1.691zm3.186 5.45c0-1.32.355-2.634 1.066-3.945.71-1.31 1.63-2.377 2.757-3.197 1.128-.82 2.278-1.23 3.45-1.23 1.23 0 2.223.406 2.977 1.22.755.812 1.132 1.863 1.132 3.152 0 1.406-.348 2.769-1.044 4.087-.696 1.319-1.611 2.399-2.746 3.241-1.136.842-2.282 1.264-3.44 1.264-1.244 0-2.248-.422-3.01-1.264-.761-.842-1.142-1.952-1.142-3.329zm9.404-4.835c0-.879-.216-1.604-.648-2.175-.432-.571-.985-.857-1.659-.857-.615 0-1.205.198-1.769.593-.564.396-1.08.974-1.549 1.736-.527.88-.963 1.904-1.307 3.076-.344 1.172-.516 2.212-.516 3.12 0 1.084.212 1.92.637 2.505.425.586 1.032.88 1.824.88 1.274 0 2.395-.887 3.361-2.66.498-.908.894-1.926 1.187-3.054.293-1.128.44-2.182.44-3.164zm12.635 8.811l-1.45.462 1.735-8.943.154-.77c.088-.424.132-.776.132-1.054 0-.644-.256-.967-.77-.967-.483 0-1.068.326-1.757.978-.688.652-1.414 1.593-2.175 2.824a24.744 24.744 0 0 0-1.286 2.285 23.64 23.64 0 0 0-.988 2.34c-.3.827-.59 1.776-.868 2.845l-1.363.462 2.264-12.173 2.109-.901-1.912 7.976c.982-2.27 2.106-4.134 3.373-5.592 1.267-1.457 2.406-2.186 3.417-2.186 1.098 0 1.648.622 1.648 1.867 0 .425-.11 1.18-.33 2.264l-.725 3.274c1.421-2.725 2.622-4.648 3.604-5.768.981-1.12 1.955-1.681 2.922-1.681.542 0 .967.16 1.274.483.308.322.462.784.462 1.384 0 .484-.147 1.319-.44 2.505l-.68 2.703-.22.857c-.206.908-.308 1.582-.308 2.021 0 .47.08.846.242 1.132.16.286.366.428.615.428.469 0 1.201-.542 2.197-1.626l.33.308-.198.242c-.835.981-1.454 1.644-1.857 1.988-.403.345-.773.517-1.11.517-.454 0-.838-.231-1.153-.692-.315-.462-.472-1.037-.472-1.725 0-.425.095-1.12.285-2.088l.813-4.548.132-.791c.088-.44.132-.791.132-1.055 0-.263-.08-.476-.242-.637-.16-.161-.38-.242-.659-.242-.322 0-.677.136-1.066.407-.388.27-.802.685-1.241 1.241-.44.557-.93 1.29-1.472 2.198-.733 1.245-1.326 2.406-1.78 3.482-.454 1.077-.894 2.399-1.318 3.966zm10.48 8.042l1.077-1.45c.85.908 1.81 1.362 2.879 1.362 1.128 0 2.036-.446 2.724-1.34.689-.893 1.253-2.358 1.692-4.394l1.01-4.549c-1.61 1.89-3.068 2.835-4.372 2.835-.761 0-1.358-.235-1.79-.703-.433-.47-.649-1.1-.649-1.89 0-.527.066-1.106.198-1.736l1.494-7.888 2.132-.901-2.132 8.855c-.176.718-.263 1.252-.263 1.604 0 .498.15.905.45 1.22.3.314.7.472 1.198.472.542 0 1.138-.238 1.79-.714.652-.476 1.38-1.19 2.187-2.143l1.89-8.393 2.065-.901-3.208 12.92c-.381 1.553-.744 2.768-1.088 3.647-.344.88-.743 1.612-1.198 2.198-1.435 1.845-3.186 2.768-5.251 2.768-1.201 0-2.146-.293-2.834-.879zm25.291-35.617l-5.559 22.412-.615.285 3.252-21.379 2.922-1.318zm-6.46 24.5c.513 0 .938.168 1.275.504.336.337.505.762.505 1.275 0 .513-.169.937-.505 1.274-.337.337-.762.506-1.275.506-.498 0-.923-.169-1.274-.506-.352-.337-.528-.761-.528-1.274s.176-.938.528-1.275a1.775 1.775 0 0 1 1.274-.505z"/>
</svg>
